<svg width="40" height="41" viewBox="0 0 40 41" fill="none" xmlns="http://www.w3.org/2000/svg">
<path d="M19.8661 12.2284C19.378 12.7166 19.378 13.508 19.8661 13.9962L25.4822 19.6123H11.25C10.5596 19.6123 10 20.1719 10 20.8623C10 21.5527 10.5596 22.1123 11.25 22.1123H25.4822L19.8661 27.7284C19.378 28.2166 19.378 29.008 19.8661 29.4962C20.3543 29.9843 21.1457 29.9843 21.6339 29.4962L29.3839 21.7462C29.872 21.258 29.872 20.4666 29.3839 19.9784L21.6339 12.2284C21.1457 11.7403 20.3543 11.7403 19.8661 12.2284ZM20 0.862305C8.95431 0.862305 0 9.81661 0 20.8623C0 31.908 8.95431 40.8623 20 40.8623C31.0457 40.8623 40 31.908 40 20.8623C40 9.81661 31.0457 0.862305 20 0.862305ZM2.5 20.8623C2.5 11.1973 10.335 3.3623 20 3.3623C29.665 3.3623 37.5 11.1973 37.5 20.8623C37.5 30.5273 29.665 38.3623 20 38.3623C10.335 38.3623 2.5 30.5273 2.5 20.8623Z" fill="#908484"/>
</svg>
