<svg width="40" height="41" viewBox="0 0 40 41" fill="none" xmlns="http://www.w3.org/2000/svg">
<path d="M20.1339 29.4962C20.622 29.008 20.622 28.2166 20.1339 27.7284L14.5178 22.1123H28.75C29.4404 22.1123 30 21.5527 30 20.8623C30 20.1719 29.4404 19.6123 28.75 19.6123H14.5178L20.1339 13.9962C20.622 13.508 20.622 12.7166 20.1339 12.2284C19.6457 11.7403 18.8543 11.7403 18.3661 12.2284L10.6161 19.9784C10.128 20.4666 10.128 21.258 10.6161 21.7462L18.3661 29.4962C18.8543 29.9843 19.6457 29.9843 20.1339 29.4962ZM20 40.8623C31.0457 40.8623 40 31.908 40 20.8623C40 9.81661 31.0457 0.862305 20 0.862305C8.95431 0.862305 0 9.81661 0 20.8623C0 31.908 8.95431 40.8623 20 40.8623ZM37.5 20.8623C37.5 30.5273 29.665 38.3623 20 38.3623C10.335 38.3623 2.5 30.5273 2.5 20.8623C2.5 11.1973 10.335 3.3623 20 3.3623C29.665 3.3623 37.5 11.1973 37.5 20.8623Z" fill="#908484"/>
</svg>
