<svg width="32" height="32" viewBox="0 0 32 32" fill="none" xmlns="http://www.w3.org/2000/svg">
<path opacity="0.4" d="M29.3333 16.0001C29.3333 23.3639 23.3638 29.3334 16 29.3334C8.63619 29.3334 2.66666 23.3639 2.66666 16.0001C2.66666 8.63629 8.63619 2.66675 16 2.66675C23.3638 2.66675 29.3333 8.63629 29.3333 16.0001Z" fill="#21D969"/>
<path fill-rule="evenodd" clip-rule="evenodd" d="M21.9473 11.2107C22.3832 11.5498 22.4618 12.178 22.1227 12.614L16.78 19.4831C15.9484 20.5524 14.3841 20.6911 13.3773 19.785L9.9977 16.7433C9.58719 16.3739 9.55391 15.7416 9.92337 15.3311C10.2928 14.9206 10.9251 14.8873 11.3356 15.2568L14.7152 18.2984C14.859 18.4278 15.0825 18.408 15.2013 18.2553L20.544 11.3861C20.883 10.9502 21.5113 10.8716 21.9473 11.2107Z" fill="#21D969"/>
</svg>
