<svg width="24" height="34" viewBox="0 0 24 34" fill="none" xmlns="http://www.w3.org/2000/svg">
<path d="M11.3013 12.6124C11.6632 12.7031 12.0342 12.7499 12.4068 12.7518C13.1659 12.7432 13.91 12.5336 14.5668 12.1432C15.2236 11.7529 15.7707 11.1951 16.1551 10.5241C17.399 8.53272 17.4313 5.95063 16.2247 4.51765C15.9604 4.20518 15.6382 3.94952 15.2769 3.76547C15.6238 3.37227 15.8909 2.91223 16.0626 2.41215C16.2343 1.91208 16.3072 1.38198 16.277 0.852757V0.00282788H15.4477C14.2649 -0.0355868 13.1015 0.318235 12.1306 1.01169V0.00282788H10.4721V3.65752C8.16337 2.97078 6.93438 3.85726 6.37794 4.51935C5.17135 5.95233 5.2012 8.53442 6.4476 10.5258C6.92477 11.3677 7.65695 12.027 8.53296 12.4036C9.40898 12.7802 10.381 12.8535 11.3013 12.6124ZM14.5239 1.78768C14.3415 2.45317 13.8066 3.14757 12.2417 3.34815C12.4885 2.93354 12.8205 2.57911 13.2147 2.30959C13.6088 2.04007 14.0556 1.86196 14.5239 1.78768ZM7.63346 5.62426C8.43205 4.67574 10.0607 5.23074 10.9605 5.64721L11.3013 5.8036L11.6422 5.64721C12.5411 5.23074 14.1698 4.67659 14.9692 5.62426C15.6782 6.46654 15.582 8.28964 14.7594 9.60363C14.4526 10.1713 13.9632 10.6123 13.3747 10.8516C12.7862 11.0909 12.1349 11.1136 11.5319 10.9159L11.3013 10.8488L11.0708 10.9168C10.468 11.1132 9.81743 11.0901 9.22929 10.8514C8.64115 10.6128 8.15152 10.1732 7.84327 9.60703C7.02063 8.29049 6.92443 6.46654 7.63346 5.62426ZM18.8287 17.5301C20.8712 20.4453 20.8496 25.1743 18.7623 31.5879V34H17.1063V31.3108L17.1494 31.1791C19.0716 25.3299 19.1877 20.9527 17.4811 18.5228C16.1111 16.5629 13.8149 16.1515 12.1306 16.1515C9.49103 16.1515 6.01057 16.8782 4.05349 20.2473L4.81476 21.0207L4.64891 21.5222C4.30643 22.4853 4.04698 23.4772 3.87354 24.4867L4.79403 26.3566L4.59998 26.7416C3.91251 28.1074 3.24246 29.4741 3.00777 29.9526V30.0767L4.66632 30.9267V34H3.0086V31.9755L1.35006 31.1255V29.5498L1.43713 29.3704C1.43713 29.3704 2.14782 27.9137 2.92982 26.3472L2.19343 24.8531V24.6508C2.2925 23.567 2.53436 22.502 2.91241 21.4848L2.01348 20.5711L2.28548 20.0195C4.05515 16.4286 7.55136 14.4516 12.1306 14.4516C15.0596 14.4516 17.438 15.5455 18.8311 17.5309L18.8287 17.5301ZM18.5193 12.5019L17.3467 11.3001L22.3224 6.20051L23.495 7.40231L18.5193 12.5019ZM23.4759 11.9452L24 13.5601L19.0244 15.2599L18.5003 13.645L23.4759 11.9452ZM4.14637 12.5648L0 9.16507L1.03659 7.83748L5.18296 11.2372L4.14637 12.5648ZM4.50212 15.2846L0.355758 14.4346L0.680834 12.7688L4.8272 13.6187L4.50212 15.2846ZM16.0755 26.1637C17.0258 27.1657 17.1162 29.2344 14.5173 32.0333L14.2685 32.2976H12.9599V30.6003H13.557C15.0969 28.8443 15.2039 27.6825 14.8888 27.351C14.6475 27.096 14.0379 27.1487 13.5138 27.6323L12.4059 26.3676C13.581 25.284 15.1599 25.1973 16.078 26.1662L16.0755 26.1637Z" fill="white"/>
</svg>
