<svg width="128" height="48" viewBox="0 0 128 48" fill="none" xmlns="http://www.w3.org/2000/svg">
<g clip-path="url(#clip0_853_5287)">
<path d="M101.796 46.304C109.688 43.031 113.435 33.9719 110.166 26.07C106.898 18.1682 97.8499 14.4158 89.958 17.6888C82.0661 20.9619 78.3184 30.021 81.5873 37.9228C84.8563 45.8247 93.9039 49.5771 101.796 46.304Z" fill="#F7FAFC"/>
<path d="M95.879 17.02C99.8428 17.0287 103.642 18.6106 106.443 21.4189C109.244 24.2272 110.818 28.0328 110.822 32.0017C110.818 35.9723 109.242 39.7792 106.437 42.5868C103.633 45.3944 99.8313 46.9733 95.8657 46.9768C91.8995 46.9733 88.0967 45.3946 85.2916 42.5872C82.4864 39.7798 80.9081 35.9729 80.9028 32.0017C80.9081 28.0299 82.4862 24.2223 85.2912 21.4138C88.0961 18.6053 91.8989 17.0252 95.8657 17.02M95.8657 16.0039C93.7672 16.003 91.6892 16.4162 89.7503 17.2199C87.8114 18.0235 86.0497 19.2019 84.5659 20.6876C83.082 22.1733 81.9052 23.9372 81.1025 25.8786C80.2999 27.8199 79.8872 29.9006 79.8881 32.0017C79.8881 36.2446 81.5714 40.3137 84.5678 43.3138C87.5642 46.314 91.6282 47.9995 95.8657 47.9995C100.103 47.9977 104.166 46.3117 107.162 43.3119C110.158 40.3121 111.842 36.244 111.843 32.0017C111.843 27.7588 110.16 23.6897 107.164 20.6896C104.167 17.6894 100.103 16.0039 95.8657 16.0039Z" fill="#0F5FAF" fill-opacity="0.25"/>
<path d="M95.8723 43.4177C102.173 43.4177 107.28 38.3038 107.28 31.9955C107.28 25.6872 102.173 20.5732 95.8723 20.5732C89.5719 20.5732 84.4645 25.6872 84.4645 31.9955C84.4645 38.3038 89.5719 43.4177 95.8723 43.4177Z" fill="#F7FAFC"/>
<path d="M95.879 21.0844C98.7686 21.0897 101.538 22.2418 103.581 24.2883C105.624 26.3348 106.773 29.1087 106.776 32.0019C106.773 34.8946 105.623 37.6678 103.581 39.7132C101.538 41.7587 98.768 42.9093 95.879 42.9129C92.9859 42.9146 90.2104 41.7665 88.1622 39.7207C86.114 37.6749 84.9606 34.8987 84.9553 32.0019C84.9606 29.1081 86.111 26.3342 88.1548 24.2879C90.1985 22.2416 92.9689 21.0897 95.8591 21.0844M95.8591 20.0684C92.6928 20.0684 89.6562 21.3277 87.4173 23.5695C85.1784 25.8112 83.9207 28.8516 83.9207 32.0219C83.9207 35.1921 85.1784 38.2326 87.4173 40.4743C89.6562 42.716 92.6928 43.9754 95.8591 43.9754C99.0254 43.9754 102.062 42.716 104.301 40.4743C106.54 38.2326 107.798 35.1921 107.798 32.0219C107.798 28.8516 106.54 25.8112 104.301 23.5695C102.062 21.3277 99.0254 20.0684 95.8591 20.0684Z" fill="#0F5FAF" fill-opacity="0.25"/>
<path d="M95.8724 39.102C99.7918 39.102 102.969 35.9207 102.969 31.9963C102.969 28.072 99.7918 24.8906 95.8724 24.8906C91.953 24.8906 88.7756 28.072 88.7756 31.9963C88.7756 35.9207 91.953 39.102 95.8724 39.102Z" fill="#F7FAFC"/>
<path d="M95.8789 25.4008C97.6263 25.4026 99.3014 26.0988 100.536 27.3365C101.771 28.5743 102.465 30.2523 102.465 32.0018C102.463 33.7502 101.769 35.4265 100.534 36.6628C99.2993 37.8991 97.6251 38.5944 95.8789 38.5962C94.1316 38.5962 92.4557 37.9016 91.2195 36.6651C89.9834 35.4286 89.288 33.7514 89.2863 32.0018C89.2967 30.2543 89.9946 28.5814 91.2287 27.3458C92.4628 26.1101 94.1337 25.4113 95.8789 25.4008ZM95.8789 24.3848C94.8797 24.3839 93.89 24.5803 92.9667 24.9628C92.0433 25.3453 91.2043 25.9063 90.4977 26.6138C89.7911 27.3213 89.2308 28.1613 88.8488 29.0859C88.4668 30.0104 88.2706 31.0013 88.2715 32.0018C88.2715 34.022 89.073 35.9594 90.4997 37.3879C91.9263 38.8164 93.8613 39.6189 95.8789 39.6189C97.896 39.6171 99.83 38.814 101.256 37.3859C102.683 35.9578 103.485 34.0214 103.486 32.0018C103.486 29.9816 102.685 28.0442 101.258 26.6157C99.8315 25.1873 97.8965 24.3848 95.8789 24.3848Z" fill="#0F5FAF" fill-opacity="0.25"/>
<path d="M95.8791 35.2367C95.023 35.235 94.2024 34.8937 93.5971 34.2876C92.9917 33.6814 92.6509 32.8598 92.6491 32.0026C92.6491 31.1449 92.9894 30.3223 93.5952 29.7158C94.2009 29.1093 95.0225 28.7686 95.8791 28.7686C96.7352 28.7703 97.5558 29.1116 98.1612 29.7177C98.7665 30.3239 99.1074 31.1454 99.1091 32.0026C99.1074 32.8598 98.7665 33.6814 98.1612 34.2876C97.5558 34.8937 96.7352 35.235 95.8791 35.2367Z" fill="#F7FAFC"/>
<path d="M95.8791 29.2793C96.5998 29.2811 97.2904 29.5685 97.8 30.0787C98.3096 30.589 98.5967 31.2805 98.5984 32.0021C98.5967 32.7237 98.3096 33.4152 97.8 33.9254C97.2904 34.4356 96.5998 34.7231 95.8791 34.7248C95.1584 34.7231 94.4678 34.4356 93.9582 33.9254C93.4486 33.4152 93.1615 32.7237 93.1598 32.0021C93.1615 31.2805 93.4486 30.589 93.9582 30.0787C94.4678 29.5685 95.1584 29.2811 95.8791 29.2793ZM95.8791 28.2566C95.3876 28.2558 94.9008 28.352 94.4466 28.54C93.9923 28.7279 93.5796 29.0037 93.2321 29.3517C92.8845 29.6997 92.609 30.1129 92.4213 30.5677C92.2337 31.0225 92.1375 31.51 92.1384 32.0021C92.1401 32.9943 92.535 33.9452 93.2363 34.6462C93.9377 35.3472 94.8881 35.7409 95.8791 35.7409C96.8707 35.7391 97.8211 35.3439 98.5222 34.6419C99.2234 33.9399 99.618 32.9882 99.6198 31.9954C99.6198 31.5036 99.5231 31.0165 99.3351 30.5621C99.1471 30.1077 98.8715 29.6948 98.5242 29.347C98.1768 28.9992 97.7644 28.7233 97.3106 28.5351C96.8568 28.3469 96.3703 28.25 95.8791 28.25V28.2566Z" fill="#0F5FAF" fill-opacity="0.25"/>
<path d="M64.1537 47.4688C72.6948 47.336 79.5112 40.2956 79.3785 31.7437C79.2459 23.1918 72.2143 16.3668 63.6732 16.4997C55.1321 16.6325 48.3158 23.6729 48.4484 32.2248C48.5811 40.7767 55.6126 47.6017 64.1537 47.4688Z" fill="#F7FAFC"/>
<path d="M63.9171 17.02C67.8838 17.0252 71.6867 18.6053 74.4916 21.4138C77.2965 24.2223 78.8746 28.0299 78.8799 32.0017C78.8746 35.9729 77.2963 39.7798 74.4912 42.5872C71.6861 45.3946 67.8832 46.9733 63.9171 46.9768C59.9515 46.9733 56.1494 45.3944 53.3453 42.5868C50.5412 39.7792 48.9644 35.9723 48.9608 32.0017C48.9644 28.0305 50.541 24.2229 53.3449 21.4142C56.1488 18.6056 59.9509 17.0252 63.9171 17.02ZM63.9171 16.0039C59.6795 16.0039 55.6156 17.6894 52.6192 20.6896C49.6228 23.6897 47.9395 27.7588 47.9395 32.0017C47.9412 36.244 49.6251 40.3121 52.6211 43.3119C55.6171 46.3117 59.6801 47.9977 63.9171 47.9995C68.1552 47.9995 72.2199 46.3142 75.2173 43.3142C78.2147 40.3143 79.8996 36.2452 79.9013 32.0017C79.9013 29.9003 79.4878 27.8194 78.6844 25.8781C77.8811 23.9367 76.7036 22.1728 75.2192 20.6872C73.7349 19.2016 71.9727 18.0233 70.0335 17.2198C68.0942 16.4162 66.0158 16.003 63.9171 16.0039Z" fill="#0F5FAF" fill-opacity="0.25"/>
<path d="M67.6443 42.7912C73.5986 40.7291 76.7559 34.2245 74.6964 28.2627C72.6369 22.3009 66.1404 19.1396 60.1862 21.2018C54.2319 23.2639 51.0746 29.7685 53.1341 35.7303C55.1936 41.6921 61.6901 44.8534 67.6443 42.7912Z" fill="#F7FAFC"/>
<path d="M63.9169 21.0844C66.8077 21.0879 69.5791 22.2393 71.6232 24.286C73.6672 26.3326 74.8172 29.1075 74.8207 32.0019C74.8172 34.8958 73.667 37.67 71.6227 39.7156C69.5785 41.7612 66.8071 42.9111 63.9169 42.9129C61.0279 42.9093 58.2582 41.7587 56.2153 39.7132C54.1725 37.6678 53.0233 34.8946 53.0198 32.0019C53.0233 29.1087 54.1723 26.3348 56.2149 24.2883C58.2576 22.2418 61.0273 21.0897 63.9169 21.0844ZM63.9169 20.0684C60.7506 20.0684 57.714 21.3277 55.4751 23.5695C53.2363 25.8112 51.9785 28.8516 51.9785 32.0219C51.9785 35.1921 53.2363 38.2326 55.4751 40.4743C57.714 42.716 60.7506 43.9754 63.9169 43.9754C67.0832 43.9754 70.1198 42.716 72.3587 40.4743C74.5976 38.2326 75.8553 35.1921 75.8553 32.0219C75.8553 28.8516 74.5976 25.8112 72.3587 23.5695C70.1198 21.3277 67.0832 20.0684 63.9169 20.0684Z" fill="#0F5FAF" fill-opacity="0.25"/>
<path d="M64.0323 39.0992C67.9512 39.0314 71.0731 35.7956 71.0054 31.8718C70.9377 27.948 67.7059 24.8221 63.7871 24.8899C59.8683 24.9577 56.7463 28.1936 56.814 32.1173C56.8817 36.0411 60.1135 39.167 64.0323 39.0992Z" fill="#F7FAFC"/>
<path d="M63.9171 25.4008C65.6623 25.4113 67.3332 26.1101 68.5673 27.3458C69.8014 28.5814 70.4993 30.2543 70.5097 32.0018C70.508 33.7514 69.8126 35.4286 68.5765 36.6651C67.3403 37.9016 65.6644 38.5962 63.9171 38.5962C62.1709 38.5944 60.4967 37.8991 59.262 36.6628C58.0272 35.4265 57.3328 33.7502 57.331 32.0018C57.3415 30.2555 58.0385 28.5836 59.2712 27.3481C60.5038 26.1126 62.173 25.413 63.9171 25.4008ZM63.9171 24.3848C61.8995 24.3848 59.9645 25.1873 58.5378 26.6157C57.1111 28.0442 56.3096 29.9816 56.3096 32.0018C56.3114 34.0214 57.1135 35.9578 58.5397 37.3859C59.966 38.814 61.9 39.6171 63.9171 39.6189C65.9353 39.6189 67.871 38.8166 69.2987 37.3883C70.7264 35.96 71.5294 34.0226 71.5312 32.0018C71.5312 31.001 71.3342 30.0099 70.9514 29.0854C70.5687 28.1608 70.0077 27.3208 69.3006 26.6134C68.5935 25.906 67.7541 25.3451 66.8304 24.9627C65.9066 24.5803 64.9167 24.3839 63.9171 24.3848Z" fill="#0F5FAF" fill-opacity="0.25"/>
<path d="M63.917 35.2367C63.0608 35.235 62.2403 34.8937 61.6349 34.2876C61.0296 33.6814 60.6887 32.8598 60.687 32.0026C60.6887 31.1454 61.0296 30.3239 61.6349 29.7177C62.2403 29.1116 63.0608 28.7703 63.917 28.7686C64.7736 28.7686 65.5952 29.1093 66.2009 29.7158C66.8067 30.3223 67.147 31.1449 67.147 32.0026C67.1452 32.8598 66.8044 33.6814 66.199 34.2876C65.5936 34.8937 64.7731 35.235 63.917 35.2367Z" fill="#F7FAFC"/>
<path d="M63.917 29.2793C64.6376 29.2811 65.3283 29.5685 65.8379 30.0787C66.3474 30.589 66.6345 31.2805 66.6363 32.0021C66.6345 32.7237 66.3474 33.4152 65.8379 33.9254C65.3283 34.4356 64.6376 34.7231 63.917 34.7248C63.1963 34.7231 62.5056 34.4356 61.996 33.9254C61.4865 33.4152 61.1994 32.7237 61.1976 32.0021C61.1994 31.2805 61.4865 30.589 61.996 30.0787C62.5056 29.5685 63.1963 29.2811 63.917 29.2793ZM63.917 28.2566C63.426 28.2566 62.9399 28.3536 62.4864 28.5419C62.033 28.7302 61.621 29.0062 61.2742 29.3541C60.9274 29.7019 60.6525 30.1149 60.4652 30.5693C60.2779 31.0236 60.182 31.5105 60.1829 32.0021C60.1846 32.9931 60.5786 33.9431 61.2785 34.6439C61.9784 35.3446 62.9271 35.7391 63.917 35.7409C64.909 35.7409 65.8605 35.3463 66.562 34.6439C67.2636 33.9415 67.6577 32.9888 67.6577 31.9954C67.6585 31.5033 67.5624 31.0159 67.3747 30.5611C67.187 30.1063 66.9115 29.693 66.564 29.3451C66.2165 28.9971 65.8037 28.7212 65.3495 28.5333C64.8952 28.3454 64.4084 28.2491 63.917 28.25V28.2566Z" fill="#0F5FAF" fill-opacity="0.25"/>
<path d="M47.2305 34.4771C48.5991 26.0346 42.8733 18.0798 34.4416 16.7094C26.0098 15.339 18.0649 21.072 16.6963 29.5144C15.3276 37.9568 21.0534 45.9117 29.4852 47.2821C37.917 48.6525 45.8618 42.9195 47.2305 34.4771Z" fill="#F7FAFC"/>
<path d="M31.962 17.0209C35.9281 17.0262 39.7303 18.6065 42.5341 21.4152C45.338 24.2239 46.9147 28.0315 46.9182 32.0027C46.9147 35.9732 45.3378 39.7802 42.5337 42.5878C39.7297 45.3954 35.9275 46.9743 31.962 46.9778C27.9958 46.9743 24.193 45.3956 21.3879 42.5882C18.5827 39.7808 17.0044 35.9738 16.9991 32.0027C17.0044 28.0309 18.5825 24.2233 21.3875 21.4148C24.1924 18.6063 27.9952 17.0262 31.962 17.0209ZM31.962 16.0049C29.863 16.0031 27.7842 16.4157 25.8445 17.219C23.9049 18.0222 22.1424 19.2004 20.6579 20.6862C19.1733 22.172 17.9959 23.9363 17.1928 25.878C16.3897 27.8198 15.9769 29.901 15.9777 32.0027C15.9777 34.1041 16.3912 36.1849 17.1946 38.1263C17.9979 40.0677 19.1754 41.8316 20.6598 43.3172C22.1442 44.8028 23.9063 45.981 25.8456 46.7846C27.7848 47.5882 29.8632 48.0013 31.962 48.0005C36.199 47.9987 40.2619 46.3127 43.2579 43.3129C46.2539 40.3131 47.9378 36.245 47.9396 32.0027C47.9396 27.7598 46.2562 23.6907 43.2598 20.6905C40.2635 17.6904 36.1995 16.0049 31.962 16.0049Z" fill="#0F5FAF" fill-opacity="0.25"/>
<path d="M31.9552 43.4177C38.2556 43.4177 43.3631 38.3038 43.3631 31.9955C43.3631 25.6872 38.2556 20.5732 31.9552 20.5732C25.6548 20.5732 20.5474 25.6872 20.5474 31.9955C20.5474 38.3038 25.6548 43.4177 31.9552 43.4177Z" fill="#F7FAFC"/>
<path d="M31.9619 21.0844C34.8515 21.0897 37.6212 22.2418 39.6638 24.2883C41.7065 26.3348 42.8555 29.1087 42.859 32.0019C42.8555 34.8946 41.7063 37.6678 39.6634 39.7132C37.6206 41.7587 34.8509 42.9093 31.9619 42.9129C29.0722 42.9093 26.3019 41.7589 24.258 39.7136C22.2141 37.6684 21.0634 34.8952 21.0581 32.0019C21.0634 29.1081 22.2138 26.3342 24.2575 24.2879C26.3013 22.2416 29.0716 21.0897 31.9619 21.0844ZM31.9619 20.0684C28.7956 20.0684 25.759 21.3277 23.5201 23.5695C21.2812 25.8112 20.0234 28.8516 20.0234 32.0219C20.0234 35.1921 21.2812 38.2326 23.5201 40.4743C25.759 42.716 28.7956 43.9754 31.9619 43.9754C35.1282 43.9754 38.1647 42.716 40.4036 40.4743C42.6425 38.2326 43.9003 35.1921 43.9003 32.0219C43.9003 28.8516 42.6425 25.8112 40.4036 23.5695C38.1647 21.3277 35.1282 20.0684 31.9619 20.0684Z" fill="#0F5FAF" fill-opacity="0.25"/>
<path d="M31.9551 39.102C35.8745 39.102 39.0518 35.9207 39.0518 31.9963C39.0518 28.072 35.8745 24.8906 31.9551 24.8906C28.0357 24.8906 24.8583 28.072 24.8583 31.9963C24.8583 35.9207 28.0357 39.102 31.9551 39.102Z" fill="#F7FAFC"/>
<path d="M31.9619 25.4008C33.7058 25.4078 35.3758 26.1064 36.6065 27.3436C37.8371 28.5807 38.528 30.2557 38.528 32.0018C38.5263 33.7502 37.8318 35.4265 36.5971 36.6628C35.3623 37.8991 33.6882 38.5944 31.942 38.5962C30.1946 38.5962 28.5188 37.9016 27.2826 36.6651C26.0464 35.4286 25.3511 33.7514 25.3493 32.0018C25.3597 30.2543 26.0577 28.5814 27.2918 27.3458C28.5259 26.1101 30.1967 25.4113 31.942 25.4008M31.942 24.3848C30.9427 24.3839 29.9531 24.5803 29.0297 24.9628C28.1063 25.3453 27.2673 25.9063 26.5608 26.6138C25.8542 27.3213 25.2938 28.1613 24.9118 29.0859C24.5298 30.0104 24.3337 31.0013 24.3345 32.0018C24.3345 33.0038 24.532 33.9959 24.9155 34.9213C25.2991 35.8468 25.8612 36.6874 26.5697 37.3949C27.2783 38.1025 28.1192 38.6632 29.0445 39.0448C29.9698 39.4264 30.9612 39.6215 31.9619 39.6189C33.9795 39.6189 35.9145 38.8164 37.3411 37.3879C38.7678 35.9594 39.5693 34.022 39.5693 32.0018C39.5702 31.0013 39.374 30.0104 38.992 29.0859C38.61 28.1613 38.0497 27.3213 37.3431 26.6138C36.6365 25.9063 35.7975 25.3453 34.8741 24.9628C33.9508 24.5803 32.9611 24.3839 31.9619 24.3848H31.942Z" fill="#0F5FAF" fill-opacity="0.25"/>
<path d="M31.9619 35.2368C31.1058 35.235 30.2852 34.8937 29.6799 34.2876C29.0745 33.6815 28.7336 32.8599 28.7319 32.0027C28.7319 31.1449 29.0722 30.3223 29.6779 29.7158C30.2837 29.1093 31.1052 28.7686 31.9619 28.7686C32.3875 28.7668 32.8093 28.8491 33.203 29.0108C33.5968 29.1725 33.9549 29.4103 34.2568 29.7107C34.5586 30.0111 34.7984 30.3682 34.9622 30.7615C35.1261 31.1547 35.2109 31.5765 35.2118 32.0027C35.2109 32.4288 35.1261 32.8506 34.9622 33.2439C34.7984 33.6372 34.5586 33.9942 34.2568 34.2946C33.9549 34.595 33.5968 34.8329 33.203 34.9945C32.8093 35.1562 32.3875 35.2385 31.9619 35.2368Z" fill="#F7FAFC"/>
<path d="M31.9619 29.2793C32.6826 29.2811 33.3732 29.5685 33.8828 30.0787C34.3924 30.589 34.6795 31.2805 34.6812 32.0021C34.6795 32.7237 34.3924 33.4152 33.8828 33.9254C33.3732 34.4356 32.6826 34.7231 31.9619 34.7248C31.2412 34.7231 30.5506 34.4356 30.041 33.9254C29.5314 33.4152 29.2443 32.7237 29.2426 32.0021C29.2443 31.2805 29.5314 30.589 30.041 30.0787C30.5506 29.5685 31.2412 29.2811 31.9619 29.2793ZM31.9619 28.2566C31.4704 28.2558 30.9836 28.352 30.5294 28.54C30.0751 28.7279 29.6624 29.0037 29.3149 29.3517C28.9673 29.6997 28.6918 30.1129 28.5042 30.5677C28.3165 31.0225 28.2203 31.51 28.2212 32.0021C28.223 32.9943 28.6178 33.9452 29.3192 34.6462C30.0205 35.3472 30.971 35.7409 31.9619 35.7409C32.9535 35.7391 33.9039 35.3439 34.605 34.6419C35.3062 33.9399 35.7009 32.9882 35.7026 31.9954C35.7026 31.0021 35.3085 30.0494 34.607 29.347C33.9055 28.6446 32.954 28.25 31.9619 28.25V28.2566Z" fill="#0F5FAF" fill-opacity="0.25"/>
<path d="M95.1749 33.1187C96.5435 24.6762 90.8177 16.7214 82.386 15.351C73.9542 13.9806 66.0093 19.7136 64.6407 28.156C63.272 36.5984 68.9978 44.5533 77.4296 45.9237C85.8613 47.2941 93.8062 41.5611 95.1749 33.1187Z" fill="#F7FAFC"/>
<path d="M79.9012 15.6586C83.8673 15.6639 87.6695 17.2442 90.4733 20.0529C93.2772 22.8616 94.8539 26.6692 94.8574 30.6404C94.8521 34.6104 93.2747 38.4163 90.471 41.2235C87.6673 44.0308 83.8662 45.6102 79.9012 45.6155C75.935 45.6119 72.1322 44.0333 69.3271 41.2259C66.5219 38.4185 64.9436 34.6115 64.9383 30.6404C64.9436 26.6686 66.5217 22.861 69.3267 20.0525C72.1316 17.244 75.9344 15.6639 79.9012 15.6586ZM79.9012 14.6426C77.8024 14.6417 75.724 15.0549 73.7848 15.8584C71.8455 16.662 70.0834 17.8403 68.599 19.3259C67.1146 20.8115 65.9371 22.5754 65.1338 24.5167C64.3304 26.4581 63.9169 28.5389 63.9169 30.6404C63.9187 34.8839 65.6035 38.9529 68.6009 41.9529C71.5984 44.9529 75.663 46.6382 79.9012 46.6382C84.1382 46.6364 88.2011 44.9504 91.1971 41.9506C94.1931 38.9508 95.877 34.8827 95.8788 30.6404C95.8788 28.5395 95.4655 26.4592 94.6626 24.5183C93.8596 22.5773 92.6827 20.8138 91.1991 19.3282C89.7154 17.8427 87.954 16.6643 86.0155 15.8603C84.0771 15.0564 81.9994 14.6426 79.9012 14.6426Z" fill="#0F5FAF" fill-opacity="0.25"/>
<path d="M90.706 34.2432C92.6978 28.2584 89.467 21.7901 83.4898 19.7957C77.5126 17.8014 71.0524 21.0362 69.0605 27.021C67.0687 33.0058 70.2995 39.4742 76.2767 41.4685C82.254 43.4629 88.7142 40.228 90.706 34.2432Z" fill="#F7FAFC"/>
<path d="M79.9013 19.7229C82.791 19.7282 85.5606 20.8803 87.6033 22.9268C89.646 24.9733 90.795 27.7471 90.7985 30.6404C90.795 33.5331 89.6457 36.3063 87.6029 38.3517C85.56 40.3971 82.7904 41.5478 79.9013 41.5513C77.0112 41.5496 74.2398 40.3997 72.1955 38.3541C70.1512 36.3084 69.0011 33.5342 68.9976 30.6404C69.0011 27.746 70.151 24.9711 72.1951 22.9244C74.2392 20.8778 77.0105 19.7264 79.9013 19.7229ZM79.9013 18.7002C76.7351 18.7002 73.6985 19.9596 71.4596 22.2013C69.2207 24.443 67.9629 27.4834 67.9629 30.6537C67.9629 33.824 69.2207 36.8644 71.4596 39.1061C73.6985 41.3478 76.7351 42.6072 79.9013 42.6072C83.0676 42.6072 86.1042 41.3478 88.3431 39.1061C90.582 36.8644 91.8398 33.824 91.8398 30.6537C91.8398 27.4834 90.582 24.443 88.3431 22.2013C86.1042 19.9596 83.0676 18.7002 79.9013 18.7002Z" fill="#0F5FAF" fill-opacity="0.25"/>
<path d="M86.7958 32.2658C87.6961 28.4464 85.3336 24.6193 81.519 23.7179C77.7044 22.8164 73.8822 25.1819 72.9819 29.0013C72.0815 32.8207 74.444 36.6478 78.2587 37.5492C82.0733 38.4507 85.8955 36.0852 86.7958 32.2658Z" fill="#F7FAFC"/>
<path d="M79.9012 24.0395C81.6453 24.0517 83.3144 24.7513 84.5471 25.9867C85.7798 27.2222 86.4768 28.8942 86.4872 30.6405C86.4855 32.3889 85.791 34.0652 84.5563 35.3015C83.3215 36.5378 81.6474 37.2331 79.9012 37.2348C78.1539 37.2348 76.478 36.5403 75.2418 35.3038C74.0056 34.0673 73.3103 32.39 73.3085 30.6405C73.319 28.893 74.0169 27.2201 75.251 25.9844C76.4851 24.7488 78.1559 24.0499 79.9012 24.0395ZM79.9012 23.0234C78.9016 23.0226 77.9117 23.2189 76.9879 23.6013C76.0642 23.9837 75.2248 24.5447 74.5176 25.2521C73.8105 25.9595 73.2495 26.7995 72.8668 27.724C72.4841 28.6486 72.2871 29.6396 72.2871 30.6405C72.2889 32.6613 73.0919 34.5987 74.5196 36.027C75.9473 37.4552 77.883 38.2575 79.9012 38.2575C81.9183 38.2558 83.8522 37.4527 85.2785 36.0246C86.7048 34.5965 87.5069 32.6601 87.5086 30.6405C87.5086 28.6203 86.7071 26.6829 85.2805 25.2544C83.8538 23.8259 81.9188 23.0234 79.9012 23.0234Z" fill="#0F5FAF" fill-opacity="0.25"/>
<path d="M79.9013 33.8754C79.0452 33.8737 78.2247 33.5324 77.6193 32.9262C77.0139 32.3201 76.6731 31.4985 76.6713 30.6413C76.6713 29.7836 77.0116 28.961 77.6174 28.3545C78.2231 27.748 79.0447 27.4072 79.9013 27.4072C80.7574 27.409 81.578 27.7503 82.1834 28.3564C82.7887 28.9625 83.1296 29.7841 83.1313 30.6413C83.1296 31.4985 82.7887 32.3201 82.1834 32.9262C81.578 33.5324 80.7574 33.8737 79.9013 33.8754Z" fill="#F7FAFC"/>
<path d="M79.9014 27.9172C80.6221 27.919 81.3127 28.2064 81.8223 28.7166C82.3319 29.2269 82.619 29.9184 82.6207 30.64C82.619 31.3615 82.3319 32.0531 81.8223 32.5633C81.3127 33.0735 80.6221 33.361 79.9014 33.3627C79.5443 33.3627 79.1907 33.2923 78.8608 33.1555C78.5308 33.0186 78.2311 32.8181 77.9786 32.5652C77.726 32.3124 77.5257 32.0123 77.3891 31.6819C77.2524 31.3516 77.1821 30.9975 77.1821 30.64C77.1821 30.2824 77.2524 29.9284 77.3891 29.598C77.5257 29.2677 77.726 28.9675 77.9786 28.7147C78.2311 28.4619 78.5308 28.2613 78.8608 28.1245C79.1907 27.9877 79.5443 27.9172 79.9014 27.9172ZM79.9014 26.8945C79.4099 26.8937 78.9231 26.9899 78.4688 27.1779C78.0146 27.3658 77.6019 27.6416 77.2544 27.9896C76.9068 28.3376 76.6313 28.7508 76.4436 29.2056C76.256 29.6604 76.1598 30.1479 76.1607 30.64C76.1572 31.1341 76.2514 31.624 76.4378 32.0814C76.6242 32.5389 76.8992 32.955 77.2469 33.3056C77.5946 33.6562 78.0081 33.9345 78.4637 34.1243C78.9193 34.3142 79.4079 34.412 79.9014 34.412C80.3938 34.4102 80.8809 34.3112 81.335 34.1205C81.789 33.9299 82.201 33.6513 82.5473 33.3009C82.8936 32.9504 83.1674 32.535 83.353 32.0784C83.5386 31.6218 83.6323 31.1329 83.6288 30.64C83.6297 30.1484 83.5338 29.6615 83.3465 29.2072C83.1592 28.7528 82.8843 28.3398 82.5375 27.992C82.1907 27.6441 81.7787 27.3681 81.3253 27.1798C80.8718 26.9915 80.3857 26.8945 79.8948 26.8945H79.9014Z" fill="#0F5FAF" fill-opacity="0.25"/>
<path d="M53.8549 44.9476C61.7468 41.6745 65.4944 32.6155 62.2255 24.7136C58.9566 16.8117 49.9089 13.0593 42.017 16.3324C34.1251 19.6054 30.3774 28.6645 33.6463 36.5664C36.9153 44.4683 45.9629 48.2207 53.8549 44.9476Z" fill="#F7FAFC"/>
<path d="M47.9395 15.6586C51.9063 15.6639 55.7091 17.244 58.5141 20.0525C61.319 22.861 62.8971 26.6686 62.9024 30.6404C62.8971 34.6115 61.3188 38.4185 58.5136 41.2259C55.7085 44.0333 51.9057 45.6119 47.9395 45.6155C43.974 45.6119 40.1718 44.0331 37.3678 41.2255C34.5637 38.4179 32.9868 34.6109 32.9833 30.6404C32.9868 26.6692 34.5635 22.8616 37.3674 20.0529C40.1712 17.2442 43.9734 15.6639 47.9395 15.6586ZM47.9395 14.6426C43.702 14.6426 39.638 16.3281 36.6416 19.3282C33.6453 22.3284 31.9619 26.3975 31.9619 30.6404C31.9637 34.8827 33.6476 38.9508 36.6436 41.9506C39.6396 44.9504 43.7025 46.6364 47.9395 46.6382C52.1771 46.6382 56.241 44.9527 59.2374 41.9525C62.2338 38.9523 63.9171 34.8832 63.9171 30.6404C63.918 28.5393 63.5053 26.4586 62.7027 24.5172C61.9001 22.5759 60.7232 20.812 59.2394 19.3263C57.7555 17.8406 55.9938 16.6622 54.0549 15.8586C52.116 15.0549 50.038 14.6417 47.9395 14.6426Z" fill="#0F5FAF" fill-opacity="0.25"/>
<path d="M57.9808 36.0248C60.9532 30.4626 58.8594 23.541 53.3043 20.5648C47.7492 17.5887 40.8362 19.685 37.8638 25.2472C34.8914 30.8093 36.9851 37.731 42.5403 40.7072C48.0954 43.6833 55.0084 41.587 57.9808 36.0248Z" fill="#F7FAFC"/>
<path d="M47.9395 19.7229C50.8297 19.7282 53.6001 20.8801 55.6438 22.9264C57.6875 24.9727 58.838 27.7465 58.8433 30.6404C58.838 33.5337 57.6873 36.3069 55.6434 38.3521C53.5995 40.3974 50.8291 41.5478 47.9395 41.5513C45.0505 41.5478 42.2808 40.3971 40.2379 38.3517C38.1951 36.3063 37.0458 33.5331 37.0423 30.6404C37.0458 27.7471 38.1948 24.9733 40.2375 22.9268C42.2802 20.8803 45.0498 19.7282 47.9395 19.7229ZM47.9395 18.7002C44.7732 18.7002 41.7366 19.9596 39.4977 22.2013C37.2588 24.443 36.001 27.4834 36.001 30.6537C36.001 33.824 37.2588 36.8644 39.4977 39.1061C41.7366 41.3478 44.7732 42.6072 47.9395 42.6072C51.1058 42.6072 54.1423 41.3478 56.3812 39.1061C58.6201 36.8644 59.8779 33.824 59.8779 30.6537C59.8779 27.4834 58.6201 24.443 56.3812 22.2013C54.1423 19.9596 51.1058 18.7002 47.9395 18.7002Z" fill="#0F5FAF" fill-opacity="0.25"/>
<path d="M47.9395 37.7397C51.8589 37.7397 55.0362 34.5584 55.0362 30.634C55.0362 26.7097 51.8589 23.5283 47.9395 23.5283C44.02 23.5283 40.8427 26.7097 40.8427 30.634C40.8427 34.5584 44.02 37.7397 47.9395 37.7397Z" fill="#F7FAFC"/>
<path d="M47.9395 24.0395C49.6847 24.0499 51.3555 24.7488 52.5897 25.9844C53.8238 27.2201 54.5217 28.893 54.5321 30.6405C54.5304 32.39 53.835 34.0673 52.5988 35.3038C51.3627 36.5403 49.6868 37.2348 47.9395 37.2348C46.1933 37.2331 44.5191 36.5378 43.2844 35.3015C42.0496 34.0652 41.3552 32.3889 41.3534 30.6405C41.3534 28.8909 42.0471 27.213 43.282 25.9752C44.517 24.7375 46.1921 24.0413 47.9395 24.0395ZM47.9395 23.0234C45.9219 23.0234 43.9869 23.8259 42.5602 25.2544C41.1335 26.6829 40.332 28.6203 40.332 30.6405C40.3338 32.6601 41.1358 34.5965 42.5621 36.0246C43.9884 37.4527 45.9224 38.2558 47.9395 38.2575C49.9571 38.2575 51.8921 37.455 53.3188 36.0266C54.7454 34.5981 55.5469 32.6607 55.5469 30.6405C55.5478 29.64 55.3516 28.6491 54.9696 27.7245C54.5876 26.8 54.0273 25.96 53.3207 25.2525C52.6141 24.545 51.7751 23.984 50.8517 23.6015C49.9284 23.219 48.9387 23.0226 47.9395 23.0234Z" fill="#0F5FAF" fill-opacity="0.25"/>
<path d="M47.9396 33.8754C47.0835 33.8737 46.2629 33.5324 45.6576 32.9262C45.0522 32.3201 44.7113 31.4985 44.7096 30.6413C44.7113 29.7841 45.0522 28.9625 45.6576 28.3564C46.2629 27.7503 47.0835 27.409 47.9396 27.4072C48.7963 27.4072 49.6178 27.748 50.2236 28.3545C50.8293 28.961 51.1696 29.7836 51.1696 30.6413C51.1679 31.4985 50.827 32.3201 50.2216 32.9262C49.6163 33.5324 48.7957 33.8737 47.9396 33.8754Z" fill="#F7FAFC"/>
<path d="M47.9396 27.9172C48.6602 27.919 49.3509 28.2064 49.8605 28.7166C50.3701 29.2269 50.6571 29.9184 50.6589 30.64C50.6571 31.3615 50.3701 32.0531 49.8605 32.5633C49.3509 33.0735 48.6602 33.361 47.9396 33.3627C47.2189 33.361 46.5282 33.0735 46.0186 32.5633C45.5091 32.0531 45.222 31.3615 45.2202 30.64C45.222 29.9184 45.5091 29.2269 46.0186 28.7166C46.5282 28.2064 47.2189 27.919 47.9396 27.9172ZM47.9396 26.8945C46.9475 26.8945 45.996 27.2891 45.2945 27.9915C44.593 28.6939 44.1988 29.6466 44.1988 30.64C44.1962 31.1338 44.291 31.6233 44.4777 32.0804C44.6645 32.5375 44.9395 32.9532 45.287 33.3036C45.6345 33.6541 46.0477 33.9324 46.5029 34.1225C46.9581 34.3127 47.4463 34.4111 47.9396 34.412C48.9317 34.412 49.8831 34.0174 50.5846 33.315C51.2862 32.6125 51.6803 31.6599 51.6803 30.6665C51.6811 30.1744 51.585 29.687 51.3973 29.2322C51.2096 28.7774 50.9341 28.3641 50.5866 28.0162C50.2391 27.6682 49.8263 27.3923 49.3721 27.2044C48.9179 27.0165 48.431 26.9202 47.9396 26.9211V26.8945Z" fill="#0F5FAF" fill-opacity="0.25"/>
<path d="M127.304 33.1157C128.672 24.6733 122.946 16.7184 114.515 15.348C106.083 13.9776 98.138 19.7107 96.7693 28.1531C95.4007 36.5955 101.126 44.5504 109.558 45.9208C117.99 47.2912 125.935 41.5582 127.304 33.1157Z" fill="#F7FAFC"/>
<path d="M112.029 15.6586C115.995 15.6639 119.797 17.2442 122.601 20.0529C125.405 22.8616 126.982 26.6692 126.985 30.6404C126.98 34.6104 125.403 38.4163 122.599 41.2235C119.795 44.0308 115.994 45.6102 112.029 45.6155C108.063 45.6119 104.26 44.0333 101.455 41.2259C98.6499 38.4185 97.0715 34.6115 97.0663 30.6404C97.0715 26.6686 98.6497 22.861 101.455 20.0525C104.26 17.244 108.062 15.6639 112.029 15.6586ZM112.029 14.6426C109.93 14.6417 107.852 15.0549 105.913 15.8584C103.973 16.662 102.211 17.8403 100.727 19.3259C99.2426 20.8115 98.0651 22.5754 97.2617 24.5167C96.4583 26.4581 96.0449 28.5389 96.0449 30.6404C96.0466 34.8839 97.7314 38.9529 100.729 41.9529C103.726 44.9529 107.791 46.6382 112.029 46.6382C116.266 46.6364 120.329 44.9504 123.325 41.9506C126.321 38.9508 128.005 34.8827 128.007 30.6404C128.007 28.5395 127.593 26.4592 126.791 24.5183C125.988 22.5773 124.811 20.8138 123.327 19.3282C121.843 17.8427 120.082 16.6643 118.143 15.8603C116.205 15.0564 114.127 14.6426 112.029 14.6426Z" fill="#0F5FAF" fill-opacity="0.25"/>
<path d="M120.09 38.7135C124.545 34.2528 124.545 27.0206 120.09 22.56C115.635 18.0993 108.412 18.0993 103.957 22.56C99.5017 27.0206 99.5017 34.2528 103.957 38.7135C108.412 43.1741 115.635 43.1741 120.09 38.7135Z" fill="#F7FAFC"/>
<path d="M112.029 19.7229C114.919 19.7282 117.688 20.8803 119.731 22.9268C121.774 24.9733 122.923 27.7471 122.926 30.6404C122.923 33.5331 121.773 36.3063 119.731 38.3517C117.688 40.3971 114.918 41.5478 112.029 41.5513C109.139 41.5496 106.367 40.3997 104.323 38.3541C102.279 36.3084 101.129 33.5342 101.125 30.6404C101.129 27.746 102.279 24.9711 104.323 22.9244C106.367 20.8778 109.138 19.7264 112.029 19.7229ZM112.029 18.7002C108.863 18.7002 105.826 19.9596 103.587 22.2013C101.348 24.443 100.091 27.4834 100.091 30.6537C100.091 33.824 101.348 36.8644 103.587 39.1061C105.826 41.3478 108.863 42.6072 112.029 42.6072C115.195 42.6072 118.232 41.3478 120.471 39.1061C122.71 36.8644 123.967 33.824 123.967 30.6537C123.967 27.4834 122.71 24.443 120.471 22.2013C118.232 19.9596 115.195 18.7002 112.029 18.7002Z" fill="#0F5FAF" fill-opacity="0.25"/>
<path d="M117.041 35.6612C119.813 32.8863 119.813 28.3872 117.041 25.6122C114.27 22.8373 109.777 22.8373 107.005 25.6122C104.234 28.3872 104.234 32.8863 107.005 35.6612C109.777 38.4362 114.27 38.4362 117.041 35.6612Z" fill="#F7FAFC"/>
<path d="M112.029 24.0395C113.773 24.0517 115.442 24.7513 116.675 25.9867C117.908 27.2222 118.605 28.8942 118.615 30.6405C118.613 32.3889 117.919 34.0652 116.684 35.3015C115.449 36.5378 113.775 37.2331 112.029 37.2348C110.282 37.2348 108.606 36.5403 107.37 35.3038C106.134 34.0673 105.438 32.39 105.436 30.6405C105.447 28.893 106.145 27.2201 107.379 25.9844C108.613 24.7488 110.284 24.0499 112.029 24.0395ZM112.029 23.0234C111.03 23.0226 110.04 23.2189 109.116 23.6013C108.192 23.9837 107.353 24.5447 106.646 25.2521C105.938 25.9595 105.377 26.7995 104.995 27.724C104.612 28.6486 104.415 29.6396 104.415 30.6405C104.417 32.6613 105.22 34.5987 106.647 36.027C108.075 37.4552 110.011 38.2575 112.029 38.2575C114.046 38.2558 115.98 37.4527 117.406 36.0246C118.833 34.5965 119.635 32.6601 119.637 30.6405C119.637 28.6203 118.835 26.6829 117.408 25.2544C115.982 23.8259 114.047 23.0234 112.029 23.0234Z" fill="#0F5FAF" fill-opacity="0.25"/>
<path d="M112.029 33.8754C111.179 33.8649 110.367 33.5198 109.769 32.9146C109.17 32.3094 108.834 31.4928 108.832 30.6413C108.832 30.2166 108.916 29.7961 109.078 29.4037C109.241 29.0113 109.478 28.6548 109.778 28.3545C110.078 28.0542 110.434 27.8159 110.826 27.6534C111.218 27.4909 111.638 27.4072 112.062 27.4072C112.918 27.409 113.739 27.7503 114.344 28.3564C114.95 28.9625 115.291 29.7841 115.292 30.6413C115.291 31.0686 115.206 31.4915 115.042 31.8856C114.877 32.2798 114.636 32.6374 114.333 32.938C114.029 33.2386 113.67 33.4761 113.274 33.637C112.879 33.7979 112.456 33.8789 112.029 33.8754Z" fill="#F7FAFC"/>
<path d="M112.029 27.9172C112.75 27.919 113.44 28.2064 113.95 28.7166C114.46 29.2269 114.747 29.9184 114.748 30.64C114.747 31.3615 114.46 32.0531 113.95 32.5633C113.44 33.0735 112.75 33.361 112.029 33.3627C111.308 33.361 110.618 33.0735 110.108 32.5633C109.599 32.0531 109.311 31.3615 109.31 30.64C109.311 29.9184 109.599 29.2269 110.108 28.7166C110.618 28.2064 111.308 27.919 112.029 27.9172ZM112.029 26.8945C111.538 26.8937 111.051 26.9899 110.596 27.1779C110.142 27.3658 109.73 27.6416 109.382 27.9896C109.034 28.3376 108.759 28.7508 108.571 29.2056C108.384 29.6604 108.287 30.1479 108.288 30.64C108.285 31.1341 108.379 31.624 108.565 32.0814C108.752 32.5389 109.027 32.955 109.375 33.3056C109.722 33.6562 110.136 33.9345 110.591 34.1243C111.047 34.3142 111.536 34.412 112.029 34.412C113.021 34.4102 113.971 34.015 114.672 33.313C115.373 32.611 115.768 31.6593 115.77 30.6665C115.77 29.6732 115.376 28.7205 114.674 28.0181C113.973 27.3157 113.021 26.9211 112.029 26.9211V26.8945Z" fill="#0F5FAF" fill-opacity="0.25"/>
<path d="M21.8978 44.9456C29.7897 41.6726 33.5374 32.6135 30.2685 24.7116C26.9995 16.8098 17.9519 13.0574 10.0599 16.3304C2.16804 19.6035 -1.57962 28.6626 1.68932 36.5644C4.95825 44.4663 14.0059 48.2187 21.8978 44.9456Z" fill="#F7FAFC"/>
<path d="M15.9776 15.6586C19.9438 15.6639 23.7459 17.2442 26.5498 20.0529C29.3536 22.8616 30.9303 26.6692 30.9338 30.6404C30.9286 34.6104 29.3511 38.4163 26.5474 41.2235C23.7437 44.0308 19.9426 45.6102 15.9776 45.6155C12.0114 45.6119 8.20862 44.0333 5.40349 41.2259C2.59836 38.4185 1.02002 34.6115 1.01475 30.6404C1.02002 26.6686 2.59815 22.861 5.40309 20.0525C8.20802 17.244 12.0108 15.6639 15.9776 15.6586ZM15.9776 14.6426C13.8788 14.6417 11.8005 15.0549 9.8612 15.8584C7.92194 16.662 6.15979 17.8403 4.67543 19.3259C3.19107 20.8115 2.01357 22.5754 1.21021 24.5167C0.406842 26.4581 -0.00665301 28.5389 -0.00665283 30.6404C-0.00489427 34.8839 1.67994 38.9529 4.67738 41.9529C7.67481 44.9529 11.7395 46.6382 15.9776 46.6382C20.2157 46.6382 24.2804 44.9529 27.2778 41.9529C30.2753 38.9529 31.9601 34.8839 31.9619 30.6404C31.9619 28.5389 31.5484 26.4581 30.745 24.5167C29.9416 22.5754 28.7641 20.8115 27.2798 19.3259C25.7954 17.8403 24.0333 16.662 22.094 15.8584C20.1547 15.0549 18.0764 14.6417 15.9776 14.6426Z" fill="#0F5FAF" fill-opacity="0.25"/>
<path d="M27.0764 33.2597C28.5237 27.1201 24.7261 20.9682 18.5941 19.5191C12.4622 18.07 6.31812 21.8725 4.87086 28.0121C3.4236 34.1517 7.22125 40.3036 13.3532 41.7527C19.4851 43.2018 25.6292 39.3994 27.0764 33.2597Z" fill="#F7FAFC"/>
<path d="M15.9777 19.7229C18.8674 19.7282 21.6371 20.8803 23.6797 22.9268C25.7224 24.9733 26.8714 27.7471 26.8749 30.6404C26.8714 33.5331 25.7222 36.3063 23.6793 38.3517C21.6365 40.3971 18.8668 41.5478 15.9777 41.5513C13.0876 41.5496 10.3162 40.3997 8.2719 38.3541C6.22761 36.3084 5.07748 33.5342 5.07397 30.6404C5.07748 27.746 6.2274 24.9711 8.27149 22.9244C10.3156 20.8778 13.087 19.7264 15.9777 19.7229ZM15.9777 18.7002C12.8115 18.7002 9.77489 19.9596 7.536 22.2013C5.2971 24.443 4.03931 27.4834 4.03931 30.6537C4.03931 33.824 5.2971 36.8644 7.536 39.1061C9.77489 41.3478 12.8115 42.6072 15.9777 42.6072C19.144 42.6072 22.1806 41.3478 24.4195 39.1061C26.6584 36.8644 27.9162 33.824 27.9162 30.6537C27.9162 27.4834 26.6584 24.443 24.4195 22.2013C22.1806 19.9596 19.144 18.7002 15.9777 18.7002Z" fill="#0F5FAF" fill-opacity="0.25"/>
<path d="M22.8806 32.2678C23.7809 28.4483 21.4184 24.6213 17.6038 23.7198C13.7892 22.8183 9.96698 25.1838 9.06665 29.0033C8.16632 32.8227 10.5288 36.6497 14.3434 37.5512C18.158 38.4527 21.9803 36.0872 22.8806 32.2678Z" fill="#F7FAFC"/>
<path d="M15.9776 24.0395C17.7217 24.0517 19.3908 24.7513 20.6235 25.9867C21.8562 27.2222 22.5532 28.8942 22.5636 30.6405C22.5619 32.3889 21.8674 34.0652 20.6327 35.3015C19.3979 36.5378 17.7238 37.2331 15.9776 37.2348C14.2303 37.2348 12.5544 36.5403 11.3182 35.3038C10.082 34.0673 9.38668 32.39 9.38492 30.6405C9.39536 28.893 10.0933 27.2201 11.3274 25.9844C12.5615 24.7488 14.2323 24.0499 15.9776 24.0395ZM15.9776 23.0234C14.978 23.0226 13.9881 23.2189 13.0643 23.6013C12.1406 23.9837 11.3012 24.5447 10.594 25.2521C9.88692 25.9595 9.32596 26.7995 8.94324 27.724C8.56051 28.6486 8.36353 29.6396 8.36353 30.6405C8.36528 32.6613 9.16825 34.5987 10.596 36.027C12.0237 37.4552 13.9594 38.2575 15.9776 38.2575C17.9947 38.2558 19.9286 37.4527 21.3549 36.0246C22.7812 34.5965 23.5833 32.6601 23.585 30.6405C23.585 28.6203 22.7835 26.6829 21.3569 25.2544C19.9302 23.8259 17.9952 23.0234 15.9776 23.0234Z" fill="#0F5FAF" fill-opacity="0.25"/>
<path d="M15.9778 33.8754C15.1217 33.8737 14.3012 33.5324 13.6958 32.9262C13.0904 32.3201 12.7496 31.4985 12.7478 30.6413C12.7478 29.7836 13.0881 28.961 13.6939 28.3545C14.2996 27.748 15.1212 27.4072 15.9778 27.4072C16.8339 27.409 17.6545 27.7503 18.2598 28.3564C18.8652 28.9625 19.2061 29.7841 19.2078 30.6413C19.2061 31.4985 18.8652 32.3201 18.2598 32.9262C17.6545 33.5324 16.8339 33.8737 15.9778 33.8754Z" fill="#F7FAFC"/>
<path d="M15.9774 27.9172C16.6981 27.919 17.3888 28.2064 17.8984 28.7166C18.4079 29.2269 18.695 29.9184 18.6968 30.64C18.695 31.3615 18.4079 32.0531 17.8984 32.5633C17.3888 33.0735 16.6981 33.361 15.9774 33.3627C15.2568 33.361 14.5661 33.0735 14.0565 32.5633C13.5469 32.0531 13.2599 31.3615 13.2581 30.64C13.2599 29.9184 13.5469 29.2269 14.0565 28.7166C14.5661 28.2064 15.2568 27.919 15.9774 27.9172ZM15.9774 26.8945C15.486 26.8937 14.9991 26.9899 14.5449 27.1779C14.0907 27.3658 13.6779 27.6416 13.3304 27.9896C12.9829 28.3376 12.7074 28.7508 12.5197 29.2056C12.332 29.6604 12.2359 30.1479 12.2367 30.64C12.2332 31.1341 12.3274 31.624 12.5138 32.0814C12.7002 32.5389 12.9752 32.955 13.3229 33.3056C13.6706 33.6562 14.0842 33.9345 14.5398 34.1243C14.9954 34.3142 15.484 34.412 15.9774 34.412C16.969 34.4102 17.9194 34.015 18.6206 33.313C19.3217 32.611 19.7164 31.6593 19.7181 30.6665C19.7216 30.1724 19.6275 29.6825 19.4411 29.2251C19.2546 28.7676 18.9796 28.3515 18.6319 28.0009C18.2842 27.6503 17.8707 27.372 17.4151 27.1822C16.9595 26.9923 16.4709 26.8945 15.9774 26.8945Z" fill="#0F5FAF" fill-opacity="0.25"/>
<path d="M106.815 26.9525C112.855 20.9047 112.855 11.0992 106.815 5.05138C100.775 -0.996452 90.9815 -0.996448 84.9413 5.05138C78.9011 11.0992 78.9011 20.9047 84.9413 26.9525C90.9815 33.0003 100.775 33.0003 106.815 26.9525Z" fill="#F7FAFC"/>
<path d="M95.879 1.02269C99.8428 1.03148 103.642 2.61336 106.443 5.42165C109.244 8.22994 110.818 12.0355 110.822 16.0044C110.817 19.9744 109.239 23.7804 106.436 26.5876C103.632 29.3948 99.8307 30.9742 95.8657 30.9795C91.8995 30.976 88.0967 29.3974 85.2916 26.5899C82.4864 23.7825 80.9081 19.9756 80.9028 16.0044C80.9081 12.0326 82.4862 8.22504 85.2912 5.41656C88.0961 2.60808 91.8989 1.02796 95.8657 1.02269M95.8657 0C93.7669 -1.81054e-07 91.6887 0.414017 89.7498 1.2184C87.8109 2.02278 86.0492 3.20176 84.5655 4.68799C83.0817 6.17423 81.9049 7.93859 81.1024 9.8803C80.2998 11.822 79.8872 13.903 79.8881 16.0044C79.8881 20.2473 81.5714 24.3164 84.5678 27.3166C87.5642 30.3167 91.6282 32.0022 95.8657 32.0022C100.103 32.0004 104.166 30.3144 107.162 27.3146C110.158 24.3148 111.842 20.2468 111.843 16.0044C111.843 11.7609 110.16 7.69116 107.164 4.68994C104.168 1.68872 100.104 0.00176078 95.8657 0Z" fill="#0F5FAF" fill-opacity="0.25"/>
<path d="M95.8723 27.4197C102.173 27.4197 107.28 22.3058 107.28 15.9974C107.28 9.68911 102.173 4.5752 95.8723 4.5752C89.5719 4.5752 84.4645 9.68911 84.4645 15.9974C84.4645 22.3058 89.5719 27.4197 95.8723 27.4197Z" fill="#F7FAFC"/>
<path d="M95.879 5.08714C98.7692 5.09066 101.54 6.24224 103.583 8.2891C105.626 10.336 106.774 13.1109 106.776 16.0047C106.773 18.8974 105.623 21.6705 103.581 23.716C101.538 25.7614 98.768 26.9121 95.879 26.9156C92.9859 26.9174 90.2104 25.7692 88.1622 23.7234C86.114 21.6776 84.9606 18.9014 84.9553 16.0047C84.9588 13.1102 86.1087 10.3354 88.1528 8.2887C90.1969 6.24202 92.9683 5.09065 95.8591 5.08714M95.8591 4.06445C92.6928 4.06445 89.6562 5.32383 87.4173 7.56555C85.1784 9.80727 83.9207 12.8477 83.9207 16.018C83.9207 19.1882 85.1784 22.2287 87.4173 24.4704C89.6562 26.7121 92.6928 27.9715 95.8591 27.9715C99.0254 27.9715 102.062 26.7121 104.301 24.4704C106.54 22.2287 107.798 19.1882 107.798 16.018C107.798 12.8477 106.54 9.80727 104.301 7.56555C102.062 5.32383 99.0254 4.06445 95.8591 4.06445Z" fill="#0F5FAF" fill-opacity="0.25"/>
<path d="M95.8723 23.103C99.7917 23.103 102.969 19.9217 102.969 15.9973C102.969 12.0729 99.7917 8.8916 95.8723 8.8916C91.9529 8.8916 88.7756 12.0729 88.7756 15.9973C88.7756 19.9217 91.9529 23.103 95.8723 23.103Z" fill="#F7FAFC"/>
<path d="M95.8789 9.40354C97.6263 9.4053 99.3014 10.1015 100.536 11.3393C101.771 12.577 102.465 14.255 102.465 16.0045C102.463 17.7529 101.769 19.4292 100.534 20.6655C99.2993 21.9018 97.6251 22.5971 95.8789 22.5989C94.1348 22.5885 92.465 21.8906 91.2311 20.6563C89.9971 19.4221 89.2984 17.7509 89.2863 16.0045C89.2967 14.2571 89.9946 12.5842 91.2287 11.3485C92.4628 10.1128 94.1337 9.414 95.8789 9.40354ZM95.8789 8.38086C94.8793 8.38086 93.8896 8.5781 92.9662 8.9613C92.0427 9.34451 91.2038 9.90617 90.4973 10.6142C89.7908 11.3222 89.2306 12.1627 88.8487 13.0876C88.4668 14.0125 88.2706 15.0037 88.2715 16.0045C88.2715 18.0247 89.073 19.9621 90.4997 21.3906C91.9263 22.8191 93.8613 23.6216 95.8789 23.6216C97.896 23.6198 99.83 22.8168 101.256 21.3887C102.683 19.9606 103.485 18.0242 103.486 16.0045C103.486 13.9838 102.685 12.0457 101.259 10.6161C99.8321 9.1866 97.8972 8.38262 95.8789 8.38086Z" fill="#0F5FAF" fill-opacity="0.25"/>
<path d="M95.8791 19.2387C95.023 19.2369 94.2024 18.8956 93.5971 18.2895C92.9917 17.6834 92.6509 16.8618 92.6491 16.0046C92.6491 15.1469 92.9894 14.3243 93.5952 13.7177C94.2009 13.1112 95.0225 12.7705 95.8791 12.7705C96.7352 12.7723 97.5558 13.1136 98.1612 13.7197C98.7665 14.3258 99.1074 15.1474 99.1091 16.0046C99.1074 16.8618 98.7665 17.6834 98.1612 18.2895C97.5558 18.8956 96.7352 19.2369 95.8791 19.2387Z" fill="#F7FAFC"/>
<path d="M95.8791 13.2815C96.5998 13.2832 97.2904 13.5707 97.8 14.0809C98.3096 14.5911 98.5967 15.2827 98.5984 16.0042C98.5967 16.7258 98.3096 17.4173 97.8 17.9276C97.2904 18.4378 96.5998 18.7252 95.8791 18.727C95.1584 18.7252 94.4678 18.4378 93.9582 17.9276C93.4486 17.4173 93.1615 16.7258 93.1598 16.0042C93.1615 15.2827 93.4486 14.5911 93.9582 14.0809C94.4678 13.5707 95.1584 13.2832 95.8791 13.2815ZM95.8791 12.2588C95.3876 12.2579 94.9008 12.3542 94.4466 12.5421C93.9923 12.73 93.5796 13.0059 93.2321 13.3539C92.8845 13.7018 92.609 14.1151 92.4213 14.5699C92.2337 15.0247 92.1375 15.5121 92.1384 16.0042C92.1384 16.9976 92.5325 17.9502 93.234 18.6527C93.9355 19.3551 94.887 19.7497 95.8791 19.7497C96.8707 19.7479 97.8211 19.3527 98.5222 18.6507C99.2234 17.9487 99.618 16.997 99.6198 16.0042C99.6198 15.0109 99.2257 14.0582 98.5242 13.3558C97.8226 12.6534 96.8712 12.2588 95.8791 12.2588Z" fill="#0F5FAF" fill-opacity="0.25"/>
<path d="M64.2351 31.4971C72.7754 31.3195 79.5549 24.2435 79.3775 15.6924C79.2001 7.14132 72.133 0.353291 63.5927 0.530918C55.0524 0.708544 48.2729 7.78456 48.4503 16.3356C48.6277 24.8867 55.6948 31.6747 64.2351 31.4971Z" fill="#F7FAFC"/>
<path d="M63.9171 1.02269C67.8838 1.02796 71.6867 2.60808 74.4916 5.41656C77.2965 8.22504 78.8746 12.0326 78.8799 16.0044C78.8746 19.9756 77.2963 23.7825 74.4912 26.5899C71.6861 29.3974 67.8832 30.976 63.9171 30.9795C59.952 30.9742 56.1509 29.3948 53.3472 26.5876C50.5435 23.7804 48.9661 19.9744 48.9608 16.0044C48.9644 12.0332 50.541 8.22564 53.3449 5.41697C56.1488 2.6083 59.9509 1.02796 63.9171 1.02269ZM63.9171 0C59.6789 0.00176078 55.615 1.68872 52.6188 4.68994C49.6226 7.69116 47.9395 11.7609 47.9395 16.0044C47.9412 20.2468 49.6251 24.3148 52.6211 27.3146C55.6171 30.3144 59.6801 32.0004 63.9171 32.0022C68.1552 32.0022 72.2199 30.3169 75.2173 27.317C78.2147 24.317 79.8996 20.2479 79.9013 16.0044C79.9013 13.9027 79.4879 11.8215 78.6846 9.8798C77.8813 7.93805 76.7039 6.17373 75.2196 4.68759C73.7353 3.20144 71.9733 2.02256 70.034 1.21826C68.0947 0.413967 66.0161 0 63.9171 0Z" fill="#0F5FAF" fill-opacity="0.25"/>
<path d="M67.6413 26.7951C73.5956 24.733 76.7529 18.2284 74.6934 12.2666C72.6339 6.30483 66.1374 3.14354 60.1832 5.20566C54.2289 7.26778 51.0716 13.7724 53.1311 19.7342C55.1906 25.696 61.6871 28.8573 67.6413 26.7951Z" fill="#F7FAFC"/>
<path d="M63.9169 5.08714C66.8082 5.0889 69.5806 6.2397 71.6251 8.28676C73.6696 10.3338 74.8189 13.1097 74.8207 16.0047C74.8172 18.8985 73.667 21.6727 71.6227 23.7183C69.5785 25.7639 66.8071 26.9138 63.9169 26.9156C61.0279 26.9121 58.2582 25.7614 56.2153 23.716C54.1725 21.6705 53.0233 18.8974 53.0198 16.0047C53.0215 13.1109 54.1699 10.336 56.213 8.2891C58.256 6.24224 61.0267 5.09066 63.9169 5.08714ZM63.9169 4.06445C60.7506 4.06445 57.714 5.32383 55.4751 7.56555C53.2363 9.80727 51.9785 12.8477 51.9785 16.018C51.9785 19.1882 53.2363 22.2287 55.4751 24.4704C57.714 26.7121 60.7506 27.9715 63.9169 27.9715C67.0832 27.9715 70.1198 26.7121 72.3587 24.4704C74.5976 22.2287 75.8553 19.1882 75.8553 16.018C75.8553 12.8477 74.5976 9.80727 72.3587 7.56555C70.1198 5.32383 67.0832 4.06445 63.9169 4.06445Z" fill="#0F5FAF" fill-opacity="0.25"/>
<path d="M64.0349 23.0972C67.9537 23.0294 71.0757 19.7936 71.008 15.8698C70.9402 11.9461 67.7085 8.82017 63.7897 8.88797C59.8708 8.95578 56.7489 12.1916 56.8166 16.1154C56.8843 20.0392 60.1161 23.1651 64.0349 23.0972Z" fill="#F7FAFC"/>
<path d="M63.9171 9.40354C65.6623 9.414 67.3332 10.1128 68.5673 11.3485C69.8014 12.5842 70.4993 14.2571 70.5097 16.0045C70.4976 17.7509 69.7989 19.4221 68.5649 20.6563C67.331 21.8906 65.6612 22.5885 63.9171 22.5989C62.1741 22.5867 60.506 21.8881 59.2735 20.654C58.041 19.42 57.3432 17.7497 57.331 16.0045C57.3415 14.2582 58.0385 12.5863 59.2712 11.3508C60.5038 10.1153 62.173 9.41574 63.9171 9.40354ZM63.9171 8.38086C61.8988 8.38262 59.9639 9.1866 58.5374 10.6161C57.1109 12.0457 56.3096 13.9838 56.3096 16.0045C56.3114 18.0242 57.1135 19.9606 58.5397 21.3887C59.966 22.8168 61.9 23.6198 63.9171 23.6216C65.9353 23.6216 67.871 22.8193 69.2987 21.391C70.7264 19.9627 71.5294 18.0253 71.5312 16.0045C71.5312 13.9826 70.7289 12.0435 69.301 10.6138C67.8731 9.18407 65.9365 8.38086 63.9171 8.38086Z" fill="#0F5FAF" fill-opacity="0.25"/>
<path d="M63.917 19.2387C63.0608 19.2369 62.2403 18.8956 61.6349 18.2895C61.0296 17.6834 60.6887 16.8618 60.687 16.0046C60.6887 15.1474 61.0296 14.3258 61.6349 13.7197C62.2403 13.1136 63.0608 12.7723 63.917 12.7705C64.7736 12.7705 65.5952 13.1112 66.2009 13.7177C66.8067 14.3243 67.147 15.1469 67.147 16.0046C67.1452 16.8618 66.8044 17.6834 66.199 18.2895C65.5936 18.8956 64.7731 19.2369 63.917 19.2387Z" fill="#F7FAFC"/>
<path d="M63.917 13.2815C64.6376 13.2832 65.3283 13.5707 65.8379 14.0809C66.3474 14.5911 66.6345 15.2827 66.6363 16.0042C66.6345 16.7258 66.3474 17.4173 65.8379 17.9276C65.3283 18.4378 64.6376 18.7252 63.917 18.727C63.1963 18.7252 62.5056 18.4378 61.996 17.9276C61.4865 17.4173 61.1994 16.7258 61.1976 16.0042C61.1994 15.2827 61.4865 14.5911 61.996 14.0809C62.5056 13.5707 63.1963 13.2832 63.917 13.2815ZM63.917 12.2588C63.426 12.2588 62.9399 12.3557 62.4864 12.544C62.033 12.7323 61.621 13.0083 61.2742 13.3562C60.9274 13.7041 60.6525 14.117 60.4652 14.5714C60.2779 15.0258 60.182 15.5127 60.1829 16.0042C60.1829 16.9964 60.5761 17.9481 61.2761 18.6503C61.9762 19.3525 62.926 19.7479 63.917 19.7497C64.909 19.7497 65.8605 19.3551 66.562 18.6527C67.2636 17.9502 67.6577 16.9976 67.6577 16.0042C67.6585 15.5121 67.5624 15.0247 67.3747 14.5699C67.187 14.1151 66.9115 13.7018 66.564 13.3539C66.2165 13.0059 65.8037 12.73 65.3495 12.5421C64.8952 12.3542 64.4084 12.2579 63.917 12.2588Z" fill="#0F5FAF" fill-opacity="0.25"/>
<path d="M47.0067 19.5571C48.9689 11.2329 43.82 2.89209 35.5063 0.927397C27.1926 -1.0373 18.8623 4.11811 16.9001 12.4423C14.9379 20.7665 20.0868 29.1073 28.4005 31.072C36.7142 33.0367 45.0445 27.8813 47.0067 19.5571Z" fill="#F7FAFC"/>
<path d="M31.962 1.02269C35.9281 1.02797 39.7303 2.6083 42.5341 5.41697C45.338 8.22564 46.9147 12.0333 46.9182 16.0044C46.9147 19.975 45.3378 23.7819 42.5337 26.5895C39.7297 29.3972 35.9275 30.976 31.962 30.9795C27.9958 30.976 24.193 29.3974 21.3879 26.5899C18.5827 23.7825 17.0044 19.9756 16.9991 16.0044C17.0044 12.0326 18.5825 8.22504 21.3875 5.41656C24.1924 2.60809 27.9952 1.02796 31.962 1.02269ZM31.962 1.37904e-06C29.8626 -0.000871354 27.7837 0.412499 25.844 1.21649C23.9043 2.02048 22.1419 3.19932 20.6575 4.68564C19.173 6.17196 17.9957 7.93662 17.1927 9.87876C16.3897 11.8209 15.9769 13.9025 15.9777 16.0044C15.9777 18.1058 16.3912 20.1867 17.1946 22.1281C17.9979 24.0694 19.1754 25.8333 20.6598 27.3189C22.1442 28.8045 23.9063 29.9828 25.8456 30.7864C27.7848 31.5899 29.8632 32.0031 31.962 32.0022C36.199 32.0005 40.2619 30.3144 43.2579 27.3146C46.2539 24.3148 47.9378 20.2468 47.9396 16.0044C47.9396 11.7609 46.2564 7.69116 43.2603 4.68994C40.2641 1.68872 36.2001 0.00176216 31.962 1.37904e-06Z" fill="#0F5FAF" fill-opacity="0.25"/>
<path d="M31.9552 27.4197C38.2556 27.4197 43.3631 22.3058 43.3631 15.9974C43.3631 9.68911 38.2556 4.5752 31.9552 4.5752C25.6548 4.5752 20.5474 9.68911 20.5474 15.9974C20.5474 22.3058 25.6548 27.4197 31.9552 27.4197Z" fill="#F7FAFC"/>
<path d="M31.9619 5.08714C34.8521 5.09066 37.6227 6.24224 39.6658 8.2891C41.7088 10.336 42.8573 13.1109 42.859 16.0047C42.8555 18.8974 41.7063 21.6705 39.6634 23.716C37.6206 25.7614 34.8509 26.9121 31.9619 26.9156C29.0722 26.9121 26.3019 25.7616 24.258 23.7164C22.2141 21.6711 21.0634 18.898 21.0581 16.0047C21.0616 13.1102 22.2115 10.3354 24.2556 8.2887C26.2997 6.24202 29.0711 5.09065 31.9619 5.08714ZM31.9619 4.06445C28.7956 4.06445 25.759 5.32383 23.5201 7.56555C21.2812 9.80727 20.0234 12.8477 20.0234 16.018C20.0234 19.1882 21.2812 22.2287 23.5201 24.4704C25.759 26.7121 28.7956 27.9715 31.9619 27.9715C35.1282 27.9715 38.1647 26.7121 40.4036 24.4704C42.6425 22.2287 43.9003 19.1882 43.9003 16.018C43.9003 12.8477 42.6425 9.80727 40.4036 7.56555C38.1647 5.32383 35.1282 4.06445 31.9619 4.06445Z" fill="#0F5FAF" fill-opacity="0.25"/>
<path d="M31.9551 23.103C35.8745 23.103 39.0518 19.9217 39.0518 15.9973C39.0518 12.0729 35.8745 8.8916 31.9551 8.8916C28.0357 8.8916 24.8583 12.0729 24.8583 15.9973C24.8583 19.9217 28.0357 23.103 31.9551 23.103Z" fill="#F7FAFC"/>
<path d="M31.9619 9.40354C33.7058 9.41057 35.3758 10.1091 36.6065 11.3463C37.8371 12.5835 38.528 14.2584 38.528 16.0045C38.5263 17.7529 37.8318 19.4292 36.5971 20.6655C35.3623 21.9018 33.6882 22.5971 31.942 22.5989C30.1979 22.5885 28.528 21.8906 27.2941 20.6563C26.0602 19.4221 25.3615 17.7509 25.3493 16.0045C25.3597 14.2571 26.0577 12.5842 27.2918 11.3485C28.5259 10.1128 30.1967 9.414 31.942 9.40354M31.942 8.38086C30.9424 8.38086 29.9526 8.5781 29.0292 8.9613C28.1058 9.34451 27.2669 9.90617 26.5604 10.6142C25.8539 11.3222 25.2936 12.1627 24.9117 13.0876C24.5298 14.0125 24.3337 15.0037 24.3345 16.0045C24.3345 17.0065 24.532 17.9986 24.9155 18.9241C25.2991 19.8495 25.8612 20.6901 26.5697 21.3977C27.2783 22.1052 28.1192 22.6659 29.0445 23.0475C29.9698 23.4291 30.9612 23.6242 31.9619 23.6216C33.9795 23.6216 35.9145 22.8191 37.3411 21.3906C38.7678 19.9621 39.5693 18.0247 39.5693 16.0045C39.5702 15.0037 39.3741 14.0125 38.9921 13.0876C38.6102 12.1627 38.05 11.3222 37.3435 10.6142C36.637 9.90617 35.7981 9.34451 34.8746 8.9613C33.9512 8.5781 32.9615 8.38086 31.9619 8.38086H31.942Z" fill="#0F5FAF" fill-opacity="0.25"/>
<path d="M31.9618 19.2387C31.1057 19.237 30.2852 18.8957 29.6798 18.2895C29.0744 17.6834 28.7336 16.8618 28.7318 16.0046C28.7318 15.1469 29.0721 14.3243 29.6779 13.7178C30.2836 13.1113 31.1052 12.7705 31.9618 12.7705C32.3874 12.7688 32.8092 12.8511 33.203 13.0128C33.5968 13.1744 33.9548 13.4123 34.2567 13.7127C34.5586 14.0131 34.7983 14.3701 34.9622 14.7634C35.1261 15.1567 35.2109 15.5785 35.2117 16.0046C35.2109 16.4308 35.1261 16.8525 34.9622 17.2458C34.7983 17.6391 34.5586 17.9962 34.2567 18.2966C33.9548 18.597 33.5968 18.8348 33.203 18.9965C32.8092 19.1581 32.3874 19.2405 31.9618 19.2387Z" fill="#F7FAFC"/>
<path d="M31.9618 13.2815C32.6825 13.2832 33.3732 13.5707 33.8827 14.0809C34.3923 14.5911 34.6794 15.2827 34.6812 16.0042C34.6794 16.7258 34.3923 17.4173 33.8827 17.9276C33.3732 18.4378 32.6825 18.7252 31.9618 18.727C31.2412 18.7252 30.5505 18.4378 30.0409 17.9276C29.5313 17.4173 29.2443 16.7258 29.2425 16.0042C29.2443 15.2827 29.5313 14.5911 30.0409 14.0809C30.5505 13.5707 31.2412 13.2832 31.9618 13.2815ZM31.9618 12.2588C31.4704 12.2579 30.9835 12.3542 30.5293 12.5421C30.0751 12.73 29.6623 13.0059 29.3148 13.3539C28.9673 13.7018 28.6918 14.1151 28.5041 14.5699C28.3164 15.0247 28.2203 15.5121 28.2211 16.0042C28.2211 16.9976 28.6152 17.9502 29.3168 18.6527C30.0183 19.3551 30.9697 19.7497 31.9618 19.7497C32.9534 19.7479 33.9038 19.3527 34.605 18.6507C35.3061 17.9487 35.7008 16.997 35.7026 16.0042C35.7026 15.0109 35.3084 14.0582 34.6069 13.3558C33.9054 12.6534 32.9539 12.2588 31.9618 12.2588Z" fill="#0F5FAF" fill-opacity="0.25"/>
</g>
<defs>
<clipPath id="clip0_853_5287">
<rect width="128" height="48" fill="white"/>
</clipPath>
</defs>
</svg>
