<svg width="89" height="68" viewBox="0 0 89 68" fill="none" xmlns="http://www.w3.org/2000/svg">
<g clip-path="url(#clip0_853_5204)">
<path d="M52.5598 65.5985C63.5345 60.9617 68.7461 48.128 64.2002 36.9337C59.6543 25.7394 47.0724 20.4235 36.0978 25.0603C25.1231 29.6972 19.9115 42.5308 24.4573 53.7252C29.0032 64.9195 41.5851 70.2354 52.5598 65.5985Z" fill="#F7FAFC"/>
<path d="M44.3317 24.1123C49.8439 24.1247 55.1265 26.3657 59.0217 30.3441C62.9169 34.3225 65.1069 39.7138 65.1117 45.3364C65.1068 50.9614 62.914 56.3545 59.0146 60.332C55.1152 64.3094 49.8279 66.5461 44.3133 66.5511C38.7978 66.5461 33.5095 64.3097 29.6086 60.3325C25.7077 56.3554 23.5129 50.9622 23.5056 45.3364C23.5129 39.7097 25.7074 34.3156 29.6081 30.3369C33.5087 26.3582 38.797 24.1197 44.3133 24.1123M44.3133 22.6729C41.3951 22.6716 38.5053 23.257 35.809 24.3955C33.1128 25.534 30.6629 27.2033 28.5994 29.3081C26.536 31.4128 24.8994 33.9117 23.7832 36.662C22.667 39.4122 22.0932 42.3598 22.0944 45.3364C22.0944 51.3471 24.4353 57.1117 28.6021 61.3619C32.769 65.6122 38.4204 67.9999 44.3133 67.9999C50.2053 67.9974 55.8553 65.6089 60.0217 61.3592C64.188 57.1095 66.5297 51.3464 66.5321 45.3364C66.5321 39.3256 64.1912 33.5611 60.0244 29.3108C55.8575 25.0606 50.2061 22.6729 44.3133 22.6729Z" fill="#0F5FAF" fill-opacity="0.25"/>
<path d="M44.3224 61.5085C53.0839 61.5085 60.1864 54.2638 60.1864 45.327C60.1864 36.3902 53.0839 29.1455 44.3224 29.1455C35.5609 29.1455 28.4584 36.3902 28.4584 45.327C28.4584 54.2638 35.5609 61.5085 44.3224 61.5085Z" fill="#F7FAFC"/>
<path d="M44.3317 29.8701C48.3501 29.8775 52.2017 31.5097 55.0423 34.4089C57.8828 37.3081 59.4807 41.2378 59.4855 45.3366C59.4807 49.4345 57.8825 53.3632 55.0417 56.2609C52.2009 59.1586 48.3493 60.7887 44.3317 60.7937C40.3085 60.7962 36.4488 59.1697 33.6006 56.2715C30.7523 53.3732 29.1483 49.4403 29.141 45.3366C29.1483 41.2369 30.7482 37.3073 33.5902 34.4083C36.4322 31.5094 40.2848 29.8775 44.304 29.8701M44.304 28.4307C39.9009 28.4307 35.6782 30.2148 32.5647 33.3906C29.4513 36.5663 27.7021 40.8736 27.7021 45.3648C27.7021 49.856 29.4513 54.1633 32.5647 57.3391C35.6782 60.5148 39.9009 62.299 44.304 62.299C48.7071 62.299 52.9299 60.5148 56.0433 57.3391C59.1568 54.1633 60.9059 49.856 60.9059 45.3648C60.9059 40.8736 59.1568 36.5663 56.0433 33.3906C52.9299 30.2148 48.7071 28.4307 44.304 28.4307Z" fill="#0F5FAF" fill-opacity="0.25"/>
<path d="M44.3225 55.3936C49.773 55.3936 54.1914 50.8867 54.1914 45.3272C54.1914 39.7676 49.773 35.2607 44.3225 35.2607C38.8721 35.2607 34.4536 39.7676 34.4536 45.3272C34.4536 50.8867 38.8721 55.3936 44.3225 55.3936Z" fill="#F7FAFC"/>
<path d="M44.3317 35.9853C46.7616 35.9878 49.0911 36.9741 50.8084 38.7276C52.5257 40.4811 53.4904 42.8582 53.4904 45.3367C53.4879 47.8136 52.5222 50.1883 50.8052 51.9398C49.0881 53.6912 46.76 54.6762 44.3317 54.6787C41.9018 54.6787 39.5713 53.6948 37.8522 51.9431C36.1332 50.1914 35.1662 47.8152 35.1637 45.3367C35.1782 42.8611 36.1488 40.4912 37.865 38.7406C39.5812 36.9901 41.9047 36.0001 44.3317 35.9853ZM44.3317 34.5459C42.9421 34.5447 41.5659 34.8229 40.2818 35.3648C38.9977 35.9066 37.831 36.7014 36.8484 37.7037C35.8658 38.706 35.0866 39.896 34.5554 41.2058C34.0242 42.5155 33.7514 43.9193 33.7526 45.3367C33.7526 48.1986 34.8672 50.9433 36.8511 52.967C38.8351 54.9906 41.5259 56.1275 44.3317 56.1275C47.1367 56.125 49.8261 54.9874 51.8095 52.9642C53.7929 50.9411 54.9083 48.1979 54.9108 45.3367C54.9108 42.4748 53.7962 39.7301 51.8122 37.7065C49.8282 35.6828 47.1374 34.5459 44.3317 34.5459Z" fill="#0F5FAF" fill-opacity="0.25"/>
<path d="M44.3319 49.9181C43.1414 49.9157 42.0003 49.4321 41.1585 48.5735C40.3166 47.7148 39.8426 46.5509 39.8402 45.3365C39.8402 44.1214 40.3134 42.956 41.1558 42.0968C41.9982 41.2376 43.1407 40.7549 44.3319 40.7549C45.5225 40.7574 46.6636 41.2409 47.5054 42.0996C48.3472 42.9582 48.8212 44.1221 48.8237 45.3365C48.8212 46.5509 48.3472 47.7148 47.5054 48.5735C46.6636 49.4321 45.5225 49.9157 44.3319 49.9181Z" fill="#F7FAFC"/>
<path d="M44.3318 41.4797C45.334 41.4822 46.2944 41.8894 47.0031 42.6122C47.7117 43.335 48.1109 44.3147 48.1134 45.3369C48.1109 46.3592 47.7117 47.3388 47.0031 48.0616C46.2944 48.7845 45.334 49.1917 44.3318 49.1941C43.3297 49.1917 42.3692 48.7845 41.6606 48.0616C40.9519 47.3388 40.5527 46.3592 40.5503 45.3369C40.5527 44.3147 40.9519 43.335 41.6606 42.6122C42.3692 41.8894 43.3297 41.4822 44.3318 41.4797ZM44.3318 40.0309C43.6484 40.0297 42.9714 40.166 42.3397 40.4323C41.708 40.6985 41.1341 41.0893 40.6508 41.5822C40.1675 42.0752 39.7844 42.6606 39.5234 43.3049C39.2624 43.9492 39.1287 44.6398 39.1299 45.3369C39.1323 46.7425 39.6815 48.0897 40.6568 49.0828C41.6321 50.0758 42.9538 50.6336 44.3318 50.6335C45.7107 50.6311 47.0324 50.0712 48.0075 49.0767C48.9825 48.0822 49.5313 46.734 49.5337 45.3275C49.5337 44.6307 49.3992 43.9407 49.1378 43.297C48.8764 42.6532 48.4932 42.0683 48.0101 41.5756C47.5271 41.0829 46.9536 40.692 46.3225 40.4254C45.6914 40.1587 45.015 40.0215 44.3318 40.0215V40.0309Z" fill="#0F5FAF" fill-opacity="0.25"/>
<path d="M0.213807 67.248C12.0913 67.0598 21.5703 57.0859 21.3858 44.9707C21.2013 32.8556 11.4231 23.1868 -0.454373 23.375C-12.3319 23.5632 -21.8109 33.5371 -21.6264 45.6523C-21.4418 57.7675 -11.6637 67.4362 0.213807 67.248Z" fill="#F7FAFC"/>
<path d="M-0.115362 24.1123C5.40094 24.1197 10.6892 26.3582 14.5898 30.3369C18.4905 34.3156 20.685 39.7097 20.6923 45.3364C20.685 50.9622 18.4902 56.3554 14.5893 60.3325C10.6884 64.3097 5.40009 66.5461 -0.115362 66.5511C-5.62996 66.5461 -10.9173 64.3094 -14.8167 60.332C-18.7161 56.3545 -20.909 50.9614 -20.9139 45.3364C-20.909 39.7106 -18.7164 34.3164 -14.8173 30.3375C-10.9181 26.3585 -5.63081 24.1197 -0.115362 24.1123ZM-0.115362 22.6729C-6.00817 22.6729 -11.6596 25.0606 -15.8265 29.3108C-19.9933 33.5611 -22.3342 39.3256 -22.3342 45.3364C-22.3318 51.3464 -19.9901 57.1095 -15.8238 61.3592C-11.6575 65.6089 -6.00742 67.9974 -0.115362 67.9999C5.7783 67.9999 11.4307 65.6125 15.599 61.3625C19.7673 57.1125 22.1103 51.348 22.1127 45.3364C22.1127 42.3594 21.5377 39.4115 20.4205 36.6613C19.3033 33.911 17.6659 31.4121 15.6017 29.3075C13.5375 27.2029 11.0871 25.5337 8.39027 24.3953C5.69349 23.2569 2.80324 22.6716 -0.115362 22.6729Z" fill="#0F5FAF" fill-opacity="0.25"/>
<path d="M5.06789 60.6208C13.348 57.6994 17.7387 48.4845 14.8747 40.0387C12.0106 31.5928 2.9765 27.1143 -5.30363 30.0357C-13.5838 32.957 -17.9744 42.1719 -15.1104 50.6178C-12.2464 59.0636 -3.21224 63.5421 5.06789 60.6208Z" fill="#F7FAFC"/>
<path d="M-0.115511 29.8701C3.90449 29.875 7.75843 31.5061 10.601 34.4056C13.4436 37.3051 15.0427 41.2361 15.0476 45.3366C15.0427 49.4362 13.4433 53.3663 10.6004 56.2642C7.75761 59.1622 3.90364 60.7912 -0.115511 60.7937C-4.13306 60.7887 -7.98467 59.1586 -10.8255 56.2609C-13.6663 53.3632 -15.2645 49.4345 -15.2693 45.3366C-15.2645 41.2378 -13.6666 37.3081 -10.8261 34.4089C-7.98549 31.5097 -4.13391 29.8775 -0.115511 29.8701ZM-0.115511 28.4307C-4.51861 28.4307 -8.74136 30.2148 -11.8548 33.3906C-14.9683 36.5663 -16.7174 40.8736 -16.7174 45.3648C-16.7174 49.856 -14.9683 54.1633 -11.8548 57.3391C-8.74136 60.5148 -4.51861 62.299 -0.115511 62.299C4.28759 62.299 8.51035 60.5148 11.6238 57.3391C14.7373 54.1633 16.4864 49.856 16.4864 45.3648C16.4864 40.8736 14.7373 36.5663 11.6238 33.3906C8.51035 30.2148 4.28759 28.4307 -0.115511 28.4307Z" fill="#0F5FAF" fill-opacity="0.25"/>
<path d="M0.044897 55.3905C5.49453 55.2944 9.836 50.7103 9.74183 45.1516C9.64765 39.5929 5.1535 35.1646 -0.296131 35.2606C-5.74576 35.3567 -10.0872 39.9408 -9.99306 45.4995C-9.89889 51.0582 -5.40474 55.4865 0.044897 55.3905Z" fill="#F7FAFC"/>
<path d="M-0.115361 35.9853C2.31165 36.0001 4.63513 36.9901 6.35132 38.7406C8.0675 40.4912 9.03806 42.8611 9.05258 45.3367C9.05013 47.8152 8.08315 50.1914 6.3641 51.9431C4.64504 53.6948 2.31453 54.6787 -0.115361 54.6787C-2.54365 54.6762 -4.87179 53.6912 -6.58885 51.9398C-8.30591 50.1883 -9.27162 47.8136 -9.27407 45.3367C-9.25957 42.8628 -8.29027 40.4942 -6.57607 38.7439C-4.86187 36.9937 -2.54077 36.0026 -0.115361 35.9853ZM-0.115361 34.5459C-2.92111 34.5459 -5.61194 35.6828 -7.5959 37.7065C-9.57987 39.7301 -10.6945 42.4748 -10.6945 45.3367C-10.692 48.1979 -9.57664 50.9411 -7.5932 52.9642C-5.60976 54.9874 -2.92036 56.125 -0.115361 56.1275C2.69124 56.1275 5.38301 54.9909 7.36844 52.9675C9.35387 50.9441 10.4705 48.1995 10.473 45.3367C10.473 43.9189 10.199 42.5149 9.66681 41.2051C9.13458 39.8953 8.35448 38.7053 7.37115 37.7031C6.38781 36.701 5.2205 35.9063 3.93592 35.3646C2.65134 34.8229 1.27468 34.5447 -0.115361 34.5459Z" fill="#0F5FAF" fill-opacity="0.25"/>
<path d="M-0.115447 49.9181C-1.30598 49.9157 -2.44707 49.4321 -3.2889 48.5735C-4.13074 47.7148 -4.60474 46.5509 -4.60718 45.3365C-4.60474 44.1221 -4.13074 42.9582 -3.2889 42.0996C-2.44707 41.2409 -1.30598 40.7574 -0.115447 40.7549C1.07584 40.7549 2.21832 41.2376 3.06068 42.0968C3.90305 42.956 4.37628 44.1214 4.37628 45.3365C4.37385 46.5509 3.89985 47.7148 3.05801 48.5735C2.21617 49.4321 1.07509 49.9157 -0.115447 49.9181Z" fill="#F7FAFC"/>
<path d="M-0.11551 41.4797C0.886669 41.4822 1.84709 41.8894 2.55574 42.6122C3.26439 43.335 3.6636 44.3147 3.66604 45.3369C3.6636 46.3592 3.26439 47.3388 2.55574 48.0617C1.84709 48.7845 0.886669 49.1917 -0.11551 49.1942C-1.11769 49.1917 -2.07812 48.7845 -2.78676 48.0617C-3.49541 47.3388 -3.89462 46.3592 -3.89706 45.3369C-3.89462 44.3147 -3.49541 43.335 -2.78676 42.6122C-2.07812 41.8894 -1.11769 41.4822 -0.11551 41.4797ZM-0.11551 40.0309C-0.798203 40.0309 -1.4742 40.1682 -2.10481 40.435C-2.73542 40.7017 -3.30827 41.0927 -3.79058 41.5856C-4.27289 42.0784 -4.65518 42.6634 -4.91559 43.3071C-5.17601 43.9508 -5.30943 44.6406 -5.30822 45.3369C-5.30578 46.7409 -4.7579 48.0867 -3.78461 49.0795C-2.81132 50.0722 -1.49195 50.6311 -0.11551 50.6336C1.26413 50.6336 2.58727 50.0745 3.56282 49.0795C4.53837 48.0844 5.08643 46.7348 5.08643 45.3275C5.08765 44.6304 4.95392 43.9398 4.69293 43.2955C4.43194 42.6512 4.04881 42.0658 3.56552 41.5728C3.08224 41.0799 2.50828 40.6891 1.87661 40.4229C1.24493 40.1567 0.567958 40.0203 -0.11551 40.0215V40.0309Z" fill="#0F5FAF" fill-opacity="0.25"/>
<path d="M43.3525 46.9187C45.2559 34.9586 37.2934 23.6892 25.568 21.7478C13.8425 19.8064 2.79426 27.9282 0.890947 39.8883C-1.01236 51.8484 6.95005 63.1178 18.6755 65.0592C30.4009 67.0006 41.4492 58.8788 43.3525 46.9187Z" fill="#F7FAFC"/>
<path d="M22.1126 22.1835C27.6281 22.191 32.9154 24.4298 36.8145 28.4088C40.7137 32.3877 42.9062 37.7818 42.9111 43.4077C42.9038 49.0319 40.7102 54.4236 36.8113 58.4005C32.9124 62.3774 27.6265 64.6149 22.1126 64.6224C16.5972 64.6174 11.3089 62.381 7.40799 58.4038C3.50711 54.4266 1.31224 49.0335 1.30491 43.4077C1.31223 37.781 3.50681 32.3869 7.40742 28.4082C11.308 24.4295 16.5963 22.191 22.1126 22.1835ZM22.1126 20.7441C19.194 20.7429 16.3038 21.3282 13.607 22.4666C10.9102 23.605 8.45972 25.2742 6.39553 27.3788C4.33134 29.4834 2.69388 31.9823 1.5767 34.7325C0.459524 37.4828 -0.115479 40.4307 -0.115479 43.4077C-0.113033 49.4193 2.22992 55.1838 6.39823 59.4338C10.5665 63.6837 16.219 66.0712 22.1126 66.0712C28.0047 66.0687 33.6547 63.6802 37.821 59.4305C41.9874 55.1808 44.329 49.4176 44.3315 43.4077C44.3315 40.4315 43.7568 37.4844 42.6402 34.7347C41.5236 31.985 39.887 29.4866 37.8237 27.3821C35.7605 25.2776 33.3111 23.6082 30.6154 22.4693C27.9197 21.3304 25.0304 20.7441 22.1126 20.7441Z" fill="#0F5FAF" fill-opacity="0.25"/>
<path d="M37.1381 48.5107C39.908 40.0323 35.4151 30.8688 27.103 28.0434C18.7909 25.2181 9.80722 29.8008 7.03732 38.2793C4.26742 46.7577 8.76026 55.9212 17.0724 58.7466C25.3844 61.5719 34.3682 56.9892 37.1381 48.5107Z" fill="#F7FAFC"/>
<path d="M22.1128 27.941C26.1312 27.9485 29.9827 29.5807 32.8233 32.4799C35.6639 35.379 37.2617 39.3087 37.2666 43.4075C37.2617 47.5055 35.6636 51.4342 32.8227 54.3318C29.9819 57.2295 26.1303 58.8596 22.1128 58.8646C18.0936 58.8621 14.2396 57.2331 11.3968 54.3352C8.55398 51.4372 6.95458 47.5071 6.94969 43.4075C6.95457 39.3071 8.55368 35.376 11.3962 32.4765C14.2388 29.5771 18.0928 27.946 22.1128 27.941ZM22.1128 26.4922C17.7097 26.4922 13.4869 28.2763 10.3734 31.4521C7.25998 34.6279 5.51086 38.9351 5.51086 43.4263C5.51086 47.9175 7.25998 52.2248 10.3734 55.4006C13.4869 58.5763 17.7097 60.3605 22.1128 60.3605C26.5159 60.3605 30.7386 58.5763 33.8521 55.4006C36.9655 52.2248 38.7147 47.9175 38.7147 43.4263C38.7147 38.9351 36.9655 34.6279 33.8521 31.4521C30.7386 28.2763 26.5159 26.4922 22.1128 26.4922Z" fill="#0F5FAF" fill-opacity="0.25"/>
<path d="M31.7004 45.7093C32.9524 40.2985 29.6671 34.8768 24.3624 33.5997C19.0577 32.3227 13.7424 35.6737 12.4904 41.0846C11.2384 46.4955 14.5237 51.9171 19.8284 53.1942C25.1331 54.4713 30.4484 51.1202 31.7004 45.7093Z" fill="#F7FAFC"/>
<path d="M22.1125 34.0566C24.5379 34.0739 26.859 35.0649 28.5732 36.8152C30.2874 38.5655 31.2567 40.934 31.2712 43.408C31.2688 45.8849 30.3031 48.2596 28.586 50.011C26.8689 51.7625 24.5408 52.7475 22.1125 52.75C19.6826 52.75 17.3521 51.7661 15.633 50.0144C13.914 48.2627 12.947 45.8865 12.9446 43.408C12.9591 40.9324 13.9296 38.5625 15.6458 36.8119C17.362 35.0614 19.6855 34.0714 22.1125 34.0566ZM22.1125 32.6172C20.7225 32.616 19.3458 32.8942 18.0612 33.4359C16.7766 33.9776 15.6093 34.7723 14.626 35.7744C13.6427 36.7766 12.8626 37.9666 12.3303 39.2764C11.7981 40.5862 11.5242 41.9901 11.5242 43.408C11.5266 46.2708 12.6433 49.0154 14.6287 51.0388C16.6141 53.0622 19.3059 54.1988 22.1125 54.1988C24.9175 54.1963 27.6069 53.0586 29.5903 51.0355C31.5738 49.0124 32.6892 46.2691 32.6916 43.408C32.6916 40.5461 31.577 37.8014 29.593 35.7777C27.6091 33.7541 24.9183 32.6172 22.1125 32.6172Z" fill="#0F5FAF" fill-opacity="0.25"/>
<path d="M22.1128 47.9894C20.9223 47.9869 19.7812 47.5034 18.9394 46.6448C18.0975 45.7861 17.6235 44.6222 17.6211 43.4078C17.6211 42.1927 18.0943 41.0273 18.9367 40.1681C19.7791 39.3089 20.9215 38.8262 22.1128 38.8262C23.3034 38.8287 24.4444 39.3122 25.2863 40.1708C26.1281 41.0295 26.6021 42.1934 26.6046 43.4078C26.6021 44.6222 26.1281 45.7861 25.2863 46.6448C24.4444 47.5034 23.3034 47.9869 22.1128 47.9894Z" fill="#F7FAFC"/>
<path d="M22.113 39.5504C23.1151 39.5529 24.0756 39.96 24.7842 40.6829C25.4929 41.4057 25.8921 42.3854 25.8945 43.4076C25.8921 44.4298 25.4929 45.4095 24.7842 46.1323C24.0756 46.8552 23.1151 47.2623 22.113 47.2648C21.6164 47.2648 21.1246 47.1651 20.6658 46.9712C20.207 46.7774 19.7902 46.4932 19.439 46.1351C19.0879 45.7769 18.8093 45.3517 18.6193 44.8837C18.4292 44.4157 18.3314 43.9141 18.3314 43.4076C18.3314 42.9011 18.4292 42.3995 18.6193 41.9315C18.8093 41.4635 19.0879 41.0383 19.439 40.6801C19.7902 40.322 20.207 40.0378 20.6658 39.844C21.1246 39.6501 21.6164 39.5504 22.113 39.5504ZM22.113 38.1016C21.4295 38.1003 20.7525 38.2367 20.1208 38.5029C19.4891 38.7692 18.9152 39.1599 18.4319 39.6529C17.9486 40.1459 17.5655 40.7313 17.3045 41.3756C17.0435 42.0199 16.9098 42.7105 16.911 43.4076C16.9062 44.1076 17.0371 44.8016 17.2964 45.4497C17.5556 46.0978 17.938 46.6872 18.4215 47.1839C18.9051 47.6806 19.4801 48.0748 20.1137 48.3438C20.7472 48.6128 21.4267 48.7513 22.113 48.7513C22.7976 48.7488 23.4751 48.6085 24.1065 48.3384C24.738 48.0683 25.3109 47.6737 25.7924 47.1772C26.274 46.6808 26.6548 46.0922 26.9128 45.4453C27.1709 44.7985 27.3013 44.106 27.2964 43.4076C27.2976 42.7112 27.1642 42.0215 26.9038 41.3778C26.6434 40.7341 26.2611 40.1491 25.7788 39.6562C25.2965 39.1634 24.7236 38.7724 24.093 38.5056C23.4624 38.2389 22.7864 38.1016 22.1037 38.1016H22.113Z" fill="#0F5FAF" fill-opacity="0.25"/>
<path d="M-14.1081 63.6757C-3.13337 59.0388 2.07822 46.2051 -2.46764 35.0108C-7.0135 23.8165 -19.5954 18.5006 -30.5701 23.1375C-41.5448 27.7743 -46.7564 40.608 -42.2105 51.8023C-37.6646 62.9966 -25.0827 68.3125 -14.1081 63.6757Z" fill="#F7FAFC"/>
<path d="M88.0315 46.9148C89.9348 34.9547 81.9724 23.6853 70.2469 21.7439C58.5215 19.8025 47.4732 27.9242 45.5699 39.8843C43.6666 51.8445 51.629 63.1139 63.3545 65.0553C75.0799 66.9967 86.1282 58.8749 88.0315 46.9148Z" fill="#F7FAFC"/>
<path d="M66.7905 22.1835C72.3059 22.191 77.5932 24.4298 81.4924 28.4088C85.3915 32.3877 87.5841 37.7818 87.589 43.4077C87.5816 49.0319 85.388 54.4236 81.4891 58.4005C77.5903 62.3774 72.3043 64.6149 66.7905 64.6224C61.275 64.6174 55.9867 62.381 52.0858 58.4038C48.185 54.4266 45.9901 49.0335 45.9828 43.4077C45.9901 37.781 48.1847 32.3869 52.0853 28.4082C55.9859 24.4295 61.2742 22.191 66.7905 22.1835ZM66.7905 20.7441C63.8719 20.7429 60.9816 21.3282 58.2848 22.4666C55.5881 23.605 53.1376 25.2742 51.0734 27.3788C49.0092 29.4834 47.3717 31.9823 46.2546 34.7325C45.1374 37.4828 44.5624 40.4307 44.5624 43.4077C44.5648 49.4193 46.9078 55.1838 51.0761 59.4338C55.2444 63.6837 60.8968 66.0712 66.7905 66.0712C72.6825 66.0687 78.3326 63.6802 82.4989 59.4305C86.6652 55.1808 89.0069 49.4176 89.0093 43.4077C89.0093 40.4315 88.4346 37.4844 87.318 34.7347C86.2014 31.985 84.5648 29.4866 82.5016 27.3821C80.4384 25.2776 77.989 23.6082 75.2933 22.4693C72.5976 21.3304 69.7083 20.7441 66.7905 20.7441Z" fill="#0F5FAF" fill-opacity="0.25"/>
<path d="M78 54.8434C84.1953 48.5241 84.1953 38.2786 78 31.9593C71.8047 25.64 61.7602 25.64 55.5649 31.9593C49.3696 38.2786 49.3696 48.5242 55.5649 54.8434C61.7601 61.1627 71.8047 61.1627 78 54.8434Z" fill="#F7FAFC"/>
<path d="M66.7904 27.941C70.8088 27.9485 74.6603 29.5807 77.5009 32.4799C80.3415 35.379 81.9393 39.3087 81.9442 43.4075C81.9393 47.5055 80.3412 51.4342 77.5004 54.3318C74.6595 57.2295 70.8079 58.8596 66.7904 58.8646C62.7712 58.8621 58.9173 57.2331 56.0744 54.3352C53.2316 51.4372 51.6322 47.5071 51.6273 43.4075C51.6322 39.3071 53.2313 35.376 56.0739 32.4765C58.9164 29.5771 62.7704 27.946 66.7904 27.941ZM66.7904 26.4922C62.3873 26.4922 58.1645 28.2763 55.051 31.4521C51.9376 34.6279 50.1885 38.9351 50.1885 43.4263C50.1885 47.9175 51.9376 52.2248 55.051 55.4006C58.1645 58.5763 62.3873 60.3605 66.7904 60.3605C71.1935 60.3605 75.4162 58.5763 78.5297 55.4006C81.6431 52.2248 83.3923 47.9175 83.3923 43.4263C83.3923 38.9351 81.6431 34.6279 78.5297 31.4521C75.4162 28.2763 71.1935 26.4922 66.7904 26.4922Z" fill="#0F5FAF" fill-opacity="0.25"/>
<path d="M73.7608 50.5194C77.6148 46.5882 77.6148 40.2145 73.7608 36.2833C69.9067 32.3522 63.6581 32.3522 59.8041 36.2833C55.95 40.2145 55.95 46.5882 59.8041 50.5194C63.6581 54.4506 69.9068 54.4506 73.7608 50.5194Z" fill="#F7FAFC"/>
<path d="M66.7905 34.0566C69.2159 34.0739 71.537 35.0649 73.2512 36.8152C74.9654 38.5655 75.9347 40.934 75.9492 43.408C75.9467 45.8849 74.981 48.2596 73.264 50.011C71.5469 51.7625 69.2188 52.7475 66.7905 52.75C64.3606 52.75 62.0301 51.7661 60.311 50.0144C58.592 48.2627 57.625 45.8865 57.6225 43.408C57.6371 40.9324 58.6076 38.5625 60.3238 36.8119C62.04 35.0614 64.3635 34.0714 66.7905 34.0566ZM66.7905 32.6172C65.4004 32.616 64.0238 32.8942 62.7392 33.4359C61.4546 33.9776 60.2873 34.7723 59.304 35.7744C58.3206 36.7766 57.5405 37.9666 57.0083 39.2764C56.4761 40.5862 56.2021 41.9901 56.2021 43.408C56.2046 46.2708 57.3212 49.0154 59.3066 51.0388C61.2921 53.0622 63.9839 54.1988 66.7905 54.1988C69.5955 54.1963 72.2849 53.0586 74.2683 51.0355C76.2518 49.0124 77.3671 46.2691 77.3696 43.408C77.3696 40.5461 76.255 37.8014 74.271 35.7777C72.2871 33.7541 69.5962 32.6172 66.7905 32.6172Z" fill="#0F5FAF" fill-opacity="0.25"/>
<path d="M66.7906 47.9894C65.6081 47.9746 64.4788 47.4857 63.6469 46.6283C62.815 45.7709 62.3473 44.6141 62.345 43.4078C62.345 42.8061 62.4611 42.2104 62.6869 41.6545C62.9126 41.0986 63.2435 40.5935 63.6606 40.1681C64.0777 39.7427 64.5728 39.4052 65.1178 39.1749C65.6627 38.9447 66.2468 38.8262 66.8367 38.8262C68.0272 38.8287 69.1683 39.3122 70.0102 40.1708C70.852 41.0295 71.326 42.1934 71.3284 43.4078C71.3272 44.0131 71.2087 44.6122 70.9797 45.1706C70.7506 45.7289 70.4156 46.2356 69.9939 46.6614C69.5721 47.0872 69.072 47.4238 68.5222 47.6517C67.9725 47.8796 67.384 47.9944 66.7906 47.9894Z" fill="#F7FAFC"/>
<path d="M66.7903 39.5504C67.7925 39.5529 68.7529 39.96 69.4616 40.6829C70.1702 41.4057 70.5694 42.3854 70.5719 43.4076C70.5694 44.4298 70.1702 45.4095 69.4616 46.1323C68.7529 46.8552 67.7925 47.2623 66.7903 47.2648C65.7881 47.2623 64.8277 46.8552 64.119 46.1323C63.4104 45.4095 63.0112 44.4298 63.0088 43.4076C63.0112 42.3854 63.4104 41.4057 64.119 40.6829C64.8277 39.96 65.7881 39.5529 66.7903 39.5504ZM66.7903 38.1016C66.1069 38.1003 65.4299 38.2367 64.7982 38.5029C64.1665 38.7692 63.5926 39.1599 63.1093 39.6529C62.626 40.1459 62.2429 40.7313 61.9819 41.3756C61.7209 42.0199 61.5872 42.7105 61.5884 43.4076C61.5835 44.1076 61.7145 44.8016 61.9737 45.4497C62.233 46.0978 62.6154 46.6872 63.0989 47.1839C63.5824 47.6806 64.1575 48.0748 64.7911 48.3438C65.4246 48.6128 66.1041 48.7513 66.7903 48.7513C68.1692 48.7488 69.4909 48.189 70.466 47.1944C71.441 46.1999 71.9898 44.8517 71.9922 43.4452C71.9922 42.038 71.4442 40.6884 70.4686 39.6933C69.4931 38.6982 68.17 38.1392 66.7903 38.1392V38.1016Z" fill="#0F5FAF" fill-opacity="0.25"/>
<path d="M59.5393 38.1832C67.9389 29.6155 67.9389 15.7244 59.5393 7.15661C51.1396 -1.41115 37.5211 -1.41115 29.1214 7.15661C20.7218 15.7244 20.7217 29.6155 29.1214 38.1832C37.5211 46.751 51.1396 46.751 59.5393 38.1832Z" fill="#F7FAFC"/>
<path d="M44.3317 1.44881C49.8439 1.46126 55.1265 3.70226 59.0217 7.68067C62.9169 11.6591 65.1069 17.0504 65.1117 22.6729C65.1044 28.2971 62.9108 33.6888 59.0119 37.6658C55.113 41.6427 49.8271 43.8802 44.3133 43.8877C38.7978 43.8827 33.5095 41.6463 29.6086 37.6691C25.7077 33.6919 23.5129 28.2988 23.5056 22.6729C23.5129 17.0462 25.7074 11.6521 29.6081 7.67346C33.5087 3.69479 38.797 1.45628 44.3133 1.44881M44.3133 0C41.3947 -2.56494e-07 38.5046 0.586524 35.8083 1.72606C33.112 2.8656 30.6622 4.53582 28.5989 6.64132C26.5355 8.74682 24.8991 11.2463 23.783 13.9971C22.667 16.7478 22.0932 19.6959 22.0944 22.6729C22.0944 28.6837 24.4353 34.4482 28.6021 38.6985C32.769 42.9487 38.4204 45.3365 44.3133 45.3365C50.2053 45.334 55.8553 42.9454 60.0217 38.6957C64.188 34.446 66.5297 28.6829 66.5321 22.6729C66.5321 16.6613 64.1915 10.8958 60.0249 6.64408C55.8583 2.39235 50.2069 0.00249444 44.3133 0Z" fill="#0F5FAF" fill-opacity="0.25"/>
<path d="M44.3225 38.8445C53.084 38.8445 60.1866 31.5998 60.1866 22.663C60.1866 13.7262 53.084 6.48145 44.3225 6.48145C35.5611 6.48145 28.4585 13.7262 28.4585 22.663C28.4585 31.5998 35.5611 38.8445 44.3225 38.8445Z" fill="#F7FAFC"/>
<path d="M44.3317 7.20662C48.3509 7.2116 52.2039 8.84301 55.045 11.7427C57.8861 14.6425 59.4831 18.5736 59.4855 22.6731C59.4807 26.7711 57.8825 30.6998 55.0417 33.5975C52.2009 36.4952 48.3493 38.1253 44.3317 38.1302C40.3085 38.1327 36.4488 36.5062 33.6006 33.608C30.7523 30.7098 29.1483 26.7768 29.141 22.6731C29.1459 18.5727 30.745 14.6416 33.5875 11.7422C36.4301 8.8427 40.284 7.2116 44.304 7.20662M44.304 5.75781C39.9009 5.75781 35.6782 7.54193 32.5647 10.7177C29.4513 13.8935 27.7021 18.2007 27.7021 22.692C27.7021 27.1832 29.4513 31.4904 32.5647 34.6662C35.6782 37.842 39.9009 39.6261 44.304 39.6261C48.7071 39.6261 52.9299 37.842 56.0433 34.6662C59.1568 31.4904 60.9059 27.1832 60.9059 22.692C60.9059 18.2007 59.1568 13.8935 56.0433 10.7177C52.9299 7.54193 48.7071 5.75781 44.304 5.75781Z" fill="#0F5FAF" fill-opacity="0.25"/>
<path d="M44.3225 32.7295C49.773 32.7295 54.1914 28.2226 54.1914 22.6631C54.1914 17.1036 49.773 12.5967 44.3225 12.5967C38.8721 12.5967 34.4536 17.1036 34.4536 22.6631C34.4536 28.2226 38.8721 32.7295 44.3225 32.7295Z" fill="#F7FAFC"/>
<path d="M44.3317 13.3219C46.7616 13.3243 49.0911 14.3107 50.8084 16.0641C52.5257 17.8176 53.4904 20.1947 53.4904 22.6733C53.4879 25.1502 52.5222 27.5249 50.8052 29.2763C49.0881 31.0277 46.76 32.0128 44.3317 32.0153C41.9062 32.0005 39.5841 31.0118 37.8682 29.2633C36.1523 27.5148 35.1807 25.1472 35.1637 22.6733C35.1782 20.1977 36.1488 17.8277 37.865 16.0772C39.5812 14.3267 41.9047 13.3367 44.3317 13.3219ZM44.3317 11.873C42.9416 11.873 41.5652 12.1525 40.2811 12.6953C38.997 13.2382 37.8303 14.0339 36.8479 15.0369C35.8654 16.0399 35.0863 17.2306 34.5552 18.5409C34.0241 19.8512 33.7514 21.2554 33.7526 22.6733C33.7526 25.5352 34.8672 28.2799 36.8511 30.3035C38.8351 32.3272 41.5259 33.4641 44.3317 33.4641C47.1367 33.4616 49.8261 32.3239 51.8095 30.3008C53.7929 28.2776 54.9083 25.5344 54.9108 22.6733C54.9108 19.8105 53.7965 17.0648 51.8128 15.0397C49.8291 13.0145 47.1383 11.8755 44.3317 11.873Z" fill="#0F5FAF" fill-opacity="0.25"/>
<path d="M44.3319 27.255C43.1414 27.2526 42.0003 26.7691 41.1585 25.9104C40.3166 25.0517 39.8426 23.8878 39.8402 22.6734C39.8402 21.4583 40.3134 20.2929 41.1558 19.4337C41.9982 18.5745 43.1407 18.0918 44.3319 18.0918C45.5225 18.0943 46.6636 18.5778 47.5054 19.4365C48.3472 20.2952 48.8212 21.4591 48.8237 22.6734C48.8212 23.8878 48.3472 25.0517 47.5054 25.9104C46.6636 26.7691 45.5225 27.2526 44.3319 27.255Z" fill="#F7FAFC"/>
<path d="M44.3318 18.816C45.334 18.8185 46.2944 19.2257 47.0031 19.9485C47.7117 20.6713 48.1109 21.651 48.1134 22.6732C48.1109 23.6955 47.7117 24.6751 47.0031 25.398C46.2944 26.1208 45.334 26.528 44.3318 26.5304C43.3297 26.528 42.3692 26.1208 41.6606 25.398C40.9519 24.6751 40.5527 23.6955 40.5503 22.6732C40.5527 21.651 40.9519 20.6713 41.6606 19.9485C42.3692 19.2257 43.3297 18.8185 44.3318 18.816ZM44.3318 17.3672C43.6484 17.366 42.9714 17.5024 42.3397 17.7686C41.708 18.0348 41.1341 18.4256 40.6508 18.9185C40.1675 19.4115 39.7844 19.9969 39.5234 20.6412C39.2624 21.2856 39.1287 21.9761 39.1299 22.6732C39.1299 24.0805 39.6779 25.4301 40.6535 26.4252C41.629 27.4202 42.9522 27.9793 44.3318 27.9793C45.7107 27.9768 47.0324 27.4169 48.0075 26.4224C48.9825 25.4279 49.5313 24.0797 49.5337 22.6732C49.5337 21.266 48.9857 19.9164 48.0101 18.9213C47.0346 17.9262 45.7115 17.3672 44.3318 17.3672Z" fill="#0F5FAF" fill-opacity="0.25"/>
<path d="M0.326979 44.6202C12.2033 44.3685 21.631 34.3442 21.3843 22.2302C21.1376 10.1161 11.3099 0.499764 -0.566402 0.751401C-12.4428 1.00304 -21.8704 11.0274 -21.6237 23.1414C-21.377 35.2555 -11.5494 44.8718 0.326979 44.6202Z" fill="#F7FAFC"/>
<path d="M-0.115362 1.44881C5.40094 1.45628 10.6892 3.69479 14.5898 7.67346C18.4905 11.6521 20.685 17.0462 20.6923 22.6729C20.685 28.2988 18.4902 33.6919 14.5893 37.6691C10.6884 41.6463 5.40009 43.8827 -0.115362 43.8877C-5.62922 43.8802 -10.9151 41.6427 -14.814 37.6658C-18.7129 33.6888 -20.9065 28.2971 -20.9139 22.6729C-20.909 17.0471 -18.7164 11.653 -14.8173 7.67404C-10.9181 3.69509 -5.63081 1.45628 -0.115362 1.44881ZM-0.115362 0C-6.00902 0.00249444 -11.6604 2.39235 -15.827 6.64408C-19.9936 10.8958 -22.3342 16.6613 -22.3342 22.6729C-22.3318 28.6829 -19.9901 34.446 -15.8238 38.6957C-11.6575 42.9454 -6.00742 45.334 -0.115362 45.3365C5.7783 45.3365 11.4307 42.949 15.599 38.699C19.7673 34.4491 22.1103 28.6845 22.1127 22.6729C22.1127 19.6955 21.5378 16.7472 20.4207 13.9964C19.3037 11.2456 17.6663 8.74612 15.6023 6.64075C13.5382 4.53537 11.0878 2.8653 8.39098 1.72587C5.69414 0.586453 2.80367 0 -0.115362 0Z" fill="#0F5FAF" fill-opacity="0.25"/>
<path d="M5.06374 37.9606C13.3439 35.0393 17.7345 25.8243 14.8705 17.3785C12.0065 8.93266 2.97235 4.45416 -5.30778 7.3755C-13.5879 10.2968 -17.9785 19.5117 -15.1145 27.9576C-12.2505 36.4034 -3.2164 40.8819 5.06374 37.9606Z" fill="#F7FAFC"/>
<path d="M-0.115511 7.20662C3.90524 7.20911 7.76061 8.83941 10.6037 11.7394C13.4468 14.6394 15.0451 18.5719 15.0476 22.6731C15.0427 26.7727 13.4433 30.7028 10.6004 33.6008C7.75761 36.4987 3.90364 38.1278 -0.115511 38.1302C-4.13306 38.1253 -7.98467 36.4952 -10.8255 33.5975C-13.6663 30.6998 -15.2645 26.7711 -15.2693 22.6731C-15.2669 18.5736 -13.6699 14.6425 -10.8288 11.7427C-7.98766 8.84301 -4.13466 7.2116 -0.115511 7.20662ZM-0.115511 5.75781C-4.51861 5.75781 -8.74136 7.54193 -11.8548 10.7177C-14.9683 13.8935 -16.7174 18.2007 -16.7174 22.692C-16.7174 27.1832 -14.9683 31.4904 -11.8548 34.6662C-8.74136 37.842 -4.51861 39.6261 -0.115511 39.6261C4.28759 39.6261 8.51035 37.842 11.6238 34.6662C14.7373 31.4904 16.4864 27.1832 16.4864 22.692C16.4864 18.2007 14.7373 13.8935 11.6238 10.7177C8.51035 7.54193 4.28759 5.75781 -0.115511 5.75781Z" fill="#0F5FAF" fill-opacity="0.25"/>
<path d="M0.0485591 32.7205C5.49819 32.6245 9.83966 28.0404 9.74549 22.4817C9.65132 16.923 5.15716 12.4947 -0.292469 12.5907C-5.7421 12.6868 -10.0836 17.2709 -9.9894 22.8296C-9.89523 28.3882 -5.40107 32.8166 0.0485591 32.7205Z" fill="#F7FAFC"/>
<path d="M-0.115361 13.3219C2.31165 13.3367 4.63513 14.3267 6.35132 16.0772C8.0675 17.8277 9.03806 20.1977 9.05258 22.6733C9.03564 25.1472 8.064 27.5148 6.34808 29.2633C4.63216 31.0118 2.31006 32.0005 -0.115361 32.0153C-2.53918 31.998 -4.85892 31.0082 -6.57286 29.26C-8.2868 27.5118 -9.25716 25.1456 -9.27407 22.6733C-9.25957 20.1993 -8.29027 17.8307 -6.57607 16.0805C-4.86187 14.3302 -2.54077 13.3391 -0.115361 13.3219ZM-0.115361 11.873C-2.92196 11.8755 -5.61276 13.0145 -7.59646 15.0397C-9.58017 17.0648 -10.6945 19.8105 -10.6945 22.6733C-10.692 25.5344 -9.57664 28.2776 -7.5932 30.3008C-5.60976 32.3239 -2.92036 33.4616 -0.115361 33.4641C2.69124 33.4641 5.38301 32.3275 7.36844 30.3041C9.35387 28.2807 10.4705 25.536 10.473 22.6733C10.473 19.8089 9.3574 17.0618 7.37171 15.0364C5.38601 13.0109 2.69284 11.873 -0.115361 11.873Z" fill="#0F5FAF" fill-opacity="0.25"/>
<path d="M-0.115447 27.255C-1.30598 27.2526 -2.44707 26.7691 -3.2889 25.9104C-4.13074 25.0517 -4.60474 23.8878 -4.60718 22.6734C-4.60474 21.4591 -4.13074 20.2952 -3.2889 19.4365C-2.44707 18.5778 -1.30598 18.0943 -0.115447 18.0918C1.07584 18.0918 2.21832 18.5745 3.06068 19.4337C3.90305 20.2929 4.37628 21.4583 4.37628 22.6734C4.37385 23.8878 3.89985 25.0517 3.05801 25.9104C2.21617 26.7691 1.07509 27.2526 -0.115447 27.255Z" fill="#F7FAFC"/>
<path d="M-0.11551 18.816C0.886669 18.8185 1.84709 19.2257 2.55574 19.9485C3.26439 20.6713 3.6636 21.651 3.66604 22.6732C3.6636 23.6955 3.26439 24.6751 2.55574 25.398C1.84709 26.1208 0.886669 26.528 -0.11551 26.5304C-1.11769 26.528 -2.07812 26.1208 -2.78676 25.398C-3.49541 24.6751 -3.89462 23.6955 -3.89706 22.6732C-3.89462 21.651 -3.49541 20.6713 -2.78676 19.9485C-2.07812 19.2257 -1.11769 18.8185 -0.11551 18.816ZM-0.11551 17.3672C-0.798203 17.3672 -1.4742 17.5045 -2.10481 17.7713C-2.73542 18.038 -3.30827 18.429 -3.79058 18.9219C-4.27289 19.4147 -4.65518 19.9997 -4.91559 20.6434C-5.17601 21.2871 -5.30943 21.9769 -5.30822 22.6732C-5.30822 24.0788 -4.76143 25.427 -3.78788 26.4218C-2.81432 27.4166 -1.49355 27.9768 -0.11551 27.9793C1.26413 27.9793 2.58727 27.4202 3.56282 26.4252C4.53837 25.4301 5.08643 24.0805 5.08643 22.6732C5.08765 21.9761 4.95392 21.2856 4.69293 20.6412C4.43194 19.9969 4.04881 19.4115 3.56552 18.9185C3.08224 18.4256 2.50828 18.0348 1.87661 17.7686C1.24493 17.5024 0.567958 17.366 -0.11551 17.3672Z" fill="#0F5FAF" fill-opacity="0.25"/>
</g>
<defs>
<clipPath id="clip0_853_5204">
<rect width="178" height="68" fill="white" transform="translate(-89)"/>
</clipPath>
</defs>
</svg>
