<svg width="18" height="18" viewBox="0 0 18 18" fill="none" xmlns="http://www.w3.org/2000/svg">
<path fill-rule="evenodd" clip-rule="evenodd" d="M15.1362 2.86369C13.5882 1.31562 11.0783 1.31562 9.53019 2.86369L7.86351 4.53036C7.57062 4.82326 7.09575 4.82326 6.80285 4.53036C6.50996 4.23747 6.50996 3.7626 6.80285 3.4697L8.46953 1.80303C10.6034 -0.330826 14.063 -0.330828 16.1969 1.80303C18.3308 3.93688 18.3308 7.39654 16.1969 9.53039L14.5302 11.1971C14.2373 11.49 13.7625 11.49 13.4696 11.1971C13.1767 10.9042 13.1767 10.4293 13.4696 10.1364L15.1362 8.46973C16.6843 6.92167 16.6843 4.41175 15.1362 2.86369ZM11.6516 6.34833C11.9445 6.64123 11.9445 7.1161 11.6516 7.40899L7.40899 11.6516C7.1161 11.9445 6.64122 11.9445 6.34833 11.6516C6.05544 11.3587 6.05544 10.8839 6.34833 10.591L10.591 6.34833C10.8839 6.05544 11.3587 6.05544 11.6516 6.34833ZM8.46949 15.1363C6.92142 16.6844 4.41151 16.6844 2.86344 15.1363C1.31538 13.5883 1.31538 11.0784 2.86344 9.53029L4.53012 7.86361C4.82301 7.57072 4.82301 7.09585 4.53012 6.80295C4.23723 6.51006 3.76235 6.51006 3.46946 6.80295L1.80278 8.46963C-0.331071 10.6035 -0.331071 14.0631 1.80278 16.197C3.93664 18.3309 7.3963 18.3308 9.53015 16.197L11.1968 14.5303C11.4897 14.2374 11.4897 13.7626 11.1968 13.4697C10.9039 13.1768 10.4291 13.1768 10.1362 13.4697L8.46949 15.1363Z" fill="#0F5FAF"/>
</svg>
