<svg width="48" height="45" viewBox="0 0 48 45" fill="none" xmlns="http://www.w3.org/2000/svg">
<path d="M44.9993 0H2.99935C2.38051 0 1.78702 0.245833 1.34943 0.683417C0.911848 1.121 0.666016 1.71449 0.666016 2.33333V39.6667C0.666016 40.2855 0.911848 40.879 1.34943 41.3166C1.78702 41.7542 2.38051 42 2.99935 42H18.166V39.6667H2.99935V9.33333H44.9993V39.6667H41.4993V42H44.9993C45.6182 42 46.2117 41.7542 46.6493 41.3166C47.0868 40.879 47.3327 40.2855 47.3327 39.6667V2.33333C47.3327 1.71449 47.0868 1.121 46.6493 0.683417C46.2117 0.245833 45.6182 0 44.9993 0ZM2.99935 7V2.33333H44.9993V7H2.99935ZM7.66602 4.66667C7.66602 4.89741 7.59759 5.12297 7.4694 5.31483C7.3412 5.50669 7.15899 5.65622 6.94581 5.74453C6.73263 5.83283 6.49805 5.85593 6.27174 5.81092C6.04543 5.7659 5.83755 5.65479 5.67439 5.49162C5.51123 5.32846 5.40012 5.12058 5.3551 4.89427C5.31008 4.66796 5.33319 4.43338 5.42149 4.2202C5.50979 4.00702 5.65933 3.82481 5.85118 3.69662C6.04304 3.56842 6.2686 3.5 6.49935 3.5C6.80877 3.5 7.10551 3.62292 7.32431 3.84171C7.5431 4.0605 7.66602 4.35725 7.66602 4.66667ZM12.3327 4.66667C12.3327 4.89741 12.2643 5.12297 12.1361 5.31483C12.0079 5.50669 11.8257 5.65622 11.6125 5.74453C11.3993 5.83283 11.1647 5.85593 10.9384 5.81092C10.7121 5.7659 10.5042 5.65479 10.3411 5.49162C10.1779 5.32846 10.0668 5.12058 10.0218 4.89427C9.97675 4.66796 9.99985 4.43338 10.0882 4.2202C10.1765 4.00702 10.326 3.82481 10.5178 3.69662C10.7097 3.56842 10.9353 3.5 11.166 3.5C11.4754 3.5 11.7722 3.62292 11.991 3.84171C12.2098 4.0605 12.3327 4.35725 12.3327 4.66667ZM39.8135 31.696L40.3327 32.046V33.8333C40.3327 37.7463 39.5475 40.642 37.9993 42.455V44.3333H35.666V41.517L36.0078 41.1752C37.3297 39.8533 37.9993 37.3823 37.9993 33.8333V33.3002C35.2351 31.4409 31.9965 30.4114 28.666 30.3333H27.4993V23.3333C27.5097 23.2568 27.5021 23.1789 27.4773 23.1058C27.4524 23.0326 27.411 22.9663 27.3561 22.9119C27.3013 22.8575 27.2346 22.8166 27.1613 22.7923C27.0879 22.7681 27.01 22.7612 26.9335 22.7722C26.8555 22.7614 26.7761 22.7682 26.701 22.792C26.6259 22.8158 26.5571 22.856 26.4996 22.9098C26.442 22.9635 26.3972 23.0294 26.3683 23.1027C26.3394 23.176 26.3273 23.2548 26.3327 23.3333V36.8877L24.6445 36.05C22.7428 35.0992 21.0652 34.2557 19.4855 34.601L27.4993 41.4645V44.3333H25.166V42.5367L16.9993 35.5367V33.1123L17.6445 32.7892C19.8612 31.6843 22.0102 32.263 23.9993 33.1392V23.3333C23.9993 22.5598 24.3066 21.8179 24.8536 21.2709C25.4006 20.724 26.1425 20.4167 26.916 20.4167C27.6896 20.4167 28.4314 20.724 28.9784 21.2709C29.5254 21.8179 29.8327 22.5598 29.8327 23.3333V28.0408C33.4223 28.3644 36.864 29.6248 39.8135 31.696ZM25.166 15.1667H6.49935V12.8333H25.166V15.1667ZM6.49935 17.5H20.4993V19.8333H6.49935V17.5Z" fill="white"/>
</svg>
