<svg width="32" height="32" viewBox="0 0 32 32" fill="none" xmlns="http://www.w3.org/2000/svg">
<path opacity="0.4" d="M4 13.3346V5.33464C4 3.86188 5.19391 2.66797 6.66667 2.66797H10.6171C11.263 2.66797 11.887 2.90242 12.3731 3.32776L13.756 4.53781C14.3347 5.04418 14.6667 5.77572 14.6667 6.54468V13.3346C14.6667 14.8074 13.4728 16.0013 12 16.0013H6.66667C5.19391 16.0013 4 14.8074 4 13.3346Z" fill="#0F5FAF"/>
<path opacity="0.4" d="M17.332 26.6667V18.6667C17.332 17.1939 18.5259 16 19.9987 16H23.9491C24.595 16 25.219 16.2344 25.7051 16.6598L27.088 17.8698C27.6667 18.3762 27.9987 19.1077 27.9987 19.8767V26.6667C27.9987 28.1394 26.8048 29.3333 25.332 29.3333H19.9987C18.5259 29.3333 17.332 28.1394 17.332 26.6667Z" fill="#0F5FAF"/>
<path fill-rule="evenodd" clip-rule="evenodd" d="M17 8C17 7.44772 17.4477 7 18 7H21.3333C23.3584 7 25 8.64162 25 10.6667V12.6667C25 13.219 24.5523 13.6667 24 13.6667C23.4477 13.6667 23 13.219 23 12.6667V10.6667C23 9.74619 22.2538 9 21.3333 9H18C17.4477 9 17 8.55228 17 8ZM8 18.3333C8.55228 18.3333 9 18.781 9 19.3333V21.3333C9 22.2538 9.74619 23 10.6667 23H14C14.5523 23 15 23.4477 15 24C15 24.5523 14.5523 25 14 25H10.6667C8.64162 25 7 23.3584 7 21.3333V19.3333C7 18.781 7.44772 18.3333 8 18.3333Z" fill="#0F5FAF"/>
</svg>
