<svg width="40" height="48" viewBox="0 0 40 48" fill="none" xmlns="http://www.w3.org/2000/svg">
<path d="M32.9319 15.6641C32.8833 15.8376 32.8347 16.0009 32.7861 16.1541C33.1749 16.4297 33.5831 16.7462 33.9816 17.1036C34.7591 17.7978 35.5658 18.982 36.0518 20.2582C36.0907 20.2582 36.1393 20.2377 36.1781 20.2377C36.3239 20.2173 36.528 20.2173 36.7613 20.2071C36.1781 18.737 35.1673 17.3486 34.2634 16.6237C33.8164 16.2664 33.3596 15.9397 32.9319 15.6641Z" fill="#E27761"/>
<path d="M32.6308 16.6548C32.553 16.8998 32.4753 17.0938 32.4072 17.2367C32.7571 17.5021 33.1362 17.8186 33.5152 18.1759C34.0984 18.7374 34.6912 19.6562 35.08 20.6465C35.2452 20.5444 35.4202 20.4525 35.5951 20.3811C35.1383 19.207 34.3705 18.0942 33.6804 17.4817C33.3305 17.1754 32.971 16.8896 32.6405 16.6445L32.6308 16.6548Z" fill="#E27761"/>
<path d="M32.0573 19.0332C31.999 19.4314 32.0573 20.0643 32.2808 20.6769C32.621 21.6365 33.2528 21.9224 33.7582 21.6876C33.486 20.8606 33.0098 20.0337 32.5821 19.5641C32.4072 19.3803 32.2322 19.1966 32.0573 19.0434V19.0332Z" fill="#E27761"/>
<path d="M33.2044 14.5527C33.1558 14.7569 33.1072 14.9611 33.0586 15.1551C33.5446 15.4613 34.05 15.8187 34.5554 16.227C35.5856 17.0642 36.6644 18.5751 37.267 20.2086C37.5003 20.2086 37.753 20.2086 37.9959 20.1882C37.3545 18.3403 36.0521 16.5741 34.8858 15.6859C34.3221 15.2571 33.7487 14.8794 33.2044 14.5527Z" fill="#E27761"/>
<path d="M32.3684 17.8379C32.3392 18.0829 32.2809 18.2871 32.2129 18.5015C32.4462 18.7057 32.6794 18.9405 32.9224 19.2059C33.3889 19.7164 33.8554 20.5229 34.1567 21.3702C34.322 21.2171 34.4872 21.0742 34.6621 20.9414C34.3025 19.9818 33.7097 19.063 33.1848 18.5525C32.9127 18.2871 32.6308 18.0523 32.3684 17.8379Z" fill="#E27761"/>
<path d="M34.0211 13.7759C33.8267 13.6636 33.6323 13.5513 33.4379 13.4492C33.399 13.6534 33.3602 13.8474 33.3213 14.0414C33.331 14.0414 33.3407 14.0516 33.3602 14.0618C33.9433 14.3987 34.5654 14.807 35.1777 15.2767C36.4703 16.2669 37.8407 18.1454 38.5016 20.1668C38.7738 20.1464 39.0168 20.1158 39.2014 20.075C38.5697 17.9617 37.0535 15.879 35.7025 14.8887C35.1388 14.4701 34.5654 14.1026 34.0211 13.7759Z" fill="#E27761"/>
<path d="M35.9835 14.4695C37.4316 15.5516 38.9673 17.6547 39.6573 19.8905C40.0461 19.6557 40.085 19.278 39.8712 18.4612C39.6087 17.4812 38.3258 15.3883 37.004 14.3367C35.6822 13.2852 34.856 12.785 33.6508 12.2949C33.612 12.5093 33.5828 12.7135 33.5439 12.9279C33.7772 13.0504 34.0202 13.1831 34.2632 13.3261C34.8172 13.6527 35.4003 14.0407 35.9835 14.4695Z" fill="#E27761"/>
<path d="M18.8464 7.07792C18.7298 7.20043 18.6228 7.32295 18.5257 7.43525C18.2146 7.09835 17.8647 6.76144 17.4857 6.43474C16.747 5.81199 15.6488 5.36278 14.5699 5.31173C14.5699 5.26069 14.5602 5.20965 14.5505 5.1586C14.5213 4.98505 14.4533 4.74005 14.3367 4.47461C15.5904 4.55628 16.9609 5.16881 17.7579 5.92429C18.1563 6.30203 18.5256 6.68998 18.8561 7.07792H18.8464Z" fill="#E27761"/>
<path d="M18.205 7.82362C18.0495 8.01759 17.9329 8.18092 17.8357 8.31364C17.5441 8.01757 17.2039 7.71129 16.8249 7.41523C16.2417 6.97624 15.3962 6.64956 14.5603 6.59851C14.5895 6.3637 14.6089 6.13911 14.5992 5.9043C15.5905 5.96555 16.6305 6.39433 17.2817 6.95584C17.6121 7.23148 17.9231 7.53776 18.1953 7.82362H18.205Z" fill="#E27761"/>
<path d="M16.6303 9.43681C16.3582 9.66141 15.8722 9.84519 15.3668 9.83498C14.5601 9.83498 14.1713 9.2122 14.2005 8.5384C14.8906 8.51798 15.6292 8.74258 16.0957 9.04885C16.2804 9.17136 16.4651 9.30409 16.6303 9.43681Z" fill="#E27761"/>
<path d="M19.5754 6.31157C19.4394 6.45449 19.3033 6.58721 19.1769 6.71992C18.8076 6.29114 18.3994 5.84195 17.9523 5.42338C17.0387 4.56581 15.5225 3.83076 14.0549 3.73888C13.9285 3.44281 13.8314 3.15695 13.7439 2.87109C15.3864 2.94256 17.2623 3.84094 18.2439 4.83123C18.7201 5.31106 19.1672 5.82154 19.5657 6.32178L19.5754 6.31157Z" fill="#E27761"/>
<path d="M17.4175 8.59874C17.2523 8.73146 17.1162 8.8846 16.9704 9.04794C16.7469 8.86418 16.5039 8.68042 16.2415 8.50686C15.7361 8.18017 15.0071 7.94536 14.2976 7.93515C14.3656 7.69013 14.424 7.43492 14.4628 7.17969C15.2695 7.21031 16.1151 7.51657 16.6399 7.92493C16.9121 8.13933 17.1648 8.36395 17.4078 8.58855L17.4175 8.59874Z" fill="#E27761"/>
<path d="M19.9063 5.06706C20.0521 5.25082 20.1882 5.42438 20.3145 5.60814C20.1784 5.73065 20.0424 5.85315 19.916 5.97566C19.916 5.97566 19.9063 5.95524 19.8966 5.94503C19.4689 5.40395 18.9927 4.85267 18.4776 4.332C17.3793 3.23962 15.3771 2.29018 13.5985 2.25955C13.5208 1.93286 13.4527 1.62658 13.4236 1.39177C15.2605 1.35093 17.4862 2.41268 18.6039 3.56632C19.0705 4.04614 19.5175 4.5668 19.9063 5.05684V5.06706Z" fill="#E27761"/>
<path d="M18.8273 3.08634C17.6221 1.85104 15.3478 0.758658 13.3943 0.789286C13.4429 0.237993 13.715 0.0542396 14.4148 0.00319397C15.2604 -0.0580608 17.4666 0.768865 18.6232 1.87145C19.7798 2.97404 20.3824 3.7295 21.1016 4.92397C20.9558 5.04648 20.8101 5.16902 20.674 5.30173C20.5185 5.07713 20.3435 4.85253 20.1686 4.62793C19.7604 4.11747 19.3133 3.59681 18.8273 3.09656V3.08634Z" fill="#E27761"/>
<path d="M33.3834 5.66797C32.9654 5.90278 32.6155 6.47449 32.5086 7.19934C32.3628 8.17941 32.7127 9.05739 33.2959 9.20032C33.3153 8.88384 33.325 8.58778 33.325 8.31213C33.325 8.2815 33.325 8.25087 33.325 8.21003C33.1209 8.0569 33.0043 7.68937 33.0626 7.29122C33.1015 7.01557 33.2181 6.79096 33.3639 6.64804C33.3639 6.32134 33.3834 5.99466 33.3834 5.66797Z" fill="#E27761"/>
<path d="M26.5646 1.65625C26.5938 2.1565 26.3119 2.76904 25.7774 3.24887C25.0581 3.89205 24.164 4.03496 23.7363 3.58576C23.9793 3.402 24.2223 3.23867 24.4361 3.09574C24.4653 3.08553 24.4847 3.06509 24.5139 3.04468C24.7471 3.14677 25.097 3.06509 25.3983 2.78945C25.5927 2.61589 25.719 2.3913 25.7676 2.18711C26.0301 2.01356 26.2925 1.82981 26.5549 1.65625H26.5646Z" fill="#E27761"/>
<path d="M0.933037 28.4261C0.427637 29.4674 0.165245 30.6721 0.0486139 31.7645C0.320752 30.9273 0.641465 30.1106 1.05939 29.3245C1.44816 28.5894 1.9244 27.8748 2.51727 27.201C4.26673 25.1898 7.16306 24.0566 10.662 24.3424C10.7009 24.3424 10.73 24.3526 10.7592 24.3731C10.8369 24.4139 10.8855 24.5058 10.8855 24.6181C10.8758 24.761 10.7592 24.8631 10.6231 24.8529C7.24081 24.5772 4.50001 25.6696 2.86718 27.5481C2.30347 28.1913 1.84667 28.8651 1.47734 29.5695C0.787276 30.8559 0.359611 32.2545 0 33.745C0 33.888 0.0194467 34.0309 0.0388852 34.1534C0.204112 35.4806 0.855285 35.2254 1.1177 34.2045C1.2149 33.8471 1.35099 33.3979 1.53565 32.9283C1.62313 31.693 1.99246 30.5087 2.53673 29.4776C3.30455 28.0279 4.43196 26.8845 5.61771 26.3026C7.6393 25.3225 9.08746 25.2919 11.1091 25.3838C11.1479 25.3838 11.1868 25.394 11.216 25.4144C11.2937 25.4552 11.3423 25.5471 11.3423 25.6492C11.3423 25.7921 11.2257 25.8942 11.0896 25.8942C9.06803 25.8125 7.76565 25.833 5.8218 26.7722C4.75269 27.2929 3.69332 28.3648 2.96438 29.7329C2.75056 30.131 2.56586 30.57 2.42008 31.009C2.54643 30.7844 2.67279 30.5802 2.79914 30.4067C3.63499 29.2224 4.2473 28.814 5.22894 28.5486C6.57992 27.446 8.36826 26.5578 9.94277 26.1699C10.0108 26.1495 10.0691 26.1699 10.1177 26.1903C10.176 26.2209 10.2149 26.2822 10.2343 26.3536C10.2635 26.4864 10.1857 26.6293 10.0594 26.6599C8.85421 26.956 7.48381 27.5787 6.32722 28.3648C6.86178 28.3444 7.36718 28.4465 7.81426 28.6405C8.8445 27.8237 10.176 27.1193 11.4492 26.8335C11.5076 26.8233 11.5659 26.8335 11.6242 26.8539C11.6825 26.8845 11.7214 26.9458 11.7408 27.0172C11.77 27.1499 11.6825 27.2929 11.5562 27.3235C10.4482 27.5685 9.24298 28.1913 8.29049 28.8957C8.47516 29.0182 8.6404 29.1509 8.79591 29.3041C9.00001 29.5184 9.17496 29.7533 9.31103 29.9983C10.0108 29.0693 10.8953 28.1913 11.9838 27.5379C12.0616 27.4971 12.149 27.4971 12.2171 27.5379C12.2559 27.5583 12.2851 27.5889 12.3045 27.6298C12.3726 27.7523 12.3337 27.9054 12.2171 27.9769C11.1091 28.6405 10.2052 29.5593 9.51512 30.5292C9.63175 30.9886 9.59286 31.4888 9.34988 32.0401C8.78617 33.2958 8.1836 34.3065 7.61016 35.7971C7.31859 36.5423 7.16306 37.1753 7.04643 37.7981C7.9406 36.7261 8.80562 35.6133 9.51512 34.2861C9.64147 34.0411 9.76783 33.7961 9.88446 33.5408C11.041 31.0192 10.9244 30.7538 11.1966 29.3857C11.2257 29.253 11.352 29.1611 11.4784 29.1815C11.5076 29.1815 11.527 29.202 11.5464 29.2122C11.6339 29.2632 11.6825 29.3755 11.6631 29.4776C11.4104 30.7946 11.4784 31.2336 10.3121 33.7553C10.1858 34.0207 10.0594 34.2759 9.93304 34.5209C9.05831 36.1646 7.96978 37.4612 6.88122 38.7373C6.79375 39.2784 6.70625 39.8603 6.55074 40.5443C7.67817 39.3498 9.00972 37.553 9.9622 35.8787C10.0691 35.695 10.1663 35.5112 10.2635 35.3377C11.3909 33.2244 11.8477 31.4786 12.2559 30.0697C12.2948 29.937 12.4309 29.8554 12.5572 29.8962C12.5767 29.8962 12.5864 29.9064 12.6058 29.9166C12.703 29.9677 12.7516 30.0902 12.7225 30.2127C12.3142 31.6113 11.8477 33.4183 10.6911 35.5827C10.5939 35.7664 10.487 35.9502 10.3801 36.134C9.22353 38.1452 7.60044 40.2789 6.29806 41.4836C5.39418 44.2809 3.10042 45.7816 1.69113 46.6392C0.942755 47.0884 0.690062 47.4865 0.787254 47.7417C3.67386 46.0368 6.38552 43.6173 8.49459 40.4627C9.3596 39.1763 10.1566 37.8593 10.8661 36.5219C12.0227 34.3576 12.9557 32.132 13.5777 29.8451C13.6166 29.7124 13.7527 29.6308 13.879 29.6716C13.8985 29.6716 13.9179 29.6818 13.9277 29.692C14.0248 29.7431 14.0734 29.8656 14.0443 29.9881C13.4125 32.3056 12.46 34.572 11.2937 36.7669C10.5745 38.1247 9.76781 39.452 8.89308 40.7485C6.81317 43.8623 4.15984 46.2614 1.32183 47.997C1.50649 48.0072 1.7203 47.997 1.973 47.9357C2.33261 47.854 2.75054 47.7213 3.21706 47.5376C5.70518 45.4141 9.554 41.4223 12.0616 36.7159C12.703 35.5214 13.257 34.2657 13.6749 32.9998C13.7138 32.867 13.8596 32.7956 13.9762 32.8466C13.986 32.8466 14.0054 32.8569 14.0151 32.8671C14.1123 32.9283 14.1609 33.0508 14.122 33.1733C13.6847 34.4801 13.121 35.7562 12.4698 36.9711C10.3121 41.0037 7.2311 44.485 4.8013 46.7719C5.63715 46.3023 6.53132 45.7101 7.38661 45.0057C9.36933 43.362 12.1101 40.0747 14.2386 35.0926C14.3553 37.8185 13.3736 40.2278 12.3628 42.6372C12.3628 42.6372 12.3628 42.6474 12.3531 42.6576C12.5281 42.3718 12.6933 42.0655 12.8682 41.749C14.365 38.9313 15.7743 34.7659 15.852 29.8145C15.852 29.6716 15.9687 29.5593 16.095 29.5695C16.1339 29.5695 16.1728 29.5797 16.2116 29.6001C16.2894 29.641 16.338 29.7328 16.338 29.8247C16.2603 34.868 14.8315 39.1151 13.2959 41.994C12.946 42.6576 12.5864 43.2395 12.2365 43.75C12.3337 43.8929 12.5281 43.9235 12.7711 43.8725C13.6458 42.5759 14.3456 41.4529 14.919 40.381C16.27 37.8389 16.8726 35.6031 17.1447 31.9993C17.1544 31.8564 17.2711 31.7542 17.4071 31.7645C17.446 31.7645 17.4752 31.7747 17.5043 31.7951C17.5821 31.8461 17.6307 31.938 17.6307 32.0401C17.3585 35.6746 16.7365 38.0226 15.3467 40.626C14.8801 41.504 14.3261 42.4126 13.6652 43.4131C14.0734 43.117 14.5108 42.7086 14.8898 42.2186C16.0367 40.7383 17.3585 38.4412 18.4762 37.0936C18.8456 35.2968 18.8553 33.2754 18.3305 30.8559C18.3013 30.7231 18.3791 30.5802 18.5151 30.5496C18.5734 30.5394 18.6318 30.5496 18.6901 30.5802C18.7484 30.6108 18.7873 30.6721 18.8067 30.7435C19.2732 32.8977 19.3315 34.7659 19.0886 36.4504C19.5356 36.0523 20.1285 35.7154 20.7797 35.4398C20.6436 34.0309 20.1479 32.4179 19.2635 30.4679C19.2052 30.3454 19.2635 30.1922 19.3801 30.131C19.4482 30.0902 19.5356 30.1004 19.6037 30.131C19.6426 30.1514 19.6814 30.1923 19.7009 30.2433C20.5756 32.1626 21.0907 33.7961 21.2559 35.256C21.8877 35.0416 22.5389 34.8783 23.1415 34.8068C22.0626 33.2142 21.1296 31.7032 20.6533 30.57C20.595 30.4475 20.6533 30.2943 20.7797 30.2331C20.8477 30.2025 20.9352 30.2025 20.9935 30.2433C21.0421 30.2739 21.0713 30.3045 21.1004 30.3556C21.5767 31.4786 22.568 33.0814 23.7052 34.7455C23.9093 34.7455 24.094 34.7455 24.2786 34.7455C24.7549 34.7762 25.27 34.8374 25.8142 34.9497C24.6382 33.5 23.1415 32.132 22.2862 31.2744C22.189 31.1723 22.189 31.0192 22.2862 30.9171C22.3639 30.8354 22.4806 30.815 22.5778 30.8763C22.5972 30.8763 22.6069 30.8967 22.6263 30.9171C23.5691 31.8666 25.3186 33.449 26.5821 35.1335C27.2235 35.2968 27.865 35.5214 28.487 35.8073C26.446 32.9691 23.433 30.8865 22.0529 29.9881C21.946 29.9166 21.9071 29.7533 21.9752 29.641C22.0432 29.5287 22.189 29.4878 22.2959 29.5593C23.8121 30.5496 27.3013 32.9385 29.3909 36.2871C29.7408 36.5015 30.081 36.7363 30.392 36.9915C30.9071 37.4305 31.3153 37.6653 31.6166 37.7368C29.3909 33.9901 27.4568 32.2647 25.3477 30.9477C24.7646 30.5802 24.1717 30.2535 23.5691 29.9064C23.4525 29.8451 23.4136 29.692 23.4719 29.5695C23.5302 29.447 23.676 29.4061 23.8024 29.4674C24.4049 29.8145 24.9978 30.1514 25.6004 30.5189C25.6004 30.5189 25.6199 30.519 25.6296 30.5292C27.8067 31.8768 29.8477 33.7246 32.1317 37.6347C32.3553 37.3795 32.3164 36.7771 32.0151 36.0012C31.5194 34.7251 29.9838 32.622 28.4968 31.3051C26.8153 29.8145 24.3272 29.0897 23.2387 28.8855C22.2667 28.7119 21.4406 28.569 20.8672 27.9156C20.3715 27.3439 19.5551 26.517 18.622 25.8738C17.4071 26.8947 15.9978 28.2015 15.541 28.6813C14.8315 29.4266 14.3164 29.4164 14.3164 28.4976C14.3164 27.6196 14.851 25.935 15.4536 24.812C15.5313 24.6691 15.6285 24.5058 15.7257 24.3322C12.6155 23.1071 9.55399 23.2194 7.47408 23.5972C4.7527 24.0974 2.28402 25.7206 1.00108 28.4056L0.933037 28.4261Z" fill="#E27761"/>
<path d="M15.4837 28.7019C16.1932 27.9567 19.1964 25.2104 20.2267 24.6489C20.4308 24.2916 20.6738 23.8832 20.9459 23.4238C18.2051 25.3023 15.9696 27.5279 14.5215 29.2124C14.745 29.3043 15.0852 29.1307 15.4837 28.7019Z" fill="#E27761"/>
<path d="M14.2598 28.5185C14.2598 28.6001 14.2598 28.6818 14.2792 28.7431C15.9023 26.8748 18.439 24.4042 21.5395 22.4338C21.8019 21.9846 22.0837 21.515 22.3753 21.0352C19.4304 23.1382 15.8634 26.4766 14.2792 28.2939C14.2792 28.3755 14.2695 28.447 14.2792 28.5185H14.2598Z" fill="#E27761"/>
<path d="M14.4248 27.3849C16.4075 25.2512 20.1106 21.8923 22.9777 20.0139C23.3471 19.3911 23.7261 18.7684 24.0857 18.166C20.8298 20.7183 17.0879 24.1179 14.6581 26.5885C14.5706 26.854 14.4928 27.1297 14.4345 27.3747L14.4248 27.3849Z" fill="#E27761"/>
<path d="M15.4747 24.6784C15.4455 24.7295 15.4164 24.7805 15.3872 24.8316C15.2803 25.0255 15.1831 25.24 15.0859 25.4543C17.7879 22.7898 21.6075 19.3901 24.776 17.0012C25.155 16.3682 25.5049 15.7659 25.7965 15.2656C22.7058 17.8894 16.9034 23.2083 15.533 24.7295L15.4747 24.6683V24.6784Z" fill="#E27761"/>
<path d="M26.4966 14.0516C26.5549 13.9495 26.6035 13.8576 26.6326 13.7862C27.0505 12.9694 26.3994 12.7652 25.5344 13.4799C24.2709 14.5212 21.5884 17.2266 19.3627 19.6156C18.1866 20.8815 17.2633 22.0249 16.5732 22.9948C19.246 20.3915 24.3486 15.7973 26.5063 14.0516H26.4966Z" fill="#E27761"/>
<path d="M20.1294 8.86504C21.6553 8.03811 22.6369 7.57868 23.4922 8.08914C24.3864 8.62002 24.8238 10.0799 26.1553 10.866C27.4868 11.6521 28.9058 11.2744 29.8 11.8053C30.6553 12.3157 30.8011 13.4285 30.9274 15.2253C30.9955 16.1952 31.5592 16.185 32.084 15.8889C32.6769 13.9084 33.0268 11.9686 33.2017 10.3556H33.1823C32.1812 10.1922 31.5689 8.73232 31.8216 7.09885C32.0062 5.85334 32.638 4.87326 33.3767 4.54657C33.2989 2.78039 32.9393 1.16735 31.7049 0.432294C30.4706 -0.292554 28.9933 0.217897 27.5354 1.06526C27.6812 1.89219 27.205 3.00501 26.2816 3.83195C25.0862 4.90391 23.5797 5.1183 22.9285 4.31178C22.9091 4.29136 22.8994 4.27095 22.8896 4.25053C21.6845 5.24082 20.3043 6.55778 19.002 8.09936C19.0214 8.75274 19.2935 9.32446 20.1488 8.86504H20.1294Z" fill="#E27761"/>
<path d="M28.8884 23.6782C28.3539 24.3112 27.4888 25.1585 26.7891 25.5567C27.2653 26.6184 27.6735 28.0375 27.6638 29.4872C27.6638 29.8751 28.0429 29.9262 28.1109 29.4872C28.2372 28.6602 28.0623 27.5883 27.9262 26.792C27.8388 26.2713 28.1886 26.2407 28.2858 26.7103C28.4219 27.3637 28.5871 29.2217 28.5969 29.7016C28.6066 30.212 29.0828 30.2631 29.1314 29.7526C29.2092 28.9971 29.2189 28.8746 29.2189 28.4152C29.3452 28.9359 29.9284 28.8848 29.7631 28.1089C29.6854 27.7312 29.5396 27.3637 29.3646 26.9145C29.6368 27.1493 29.8506 27.3432 30.0158 27.5474C30.1908 27.7414 30.5115 27.527 30.288 27.1288C30.0644 26.7307 29.6077 26.0773 29.423 25.5975C29.1314 24.8216 29.2286 24.3214 28.8787 23.668L28.8884 23.6782Z" fill="#E27761"/>
<path d="M13.793 17.931C12.6462 17.686 11.2174 17.6043 10.0025 17.9617C9.67208 18.0535 9.41938 17.6758 9.75956 17.5022C10.3913 17.1755 11.3924 17.1041 12.131 17.053C12.617 17.0224 12.4518 16.6549 12.0047 16.6651C11.3729 16.6855 9.72069 16.9509 9.31248 17.053C8.87512 17.1653 8.57379 16.6855 8.982 16.5119C9.57487 16.2465 9.67208 16.2057 10.0609 16.1036C9.55545 16.1036 9.15697 15.6136 9.85676 15.3175C11.0619 14.807 12.2088 14.5416 14.2693 15.3175C14.0166 16.0219 13.7639 17.1143 13.8125 17.931H13.793Z" fill="#E27761"/>
<path d="M16.9128 20.7062L16.9614 20.8593L17.1072 20.8185C17.3599 20.7572 17.6028 20.696 17.8555 20.6449L18.0305 20.6041L17.9722 20.4203C17.8847 20.1651 17.8069 19.9099 17.7292 19.6547L17.6806 19.5117L17.5348 19.5526C17.2918 19.6138 17.0488 19.6853 16.8059 19.7465L16.6406 19.7874L16.6892 19.9609C16.7573 20.2059 16.835 20.4612 16.9128 20.7164V20.7062Z" fill="#E27761"/>
<path d="M17.438 17.6841L17.5838 17.6433C17.8267 17.5821 18.06 17.531 18.303 17.4698L18.4779 17.4289L18.4196 17.2554C18.3419 17.0104 18.2641 16.7653 18.1863 16.5203L18.1378 16.3672L17.992 16.408C17.7587 16.4693 17.5255 16.5407 17.2922 16.602L17.127 16.6428L17.1756 16.8062C17.2436 17.0512 17.3116 17.286 17.3797 17.531L17.4282 17.6841H17.438Z" fill="#E27761"/>
<path d="M16.2722 19.3377L16.3208 19.4908L16.4666 19.45C16.6999 19.3887 16.9429 19.3275 17.1761 19.2764L17.3511 19.2356L17.2927 19.062C17.215 18.817 17.1372 18.572 17.0595 18.327L17.0109 18.1738L16.8651 18.2147C16.6318 18.2759 16.4083 18.3474 16.175 18.4086L16.0195 18.4495L16.0681 18.6128C16.1361 18.8476 16.2042 19.0927 16.2722 19.3275V19.3377Z" fill="#E27761"/>
<path d="M18.964 18.8472L18.9057 18.6634C18.8182 18.4082 18.7404 18.1427 18.653 17.8875L18.6044 17.7344L18.4586 17.7752C18.2156 17.8365 17.9726 17.9079 17.7199 17.9692L17.5547 18.01L17.6033 18.1836C17.6811 18.4388 17.7491 18.694 17.8268 18.9493L17.8657 19.1024L18.0115 19.0615C18.2642 19.0003 18.5169 18.939 18.7696 18.8778L18.9445 18.8369L18.964 18.8472Z" fill="#E27761"/>
<path d="M20.8699 14.2109L20.7242 14.2518C20.4715 14.313 20.2285 14.3845 19.9758 14.4458L19.8105 14.4866L19.8591 14.6601C19.9369 14.9154 20.0147 15.1706 20.0924 15.436L20.141 15.5892L20.2868 15.5586C20.5395 15.4973 20.8019 15.436 21.0546 15.3748L21.2295 15.3339L21.1712 15.1502C21.0838 14.8848 20.9963 14.6295 20.9186 14.3641L20.8699 14.2212V14.2109Z" fill="#E27761"/>
<path d="M19.3917 14.5996L19.2459 14.6405C19.0126 14.7017 18.7794 14.7732 18.5364 14.8344L18.3809 14.8752L18.4294 15.0386C18.4975 15.2836 18.5655 15.5286 18.6433 15.7737L18.6822 15.9268L18.8279 15.886C19.0709 15.8247 19.3139 15.7634 19.5569 15.7124L19.7318 15.6716L19.6735 15.498C19.5957 15.2428 19.518 14.9978 19.4403 14.7527L19.3917 14.5996Z" fill="#E27761"/>
<path d="M20.5286 16.9377L20.6744 16.9071C20.9466 16.8458 21.209 16.7846 21.4811 16.7233L21.6561 16.6825L21.5977 16.4987C21.5103 16.2231 21.4131 15.9474 21.3256 15.682L21.277 15.5391L21.1409 15.5799C20.8785 15.6513 20.6161 15.7126 20.3537 15.7841L20.1885 15.8249L20.2371 15.9985C20.3148 16.2639 20.4023 16.5293 20.48 16.805L20.5286 16.9479V16.9377Z" fill="#E27761"/>
<path d="M20.1495 17.0288L20.0912 16.8552C20.0037 16.5898 19.926 16.3346 19.8385 16.0691L19.7899 15.916L19.6441 15.9569C19.4011 16.0283 19.1485 16.0896 18.9055 16.1508L18.7402 16.1917L18.7888 16.3652C18.8666 16.6204 18.9346 16.8757 19.0124 17.1309L19.061 17.2738L19.2068 17.2432C19.4595 17.1819 19.7219 17.1207 19.9746 17.0594L20.1495 17.0186V17.0288Z" fill="#E27761"/>
<path d="M18.7698 25.8098L18.7503 25.7383C18.7503 25.7383 18.6629 25.8097 18.6143 25.8506L18.7698 25.8098Z" fill="#E27761"/>
<path d="M25.1742 13.2622L25.0381 13.2928C24.7563 13.3541 24.4744 13.4153 24.2022 13.4766L24.0176 13.5174L24.0759 13.7012C24.1731 13.9768 24.2606 14.2525 24.3578 14.5179C24.7174 14.181 25.0284 13.8952 25.3005 13.6603C25.2714 13.5787 25.2519 13.4868 25.2228 13.3949L25.1742 13.252V13.2622Z" fill="#E27761"/>
<path d="M17.7591 15.059L17.6133 15.0999C17.3897 15.1611 17.1759 15.2224 16.9524 15.2836L16.7969 15.3347L16.8455 15.498C16.9135 15.7226 16.9718 15.9574 17.0399 16.182L17.0885 16.3352L17.2343 16.2943C17.4578 16.2433 17.691 16.182 17.9146 16.1208L18.0798 16.08L18.0312 15.9064C17.9632 15.6716 17.8854 15.4368 17.8174 15.202L17.7688 15.0488L17.7591 15.059Z" fill="#E27761"/>
<path d="M18.9638 25.606L19.0124 25.7489L19.1582 25.7081C19.4206 25.6468 19.6927 25.5753 19.9551 25.5039L20.1204 25.4631L20.0621 25.2895C20.0135 25.1364 19.9649 24.9832 19.9163 24.8301C19.6441 25.0138 19.3137 25.2691 18.9443 25.5651C18.9443 25.5753 18.9443 25.5856 18.9541 25.5958L18.9638 25.606Z" fill="#E27761"/>
<path d="M22.2292 13.8652L22.0834 13.9061C21.821 13.9673 21.5586 14.0388 21.3059 14.1102L21.1406 14.1511L21.1892 14.3247C21.267 14.5901 21.3545 14.8555 21.4322 15.1312L21.4808 15.2741L21.6266 15.2435C21.8987 15.1822 22.1612 15.121 22.4333 15.0597L22.618 15.0189L22.5596 14.8351C22.4721 14.5595 22.375 14.2838 22.2875 14.0184L22.2389 13.8755L22.2292 13.8652Z" fill="#E27761"/>
<path d="M16.5638 16.8051L16.418 16.846C16.2042 16.9072 15.9807 16.9685 15.7668 17.0297L15.6113 17.0706L15.6599 17.2339C15.7183 17.4585 15.7863 17.6831 15.8446 17.9179L15.8835 18.0711L16.0292 18.0302C16.2528 17.969 16.4763 17.9179 16.6999 17.8567L16.8651 17.8158L16.8068 17.6423C16.7388 17.4075 16.6707 17.1727 16.593 16.9481L16.5444 16.7949L16.5638 16.8051Z" fill="#E27761"/>
<path d="M23.6789 13.5996L23.5428 13.6302C23.2512 13.6915 22.9596 13.7528 22.6681 13.814L22.4834 13.8548L22.5514 14.0386C22.6584 14.3347 22.7555 14.6307 22.8527 14.9166L22.9013 15.0595L23.0374 15.0289C23.3193 14.9677 23.6011 14.8962 23.8927 14.8247L24.0676 14.7839L24.0093 14.6103C23.9218 14.3245 23.8246 14.0284 23.7275 13.7426L23.6789 13.5996Z" fill="#E27761"/>
<path d="M22.9677 15.2751L23.026 15.4589C23.0552 15.5508 23.0844 15.6427 23.1135 15.7346C23.3371 15.5202 23.5509 15.3057 23.755 15.1016C23.5509 15.1424 23.3468 15.1934 23.1427 15.2343L22.958 15.2751H22.9677Z" fill="#E27761"/>
<path d="M17.0398 21.4004L16.894 21.4412C16.6413 21.5025 16.3788 21.574 16.1261 21.6352L15.9609 21.676L16.0095 21.8496C16.0873 22.115 16.165 22.3805 16.2428 22.6357L16.2914 22.7786L16.4372 22.748C16.5538 22.7174 16.6704 22.6969 16.7871 22.6663C16.9329 22.4723 17.0883 22.2682 17.2439 22.064C17.1855 21.8904 17.1272 21.7169 17.0786 21.5433L17.0301 21.4004H17.0398Z" fill="#E27761"/>
<path d="M20.3247 17.4593L20.2761 17.3164L20.1303 17.347C19.8678 17.4185 19.6152 17.4798 19.3527 17.5512L19.1875 17.592L19.2361 17.7656C19.3139 18.031 19.4013 18.2965 19.4791 18.5721L19.5277 18.7151L19.6735 18.6844C19.9164 18.6334 20.1497 18.5721 20.3927 18.5211C20.4607 18.4496 20.5288 18.3782 20.5968 18.3067V18.2863C20.4996 18.0106 20.4121 17.7452 20.3149 17.4695L20.3247 17.4593Z" fill="#E27761"/>
<path d="M19.7217 19.0198L19.7703 19.1729C19.8383 19.1015 19.8966 19.0402 19.9647 18.9688C19.9452 18.9688 19.9258 18.9688 19.9063 18.979L19.7217 19.0198Z" fill="#E27761"/>
<path d="M19.2849 19.082L19.1391 19.1228C18.8767 19.1841 18.624 19.2556 18.3713 19.3168L18.2061 19.3577L18.2546 19.5312C18.3324 19.7967 18.4101 20.0621 18.4976 20.3275L18.5365 20.4705H18.5948C18.8378 20.1846 19.0905 19.8987 19.3626 19.6027C19.3821 19.5823 19.4112 19.5517 19.4307 19.5312C19.4015 19.4291 19.3626 19.327 19.3335 19.2249L19.2849 19.082Z" fill="#E27761"/>
<path d="M20.8204 17.255L20.6357 17.2958L20.7038 17.4796C20.7621 17.6531 20.8204 17.8267 20.8787 18.0003C21.1897 17.6838 21.5007 17.3571 21.802 17.0508L21.6951 17.0712C21.4036 17.1325 21.112 17.1937 20.8204 17.255Z" fill="#E27761"/>
<path d="M22.8036 15.4574L22.755 15.3145L22.619 15.3451C22.3274 15.4063 22.0358 15.4676 21.7442 15.5288L21.5596 15.5697L21.6276 15.7534C21.7345 16.0495 21.8317 16.3456 21.9289 16.6314L21.9775 16.7744L22.0941 16.7437C22.3857 16.4477 22.6676 16.1618 22.9397 15.8963C22.8911 15.7534 22.8425 15.6003 22.7939 15.4574H22.8036Z" fill="#E27761"/>
<path d="M19.0324 26.6468L18.9838 26.5039L18.838 26.5345C18.5659 26.5958 18.2938 26.657 18.0216 26.7183L17.8467 26.7591L17.905 26.9429C18.0022 27.2185 18.0897 27.4942 18.1771 27.7698L18.2257 27.9128L18.3618 27.8719C18.6242 27.8107 18.8866 27.7392 19.1491 27.6677L19.3143 27.6269L19.2657 27.4533C19.1879 27.1879 19.1004 26.9123 19.013 26.6468H19.0324Z" fill="#E27761"/>
<path d="M17.6621 26.9535L17.6135 26.8105L17.4774 26.8412C17.4774 26.8412 17.4677 26.8412 17.4579 26.8412C17.1664 27.0964 16.8845 27.3517 16.6318 27.5967C16.6902 27.7702 16.7485 27.9336 16.8068 28.1071L16.8554 28.25L16.9914 28.2194C17.2636 28.1582 17.5454 28.0867 17.8176 28.0152L17.9925 27.9744L17.9342 27.8008C17.8467 27.5252 17.7593 27.2394 17.6621 26.9637V26.9535Z" fill="#E27761"/>
<path d="M15.9611 22.6762C15.8833 22.421 15.7959 22.176 15.7181 21.9207L15.6695 21.7676L15.5237 21.8084C15.2807 21.8697 15.0475 21.9411 14.8045 22.0024H14.7656C14.8337 22.3699 14.9017 22.7375 14.9989 23.0948L15.0961 23.0743C15.3391 23.0131 15.5918 22.9518 15.8347 22.8906L16.0097 22.8498L15.9514 22.6762H15.9611Z" fill="#E27761"/>
<path d="M15.8153 19.5928L15.757 19.4192C15.6889 19.1946 15.6209 18.9598 15.5529 18.7352L15.5043 18.582L15.3585 18.6229C15.1447 18.6841 14.9309 18.7454 14.717 18.8169L14.5615 18.8577L14.6004 19.021C14.6587 19.2456 14.717 19.4702 14.785 19.6948L14.8239 19.8582L14.9794 19.8174C15.203 19.7561 15.4168 19.705 15.6403 19.6438L15.8056 19.6029L15.8153 19.5928Z" fill="#E27761"/>
<path d="M15.4166 18.2335L15.368 18.06C15.3097 17.8456 15.2417 17.6312 15.1834 17.4168L15.1348 17.2637L14.9793 17.3045C14.8432 17.3453 14.7169 17.3862 14.5905 17.427C14.5516 17.7741 14.5322 18.1212 14.5225 18.4785L14.6294 18.4479C14.8335 18.3969 15.0376 18.3356 15.2514 18.2744L15.4166 18.2335Z" fill="#E27761"/>
<path d="M15.358 21.2262L15.5038 21.1854C15.737 21.1242 15.9703 21.0629 16.2036 21.0119L16.3785 20.971L16.3202 20.7975C16.2424 20.5627 16.1744 20.3176 16.0966 20.0828L16.0481 19.9297L15.9023 19.9705C15.6787 20.0318 15.4455 20.093 15.2219 20.1645L15.0664 20.2155L15.115 20.3789C15.1831 20.6137 15.2511 20.8485 15.3094 21.0833L15.3483 21.2365L15.358 21.2262Z" fill="#E27761"/>
<path d="M15.417 23.9227L15.4656 24.0962C15.5045 24.2289 15.5433 24.3617 15.5822 24.4944C15.7086 24.2698 15.8641 24.0248 16.039 23.7695C15.8835 23.8104 15.7377 23.8512 15.5822 23.892L15.417 23.9329V23.9227Z" fill="#E27761"/>
<path d="M26.8851 13.0394L26.8365 12.8965L26.6907 12.9271C26.4283 12.9884 26.1659 13.0496 25.8937 13.1109L25.7188 13.1517L25.7674 13.3048C26.5157 12.8046 27.0114 13.0394 26.6324 13.7847C26.574 13.897 26.4963 14.0399 26.4088 14.2033C26.6129 14.1522 26.8073 14.1011 27.0114 14.0501L27.1766 14.0093L27.128 13.8357C27.0503 13.5703 26.9725 13.3048 26.8851 13.0394Z" fill="#E27761"/>
<path d="M16.31 15.3359L16.1545 15.3768C15.9504 15.438 15.7463 15.4993 15.5422 15.5605L15.3867 15.6014L15.4256 15.7647C15.4839 15.9791 15.5422 16.1935 15.6005 16.4079L15.6394 16.5712L15.7949 16.5304C15.999 16.4692 16.2128 16.4181 16.4267 16.3569L16.5919 16.316L16.5433 16.1425C16.4753 15.9281 16.4169 15.7035 16.3489 15.4891L16.3003 15.3359H16.31Z" fill="#E27761"/>
<path d="M17.3213 21.2658L17.3796 21.4394C17.4185 21.5517 17.4476 21.6742 17.4865 21.7865C17.6712 21.5619 17.8656 21.3168 18.0697 21.082C17.8753 21.1331 17.6906 21.1739 17.4962 21.2249L17.331 21.2658H17.3213Z" fill="#E27761"/>
<path d="M23.3184 19.4495C23.4933 19.4087 23.6683 19.3576 23.8335 19.3168L23.9987 19.276L23.9501 19.1024C23.9015 18.9493 23.8529 18.7962 23.8043 18.6328C23.6391 18.9085 23.4836 19.1739 23.3184 19.4495Z" fill="#E27761"/>
<path d="M27.818 19.8275L27.9735 19.7867C28.1776 19.7255 28.3817 19.6642 28.5955 19.6029L28.751 19.5519L28.7121 19.3886C28.6538 19.1742 28.5955 18.9598 28.5372 18.7352L28.4983 18.582L28.3428 18.6229C28.129 18.6841 27.9152 18.7352 27.7013 18.7964L27.5361 18.8373L27.5847 19.0108C27.6528 19.2354 27.7111 19.4498 27.7791 19.6744L27.8277 19.8378L27.818 19.8275Z" fill="#E27761"/>
<path d="M20.3832 26.3304L20.3346 26.1875L20.1888 26.2181C19.9264 26.2794 19.6737 26.3406 19.4113 26.4019L19.2363 26.4427L19.2946 26.6265C19.3821 26.8919 19.4696 27.1573 19.5474 27.4126L19.5959 27.5555L19.7417 27.5147C19.9944 27.4534 20.2471 27.382 20.4901 27.3207L20.6553 27.2799L20.6067 27.1063C20.529 26.8511 20.4512 26.5856 20.3735 26.3304H20.3832Z" fill="#E27761"/>
<path d="M28.1103 17.2332L28.0714 17.0801L27.9256 17.1209C27.7021 17.1822 27.4688 17.2332 27.2453 17.2945L27.0801 17.3353L27.1287 17.5089C27.1967 17.7437 27.2745 17.9785 27.3425 18.2133L27.3911 18.3664L27.5369 18.3256C27.7604 18.2643 27.9742 18.2031 28.1978 18.1418L28.3533 18.101L28.3047 17.9376C28.2464 17.713 28.1783 17.4782 28.1103 17.2536V17.2332Z" fill="#E27761"/>
<path d="M23.9893 18.3264C24.067 18.5714 24.1448 18.8164 24.2225 19.0615L24.2711 19.2044L24.4169 19.1636C24.6696 19.1023 24.9126 19.0308 25.1653 18.9696L25.3305 18.9287L25.2819 18.7552C25.2042 18.5 25.1264 18.2447 25.0487 17.9793L25.0098 17.8262L24.864 17.8568C24.6307 17.9078 24.3975 17.9691 24.1642 18.0201C24.1059 18.112 24.0476 18.2141 23.9893 18.306V18.3264Z" fill="#E27761"/>
<path d="M25.2524 22.3484L25.3982 22.3076C25.6218 22.2463 25.8356 22.1851 26.0591 22.1136L26.2146 22.0728L26.1757 21.9094C26.1174 21.6848 26.0494 21.45 25.9814 21.2254L25.9425 21.0723L25.787 21.1131C25.5634 21.1744 25.3302 21.2356 25.1066 21.2866L24.9414 21.3275L24.99 21.5011C25.058 21.7359 25.1358 21.9707 25.2038 22.2055L25.2524 22.3586V22.3484Z" fill="#E27761"/>
<path d="M24.3682 17.6948C24.4945 17.6642 24.6209 17.6336 24.7569 17.5927L24.9222 17.5519L24.8736 17.3784C24.8347 17.2661 24.8055 17.1436 24.7667 17.0312C24.6403 17.2456 24.5042 17.4702 24.3682 17.6948Z" fill="#E27761"/>
<path d="M27.7214 15.8367L27.6728 15.6836L27.527 15.7244C27.284 15.7857 27.0508 15.8469 26.8078 15.898L26.6328 15.9388L26.6911 16.1124C26.7689 16.3574 26.8467 16.6024 26.9244 16.8474L26.973 17.0006L27.1188 16.9597C27.352 16.8985 27.5853 16.827 27.8186 16.7658L27.9741 16.7147L27.9255 16.5514C27.8575 16.3166 27.7894 16.0716 27.7214 15.8265V15.8367Z" fill="#E27761"/>
<path d="M27.1765 20.0126L27.1377 19.8493C27.0696 19.6247 27.0113 19.3899 26.9433 19.1551L26.9044 19.002L26.7586 19.0428C26.5351 19.1041 26.3018 19.1551 26.0686 19.2163L25.9033 19.2572L25.9616 19.4308C26.0297 19.6656 26.1074 19.9004 26.1755 20.1352L26.2241 20.2883L26.3699 20.2475C26.5934 20.1862 26.8169 20.125 27.0308 20.0637L27.1863 20.0229L27.1765 20.0126Z" fill="#E27761"/>
<path d="M25.8941 18.7766C26.1274 18.7153 26.3704 18.6438 26.5939 18.5826L26.7591 18.5418L26.7105 18.3784C26.6425 18.1334 26.5745 17.8884 26.4967 17.6434L26.4481 17.4902L26.3023 17.531C26.0593 17.5923 25.8164 17.6536 25.5734 17.7046L25.3984 17.7455L25.4568 17.919C25.5345 18.1742 25.6122 18.4193 25.69 18.6643L25.7386 18.8174L25.8844 18.7766H25.8941Z" fill="#E27761"/>
<path d="M25.0391 16.5701C25.1168 16.8151 25.1946 17.0499 25.2723 17.295L25.3209 17.4481L25.4667 17.4073C25.7194 17.346 25.9624 17.2745 26.2054 17.2133L26.3706 17.1724L26.322 16.9989C26.2443 16.7437 26.1762 16.4884 26.0985 16.2332L26.0499 16.0801L25.9041 16.1209C25.6708 16.1719 25.4375 16.2332 25.214 16.2842C25.1557 16.3761 25.0974 16.4782 25.0391 16.5803V16.5701Z" fill="#E27761"/>
<path d="M14.872 16.7135C14.8331 16.5706 14.7942 16.4378 14.7553 16.2949C14.7165 16.5093 14.6776 16.7339 14.6484 16.9585C14.6873 16.9585 14.7165 16.9381 14.7553 16.9279L14.9108 16.887L14.8623 16.7237L14.872 16.7135Z" fill="#E27761"/>
<path d="M27.2644 14.2934L27.1186 14.3342C26.8659 14.3955 26.6132 14.4568 26.3605 14.518L26.2245 14.5487C26.2245 14.5487 26.205 14.5793 26.1953 14.5895L26.2439 14.7324C26.3314 14.9876 26.4091 15.2531 26.4966 15.5083L26.5452 15.6512L26.691 15.6104C26.934 15.5491 27.1867 15.4777 27.4296 15.4164L27.5949 15.3756L27.5463 15.202C27.4782 14.9468 27.4005 14.6916 27.3227 14.4363L27.2741 14.2832L27.2644 14.2934Z" fill="#E27761"/>
<path d="M24.4072 19.6224L24.4655 19.796C24.5433 20.0512 24.621 20.2962 24.6988 20.5412L24.7474 20.6944L24.8932 20.6535C25.1264 20.5923 25.3597 20.5208 25.6027 20.4595L25.7679 20.4187L25.7193 20.2554C25.6513 20.0104 25.5832 19.7653 25.5055 19.5203L25.4666 19.3672L25.3208 19.408C25.0779 19.4693 24.8349 19.5305 24.5919 19.5816L24.4169 19.6224H24.4072Z" fill="#E27761"/>
<path d="M23.2985 21.7266L23.1528 21.7572C22.9001 21.8184 22.6474 21.8797 22.3947 21.9409L22.2197 21.9818L22.278 22.1553C22.3655 22.4106 22.4432 22.676 22.5307 22.9312L22.5793 23.0844L22.7251 23.0435C22.9681 22.9823 23.2208 22.9108 23.4638 22.8496L23.629 22.8087L23.5804 22.6352C23.5027 22.3799 23.4346 22.1349 23.3569 21.8797L23.318 21.7266H23.2985Z" fill="#E27761"/>
<path d="M23.9212 22.7174L24.067 22.6765C24.3003 22.6153 24.5335 22.554 24.7668 22.4826L24.9223 22.4417L24.8737 22.2784C24.8057 22.0333 24.7376 21.7985 24.6696 21.5535L24.621 21.4004L24.4752 21.4412C24.2322 21.5025 23.999 21.5637 23.756 21.625L23.5811 21.6658L23.6394 21.8394C23.7171 22.0844 23.7949 22.3294 23.8726 22.5744L23.9212 22.7276V22.7174Z" fill="#E27761"/>
<path d="M25.9039 15.6327C25.865 15.5102 25.8261 15.3979 25.797 15.2754C25.6803 15.4898 25.5443 15.7042 25.4082 15.9492C25.5346 15.9186 25.6706 15.8879 25.797 15.8471L25.9622 15.8063L25.9136 15.6327H25.9039Z" fill="#E27761"/>
<path d="M28.2751 21.4508L28.4306 21.3997C28.625 21.3385 28.8097 21.2772 29.004 21.216L29.1498 21.1649L29.111 21.0118C29.0624 20.8076 29.0138 20.6034 28.9555 20.4094L28.9166 20.2461L28.7611 20.2869C28.5667 20.338 28.3723 20.3992 28.1682 20.4605L28.0127 20.5013L28.0613 20.6647C28.1196 20.8689 28.1779 21.073 28.2362 21.2772L28.2848 21.4406L28.2751 21.4508Z" fill="#E27761"/>
<path d="M27.6143 21.6535L27.5754 21.4901C27.5171 21.2757 27.4588 21.0613 27.4005 20.8469L27.3616 20.6836L27.2061 20.7244C26.9923 20.7857 26.7785 20.8368 26.5647 20.898L26.3994 20.9388L26.448 21.1124C26.516 21.337 26.5744 21.5514 26.6424 21.776L26.691 21.9393L26.8465 21.8985C27.0506 21.8372 27.2547 21.776 27.4588 21.7147L27.6143 21.6739V21.6535Z" fill="#E27761"/>
<path d="M30.2192 19.0833L30.1804 18.92C30.1318 18.7158 30.0832 18.5218 30.0346 18.3176L29.9957 18.1543L29.8402 18.1951C29.6458 18.2564 29.4514 18.3074 29.2473 18.3687L29.0918 18.4095L29.1404 18.5729C29.1987 18.7771 29.257 18.9812 29.3153 19.1854L29.3639 19.3487L29.5194 19.3079C29.7138 19.2467 29.8985 19.1854 30.0929 19.1241L30.2387 19.0833H30.2192Z" fill="#E27761"/>
<path d="M25.7291 23.9315L25.8846 23.8805C26.0887 23.8192 26.2929 23.7579 26.497 23.6967L26.6525 23.6457L26.6136 23.4823C26.5553 23.2679 26.497 23.0535 26.4386 22.8391L26.3998 22.6758L26.2442 22.7166C26.0304 22.7677 25.8263 22.8289 25.6125 22.8902L25.4473 22.931L25.4959 23.1046C25.5639 23.3292 25.6222 23.5436 25.6902 23.7579L25.7389 23.9213L25.7291 23.9315Z" fill="#E27761"/>
<path d="M29.6456 16.8255L29.6068 16.6621L29.4513 16.703C29.2375 16.754 29.0333 16.8153 28.8195 16.8765L28.6543 16.9173L28.7029 17.0909C28.7709 17.3053 28.8292 17.5299 28.8973 17.7443L28.9459 17.9076L29.1014 17.8668C29.3055 17.8056 29.5096 17.7443 29.7137 17.683L29.8692 17.6422L29.8303 17.4789C29.772 17.2645 29.7137 17.0501 29.6651 16.8357L29.6456 16.8255Z" fill="#E27761"/>
<path d="M28.8777 14.0594L28.8388 13.9062L28.693 13.9471C28.4598 14.0084 28.2168 14.0696 27.9835 14.1206L27.8086 14.1615L27.8669 14.335C27.9447 14.58 28.0224 14.8251 28.0904 15.0701L28.139 15.2232L28.2848 15.1824C28.5181 15.1211 28.7513 15.0497 28.9749 14.9884L29.1304 14.9476L29.0818 14.7842C29.0138 14.5494 28.9457 14.3044 28.8777 14.0696V14.0594Z" fill="#E27761"/>
<path d="M23.0945 20.1241C23.182 20.3895 23.2695 20.6448 23.3472 20.9102L23.3958 21.0531L23.5416 21.0123C23.7943 20.951 24.0373 20.8796 24.29 20.8183L24.4552 20.7775L24.4066 20.6039C24.3289 20.3487 24.2608 20.0935 24.1831 19.8383L24.1345 19.6953L23.9887 19.7259C23.736 19.7872 23.4736 19.8485 23.2209 19.9097L23.0459 19.9505L23.1042 20.1241H23.0945Z" fill="#E27761"/>
<path d="M29.2666 15.4481L29.2277 15.2949L29.0722 15.3358C28.8486 15.3868 28.6251 15.4481 28.4015 15.5093L28.2363 15.5502L28.2849 15.7237C28.3529 15.9585 28.421 16.1933 28.4987 16.4179L28.5473 16.5711L28.6931 16.5302C28.907 16.469 29.1305 16.4077 29.3443 16.3465L29.4998 16.3056L29.4512 16.1423C29.3929 15.9177 29.3249 15.6931 29.2666 15.4583V15.4481Z" fill="#E27761"/>
<path d="M21.1123 23.1339C21.1317 23.1849 21.1512 23.2359 21.1609 23.287L21.2095 23.4299L21.3553 23.3891C21.6177 23.3278 21.8704 23.2564 22.1231 23.1849L22.2883 23.144L22.2397 22.9705C22.162 22.7051 22.0745 22.4396 21.9968 22.1742L21.9579 22.0312L21.8121 22.0619C21.8121 22.0619 21.7635 22.0721 21.7343 22.0823C21.5205 22.4396 21.3164 22.7867 21.1123 23.1236V23.1339Z" fill="#E27761"/>
<path d="M20.8887 23.5133L20.9567 23.4929L20.9373 23.4316C20.9373 23.4316 20.9081 23.4827 20.8887 23.5133Z" fill="#E27761"/>
<path d="M22.1718 21.368C22.4342 21.2966 22.6967 21.2353 22.9494 21.1638L23.1146 21.123L23.066 20.9494C22.9882 20.7146 22.9202 20.4696 22.8424 20.2246C22.6092 20.6126 22.3857 20.9903 22.1621 21.3578L22.1718 21.368Z" fill="#E27761"/>
<path d="M23.0853 24.6876L23.2311 24.6468C23.4643 24.5855 23.6879 24.5141 23.9212 24.4528L24.0767 24.412L24.0281 24.2486C23.96 24.0138 23.892 23.7688 23.824 23.534L23.7754 23.3809L23.6296 23.4217C23.3963 23.483 23.1533 23.5442 22.9201 23.5952L22.7451 23.6361L22.8034 23.8096C22.8812 24.0546 22.9589 24.2997 23.027 24.5447L23.0756 24.6978L23.0853 24.6876Z" fill="#E27761"/>
<path d="M24.4068 24.3191L24.5526 24.2783C24.7664 24.217 24.99 24.1558 25.2038 24.0843L25.3593 24.0435L25.3204 23.8801C25.2621 23.6555 25.1941 23.4309 25.1358 23.2063L25.0969 23.043L24.9511 23.0838C24.7276 23.1451 24.504 23.1961 24.2805 23.2574L24.1152 23.2982L24.1735 23.4718C24.2416 23.7066 24.3096 23.9312 24.3777 24.166L24.4263 24.3191H24.4068Z" fill="#E27761"/>
<path d="M20.2281 24.6462C20.2281 24.6462 20.1795 24.6768 20.1504 24.6972C20.2087 24.881 20.2767 25.075 20.3351 25.2587L20.3836 25.4017L20.5294 25.3608C20.7821 25.2996 21.0446 25.2281 21.2973 25.1669L21.4625 25.126L21.4139 24.9525C21.3361 24.6972 21.2584 24.4318 21.1709 24.1663L21.1223 24.0234L20.9765 24.0541C20.821 24.0949 20.6655 24.1255 20.51 24.1663C20.4128 24.3399 20.3156 24.5033 20.2281 24.6564V24.6462Z" fill="#E27761"/>
<path d="M21.7337 25.0551L21.8794 25.0143C22.1224 24.9428 22.3654 24.8815 22.6084 24.8203L22.7639 24.7794L22.7153 24.6059C22.6472 24.3608 22.5695 24.1056 22.4918 23.8504L22.4431 23.6973L22.2974 23.7279C22.0447 23.7891 21.792 23.8504 21.549 23.9116L21.374 23.9525L21.4324 24.1261C21.5198 24.3813 21.5976 24.6365 21.6753 24.8917L21.7239 25.0449L21.7337 25.0551Z" fill="#E27761"/>
<path d="M18.1288 9.38309L18.1677 9.53622C18.2163 9.73019 18.2649 9.92415 18.3135 10.1283L18.3524 10.2917L18.5079 10.2407C18.6926 10.1896 18.8869 10.1283 19.0813 10.0773L19.2368 10.0365L19.1882 9.87311C19.1299 9.66892 19.0716 9.47495 19.023 9.27077L18.9744 9.10742L18.8189 9.15849C18.6343 9.21974 18.4496 9.28098 18.2649 9.33202L18.1191 9.38309H18.1288Z" fill="#E27761"/>
<path d="M23.445 11.6597C23.3673 11.4147 23.2895 11.1696 23.2118 10.9246L23.1632 10.7715L23.0174 10.8123C22.7841 10.8736 22.5509 10.9451 22.3176 11.0063L22.1621 11.0471L22.2107 11.2105C22.2787 11.4555 22.3468 11.6903 22.4148 11.9353L22.4439 12.0374C22.8036 11.9557 23.1535 11.8741 23.4839 11.7924L23.445 11.6597Z" fill="#E27761"/>
<path d="M24.8149 11.3348C24.7274 11.0796 24.6497 10.8142 24.5622 10.559L24.5136 10.416L24.3678 10.4569C24.1248 10.5181 23.8819 10.5896 23.6389 10.6508L23.4736 10.6917L23.5222 10.8652C23.6 11.1204 23.668 11.3757 23.7458 11.6207L23.7749 11.733C24.1637 11.6411 24.5233 11.5595 24.8538 11.488L24.8052 11.3451L24.8149 11.3348Z" fill="#E27761"/>
<path d="M16.0487 12.5072C16.2139 12.4561 16.3791 12.4051 16.5443 12.3438L16.6901 12.2927L16.6512 12.1396C16.6124 11.9661 16.5638 11.7823 16.5249 11.6088V11.5781C16.3888 11.7925 16.2722 12.0171 16.1555 12.2315C16.107 12.3234 16.0584 12.4255 16.0098 12.5173H16.0487V12.5072Z" fill="#E27761"/>
<path d="M17.3701 10.6399C17.5451 10.5888 17.7201 10.5275 17.9047 10.4765L18.0602 10.4357L18.0213 10.2723C17.9728 10.0886 17.9242 9.89458 17.8756 9.71082L17.8367 9.57812C17.6131 9.8844 17.3896 10.2009 17.1758 10.5276L17.2146 10.6909L17.3799 10.6399H17.3701Z" fill="#E27761"/>
<path d="M16.8069 12.0372L16.8458 12.2107L17.0012 12.1597C17.1859 12.1087 17.3609 12.0474 17.5455 11.9963L17.701 11.9555L17.6622 11.7922C17.6136 11.5982 17.565 11.4144 17.5164 11.2204L17.4678 11.0469L17.3123 11.0979C17.1373 11.1592 16.9624 11.2204 16.7875 11.2715L16.6805 11.3123C16.6805 11.3123 16.6611 11.343 16.6514 11.3532L16.6805 11.4757C16.7194 11.6594 16.768 11.8432 16.8166 12.0372H16.8069Z" fill="#E27761"/>
<path d="M17.6221 13.1202C17.5735 12.9263 17.5249 12.7425 17.4666 12.5485L17.4277 12.375L17.2722 12.426C17.0972 12.4873 16.9223 12.5383 16.7473 12.5996L16.6016 12.6506L16.6404 12.8038C16.6793 12.9875 16.7279 13.1815 16.7668 13.3653L16.7959 13.4878C17.0681 13.4061 17.3596 13.3245 17.6512 13.2428L17.6221 13.1101V13.1202Z" fill="#E27761"/>
<path d="M22.0938 11.9962C22.0257 11.7614 21.948 11.5266 21.8799 11.2918L21.8313 11.1387L21.6856 11.1795C21.462 11.2407 21.2482 11.302 21.0247 11.3633L20.8691 11.4041L20.9178 11.5674C20.9761 11.792 21.0441 12.0268 21.1121 12.2617L21.1315 12.3535C21.4717 12.2719 21.8022 12.1902 22.1327 12.1085L22.0938 11.986V11.9962Z" fill="#E27761"/>
<path d="M16.0292 13.579C15.9904 13.4054 15.9418 13.2319 15.9029 13.0583L15.864 12.8848H15.8251C15.6696 13.2319 15.5336 13.5688 15.4072 13.9261C15.6113 13.8648 15.8252 13.7934 16.0584 13.7219L16.0292 13.5994V13.579Z" fill="#E27761"/>
<path d="M15.2324 14.405L15.2518 14.4867C15.3004 14.6909 15.349 14.8848 15.4074 15.089L15.4462 15.2524L15.6018 15.2115C15.7961 15.1605 15.9905 15.0992 16.1946 15.0482L16.3501 15.0073L16.3015 14.844C16.2432 14.6398 16.1849 14.4356 16.1266 14.2315L16.0974 14.1191C15.7767 14.211 15.4851 14.3131 15.2421 14.3948V14.4152L15.2324 14.405Z" fill="#E27761"/>
<path d="M19.0319 12.815C18.9736 12.6108 18.9152 12.4066 18.8569 12.2024L18.8083 12.0391L18.6528 12.0901C18.4584 12.1514 18.2738 12.2126 18.0794 12.2739L17.9336 12.3249L17.9724 12.4781C18.021 12.6823 18.0696 12.8762 18.128 13.0804V13.1212C18.439 13.0396 18.7403 12.9579 19.0513 12.8864L19.0319 12.8252V12.815Z" fill="#E27761"/>
<path d="M20.6457 12.3753C20.5777 12.1507 20.5194 11.9364 20.4514 11.7118L20.4028 11.5586L20.2473 11.5994C20.0432 11.6607 19.8391 11.7219 19.6252 11.7832L19.4697 11.8343L19.5086 11.9976C19.5669 12.212 19.6252 12.4264 19.6836 12.651L19.703 12.7224C20.0237 12.6408 20.3445 12.5591 20.6555 12.4876L20.6263 12.3957L20.6457 12.3753Z" fill="#E27761"/>
<path d="M18.9353 8.79188L18.8867 8.62853C18.8575 8.52644 18.8284 8.42436 18.7992 8.32227C18.6243 8.53666 18.4494 8.76125 18.2744 8.98585C18.4396 8.94502 18.6048 8.89399 18.7701 8.84294L18.9256 8.8021L18.9353 8.79188Z" fill="#E27761"/>
<path d="M20.3345 10.1406L20.179 10.1815C19.9749 10.2427 19.7707 10.304 19.5666 10.3652L19.4111 10.4163L19.45 10.5796C19.5083 10.794 19.5666 11.0084 19.6152 11.2228L19.6541 11.3861L19.8096 11.3453C20.0234 11.284 20.2275 11.233 20.4414 11.1718L20.6066 11.1309L20.558 10.9573C20.49 10.743 20.4317 10.5184 20.3636 10.304L20.315 10.1406H20.3345Z" fill="#E27761"/>
<path d="M18.7693 10.6191L18.6137 10.6702C18.4194 10.7314 18.2347 10.7927 18.0403 10.854L17.8945 10.905L17.9334 11.0581C17.982 11.2521 18.0306 11.4563 18.0889 11.6605L18.1278 11.8238L18.2833 11.783C18.4777 11.7217 18.6721 11.6707 18.8762 11.6196L19.0317 11.5788L18.9831 11.4155C18.9248 11.2113 18.8665 11.0071 18.8081 10.8029L18.7596 10.6395L18.7693 10.6191Z" fill="#E27761"/>
<path d="M21.7145 26.0145L21.6756 25.8613L21.5298 25.892C21.2868 25.9532 21.0342 26.0145 20.7912 26.0757L20.6162 26.1166L20.6746 26.2901C20.7523 26.5454 20.8398 26.8006 20.9175 27.0456L20.9661 27.1987L21.1119 27.1579C21.3549 27.0966 21.5881 27.0252 21.8311 26.9639L21.9964 26.9231L21.9478 26.7597C21.8797 26.5147 21.802 26.2697 21.7339 26.0145H21.7145Z" fill="#E27761"/>
<path d="M19.5958 9.67903L19.6347 9.84238L19.7902 9.80154C19.9943 9.74028 20.1984 9.68926 20.4025 9.628L20.5678 9.58716L20.5192 9.42381C20.4609 9.20941 20.4025 8.99502 20.3345 8.78063V8.75C20.2568 8.79084 20.1984 8.82148 20.1304 8.86232C19.8194 9.02566 19.5958 9.05627 19.4209 9.00523L19.4403 9.06651C19.4889 9.2809 19.5473 9.48507 19.6056 9.68925L19.5958 9.67903Z" fill="#E27761"/>
<path d="M21.6459 9.75195L21.5 9.7928C21.2862 9.85405 21.0627 9.91531 20.8489 9.98677L20.6934 10.0378L20.7322 10.2012C20.7906 10.4258 20.8586 10.6504 20.9169 10.8852L20.9558 11.0383L21.1015 10.9975C21.3251 10.9362 21.5486 10.8852 21.7722 10.8239L21.9374 10.7831L21.8888 10.6095C21.8208 10.3747 21.743 10.1399 21.675 9.9153L21.6264 9.76217L21.6459 9.75195Z" fill="#E27761"/>
<path d="M22.2681 10.6915L22.4139 10.6507C22.6472 10.5894 22.8902 10.5282 23.1234 10.4771L23.2984 10.4363L23.2498 10.2627C23.172 10.0177 23.0943 9.77271 23.0165 9.5379L22.9679 9.38477L22.8221 9.42558C22.5889 9.48683 22.3653 9.5583 22.1321 9.61956L21.9766 9.6604L22.0251 9.82375C22.0932 10.0586 22.1612 10.3036 22.2292 10.5384L22.2779 10.6915H22.2681Z" fill="#E27761"/>
<path d="M20.879 9.33304L20.9276 9.48617L21.0831 9.44536C21.2969 9.3841 21.5204 9.33304 21.7343 9.27179L21.8995 9.23094L21.8509 9.05741C21.7829 8.8328 21.7148 8.6082 21.6468 8.3836L21.5982 8.23047L21.4524 8.27128C21.2969 8.32233 21.1414 8.36318 20.9859 8.41423C20.8887 8.46527 20.7915 8.51631 20.6846 8.56736L20.7137 8.66945C20.772 8.89405 20.8304 9.10844 20.8887 9.33304H20.879Z" fill="#E27761"/>
<path d="M24.7666 10.312L24.8346 10.4957C24.9318 10.7918 25.0387 11.0777 25.1359 11.3737V11.4146C25.6413 11.3023 26.0398 11.2104 26.312 11.1491L26.2828 11.0572C26.2634 10.996 26.2439 10.945 26.2245 10.8837C26.2148 10.8837 26.1953 10.8633 26.1759 10.8531C25.8551 10.6693 25.583 10.4345 25.3498 10.1895C25.2137 10.2201 25.0873 10.2507 24.9513 10.2711L24.7666 10.312Z" fill="#E27761"/>
<path d="M22.1814 8.9956L22.23 9.14873L22.3758 9.10789C22.6091 9.04663 22.8326 8.99561 23.0659 8.93435L23.2408 8.89351L23.1825 8.71994C23.1047 8.48513 23.0367 8.24013 22.9589 8.00532L22.9201 7.88281C22.9201 7.88281 22.8715 7.88281 22.8423 7.88281L22.7549 7.90322C22.5313 7.96447 22.3078 8.02573 22.0842 8.0972L21.9287 8.13804L21.9773 8.30139C22.0454 8.5362 22.1037 8.76077 22.1717 9.00579L22.1814 8.9956Z" fill="#E27761"/>
<path d="M23.5418 8.82195L23.6876 8.78111C23.8431 8.74027 23.9889 8.70966 24.1444 8.66882C23.9403 8.4238 23.7362 8.21963 23.503 8.07671C23.4349 8.03587 23.3766 8.00524 23.3086 7.97461C23.3766 8.19921 23.4446 8.434 23.503 8.6586L23.5418 8.81177V8.82195Z" fill="#E27761"/>
<path d="M23.2793 9.29126L23.3279 9.46483C23.3959 9.70985 23.4737 9.96509 23.5514 10.2101L23.6 10.3632L23.7458 10.3224C23.9985 10.2611 24.2512 10.1999 24.4942 10.1386L24.6691 10.0978L24.6108 9.92425C24.5331 9.66902 24.4456 9.4138 24.3678 9.15857L24.3193 9.01562L24.1734 9.05647C23.9305 9.12793 23.6875 9.18919 23.4445 9.25045L23.2793 9.29126Z" fill="#E27761"/>
<path d="M24.9319 10.0461L25.0777 10.0154C25.0777 10.0154 25.1263 10.0052 25.1554 9.995C25.0194 9.84186 24.893 9.67853 24.7764 9.52539C24.8152 9.6479 24.8541 9.78061 24.893 9.90312L24.9416 10.0461H24.9319Z" fill="#E27761"/>
<path d="M16.6415 14.0589C16.6998 14.2733 16.7581 14.4877 16.8164 14.7123L16.8553 14.8756L17.0108 14.8348C17.2246 14.7838 17.4384 14.7225 17.6523 14.6613L17.8175 14.6204L17.7689 14.4469C17.7009 14.2223 17.6426 14.0079 17.5745 13.7833L17.5454 13.6914C17.2149 13.7833 16.9136 13.8649 16.6123 13.9568L16.6415 14.0691V14.0589Z" fill="#E27761"/>
<path d="M29.15 21.889C28.9653 21.94 28.7903 22.0012 28.6057 22.0523L28.4502 22.0931L28.4891 22.2565C28.5376 22.4504 28.596 22.6342 28.6348 22.8282C28.8778 22.5423 29.1111 22.2463 29.3249 21.94L29.2958 21.8379L29.1403 21.889H29.15Z" fill="#E27761"/>
<path d="M30.2388 19.8577C30.0639 19.9087 29.8792 19.97 29.6946 20.021L29.5391 20.0619L29.5779 20.2252C29.6265 20.4192 29.6751 20.6132 29.7334 20.7969L29.7723 20.9705L29.9278 20.9194C29.9278 20.9194 29.9764 20.899 30.0056 20.8888C30.0736 20.7663 30.1514 20.6438 30.2194 20.5213C30.2971 20.3783 30.3749 20.215 30.4527 20.0619C30.4527 20.0312 30.4429 20.0108 30.4332 19.9802L30.3944 19.8066L30.2388 19.8577Z" fill="#E27761"/>
<path d="M31.6962 16.9696L31.7157 17.0513C31.8323 16.7144 31.9392 16.3775 32.0364 16.0508C31.9003 16.0916 31.774 16.1222 31.6379 16.1631L31.4824 16.2039L31.531 16.3673C31.5893 16.5714 31.6476 16.7654 31.6962 16.9696Z" fill="#E27761"/>
<path d="M30.335 16.4681L30.3836 16.6314C30.4419 16.8356 30.4905 17.0296 30.5488 17.2338L30.5877 17.3971L30.7432 17.3461C30.9278 17.2848 31.1125 17.2236 31.2972 17.1725L31.443 17.1215L31.4041 16.9684C31.3555 16.7744 31.3069 16.5702 31.2583 16.3762L31.2194 16.2129L31.0639 16.2639C30.8695 16.315 30.6849 16.3762 30.4905 16.4273L30.335 16.4681Z" fill="#E27761"/>
<path d="M23.0369 25.6864L22.9883 25.5332L22.8425 25.574C22.6092 25.6353 22.376 25.6966 22.1427 25.7476L21.9678 25.7884L22.0261 25.962C22.1038 26.1968 22.1719 26.4418 22.2496 26.6767L22.2982 26.8298L22.444 26.7889C22.6675 26.7277 22.9008 26.6664 23.1244 26.595L23.2799 26.5541L23.2313 26.3908C23.1632 26.156 23.1049 25.9212 23.0369 25.6864Z" fill="#E27761"/>
<path d="M29.9473 15.1112L29.9959 15.2847C30.0542 15.4991 30.1222 15.7135 30.1805 15.9177L30.2291 16.081L30.3846 16.03C30.579 15.9687 30.7831 15.9075 30.9775 15.8462L31.1039 15.8054C31.0261 15.6726 30.9678 15.4787 30.9483 15.2132C30.9483 15.152 30.9484 15.0907 30.9386 15.0193C30.9386 15.0193 30.9386 15.0193 30.9386 15.0091L30.8998 14.8457L30.7442 14.8865C30.5401 14.9478 30.336 14.9989 30.1319 15.0601L29.9667 15.1009L29.9473 15.1112Z" fill="#E27761"/>
<path d="M27.8187 22.4602L27.7799 22.2969L27.6244 22.3377C27.43 22.3888 27.2356 22.45 27.0315 22.501L26.876 22.5419L26.9246 22.7052C26.9829 22.9094 27.0412 23.1136 27.0995 23.3178L27.1481 23.4811L27.3036 23.4301C27.498 23.3688 27.6827 23.3076 27.8771 23.2463L28.0229 23.2055L27.984 23.0523C27.9354 22.8482 27.8868 22.6542 27.8285 22.45L27.8187 22.4602Z" fill="#E27761"/>
<path d="M24.3389 25.3489L24.3 25.1855L24.1445 25.2264C23.9307 25.2876 23.7071 25.3387 23.4836 25.4L23.3184 25.4408L23.367 25.6143C23.435 25.8389 23.503 26.0737 23.5711 26.2983L23.6197 26.4515L23.7655 26.4107C23.9501 26.3596 24.1445 26.2984 24.3292 26.2473C24.4069 26.2065 24.475 26.1656 24.5527 26.1248L24.5236 26.0125C24.4652 25.7879 24.4069 25.5633 24.3389 25.3387V25.3489Z" fill="#E27761"/>
<path d="M26.6908 24.5335C26.4964 24.5845 26.302 24.6458 26.1077 24.6968L25.9521 24.7377L26.0007 24.901C26.0299 24.9929 26.0493 25.0848 26.0785 25.1767C26.3506 24.9827 26.6228 24.7785 26.8755 24.5743L26.856 24.4824L26.7005 24.5233L26.6908 24.5335Z" fill="#E27761"/>
<path d="M25.5834 24.8505L25.4279 24.8914C25.2238 24.9424 25.01 25.0036 24.8059 25.0547L24.6406 25.0955L24.6892 25.2589C24.7572 25.4733 24.8156 25.6877 24.8739 25.9021V25.9327C25.1752 25.7693 25.457 25.5958 25.7292 25.412C25.6903 25.2691 25.6612 25.1364 25.6223 24.9934L25.5834 24.8301V24.8505Z" fill="#E27761"/>
<path d="M30.7334 17.9394L30.7723 18.1028C30.8209 18.2866 30.8695 18.4806 30.9181 18.6643L30.9667 18.8379L31.0444 18.8072C31.1999 18.4499 31.3457 18.0824 31.4818 17.7148L31.4235 17.7353C31.2485 17.7863 31.0736 17.8374 30.8889 17.8986L30.7334 17.9497V17.9394Z" fill="#E27761"/>
<path d="M23.5906 12.2825C23.6878 12.5785 23.7947 12.8746 23.8919 13.1605L23.9405 13.3034L24.0766 13.2728C24.3584 13.2013 24.6403 13.14 24.9221 13.0686L25.0971 13.0277L25.0388 12.8542C24.9416 12.5683 24.8541 12.2723 24.7569 11.9864L24.7277 11.8945C24.3584 11.9762 23.9599 12.0783 23.542 12.1702L23.5809 12.2825H23.5906Z" fill="#E27761"/>
<path d="M20.9375 12.8449C21.0152 13.1001 21.093 13.3554 21.161 13.6106L21.2096 13.7637L21.3554 13.7331C21.6081 13.6718 21.8608 13.6106 22.1232 13.5493L22.2981 13.5085L22.2398 13.3247C22.1621 13.0695 22.0746 12.8041 21.9871 12.5488C21.6372 12.6305 21.2873 12.7224 20.9277 12.8041V12.8449H20.9375Z" fill="#E27761"/>
<path d="M22.2686 12.4983C22.3463 12.7637 22.4338 13.0292 22.5115 13.3048L22.5601 13.4477L22.7059 13.4171C22.9684 13.3559 23.2405 13.2946 23.5126 13.2334L23.6876 13.1925L23.6292 13.0087C23.5418 12.7433 23.4543 12.4881 23.3668 12.2227C23.0169 12.3043 22.6476 12.3962 22.2686 12.4881V12.4983Z" fill="#E27761"/>
<path d="M18.2059 13.5991C18.2642 13.8339 18.3322 14.0585 18.4003 14.2933L18.4489 14.4464L18.5947 14.4056C18.8182 14.3443 19.0515 14.2831 19.2847 14.2321L19.45 14.1912L19.3917 14.0176C19.3139 13.7828 19.2459 13.548 19.1778 13.3132L19.1584 13.252C18.8279 13.3438 18.4975 13.4255 18.1768 13.5072L18.2059 13.5991Z" fill="#E27761"/>
<path d="M19.625 13.2027C19.693 13.4478 19.761 13.6928 19.8388 13.9378L19.8874 14.0909L20.0332 14.0501C20.2762 13.9888 20.5191 13.9276 20.7621 13.8766L20.9371 13.8357L20.8788 13.6622C20.801 13.4172 20.7232 13.1619 20.6455 12.9169V12.8965C20.2956 12.9782 19.9554 13.07 19.6152 13.1517L19.6347 13.213L19.625 13.2027Z" fill="#E27761"/>
<path d="M29.5391 13.7337L29.5876 13.9073C29.6557 14.1319 29.7237 14.3565 29.7917 14.5811L29.8404 14.7445L29.9959 14.7036C30.2097 14.6424 30.4138 14.5811 30.6276 14.5199L30.7831 14.4688L30.7442 14.3055C30.6859 14.0809 30.6276 13.8665 30.5693 13.6419L30.5304 13.4785L30.3749 13.5194C30.1611 13.5806 29.9376 13.6317 29.7237 13.6929L29.5585 13.7337H29.5391Z" fill="#E27761"/>
<path d="M29.1104 12.3548L29.1687 12.5284C29.2464 12.7632 29.3144 13.0082 29.3922 13.2431L29.4408 13.3962L29.5866 13.3553C29.8101 13.2941 30.0337 13.2328 30.2572 13.1614L30.4127 13.1205L30.3641 12.9572C30.2961 12.7224 30.2378 12.4876 30.1697 12.2528L30.1309 12.0996L29.9851 12.1405C29.7518 12.2017 29.5283 12.2528 29.295 12.314L29.1201 12.3548H29.1104Z" fill="#E27761"/>
<path d="M29.0138 12.0372L29.1596 11.9964C29.3831 11.9351 29.6164 11.8738 29.8399 11.8126C29.8302 11.8126 29.8205 11.7922 29.8011 11.7922C29.5289 11.6288 29.1985 11.5471 28.8389 11.4961C28.8777 11.6288 28.9263 11.7513 28.9652 11.884L29.0138 12.0372Z" fill="#E27761"/>
<path d="M27.2251 12.345L27.2737 12.4879L27.4195 12.4471C27.6722 12.3858 27.9249 12.3143 28.1873 12.2531L28.3526 12.2122L28.3039 12.0387C28.2456 11.8345 28.1776 11.6201 28.1193 11.4159C27.8471 11.3853 27.5653 11.3445 27.2834 11.2832C27.2251 11.3036 27.1571 11.3138 27.0988 11.324L26.9238 11.3649L26.9821 11.5487C27.0696 11.8141 27.1571 12.0897 27.2445 12.3551L27.2251 12.345Z" fill="#E27761"/>
<path d="M25.3112 11.9157C25.4084 12.2016 25.4959 12.4772 25.5931 12.7529L25.6417 12.8958L25.7778 12.8652C26.0402 12.7937 26.3123 12.7325 26.5845 12.661L26.7497 12.6202L26.7011 12.4466C26.6136 12.171 26.5261 11.8953 26.4387 11.6197L26.4095 11.5176C26.1374 11.5788 25.7486 11.6605 25.2529 11.7728L25.3015 11.9055L25.3112 11.9157Z" fill="#E27761"/>
<path d="M27.3613 12.7611L27.4196 12.9346C27.4973 13.1899 27.5848 13.4451 27.6626 13.7003L27.7112 13.8534L27.857 13.8126C28.0999 13.7514 28.3429 13.6799 28.5859 13.6187L28.7414 13.5778L28.6928 13.4145C28.6151 13.1592 28.547 12.9142 28.4693 12.659L28.4207 12.5059L28.2749 12.5365C28.0222 12.5977 27.7792 12.659 27.5265 12.7202L27.3516 12.7611H27.3613Z" fill="#E27761"/>
<path d="M16.9621 13.4965C17.1371 13.4455 17.3217 13.3842 17.5064 13.3332L17.6619 13.2923V13.2617C17.3509 13.3434 17.069 13.4251 16.7969 13.5067V13.5578L16.9718 13.5067L16.9621 13.4965Z" fill="#E27761"/>
</svg>
