<svg width="48" height="43" viewBox="0 0 48 43" fill="none" xmlns="http://www.w3.org/2000/svg">
<path d="M44.9998 42.9993H47.3331C47.3899 39.1056 46.4561 35.2613 44.6194 31.8275C42.7827 28.3937 40.1034 25.4831 36.8331 23.3689V14.0356L40.3331 12.8001V14.7706L37.9998 20.6039V23.1659H44.9998V20.6086L42.6664 14.7753V11.9811L44.9998 11.1644V8.69928L24.0091 0.925781L2.99977 8.33995V11.1586L11.1664 14.0403V23.3736C7.89683 25.4873 5.21796 28.3972 3.38131 31.8301C1.54466 35.263 0.610472 39.1063 0.666437 42.9993H2.99977C2.99795 41.0288 3.25966 39.067 3.77794 37.1659H11.6191C11.3182 39.0958 11.1669 41.0461 11.1664 42.9993H13.4998C13.4985 41.0448 13.6597 39.0937 13.9816 37.1659H22.8331V42.9993H25.1664V37.1659H34.1043C34.4254 39.0916 34.5816 41.0412 34.5709 42.9934L36.9043 43.0051C36.9133 41.0502 36.767 39.0977 36.4668 37.1659H44.2216C44.7399 39.067 45.0016 41.0288 44.9998 42.9993ZM40.4229 20.8326L41.4998 18.1399L42.5766 20.8326H40.4229ZM23.9904 3.40611L41.5418 9.90445L23.9998 16.0948L6.0191 9.74928L23.9904 3.40611ZM23.9998 18.5728L34.4998 14.8663V22.9629C29.1331 27.8956 18.8664 27.8956 13.4998 22.9629V14.8663L23.9998 18.5728ZM4.55494 34.8326C6.14674 30.864 8.9578 27.5035 12.5828 25.2356C13.4116 25.904 14.3078 26.4842 15.2568 26.9669C13.7622 29.3923 12.6848 32.051 12.0694 34.8326H4.55494ZM14.4658 34.8326C15.0592 32.3741 16.0613 30.0327 17.4303 27.9061C19.1731 28.5076 20.9918 28.861 22.8331 28.9561V34.8326H14.4658ZM25.1664 34.8326V28.9608C27.0239 28.8638 28.8583 28.504 30.6148 27.8921C32.0045 30.0176 33.0209 32.3649 33.6201 34.8326H25.1664ZM36.0164 34.8326C35.3967 32.0383 34.3037 29.3706 32.7848 26.9448C33.718 26.4662 34.5999 25.8935 35.4168 25.2356C39.0417 27.5035 41.8528 30.864 43.4446 34.8326H36.0164Z" fill="white"/>
</svg>
