<svg width="20" height="18" viewBox="0 0 20 18" fill="none" xmlns="http://www.w3.org/2000/svg">
<path opacity="0.4" d="M0 4C0 1.79086 1.79086 0 4 0H16C18.2091 0 20 1.79086 20 4V14C20 16.2091 18.2091 18 16 18H4C1.79086 18 0 16.2091 0 14V4Z" fill="#0F5FAF"/>
<path fill-rule="evenodd" clip-rule="evenodd" d="M3.37604 4.58405C3.60581 4.23941 4.07146 4.14628 4.4161 4.37604L8.19731 6.89684C9.28898 7.62462 10.7112 7.62462 11.8029 6.89684L15.5841 4.37604C15.9287 4.14628 16.3944 4.23941 16.6241 4.58405C16.8539 4.9287 16.7608 5.39435 16.4161 5.62412L12.6349 8.14492C11.0394 9.2086 8.96078 9.2086 7.36525 8.14492L3.58405 5.62412C3.23941 5.39435 3.14628 4.9287 3.37604 4.58405Z" fill="#0F5FAF"/>
</svg>
