<svg width="19" height="18" viewBox="0 0 19 18" fill="none" xmlns="http://www.w3.org/2000/svg">
<path fill-rule="evenodd" clip-rule="evenodd" d="M10 16C6.18448 16 2.82549 13.2047 0.869706 11.1469C-0.289902 9.92683 -0.289902 8.07317 0.869705 6.8531C1.69954 5.98 2.78198 4.97411 4.04473 4.10531L1.46976 1.53033C1.17686 1.23744 1.17686 0.762563 1.46976 0.46967C1.76265 0.176777 2.23752 0.176777 2.53042 0.46967L18.5304 16.4697C18.8233 16.7626 18.8233 17.2374 18.5304 17.5303C18.2375 17.8232 17.7626 17.8232 17.4698 17.5303L14.643 14.7035C13.2337 15.4709 11.6601 16 10 16ZM10 12.0001C8.34315 12.0001 7 10.6569 7 9.00009C7 8.44372 7.15146 7.92272 7.41539 7.47607L11.524 11.5847C11.0774 11.8486 10.5564 12.0001 10 12.0001Z" fill="#0F5FAF"/>
</svg>
