<svg width="31" height="29" viewBox="0 0 31 29" fill="none" xmlns="http://www.w3.org/2000/svg">
<path d="M18.0227 2.11738L20.5893 7.25072C20.9393 7.9653 21.8727 8.65072 22.6602 8.78197L27.3122 9.55488C30.2872 10.0507 30.9872 12.209 28.8435 14.3382L25.2268 17.9549C24.6143 18.5674 24.2789 19.7486 24.4685 20.5945L25.5039 25.0715C26.3206 28.6153 24.4393 29.9861 21.3039 28.134L16.9435 25.5528C16.156 25.0861 14.8581 25.0861 14.056 25.5528L9.69558 28.134C6.57475 29.9861 4.67891 28.6007 5.49558 25.0715L6.53099 20.5945C6.72058 19.7486 6.38516 18.5674 5.77266 17.9549L2.156 14.3382C0.0268286 12.209 0.712246 10.0507 3.68725 9.55488L8.33933 8.78197C9.11224 8.65072 10.0456 7.9653 10.3956 7.25072L12.9622 2.11738C14.3622 -0.668034 16.6372 -0.668034 18.0227 2.11738Z" fill="#FFB127"/>
</svg>
