<svg width="32" height="32" viewBox="0 0 32 32" fill="none" xmlns="http://www.w3.org/2000/svg">
<path opacity="0.4" d="M29.3333 16.0001C29.3333 23.3639 23.3638 29.3334 16 29.3334C8.63619 29.3334 2.66666 23.3639 2.66666 16.0001C2.66666 8.63629 8.63619 2.66675 16 2.66675C23.3638 2.66675 29.3333 8.63629 29.3333 16.0001Z" fill="#FF3E3E"/>
<path fill-rule="evenodd" clip-rule="evenodd" d="M19.0641 20.4783C19.4547 20.8689 20.0878 20.8689 20.4784 20.4783C20.8689 20.0878 20.8689 19.4547 20.4784 19.0641L17.4143 16.0001L20.4783 12.936C20.8689 12.5455 20.8689 11.9124 20.4783 11.5218C20.0878 11.1313 19.4546 11.1313 19.0641 11.5218L16.0001 14.5859L12.9359 11.5217C12.5454 11.1311 11.9122 11.1311 11.5217 11.5217C11.1311 11.9122 11.1311 12.5453 11.5217 12.9359L14.5859 16.0001L11.5217 19.0643C11.1311 19.4548 11.1311 20.088 11.5217 20.4785C11.9122 20.869 12.5453 20.869 12.9359 20.4785L16.0001 17.4143L19.0641 20.4783Z" fill="#FF3E3E"/>
</svg>
