<svg width="20" height="20" viewBox="0 0 20 20" fill="none" xmlns="http://www.w3.org/2000/svg">
<path opacity="0.4" d="M0 6.00027C0 4.8957 0.895431 4.00027 2 4.00027H4.29844C4.75258 4.00027 5.1932 3.84571 5.54783 3.56201L8.75061 0.999786C9.48105 0.415436 10.519 0.415436 11.2494 0.999786L14.4522 3.56201C14.8068 3.84571 15.2474 4.00027 15.7016 4.00027H18C19.1046 4.00027 20 4.8957 20 6.00027V18.0003C20 19.1048 19.1046 20.0003 18 20.0003H2C0.895431 20.0003 0 19.1048 0 18.0003V6.00027Z" fill="#0F5FAF"/>
<path d="M7 16C7 14.3431 8.34315 13 10 13C11.6569 13 13 14.3431 13 16V20H7V16Z" fill="#0F5FAF"/>
<path d="M12 8C12 6.89543 11.1046 6 10 6C8.89543 6 8 6.89543 8 8C8 9.10457 8.89543 10 10 10C11.1046 10 12 9.10457 12 8Z" fill="#0F5FAF"/>
</svg>
