<svg width="25" height="25" viewBox="0 0 25 25" fill="none" xmlns="http://www.w3.org/2000/svg">
<path d="M13.3362 4.62491C13.0363 4.33922 12.5615 4.35076 12.2758 4.65069C11.9902 4.95061 12.0017 5.42535 12.3016 5.71104L18.553 11.6656H3.81891C3.4047 11.6656 3.06891 12.0014 3.06891 12.4156C3.06891 12.8299 3.4047 13.1656 3.81891 13.1656H18.5531L12.3016 19.1204C12.0017 19.406 11.9902 19.8808 12.2758 20.1807C12.5615 20.4806 13.0363 20.4922 13.3362 20.2065L20.7551 13.1398C20.924 12.9789 21.024 12.7736 21.055 12.5603C21.0641 12.5135 21.0689 12.4651 21.0689 12.4156C21.0689 12.3661 21.0641 12.3176 21.0549 12.2707C21.0239 12.0575 20.9239 11.8524 20.7551 11.6916L13.3362 4.62491Z" fill="
#F3F2F2"/>
</svg>
