<svg width="25" height="24" viewBox="0 0 25 24" fill="none" xmlns="http://www.w3.org/2000/svg">
<path d="M9.13118 10.4344C8.55656 9.2874 7.37023 8.5 6 8.5C4.067 8.5 2.5 10.067 2.5 12C2.5 13.933 4.067 15.5 6 15.5C7.37023 15.5 8.55656 14.7126 9.13118 13.5656M9.13118 10.4344C9.36718 10.9055 9.5 11.4372 9.5 12C9.5 12.5628 9.36718 13.0945 9.13118 13.5656M9.13118 10.4344L15.8688 7.06559M9.13118 13.5656L15.8688 16.9344M15.8688 7.06559C16.4434 8.2126 17.6298 9 19 9C20.933 9 22.5 7.433 22.5 5.5C22.5 3.567 20.933 2 19 2C17.067 2 15.5 3.567 15.5 5.5C15.5 6.06276 15.6328 6.59451 15.8688 7.06559ZM15.8688 16.9344C15.6328 17.4055 15.5 17.9372 15.5 18.5C15.5 20.433 17.067 22 19 22C20.933 22 22.5 20.433 22.5 18.5C22.5 16.567 20.933 15 19 15C17.6298 15 16.4434 15.7874 15.8688 16.9344Z" stroke="#0F5FAF" stroke-width="2" stroke-linecap="round"/>
</svg>
