<svg width="46" height="42" viewBox="0 0 46 42" fill="none" xmlns="http://www.w3.org/2000/svg">
<path d="M42.834 0H3.16732C2.54848 0 1.95499 0.245833 1.5174 0.683417C1.07982 1.121 0.833984 1.71449 0.833984 2.33333V39.6667C0.833984 40.2855 1.07982 40.879 1.5174 41.3166C1.95499 41.7542 2.54848 42 3.16732 42H42.834C43.4528 42 44.0463 41.7542 44.4839 41.3166C44.9215 40.879 45.1673 40.2855 45.1673 39.6667V2.33333C45.1673 1.71449 44.9215 1.121 44.4839 0.683417C44.0463 0.245833 43.4528 0 42.834 0ZM42.834 19.8333H40.5006C40.5006 16.2353 37.8173 14 33.5006 14C29.184 14 26.5007 16.2353 26.5007 19.8333H24.1673V2.33333H42.834V19.8333ZM28.834 19.8333C28.834 16.9412 31.3715 16.3333 33.5006 16.3333C35.6298 16.3333 38.1673 16.9412 38.1673 19.8333H28.834ZM21.834 2.33333V19.8333H19.5007C19.5007 16.2353 16.8173 14 12.5007 14C8.18398 14 5.50065 16.2353 5.50065 19.8333H3.16732V2.33333H21.834ZM7.83398 19.8333C7.83398 16.9412 10.3715 16.3333 12.5007 16.3333C14.6298 16.3333 17.1673 16.9412 17.1673 19.8333H7.83398ZM7.83398 39.6667C7.83398 36.7745 10.3715 36.1667 12.5007 36.1667C14.6298 36.1667 17.1673 36.7745 17.1673 39.6667H7.83398ZM12.5007 33.8333C8.18398 33.8333 5.50065 36.0687 5.50065 39.6667H3.16732V22.1667H21.834V39.6667H19.5007C19.5007 36.0687 16.8173 33.8333 12.5007 33.8333ZM28.834 39.6667C28.834 36.7745 31.3715 36.1667 33.5006 36.1667C35.6298 36.1667 38.1673 36.7745 38.1673 39.6667H28.834ZM40.5006 39.6667C40.5006 36.0687 37.8173 33.8333 33.5006 33.8333C29.184 33.8333 26.5007 36.0687 26.5007 39.6667H24.1673V22.1667H42.834V39.6667H40.5006ZM12.5007 12.8333C13.0451 12.8649 13.5901 12.7808 14.0998 12.5868C14.6095 12.3927 15.0724 12.093 15.458 11.7074C15.8437 11.3217 16.1434 10.8589 16.3374 10.3492C16.5315 9.83946 16.6155 9.29448 16.584 8.75C16.6155 8.20552 16.5315 7.66054 16.3374 7.15084C16.1434 6.64115 15.8437 6.17827 15.458 5.79263C15.0724 5.40698 14.6095 5.10728 14.0998 4.91323C13.5901 4.71917 13.0451 4.63514 12.5007 4.66667C11.9562 4.63514 11.4112 4.71917 10.9015 4.91323C10.3918 5.10728 9.92892 5.40698 9.54328 5.79263C9.15763 6.17827 8.85793 6.64115 8.66388 7.15084C8.46982 7.66054 8.3858 8.20552 8.41732 8.75C8.3858 9.29448 8.46982 9.83946 8.66388 10.3492C8.85793 10.8589 9.15763 11.3217 9.54328 11.7074C9.92892 12.093 10.3918 12.3927 10.9015 12.5868C11.4112 12.7808 11.9562 12.8649 12.5007 12.8333ZM12.5007 7C12.7375 6.97046 12.978 6.99539 13.2038 7.07289C13.4296 7.15039 13.6347 7.27841 13.8034 7.4472C13.9722 7.61599 14.1003 7.82109 14.1778 8.04687C14.2553 8.27264 14.2802 8.51313 14.2507 8.75C14.2802 8.98687 14.2553 9.22736 14.1778 9.45313C14.1003 9.67891 13.9722 9.88401 13.8034 10.0528C13.6347 10.2216 13.4296 10.3496 13.2038 10.4271C12.978 10.5046 12.7375 10.5295 12.5007 10.5C12.2638 10.5295 12.0233 10.5046 11.7975 10.4271C11.5717 10.3496 11.3666 10.2216 11.1979 10.0528C11.0291 9.88401 10.901 9.67891 10.8235 9.45313C10.746 9.22736 10.7211 8.98687 10.7507 8.75C10.7211 8.51313 10.746 8.27264 10.8235 8.04687C10.901 7.82109 11.0291 7.61599 11.1979 7.4472C11.3666 7.27841 11.5717 7.15039 11.7975 7.07289C12.0233 6.99539 12.2638 6.97046 12.5007 7ZM12.5007 24.5C11.9562 24.4685 11.4112 24.5525 10.9015 24.7466C10.3918 24.9406 9.92892 25.2403 9.54328 25.626C9.15763 26.0116 8.85793 26.4745 8.66388 26.9842C8.46982 27.4939 8.3858 28.0389 8.41732 28.5833C8.3858 29.1278 8.46982 29.6728 8.66388 30.1825C8.85793 30.6922 9.15763 31.1551 9.54328 31.5407C9.92892 31.9264 10.3918 32.226 10.9015 32.4201C11.4112 32.6142 11.9562 32.6982 12.5007 32.6667C13.0451 32.6982 13.5901 32.6142 14.0998 32.4201C14.6095 32.226 15.0724 31.9264 15.458 31.5407C15.8437 31.1551 16.1434 30.6922 16.3374 30.1825C16.5315 29.6728 16.6155 29.1278 16.584 28.5833C16.6155 28.0389 16.5315 27.4939 16.3374 26.9842C16.1434 26.4745 15.8437 26.0116 15.458 25.626C15.0724 25.2403 14.6095 24.9406 14.0998 24.7466C13.5901 24.5525 13.0451 24.4685 12.5007 24.5ZM12.5007 30.3333C12.2638 30.3629 12.0233 30.3379 11.7975 30.2604C11.5717 30.1829 11.3666 30.0549 11.1979 29.8861C11.0291 29.7173 10.901 29.5122 10.8235 29.2865C10.746 29.0607 10.7211 28.8202 10.7507 28.5833C10.7211 28.3465 10.746 28.106 10.8235 27.8802C10.901 27.6544 11.0291 27.4493 11.1979 27.2805C11.3666 27.1117 11.5717 26.9837 11.7975 26.9062C12.0233 26.8287 12.2638 26.8038 12.5007 26.8333C12.7375 26.8038 12.978 26.8287 13.2038 26.9062C13.4296 26.9837 13.6347 27.1117 13.8034 27.2805C13.9722 27.4493 14.1003 27.6544 14.1778 27.8802C14.2553 28.106 14.2802 28.3465 14.2507 28.5833C14.2802 28.8202 14.2553 29.0607 14.1778 29.2865C14.1003 29.5122 13.9722 29.7173 13.8034 29.8861C13.6347 30.0549 13.4296 30.1829 13.2038 30.2604C12.978 30.3379 12.7375 30.3629 12.5007 30.3333ZM33.5006 12.8333C34.0451 12.8649 34.5901 12.7808 35.0998 12.5868C35.6095 12.3927 36.0724 12.093 36.458 11.7074C36.8437 11.3217 37.1434 10.8589 37.3374 10.3492C37.5315 9.83946 37.6155 9.29448 37.584 8.75C37.6155 8.20552 37.5315 7.66054 37.3374 7.15084C37.1434 6.64115 36.8437 6.17827 36.458 5.79263C36.0724 5.40698 35.6095 5.10728 35.0998 4.91323C34.5901 4.71917 34.0451 4.63514 33.5006 4.66667C32.9562 4.63514 32.4112 4.71917 31.9015 4.91323C31.3918 5.10728 30.9289 5.40698 30.5433 5.79263C30.1576 6.17827 29.8579 6.64115 29.6639 7.15084C29.4698 7.66054 29.3858 8.20552 29.4173 8.75C29.3858 9.29448 29.4698 9.83946 29.6639 10.3492C29.8579 10.8589 30.1576 11.3217 30.5433 11.7074C30.9289 12.093 31.3918 12.3927 31.9015 12.5868C32.4112 12.7808 32.9562 12.8649 33.5006 12.8333ZM33.5006 7C33.7375 6.97046 33.978 6.99539 34.2038 7.07289C34.4296 7.15039 34.6347 7.27841 34.8034 7.4472C34.9722 7.61599 35.1003 7.82109 35.1778 8.04687C35.2553 8.27264 35.2802 8.51313 35.2506 8.75C35.2802 8.98687 35.2553 9.22736 35.1778 9.45313C35.1003 9.67891 34.9722 9.88401 34.8034 10.0528C34.6347 10.2216 34.4296 10.3496 34.2038 10.4271C33.978 10.5046 33.7375 10.5295 33.5006 10.5C33.2638 10.5295 33.0233 10.5046 32.7975 10.4271C32.5717 10.3496 32.3666 10.2216 32.1979 10.0528C32.0291 9.88401 31.901 9.67891 31.8235 9.45313C31.746 9.22736 31.7211 8.98687 31.7507 8.75C31.7211 8.51313 31.746 8.27264 31.8235 8.04687C31.901 7.82109 32.0291 7.61599 32.1979 7.4472C32.3666 7.27841 32.5717 7.15039 32.7975 7.07289C33.0233 6.99539 33.2638 6.97046 33.5006 7ZM33.5006 24.5C32.9562 24.4685 32.4112 24.5525 31.9015 24.7466C31.3918 24.9406 30.9289 25.2403 30.5433 25.626C30.1576 26.0116 29.8579 26.4745 29.6639 26.9842C29.4698 27.4939 29.3858 28.0389 29.4173 28.5833C29.3858 29.1278 29.4698 29.6728 29.6639 30.1825C29.8579 30.6922 30.1576 31.1551 30.5433 31.5407C30.9289 31.9264 31.3918 32.226 31.9015 32.4201C32.4112 32.6142 32.9562 32.6982 33.5006 32.6667C34.0451 32.6982 34.5901 32.6142 35.0998 32.4201C35.6095 32.226 36.0724 31.9264 36.458 31.5407C36.8437 31.1551 37.1434 30.6922 37.3374 30.1825C37.5315 29.6728 37.6155 29.1278 37.584 28.5833C37.6155 28.0389 37.5315 27.4939 37.3374 26.9842C37.1434 26.4745 36.8437 26.0116 36.458 25.626C36.0724 25.2403 35.6095 24.9406 35.0998 24.7466C34.5901 24.5525 34.0451 24.4685 33.5006 24.5ZM33.5006 30.3333C33.2638 30.3629 33.0233 30.3379 32.7975 30.2604C32.5717 30.1829 32.3666 30.0549 32.1979 29.8861C32.0291 29.7173 31.901 29.5122 31.8235 29.2865C31.746 29.0607 31.7211 28.8202 31.7507 28.5833C31.7211 28.3465 31.746 28.106 31.8235 27.8802C31.901 27.6544 32.0291 27.4493 32.1979 27.2805C32.3666 27.1117 32.5717 26.9837 32.7975 26.9062C33.0233 26.8287 33.2638 26.8038 33.5006 26.8333C33.7375 26.8038 33.978 26.8287 34.2038 26.9062C34.4296 26.9837 34.6347 27.1117 34.8034 27.2805C34.9722 27.4493 35.1003 27.6544 35.1778 27.8802C35.2553 28.106 35.2802 28.3465 35.2506 28.5833C35.2802 28.8202 35.2553 29.0607 35.1778 29.2865C35.1003 29.5122 34.9722 29.7173 34.8034 29.8861C34.6347 30.0549 34.4296 30.1829 34.2038 30.2604C33.978 30.3379 33.7375 30.3629 33.5006 30.3333Z" fill="white"/>
</svg>
