<svg width="45" height="42" viewBox="0 0 45 42" fill="none" xmlns="http://www.w3.org/2000/svg">
<path d="M7.66602 15.1667C8.21049 15.1982 8.75548 15.1142 9.26517 14.9201C9.77487 14.726 10.2377 14.4264 10.6234 14.0407C11.009 13.6551 11.3087 13.1922 11.5028 12.6825C11.6968 12.1728 11.7809 11.6278 11.7493 11.0833C11.7809 10.5389 11.6968 9.99387 11.5028 9.48418C11.3087 8.97448 11.009 8.51161 10.6234 8.12596C10.2377 7.74031 9.77487 7.44062 9.26517 7.24656C8.75548 7.0525 8.21049 6.96848 7.66602 7C7.12154 6.96848 6.57655 7.0525 6.06686 7.24656C5.55716 7.44062 5.09429 7.74031 4.70864 8.12596C4.32299 8.51161 4.0233 8.97448 3.82924 9.48418C3.63519 9.99387 3.55116 10.5389 3.58268 11.0833C3.55116 11.6278 3.63519 12.1728 3.82924 12.6825C4.0233 13.1922 4.32299 13.6551 4.70864 14.0407C5.09429 14.4264 5.55716 14.726 6.06686 14.9201C6.57655 15.1142 7.12154 15.1982 7.66602 15.1667ZM7.66602 9.33333C7.90289 9.30379 8.14337 9.32872 8.36915 9.40622C8.59492 9.48372 8.80002 9.61174 8.96881 9.78053C9.1376 9.94933 9.26563 10.1544 9.34313 10.3802C9.42063 10.606 9.44556 10.8465 9.41602 11.0833C9.44556 11.3202 9.42063 11.5607 9.34313 11.7865C9.26563 12.0122 9.1376 12.2173 8.96881 12.3861C8.80002 12.5549 8.59492 12.6829 8.36915 12.7604C8.14337 12.8379 7.90289 12.8629 7.66602 12.8333C7.42914 12.8629 7.18866 12.8379 6.96288 12.7604C6.73711 12.6829 6.53201 12.5549 6.36322 12.3861C6.19443 12.2173 6.0664 12.0122 5.9889 11.7865C5.9114 11.5607 5.88647 11.3202 5.91602 11.0833C5.88647 10.8465 5.9114 10.606 5.9889 10.3802C6.0664 10.1544 6.19443 9.94933 6.36322 9.78053C6.53201 9.61174 6.73711 9.48372 6.96288 9.40622C7.18866 9.32872 7.42914 9.30379 7.66602 9.33333ZM22.548 15.9343L29.4908 8.9915L27.8412 7.34183L20.9497 14.2333C17.7332 16.3333 12.1565 16.3333 7.66602 16.3333C3.34935 16.3333 0.666016 18.5687 0.666016 22.1667V32.6667H2.99935V42H12.3327V23.0603C16.4796 21.9812 20.1032 19.4534 22.548 15.9343ZM10.8813 21.035L9.99935 21.2555V39.6667H5.33268V30.3333H2.99935V22.1667C2.99935 19.2745 5.53685 18.6667 7.66602 18.6667C10.9216 18.7696 14.1795 18.5555 17.3937 18.0273C15.4504 19.4622 13.2348 20.4856 10.8825 21.035H10.8813ZM44.9993 28V30.3333H14.666V28H40.3327V2.33333H9.99935V4.66667H7.66602V0H42.666V28H44.9993ZM28.666 26.8333V24.5H35.666V26.8333H28.666Z" fill="white"/>
</svg>
