<svg width="48" height="48" viewBox="0 0 48 48" fill="none" xmlns="http://www.w3.org/2000/svg">
<path d="M34.3529 17.3289C37.4396 19.5432 41.221 20.8461 45.305 20.8461V12.9592C44.5321 12.9593 43.7612 12.8785 43.005 12.7177V18.9258C38.9213 18.9258 35.1404 17.6229 32.0529 15.4088V31.5037C32.0529 39.5552 25.5491 46.0818 17.5267 46.0818C14.5333 46.0818 11.7511 45.1736 9.43994 43.6161C12.0778 46.3228 15.7564 48.0019 19.8262 48.0019C27.8491 48.0019 34.3533 41.4753 34.3533 33.4235V17.3289H34.3529ZM37.1902 9.37194C35.6128 7.64241 34.577 5.4073 34.3529 2.9363V1.92188H32.1733C32.722 5.06252 34.5933 7.74569 37.1902 9.37194ZM14.5141 37.4376C13.6328 36.2778 13.1565 34.8591 13.1586 33.4004C13.1586 29.718 16.1334 26.7322 19.8035 26.7322C20.4875 26.732 21.1674 26.8371 21.8192 27.0447V18.9815C21.0575 18.8767 20.2887 18.8322 19.5202 18.8486V25.1246C18.8679 24.917 18.1877 24.8116 17.5035 24.8122C13.8334 24.8122 10.8588 27.7977 10.8588 31.4806C10.8588 34.0847 12.3457 36.3393 14.5141 37.4376Z" fill="#FF004F"/>
<path d="M32.0529 15.4086C35.1404 17.6228 38.9213 18.9257 43.005 18.9257V12.7175C40.7255 12.2302 38.7075 11.0348 37.1903 9.37194C34.5931 7.74553 32.722 5.06235 32.1733 1.92188H26.4482V33.4232C26.4352 37.0956 23.4655 40.0692 19.8032 40.0692C17.6451 40.0692 15.7279 39.0368 14.5136 37.4376C12.3454 36.3393 10.8585 34.0846 10.8585 31.4808C10.8585 27.7982 13.8331 24.8124 17.5032 24.8124C18.2064 24.8124 18.8842 24.9223 19.5199 25.1247V18.8487C11.6384 19.0121 5.2998 25.475 5.2998 33.4233C5.2998 37.3911 6.87827 40.9881 9.44013 43.6162C11.7513 45.1736 14.5335 46.0819 17.5268 46.0819C25.5494 46.0819 32.0531 39.555 32.0531 31.5037V15.4086H32.0529Z" fill="black"/>
<path d="M43.0051 12.7156V11.037C40.9495 11.0401 38.9343 10.4624 37.1903 9.36987C38.7342 11.0661 40.7671 12.2357 43.0051 12.7156ZM32.1734 1.91997C32.1211 1.61982 32.0809 1.3177 32.053 1.01443V0H24.148V31.5016C24.1354 35.1735 21.1658 38.1471 17.5033 38.1471C16.428 38.1471 15.4128 37.891 14.5137 37.4358C15.7279 39.0349 17.6452 40.0671 19.8033 40.0671C23.4652 40.0671 26.4354 37.0938 26.4482 33.4214V1.91997H32.1734ZM19.5203 18.8468V17.0598C18.8598 16.9692 18.1938 16.9237 17.5271 16.924C9.50383 16.9239 3 23.4508 3 31.5016C3 36.5491 5.55612 40.9974 9.44034 43.614C6.87848 40.986 5.30002 37.3889 5.30002 33.4213C5.30002 25.473 11.6385 19.0102 19.5203 18.8468Z" fill="#00F2EA"/>
</svg>
