<svg width="16" height="16" viewBox="0 0 16 16" fill="none" xmlns="http://www.w3.org/2000/svg">
<path d="M7.99992 8.00016H7.24992C7.24992 8.32299 7.45649 8.60959 7.76275 8.71168L7.99992 8.00016ZM8.74992 4.66683C8.74992 4.25262 8.41413 3.91683 7.99992 3.91683C7.58571 3.91683 7.24992 4.25262 7.24992 4.66683H8.74992ZM9.76275 9.37834C10.1557 9.50933 10.5804 9.29696 10.7114 8.904C10.8424 8.51104 10.63 8.0863 10.2371 7.95532L9.76275 9.37834ZM8.74992 8.00016V4.66683H7.24992V8.00016H8.74992ZM7.76275 8.71168L9.76275 9.37834L10.2371 7.95532L8.23709 7.28865L7.76275 8.71168ZM13.9166 8.00016C13.9166 11.2678 11.2676 13.9168 7.99992 13.9168V15.4168C12.096 15.4168 15.4166 12.0963 15.4166 8.00016H13.9166ZM7.99992 13.9168C4.73223 13.9168 2.08325 11.2678 2.08325 8.00016H0.583252C0.583252 12.0963 3.90381 15.4168 7.99992 15.4168V13.9168ZM2.08325 8.00016C2.08325 4.73248 4.73223 2.0835 7.99992 2.0835V0.583496C3.90381 0.583496 0.583252 3.90405 0.583252 8.00016H2.08325ZM7.99992 2.0835C11.2676 2.0835 13.9166 4.73248 13.9166 8.00016H15.4166C15.4166 3.90405 12.096 0.583496 7.99992 0.583496V2.0835Z" fill="#0F5FAF"/>
</svg>
