<svg width="28" height="28" viewBox="0 0 28 28" fill="none" xmlns="http://www.w3.org/2000/svg">
<circle opacity="0.4" cx="14" cy="14.0001" r="13.3333" fill="#14B5FB"/>
<path d="M12.6666 20.6667C12.6666 19.9303 13.2636 19.3333 14 19.3333C14.7364 19.3333 15.3333 19.9303 15.3333 20.6667C15.3333 21.403 14.7364 22 14 22C13.2636 22 12.6666 21.403 12.6666 20.6667Z" fill="#14B5FB"/>
<path fill-rule="evenodd" clip-rule="evenodd" d="M14 17.6667C13.4477 17.6667 13 17.219 13 16.6667L13 7.33341C13 6.78113 13.4477 6.33341 14 6.33341C14.5523 6.33342 15 6.78113 15 7.33342L15 16.6667C15 17.219 14.5523 17.6667 14 17.6667Z" fill="#14B5FB"/>
</svg>
