<svg width="48" height="48" viewBox="0 0 48 48" fill="none" xmlns="http://www.w3.org/2000/svg">
<g clip-path="url(#clip0_1505_14753)">
<path d="M47.0442 12.3698C46.7728 11.3487 46.238 10.4167 45.4933 9.66716C44.7485 8.91763 43.82 8.37685 42.8006 8.09893C39.0479 7.08984 24.0479 7.08984 24.0479 7.08984C24.0479 7.08984 9.04785 7.08984 5.29512 8.09893C4.27571 8.37685 3.34717 8.91763 2.60243 9.66716C1.85768 10.4167 1.32286 11.3487 1.05149 12.3698C0.0478517 16.1389 0.0478516 23.9989 0.0478516 23.9989C0.0478516 23.9989 0.0478517 31.8589 1.05149 35.628C1.32286 36.6492 1.85768 37.5812 2.60243 38.3307C3.34717 39.0802 4.27571 39.621 5.29512 39.8989C9.04785 40.908 24.0479 40.908 24.0479 40.908C24.0479 40.908 39.0479 40.908 42.8006 39.8989C43.82 39.621 44.7485 39.0802 45.4933 38.3307C46.238 37.5812 46.7728 36.6492 47.0442 35.628C48.0479 31.8589 48.0479 23.9989 48.0479 23.9989C48.0479 23.9989 48.0479 16.1389 47.0442 12.3698Z" fill="#FF0302"/>
<path d="M19.1387 31.1378V16.8633L31.6841 24.0006L19.1387 31.1378Z" fill="#FEFEFE"/>
</g>
<defs>
<clipPath id="clip0_1505_14753">
<rect width="48" height="48" fill="white"/>
</clipPath>
</defs>
</svg>
