<svg width="14" height="14" viewBox="0 0 14 14" fill="none" xmlns="http://www.w3.org/2000/svg">
<path fill-rule="evenodd" clip-rule="evenodd" d="M8.5 1.75C8.08579 1.75 7.75 1.41421 7.75 1C7.75 0.585786 8.08579 0.25 8.5 0.25H13C13.4142 0.25 13.75 0.585786 13.75 1V5.5C13.75 5.91421 13.4142 6.25 13 6.25C12.5858 6.25 12.25 5.91421 12.25 5.5V2.81066L2.81066 12.25H5.5C5.91421 12.25 6.25 12.5858 6.25 13C6.25 13.4142 5.91421 13.75 5.5 13.75H1C0.585786 13.75 0.25 13.4142 0.25 13V8.5C0.25 8.08579 0.585786 7.75 1 7.75C1.41421 7.75 1.75 8.08579 1.75 8.5V11.1893L11.1893 1.75H8.5Z" fill="white"/>
</svg>
