<svg width="86" height="133" viewBox="0 0 86 133" fill="none" xmlns="http://www.w3.org/2000/svg">
<path d="M61.9826 25.1524C62.0368 24.8184 62.0549 24.4844 62.0549 24.1504C62.0188 22.6915 61.5492 21.2852 60.9171 19.9845C59.6711 17.4181 57.9193 15.2033 55.373 13.7092C54.0366 12.9358 52.6099 12.3557 51.1291 11.8811C49.7746 11.4592 48.2396 11.0022 46.7948 11.055C44.3568 11.1604 42.3342 12.1448 40.3116 13.3401C40.5825 13.8147 40.9978 14.2893 41.3048 14.6935C41.7383 15.2209 42.1175 15.7658 42.4606 16.3459C41.648 16.2756 40.8353 16.3107 40.0226 16.3986C39.4447 16.4513 38.5779 16.3107 38 16.5744C38.4334 18.1564 39.7337 20.7228 40.4741 22.0762C40.6547 22.3223 40.8534 22.5684 41.0339 22.7969C42.569 24.625 44.5194 26.1543 46.6504 27.2969C46.8671 27.4023 47.0838 27.4902 47.3005 27.5781C48.5827 28.123 49.9191 28.5273 51.2916 28.8085C52.7183 28.9667 54.163 28.914 55.5716 28.6679C58.0096 28.2461 60.4115 27.3671 61.7298 25.293C61.802 25.2578 61.8743 25.2051 61.9465 25.1524H61.9826Z" fill="#AEC7E6"/>
<path d="M63.7505 24.7672C64.0756 24.6617 64.4006 24.5562 64.7076 24.398C66.044 23.7476 67.1637 22.7457 68.1028 21.6207C69.9629 19.4235 71.2812 16.9274 71.5701 14.0623C71.7327 12.5506 71.6604 11.0565 71.4618 9.54477C71.2812 8.1737 71.0464 6.62686 70.3782 5.37883C69.2405 3.2695 67.4526 1.916 65.4842 0.650397C65.1591 1.08984 64.8882 1.65234 64.6535 2.10936C64.3464 2.707 64.0033 3.26949 63.606 3.83198C63.3171 3.09371 62.9378 2.39058 62.5225 1.70505C62.2155 1.21287 61.9807 0.40429 61.4931 0C60.2109 1.05467 58.3688 3.28706 57.4117 4.51751C57.2672 4.78118 57.1228 5.04486 56.9783 5.3261C55.9309 7.43544 55.3349 9.82601 55.1904 12.1814C55.1904 12.4099 55.1904 12.6385 55.1904 12.867C55.2446 14.238 55.4252 15.574 55.7503 16.9099C56.2017 18.2282 56.8699 19.4762 57.7007 20.6188C59.1273 22.5875 60.9694 24.3277 63.4615 24.6089C63.5338 24.6617 63.606 24.6968 63.6783 24.7496L63.7505 24.7672Z" fill="#AEC7E6"/>
<path d="M61.3509 27.0177C61.4773 27.3341 61.5856 27.6506 61.6579 27.9845C61.9649 29.4083 61.8385 30.8849 61.5134 32.2911C60.8813 35.0684 59.7075 37.6172 57.5765 39.621C56.4568 40.6757 55.1927 41.5546 53.8563 42.328C52.6283 43.0487 51.2558 43.8221 49.8291 44.0858C47.4272 44.5252 45.2421 43.9979 42.9847 43.2772C43.1291 42.7675 43.4181 42.205 43.6348 41.7479C43.9418 41.1503 44.1766 40.5175 44.3752 39.8847C43.5987 40.1308 42.8041 40.2714 41.9914 40.3769C41.4135 40.4472 40.6008 40.7812 39.9868 40.6581C40.041 39.0234 40.7092 36.2461 41.1065 34.752C41.2329 34.4707 41.3593 34.2071 41.4857 33.9258C42.5512 31.8165 44.1043 29.8829 45.9103 28.3009C46.1089 28.1603 46.2895 28.0197 46.4701 27.879C47.6078 27.0705 48.8178 26.3849 50.0819 25.8049C51.4183 25.3303 52.863 25.0666 54.2897 24.9963C56.7638 24.8732 59.3102 25.1896 61.08 26.9299C61.1703 26.9474 61.2425 26.9826 61.3328 27.0177H61.3509Z" fill="#AEC7E6"/>
<path d="M61.404 25.6124C61.7471 25.5772 62.0902 25.5596 62.4334 25.5772C63.9142 25.6651 65.359 26.1749 66.6592 26.8428C69.2417 28.1611 71.463 29.9541 72.8716 32.4853C73.612 33.8212 74.1538 35.2274 74.5692 36.6864C74.9484 38.0223 75.3638 39.5164 75.2373 40.9227C75.0206 43.2957 73.9371 45.2116 72.6368 47.1276C72.1673 46.8464 71.6797 46.4245 71.3004 46.1081C70.7767 45.6687 70.2349 45.282 69.657 44.9304C69.6932 45.7214 69.6209 46.5124 69.5126 47.3034C69.4403 47.8659 69.5306 48.7096 69.2598 49.2721C67.6525 48.7799 65.07 47.444 63.6975 46.653C63.4447 46.4597 63.2099 46.2663 62.9751 46.0729C61.1692 44.5085 59.6703 42.5574 58.5687 40.4305C58.4784 40.2195 58.3881 39.991 58.2978 39.7801C57.7921 38.4969 57.431 37.1786 57.1962 35.8426C57.0878 34.454 57.1962 33.0478 57.5032 31.6767C58.0269 29.3213 59.0202 27.0186 61.2234 25.8057C61.2776 25.7354 61.3137 25.6651 61.3679 25.5948L61.404 25.6124Z" fill="#AEC7E6"/>
<path d="M61.2227 25.9461C61.3671 26.2449 61.5477 26.5437 61.7464 26.8074C62.6132 27.9851 63.8051 28.8991 65.0873 29.6374C67.6156 31.0788 70.3426 31.9577 73.2862 31.7819C74.8393 31.694 76.3563 31.3952 77.8552 30.9733C79.2277 30.5866 80.7447 30.1296 81.9185 29.2858C83.8689 27.862 84.9705 25.9461 85.9457 23.8543C85.4581 23.6082 84.8261 23.4324 84.3385 23.2918C83.6883 23.0984 83.0562 22.8348 82.4422 22.5535C83.1465 22.1668 83.7967 21.6922 84.4287 21.1825C84.8802 20.8133 85.6748 20.4618 85.9999 19.9345C84.7177 18.8622 82.1713 17.456 80.7808 16.7353C80.4918 16.6298 80.1848 16.5419 79.8959 16.454C77.5843 15.7861 75.0741 15.5751 72.6541 15.8037C72.4194 15.8388 72.1846 15.874 71.9498 15.9267C70.5773 16.1904 69.2229 16.5771 67.9407 17.0868C66.6765 17.7372 65.5027 18.581 64.4733 19.5477C62.7035 21.2352 61.2227 23.2742 61.331 25.7175C61.2949 25.7879 61.2588 25.8758 61.2227 25.9461Z" fill="#AEC7E6"/>
<g style="mix-blend-mode:multiply">
<path d="M69.6045 8.63269C69.7129 10.7069 69.5503 12.7986 69.0266 14.8201C68.6835 16.1736 68.2501 17.8259 67.0582 18.7048C66.9679 18.7751 66.8234 18.6872 66.8234 18.5817C66.697 16.5427 66.5344 14.4861 66.1733 12.4647C66.101 13.5369 66.0288 14.5916 65.9024 15.6638C65.7037 17.2634 65.5412 19.3024 64.5479 20.6559C63.4102 22.1676 62.0196 19.9352 61.4959 19.0739C60.0512 16.6658 59.401 13.9763 59.401 11.2166C58.8954 13.7478 59.2205 16.4548 60.1957 18.8278C60.2498 18.986 60.0512 19.0739 59.9428 18.986C57.9021 17.0876 56.8728 14.0291 56.5116 11.3748C56.2949 9.8104 56.349 8.22841 56.8366 6.71672C57.1798 5.64447 57.6493 4.64253 58.1911 3.65817C57.9202 3.99215 57.6854 4.29099 57.4868 4.55465C57.3423 4.81832 57.1978 5.08197 57.0534 5.36322C56.0059 7.47256 55.41 9.86315 55.2655 12.2186C55.2655 12.4471 55.2655 12.6756 55.2655 12.9041C55.2655 13.1678 55.3016 13.4139 55.3197 13.6775C54.0194 12.9217 52.6108 12.3592 51.166 11.9022C49.8116 11.4803 48.2766 11.0233 46.8318 11.076C46.4706 11.0936 46.1095 11.1287 45.7483 11.1815C47.4278 11.4803 49.0531 11.8319 50.6785 12.4295C53.0803 13.3436 56.2407 14.7146 57.2701 17.2107C57.3062 17.2986 57.2159 17.404 57.1256 17.404C55.9698 17.3337 54.9946 16.6657 53.9472 16.2615C52.9359 15.8572 51.6898 15.5232 50.534 15.4353C53.1164 16.4724 55.6086 17.615 57.848 19.3024C59.1843 20.322 61.2973 21.904 61.0986 23.7848C60.8819 25.8414 57.7035 25.8941 56.1865 25.859C53.7485 25.8238 51.5092 25.1734 49.306 24.2945C50.1006 24.8043 50.8952 25.2965 51.762 25.6304C53.2248 26.2105 54.7598 26.5093 56.2407 26.9839C56.3852 27.0367 56.4032 27.23 56.2407 27.2828C54.4167 27.9156 52.3038 27.5113 50.4437 27.2125C48.1863 26.8433 45.8566 26.2457 43.9785 24.9273C42.6963 24.0309 41.3238 22.8531 40.2222 21.4821C40.3305 21.693 40.4389 21.8864 40.5292 22.0621C40.7098 22.3082 40.9084 22.5543 41.089 22.7828C42.624 24.6109 44.5744 26.1402 46.7054 27.2828C46.8499 27.3531 46.9763 27.4058 47.1208 27.4585C46.9221 27.5816 46.7235 27.7222 46.5429 27.8453C46.3623 27.9859 46.1637 28.1265 45.9831 28.2671C44.737 29.3569 43.6173 30.6226 42.6963 31.9936C43.4909 31.3608 44.3035 30.7456 45.2426 30.3061C47.6626 29.1987 50.6243 28.689 53.2248 29.5151C54.2181 29.8315 55.2836 30.3061 55.7712 31.2729C56.1865 32.0639 55.6989 32.9077 55.1391 33.4877C54.5792 34.0502 53.9833 34.5776 53.3512 35.0697C53.4234 35.0346 53.5138 35.017 53.586 34.9818C54.1639 34.7533 55.9879 33.8744 56.4393 34.7006C56.7102 35.2103 56.024 36.1244 55.7531 36.4935C55.1752 37.3197 54.4709 38.0052 53.6763 38.638C52.6108 39.4642 51.4008 40.1145 50.1367 40.6243C50.8771 40.4661 51.5995 40.2376 52.2677 39.9388C53.0984 39.5521 53.9111 39.0247 54.8501 38.972C54.9585 38.972 55.0127 39.0599 55.0127 39.1654C54.8863 40.1322 54.0736 40.8704 53.297 41.4153C52.3038 42.136 51.2202 42.6985 50.1006 43.2082C48.9087 43.7356 47.7348 44.1047 46.4165 44.0696C46.3623 44.0696 46.3081 44.0696 46.272 44.0696C47.4459 44.2629 48.6558 44.2981 49.9019 44.0696C51.3286 43.8059 52.7011 43.0325 53.9291 42.3118C55.2655 41.5384 56.5296 40.6595 57.6493 39.6048C57.8118 39.4466 57.9924 39.2708 58.155 39.095C58.2272 39.3236 58.3175 39.5521 58.4078 39.763C58.4981 39.9739 58.5703 40.1849 58.6787 40.4134C59.7622 42.5227 61.2792 44.4914 63.0851 46.0559C63.2296 46.1789 63.356 46.2844 63.5005 46.3898C62.742 45.5109 62.0919 44.5618 61.6043 43.4719C61.0444 42.2415 60.6833 40.9583 60.5207 39.64C60.3582 38.2161 60.1234 36.5463 60.4846 35.14C60.5207 34.9818 60.7374 34.9994 60.7916 35.14C61.1709 36.2474 61.3876 37.39 61.9113 38.4622C62.1099 38.849 62.2905 39.2181 62.5072 39.6048C62.1641 38.4271 62.0738 37.1615 62.128 35.9486C62.2002 34.2612 62.0738 32.1694 63.3199 30.8335C63.3741 30.7632 63.4824 30.7807 63.5366 30.8335C64.3312 31.4839 64.6382 32.6088 65.1078 33.4877C65.6315 34.4897 66.1552 35.474 66.6609 36.4759C66.3177 34.8588 65.6315 33.3295 65.2342 31.7299C65.2161 31.6069 65.3425 31.4663 65.4509 31.5542C67.5638 33.0131 68.7196 35.2807 70.2908 37.1966C69.6948 35.4037 68.7377 33.7162 67.6361 32.1694C67.5638 32.0639 67.6722 31.9057 67.7986 31.9409C69.5864 32.5561 71.0131 33.9096 72.1147 35.4037C73.1441 36.7923 74.029 38.3568 74.4805 40.0267C74.7153 40.9056 74.8959 41.9251 74.95 42.9446C75.1487 42.3118 75.2932 41.6438 75.3473 40.9407C75.4738 39.5345 75.0584 38.0404 74.6792 36.7045C74.2638 35.2455 73.722 33.8393 72.9816 32.5034C72.8552 32.2749 72.7107 32.0463 72.5662 31.8178C72.8371 31.8178 73.108 31.8178 73.3789 31.8178C74.932 31.7299 76.449 31.4311 77.9479 31.0092C79.3204 30.6225 80.8373 30.1655 82.0112 29.3218C82.86 28.7066 83.5282 28.0034 84.1241 27.23C82.9864 28.0913 81.7403 28.8296 80.4039 29.3394C78.4716 30.0952 76.3767 30.3061 74.318 30.1303C72.6565 29.9897 70.5617 29.814 69.3697 28.5659C69.2794 28.4605 69.3336 28.3198 69.4781 28.3023C71.7355 28.1441 74.0471 28.4956 76.2323 27.898C74.6069 27.9683 72.9816 28.0562 71.3924 27.7749C70.056 27.5288 68.4307 27.2652 67.5458 26.1402C67.4735 26.0523 67.5458 25.9468 67.6361 25.9117C68.8641 25.4195 70.2366 25.4898 71.5007 25.0504C72.2412 24.7867 72.9635 24.4527 73.704 24.1891C72.6385 24.2594 71.573 24.3297 70.5255 24.523C69.5503 24.7164 68.4668 25.0855 67.4916 24.7691C67.4374 24.7516 67.3652 24.6988 67.3652 24.6285C67.4916 23.2047 69.2253 22.2028 70.3449 21.5172C71.6994 20.6911 73.0538 20.111 74.5347 19.6716C72.8732 19.7594 71.2298 19.9704 69.6948 20.6559C69.5503 20.7262 69.3697 20.5504 69.5142 20.4098C71.6994 18.4235 74.6611 17.0349 77.677 16.7537C79.1759 16.613 80.5484 16.8767 81.9028 17.2986C81.5417 17.1052 81.1985 16.9119 80.9096 16.7712C80.6206 16.6658 80.3136 16.5779 80.0247 16.49C77.7131 15.822 75.2029 15.6111 72.7829 15.8396C72.5482 15.8748 72.3134 15.9099 72.0786 15.9626C71.8258 16.0154 71.573 16.0681 71.3201 16.1209C71.5007 15.4881 71.6271 14.8201 71.6994 14.1346C71.8619 12.6229 71.7897 11.1287 71.591 9.61705C71.4104 8.24598 71.1757 6.69914 70.5075 5.45111C69.7309 4.00973 68.6474 2.93748 67.4193 1.98828C68.9363 3.81637 69.5865 6.22454 69.7129 8.66786L69.6045 8.63269Z" fill="#AEC7E6"/>
</g>
<path d="M64.1322 23.2908C63.9877 23.4841 63.8432 23.6775 63.6807 23.8709C63.9335 22.9217 63.9155 21.8846 63.6627 20.8123C63.2653 19.0897 61.8387 17.0507 60.123 16.3651C59.9605 16.2948 60.0147 16.6288 60.123 16.6815C61.7845 17.4198 62.9583 19.4413 63.3376 21.1112C63.5543 22.0604 63.464 23.115 63.1931 24.0466C63.0848 24.4158 62.7777 24.8376 62.561 25.1365C62.1818 24.0818 61.0079 22.8162 60.6468 22.4295C58.6241 20.3729 56.2403 19.2303 53.694 17.912C53.5676 17.8417 53.6217 18.1229 53.694 18.1581C55.4999 19.1424 57.3058 20.074 58.9131 21.3396C59.6354 21.9021 60.2856 22.6228 60.9177 23.2732C61.1163 23.4842 62.0012 24.5916 62.1637 25.3474C61.7123 24.6619 61.1344 24.0994 60.3217 23.6424C60.1592 23.5545 60.1953 23.906 60.3217 23.9588C60.7732 24.24 61.1705 24.574 61.5317 24.9607C61.7845 25.2068 61.947 25.5056 62.1096 25.7869C62.1096 25.7869 62.1096 25.7869 62.0915 25.7869C62.0915 25.7869 62.0734 25.7869 62.0554 25.7869C61.947 25.699 61.8206 25.699 61.8206 25.9099C61.8206 26.0154 61.8387 26.1208 61.9109 26.2087V26.1911C61.8567 26.0857 61.7845 25.9978 61.6942 25.9275C61.6942 25.8923 61.6581 25.8396 61.64 25.822C60.9357 25.154 60.0689 24.8201 59.184 24.4334C58.1727 23.9763 57.1433 23.5896 56.0597 23.3611C53.8023 22.9217 51.4366 22.6932 49.1972 23.3611C49.0889 23.3963 49.1972 23.6424 49.3056 23.6072C52.6646 22.7283 56.764 23.6072 59.9425 25.2419C59.2923 25.0134 58.6602 24.8377 57.9379 24.7146C56.0055 24.3982 53.8926 24.7146 52.0867 25.4529C51.9603 25.5056 52.0867 25.7693 52.195 25.7165C53.7481 25.1892 55.3915 25.0486 57.0349 25.1189C57.9018 25.154 58.8047 25.3298 59.6174 25.5935C60.1953 25.7869 61.0441 25.9978 61.6039 26.3318C59.0576 27.3513 55.9694 28.0192 53.2967 27.5622C53.1702 27.5446 53.2425 27.8083 53.3328 27.8259C54.7775 28.1598 56.3126 28.1774 57.7754 27.9138C59.0034 27.6852 60.3398 27.4567 61.5317 26.9997C60.5384 28.3356 59.2562 29.3376 57.7212 30.2516C56.0597 31.236 54.308 31.9742 52.3395 32.0446C52.2131 32.0446 52.2853 32.3082 52.3937 32.3082C56.3487 32.3609 60.412 29.9 62.4166 26.613C62.4166 26.613 62.4346 26.613 62.4527 26.5954C62.9222 28.2653 61.8026 30.4098 61.0621 31.8336C60.3036 33.3277 58.7144 35.2965 57.1072 35.9996C56.9807 36.0523 57.1072 36.3687 57.2336 36.2984C59.0576 35.525 60.6648 33.5914 61.5497 31.8863C62.1999 30.6383 63.0125 28.9333 62.9403 27.3864C62.9584 27.4392 62.9764 27.4567 62.9945 27.4743C63.2834 28.1071 63.3195 28.8454 63.3195 29.5133C63.3195 30.7789 63.2292 32.484 62.3624 33.5035C62.2902 33.5914 62.4166 33.8551 62.5249 33.7496C63.6085 32.6246 63.6627 30.7438 63.6627 29.3024C63.6627 28.3708 63.3918 27.2282 62.8319 26.4021C64.4753 26.9294 66.209 28.4763 66.7869 29.9528C66.8772 30.1637 67.0759 30.0758 67.0036 29.8649C66.6424 28.8805 65.8478 27.9313 65.0532 27.2634C64.6559 26.9294 63.7891 26.1735 63.0125 25.8747C65.0171 25.3825 66.7688 25.8396 68.5928 26.9646C68.7915 27.1228 68.9179 26.7185 68.6831 26.5075C67.1842 25.2243 65.1796 24.8376 63.3376 25.3122C63.5543 24.9431 63.753 24.574 64.0238 24.2224C64.7823 23.1853 65.4866 22.3767 66.6424 21.7264C66.805 21.6385 66.6424 21.2342 66.4799 21.3221C65.5047 21.8143 64.8004 22.3592 64.1503 23.2205L64.1322 23.2908Z" fill="white"/>
<path d="M40.2518 132.724C40.3694 132.714 40.4968 132.694 40.6145 132.655C41.1242 132.508 41.5849 132.223 41.9868 131.88C42.7808 131.212 43.4081 130.407 43.712 129.396C43.8688 128.866 43.9472 128.317 43.9766 127.767C44.006 127.256 44.0354 126.697 43.8786 126.206C43.6237 125.372 43.0944 124.773 42.4965 124.184C42.3495 124.322 42.222 124.508 42.1044 124.646C41.9574 124.842 41.8005 125.019 41.6241 125.195C41.5751 124.911 41.4869 124.636 41.3889 124.361C41.3202 124.165 41.2908 123.86 41.1438 123.684C40.6243 123.978 39.8303 124.655 39.4186 125.038C39.35 125.126 39.2814 125.205 39.2128 125.303C38.703 126 38.3403 126.815 38.1247 127.649C38.1051 127.737 38.0953 127.816 38.0855 127.894C38.0071 128.385 37.9875 128.886 38.0071 129.386C38.0757 129.887 38.2227 130.388 38.4384 130.849C38.8011 131.654 39.3304 132.4 40.1832 132.665C40.2028 132.685 40.2224 132.714 40.2518 132.734V132.724Z" fill="#AEC7E6"/>
<path d="M50.5482 86.9519C50.6721 86.9416 50.8064 86.9209 50.9303 86.8795C51.4675 86.7244 51.9529 86.4244 52.3764 86.0624C53.2131 85.3591 53.8742 84.5109 54.1944 83.4456C54.3597 82.887 54.4423 82.3078 54.4733 81.7286C54.5043 81.1907 54.5352 80.6012 54.37 80.084C54.1014 79.2048 53.5436 78.5739 52.9135 77.9533C52.7586 78.0981 52.6243 78.2946 52.5004 78.4394C52.3454 78.6463 52.1802 78.8325 51.9943 79.0186C51.9426 78.7187 51.8497 78.4291 51.7464 78.1395C51.6741 77.9326 51.6431 77.612 51.4881 77.4258C50.9407 77.7361 50.104 78.4498 49.6702 78.8532C49.5979 78.9462 49.5256 79.029 49.4533 79.1324C48.9161 79.8668 48.5339 80.7253 48.3067 81.6045C48.286 81.6975 48.2757 81.7803 48.2654 81.863C48.1827 82.3802 48.1621 82.9077 48.1827 83.4352C48.2551 83.9627 48.41 84.4902 48.6372 84.9764C49.0194 85.8245 49.5772 86.6106 50.4758 86.8899C50.4965 86.9106 50.5172 86.9416 50.5482 86.9623V86.9519Z" fill="#AEC7E6"/>
<path d="M50.8584 87.5542C50.9204 87.668 51.003 87.7714 51.0856 87.8645C51.4575 88.2886 51.9326 88.5989 52.4388 88.8265C53.4304 89.2816 54.484 89.5298 55.5789 89.354C56.1573 89.2609 56.7048 89.0954 57.2522 88.8782C57.748 88.6817 58.2955 88.4541 58.6983 88.0817C59.3697 87.4611 59.7106 86.6854 59.9998 85.8476C59.8036 85.7752 59.566 85.7235 59.3801 85.6925C59.1218 85.6407 58.8843 85.5683 58.6467 85.4752C58.8946 85.2994 59.1218 85.0925 59.3387 84.8753C59.4937 84.7202 59.7726 84.5547 59.8759 84.3375C59.3594 83.9755 58.3575 83.5204 57.81 83.2928C57.6964 83.2618 57.5828 83.2411 57.4691 83.2101C56.5808 83.0342 55.6408 83.0446 54.7525 83.2101C54.6699 83.2307 54.5769 83.2618 54.4943 83.2825C53.9882 83.4376 53.5027 83.6341 53.0379 83.8824C52.5834 84.172 52.1909 84.534 51.8397 84.9477C51.2406 85.6511 50.7654 86.4992 50.8894 87.4301C50.8791 87.4611 50.8687 87.4922 50.8584 87.5232V87.5542Z" fill="#AEC7E6"/>
<path d="M49.7943 86.9012C49.691 86.9736 49.5774 87.046 49.4638 87.108C48.9576 87.3563 48.3998 87.4494 47.8524 87.4701C46.7575 87.5114 45.6936 87.3252 44.7536 86.746C44.2578 86.4461 43.8136 86.0737 43.4005 85.66C43.0183 85.2876 42.5948 84.8532 42.3675 84.3671C41.9854 83.5396 41.9647 82.6915 42.0267 81.8123C42.2333 81.8123 42.4708 81.864 42.6568 81.9054C42.915 81.9571 43.1629 81.9778 43.4211 81.9985C43.2558 81.7399 43.1319 81.4606 43.0183 81.1813C42.9357 80.9745 42.7394 80.7159 42.7291 80.478C43.3488 80.3435 44.4437 80.3125 45.0325 80.3125C45.1461 80.3332 45.2597 80.3539 45.3734 80.3746C46.2617 80.5608 47.119 80.9331 47.8834 81.4399C47.9557 81.4916 48.028 81.5537 48.1003 81.6054C48.5032 81.9364 48.875 82.3088 49.2159 82.7121C49.5154 83.1569 49.7427 83.643 49.9079 84.1602C50.1868 85.0497 50.3004 86.0013 49.8253 86.8081C49.8253 86.8391 49.8253 86.8701 49.8253 86.9012H49.7943Z" fill="#AEC7E6"/>
<path d="M50.3211 86.7861C50.3624 86.9102 50.4037 87.0343 50.4244 87.1584C50.5277 87.7066 50.476 88.2755 50.3521 88.8133C50.1042 89.8787 49.6497 90.851 48.8337 91.6164C48.4102 92.0198 47.935 92.3507 47.4289 92.6404C46.964 92.9093 46.4476 93.1989 45.9105 93.292C45.0118 93.4471 44.1958 93.2299 43.3591 92.9506C43.4108 92.7541 43.5244 92.5369 43.6173 92.3611C43.731 92.1335 43.8239 91.8956 43.9066 91.6474C43.6173 91.7405 43.3178 91.7922 43.0079 91.8232C42.791 91.8439 42.4812 91.968 42.2539 91.9163C42.2849 91.2854 42.5431 90.22 42.7084 89.6512C42.7497 89.5477 42.8013 89.4339 42.853 89.3305C43.2662 88.5237 43.8549 87.7894 44.5367 87.1894C44.609 87.1377 44.6813 87.086 44.7536 87.0343C45.1771 86.724 45.6419 86.4654 46.117 86.2585C46.6232 86.0827 47.1603 85.9896 47.6974 85.9689C48.6271 85.9379 49.5774 86.0724 50.2281 86.755C50.2591 86.755 50.2901 86.7757 50.3211 86.7861Z" fill="#AEC7E6"/>
<path d="M50.1772 86.7451C50.074 86.8278 49.981 86.9209 49.8984 87.014C49.5368 87.4381 49.3096 87.9656 49.1547 88.5034C48.8551 89.5584 48.7828 90.6341 49.1237 91.6891C49.2993 92.2477 49.5575 92.7649 49.857 93.2717C50.1256 93.7371 50.4458 94.2439 50.8693 94.5853C51.582 95.1541 52.3981 95.3713 53.2657 95.5265C53.307 95.3196 53.3174 95.0817 53.3277 94.8852C53.338 94.6266 53.369 94.3784 53.4207 94.1198C53.6272 94.337 53.8751 94.5232 54.123 94.7094C54.2986 94.8335 54.5052 95.0921 54.7325 95.1541C55.0114 94.5853 55.3006 93.5302 55.4349 92.951C55.4349 92.8372 55.4555 92.7235 55.4555 92.5994C55.4865 91.6995 55.3316 90.7686 55.0217 89.9101C54.9804 89.8274 54.9494 89.7446 54.9081 89.6619C54.6808 89.1861 54.4123 88.7413 54.0921 88.3172C53.7305 87.9242 53.307 87.5725 52.8525 87.2932C52.0572 86.8071 51.1585 86.4658 50.2599 86.7451C50.2289 86.7451 50.1979 86.7347 50.1566 86.7347L50.1772 86.7451Z" fill="#AEC7E6"/>
<g style="mix-blend-mode:multiply">
<path d="M57.4172 88.1127C56.6528 88.3506 55.8574 88.4954 55.0621 88.5058C54.525 88.5058 53.8742 88.5161 53.43 88.1645C53.3991 88.1334 53.4197 88.0817 53.461 88.0714C54.2047 87.8231 54.9588 87.5749 55.6715 87.2439C55.2687 87.3163 54.8658 87.3991 54.4527 87.4508C53.8432 87.5335 53.0685 87.6783 52.4694 87.4404C51.798 87.1819 52.5004 86.4475 52.7793 86.1786C53.5437 85.4235 54.4836 84.927 55.5062 84.6581C54.5146 84.7202 53.5334 85.1028 52.7483 85.6821C52.6967 85.7234 52.645 85.651 52.6657 85.5993C53.1822 84.6684 54.2254 84.0065 55.1757 83.6134C55.7335 83.3859 56.3326 83.2514 56.942 83.2824C57.3759 83.3031 57.789 83.3755 58.2022 83.479C58.0576 83.4169 57.913 83.3548 57.7993 83.3135C57.6857 83.2824 57.5721 83.2617 57.4585 83.2307C56.5702 83.0549 55.6302 83.0652 54.7419 83.2307C54.6593 83.2514 54.5663 83.2824 54.4837 83.3031C54.3907 83.3342 54.2977 83.3652 54.1944 83.3962C54.3494 82.848 54.432 82.2895 54.463 81.7206C54.494 81.1827 54.525 80.5932 54.3597 80.076C54.3184 79.9416 54.2771 79.8174 54.2151 79.6933C54.2564 80.3346 54.2874 80.9552 54.2151 81.5965C54.1015 82.5584 53.8845 83.8306 53.0479 84.4512C53.0169 84.4719 52.9652 84.4512 52.9652 84.4202C52.8826 83.9961 53.0376 83.5824 53.0995 83.1583C53.1512 82.7446 53.1615 82.2688 53.0892 81.8344C52.9446 82.879 52.7483 83.8823 52.3351 84.865C52.0872 85.4545 51.6948 86.3647 50.9717 86.4785C50.1867 86.6026 49.8665 85.4545 49.7322 84.896C49.5153 84.0065 49.5463 83.1376 49.6702 82.2481C49.5566 82.5791 49.4429 82.9204 49.4016 83.2617C49.3293 83.841 49.3603 84.4305 49.319 85.0201C49.319 85.0822 49.2467 85.1028 49.2054 85.0511C48.8025 84.4512 48.7509 83.6445 48.6889 82.9411C48.6166 82.0826 48.6166 81.1828 48.9265 80.376C49.1434 79.8278 49.4533 79.2072 49.8561 78.6797C49.7941 78.7417 49.7219 78.7935 49.6702 78.8452C49.5979 78.9383 49.5256 79.021 49.4533 79.1244C48.9162 79.8588 48.534 80.7173 48.3067 81.5965C48.2964 81.6482 48.2861 81.7103 48.2757 81.762C48.2138 81.6999 48.1415 81.6482 48.0795 81.5861C48.0072 81.5344 47.9349 81.4724 47.8626 81.4206C47.3461 81.069 46.7677 80.7897 46.1686 80.5828C46.4784 80.8104 46.7883 81.0483 47.0362 81.3482C47.6766 82.124 48.1415 83.148 48.0795 84.172C48.0485 84.565 47.9762 84.9994 47.6663 85.2683C47.4081 85.4959 47.0465 85.4028 46.778 85.2477C46.5198 85.1028 46.2615 84.9374 46.0136 84.7512C46.0343 84.7822 46.055 84.8029 46.0653 84.8339C46.1996 85.0201 46.7057 85.5993 46.4371 85.8476C46.2719 85.9924 45.869 85.8372 45.7038 85.7752C45.3422 85.6407 45.022 85.4545 44.7121 85.227C44.3093 84.927 43.9478 84.5443 43.6379 84.1409C43.7722 84.3892 43.9168 84.6374 44.0924 84.8443C44.3196 85.1028 44.5882 85.3511 44.6915 85.6924C44.7018 85.7338 44.6708 85.7648 44.6398 85.7648C44.268 85.8165 43.9168 85.589 43.6379 85.3614C43.2764 85.0718 42.9665 84.7305 42.6773 84.3788C42.3674 83.9961 42.1195 83.6031 42.0162 83.1273C42.0162 83.1066 42.0162 83.0963 42.0059 83.0756C42.0472 83.5203 42.1505 83.9651 42.3467 84.3995C42.574 84.8856 42.9975 85.3097 43.3797 85.6924C43.7928 86.0958 44.237 86.4785 44.7328 86.7785C44.8154 86.8302 44.8877 86.8715 44.9704 86.9129C44.8877 86.9646 44.8155 87.0164 44.7431 87.0681C44.6708 87.1198 44.5985 87.1715 44.5262 87.2232C43.8445 87.8231 43.2557 88.5575 42.8425 89.3643C42.8115 89.4263 42.7806 89.4884 42.7599 89.5401C43.0181 89.1781 43.3074 88.8575 43.6689 88.5678C44.0717 88.2472 44.5159 87.9886 44.991 87.8024C45.5075 87.6059 46.1066 87.3577 46.6644 87.3577C46.7264 87.3577 46.747 87.4404 46.6954 87.4715C46.3132 87.7197 45.9103 87.9059 45.5695 88.2058C45.4455 88.3093 45.3216 88.4127 45.1976 88.5265C45.6108 88.2886 46.0653 88.1334 46.5198 88.0403C47.1498 87.9059 47.9245 87.6576 48.534 87.9783C48.565 87.999 48.5753 88.03 48.5546 88.061C48.379 88.4127 47.9969 88.6299 47.7076 88.8885C47.3874 89.1781 47.0672 89.4574 46.7367 89.7366C47.3048 89.4574 47.8109 89.0643 48.3687 88.7644C48.41 88.7437 48.472 88.7747 48.4514 88.8264C48.1002 89.7366 47.3771 90.3676 46.7987 91.1226C47.4184 90.7399 47.9556 90.2228 48.4204 89.6746C48.4514 89.6332 48.5236 89.6746 48.5236 89.716C48.4617 90.4296 48.0898 91.0709 47.6353 91.6191C47.2118 92.1259 46.716 92.6017 46.1376 92.9224C45.8277 93.0878 45.4765 93.2533 45.0943 93.3671C45.3526 93.3775 45.6108 93.3671 45.8793 93.3257C46.4165 93.2327 46.9329 92.9431 47.3977 92.6741C47.9039 92.3845 48.379 92.0535 48.8025 91.6501C48.8749 91.5777 48.9471 91.5053 49.0195 91.4329C49.0401 91.526 49.0711 91.6295 49.1021 91.7225C49.2777 92.2811 49.5359 92.7982 49.8355 93.3051C50.104 93.7705 50.4242 94.2773 50.8477 94.6187C51.1576 94.8669 51.4778 95.0427 51.829 95.1875C51.4055 94.8565 51.013 94.4738 50.6928 94.0394C50.228 93.4085 49.9491 92.6741 49.8251 91.9087C49.7218 91.2985 49.5876 90.5124 49.9388 89.9538C49.9698 89.9125 50.0317 89.9228 50.0524 89.9642C50.3209 90.771 50.4036 91.6398 50.8374 92.3742C50.6618 91.7949 50.4759 91.2054 50.4346 90.6055C50.4036 90.0987 50.3519 89.4884 50.6825 89.054C50.7031 89.023 50.7548 89.0436 50.7754 89.0643C51.075 89.4677 51.1783 89.9745 51.4572 90.3779C51.6225 90.6262 51.8187 90.8537 51.984 91.0916C51.86 90.7089 51.7257 90.3262 51.5604 89.9745C51.3952 89.6332 51.1576 89.2815 51.1886 88.8988C51.1886 88.8781 51.1989 88.8471 51.2299 88.8368C51.7774 88.7437 52.3042 89.2712 52.6657 89.6125C53.0995 90.0262 53.4404 90.4607 53.7503 90.9571C53.5643 90.3676 53.3268 89.7884 52.9239 89.2919C52.8826 89.2402 52.9343 89.1574 52.9962 89.1988C53.9465 89.7987 54.7419 90.7399 55.1241 91.8053C55.31 92.3328 55.341 92.8603 55.3203 93.3878C55.3616 93.2327 55.3926 93.0982 55.4236 92.9741C55.4236 92.8603 55.4443 92.7465 55.4443 92.6224C55.4753 91.7225 55.3203 90.7916 55.0104 89.9332C54.9691 89.8504 54.9381 89.7677 54.8968 89.6849C54.8555 89.6022 54.8142 89.5091 54.7625 89.4263C55.0208 89.4263 55.279 89.416 55.5372 89.3746C56.1157 89.2815 56.6631 89.116 57.2106 88.8988C57.7064 88.7023 58.2538 88.4748 58.6567 88.1024C59.1215 87.6783 59.421 87.1922 59.6586 86.6543C59.1215 87.3784 58.2848 87.8542 57.3862 88.1334L57.4172 88.1127Z" fill="#AEC7E6"/>
</g>
<path d="M51.4358 87.5431C51.3531 87.5121 51.2602 87.4707 51.1775 87.4397C51.5597 87.4397 51.9419 87.3259 52.3138 87.1397C52.9129 86.8294 53.543 86.1157 53.6359 85.4331C53.6359 85.3607 53.5223 85.4227 53.5223 85.4641C53.3984 86.1364 52.7579 86.757 52.1691 87.057C51.8386 87.2225 51.4358 87.2949 51.0639 87.2845C50.909 87.2845 50.7231 87.2121 50.5991 87.1604C50.9503 86.9225 51.3221 86.3743 51.4254 86.1985C52.0039 85.2676 52.2001 84.2953 52.4584 83.2403C52.4687 83.1886 52.3757 83.2403 52.3654 83.2713C52.1691 84.016 51.9936 84.7608 51.6734 85.4744C51.5287 85.7951 51.3325 86.0951 51.1362 86.3847C51.0742 86.4778 50.7437 86.9122 50.4752 87.0363C50.6921 86.8087 50.847 86.5398 50.94 86.2088C50.9606 86.1468 50.8367 86.1881 50.816 86.2295C50.754 86.4157 50.6611 86.5915 50.5578 86.7674C50.4855 86.8811 50.3925 86.9742 50.2995 87.057C50.3202 87.0053 50.3099 86.9639 50.2273 86.9846C50.1859 86.9846 50.1549 87.0156 50.1343 87.0466C50.1653 87.0156 50.1963 86.9846 50.2066 86.9432C50.2169 86.9432 50.2376 86.9225 50.2376 86.9122C50.4132 86.5915 50.4545 86.2399 50.5268 85.8882C50.5991 85.4745 50.6507 85.0711 50.6301 84.647C50.5784 83.7885 50.4442 82.899 49.9897 82.1543C49.969 82.1129 49.8864 82.175 49.9071 82.2163C50.5475 83.3437 50.6094 84.9263 50.2995 86.2399C50.3202 85.9813 50.3305 85.733 50.2995 85.4641C50.2376 84.7297 49.9174 83.9954 49.4732 83.4161C49.4422 83.3748 49.3596 83.4472 49.3803 83.4782C49.7211 83.9954 49.9277 84.5746 50.0517 85.1745C50.1136 85.4951 50.1446 85.8365 50.1136 86.1571C50.093 86.3847 50.093 86.7156 50.0207 86.9432C49.4009 86.1157 48.8638 85.0607 48.7811 84.0471C48.7811 84.0057 48.6882 84.0471 48.6882 84.0885C48.6882 84.647 48.8328 85.2055 49.0704 85.7123C49.2666 86.1364 49.4835 86.6019 49.7624 86.9846C49.1737 86.757 48.6779 86.3847 48.1924 85.9089C47.6656 85.402 47.2318 84.8332 47.0252 84.1298C47.0148 84.0884 46.9219 84.1298 46.9322 84.1815C47.2834 85.6193 48.5849 86.8605 50 87.2742C50 87.2742 50 87.2742 50.0103 87.2845C49.4319 87.6155 48.5229 87.419 47.9238 87.2845C47.2937 87.1501 46.4157 86.7674 46.0026 86.2502C45.9716 86.2088 45.8683 86.2812 45.8993 86.3226C46.3641 86.9122 47.2317 87.3052 47.9445 87.4707C48.4713 87.5845 49.184 87.7189 49.7521 87.5431C49.7418 87.5534 49.7314 87.5638 49.7314 87.5638C49.5249 87.7293 49.246 87.812 48.9981 87.8741C48.5229 87.9982 47.8825 88.1223 47.4177 87.9051C47.3764 87.8844 47.2937 87.9568 47.335 87.9879C47.8515 88.2671 48.5642 88.112 49.1013 87.9672C49.4525 87.8741 49.8451 87.6776 50.1033 87.388C50.062 88.0292 49.6488 88.8153 49.153 89.167C49.0807 89.2187 49.1323 89.2808 49.2046 89.2394C49.5352 89.0118 49.8141 88.6395 49.9897 88.2775C50.0723 88.1016 50.2789 87.7086 50.3099 87.3983C50.6817 88.081 50.6714 88.7636 50.4235 89.529C50.3822 89.6118 50.5475 89.6221 50.5991 89.5187C50.94 88.8567 50.8987 88.0913 50.5475 87.4604C50.7024 87.5017 50.8677 87.5431 51.0226 87.6052C51.4771 87.781 51.8489 87.9568 52.2001 88.3188C52.2518 88.3706 52.3757 88.2671 52.3344 88.2154C52.0555 87.9051 51.787 87.7086 51.4048 87.5534L51.4358 87.5431Z" fill="white"/>
<path d="M13.5699 104.783C13.7623 104.794 13.9547 104.804 14.1471 104.783C14.9775 104.699 15.7775 104.373 16.4965 103.952C17.9244 103.11 19.1294 102.004 19.8788 100.468C20.2738 99.6572 20.5472 98.8047 20.7598 97.9205C20.9522 97.1101 21.1548 96.2049 21.0637 95.3733C20.9016 93.9629 20.2535 92.8261 19.494 91.6999C19.2307 91.8788 18.9674 92.1315 18.7548 92.342C18.4712 92.6156 18.1674 92.8577 17.8535 93.0788C17.8535 92.6051 17.8029 92.1315 17.732 91.6683C17.6813 91.3315 17.732 90.8263 17.5497 90.5C16.6585 90.8158 15.2307 91.6789 14.4813 92.163C14.3497 92.2788 14.218 92.3946 14.0863 92.5209C13.1041 93.4893 12.2939 94.6892 11.7268 95.9733C11.6762 96.0996 11.6357 96.2364 11.5851 96.3627C11.3319 97.1311 11.1395 97.9311 11.0382 98.7415C10.9977 99.573 11.0889 100.415 11.2914 101.226C11.6256 102.625 12.2332 103.994 13.4787 104.667C13.5091 104.71 13.5395 104.752 13.5699 104.794V104.783Z" fill="#AEC7E6"/>
<path d="M13.853 105.794C13.9239 105.983 14.0049 106.162 14.1062 106.341C14.5315 107.089 15.1492 107.699 15.8277 108.194C17.1644 109.183 18.6429 109.846 20.3037 109.899C21.1746 109.93 22.0354 109.825 22.8962 109.646C23.6759 109.478 24.5569 109.288 25.2456 108.846C26.4101 108.099 27.119 107.004 27.7772 105.804C27.5139 105.636 27.1797 105.499 26.9063 105.383C26.5519 105.236 26.2076 105.047 25.8835 104.847C26.2987 104.657 26.6835 104.405 27.0582 104.131C27.3316 103.941 27.7874 103.762 28 103.468C27.3418 102.763 25.9949 101.794 25.2456 101.289C25.0835 101.215 24.9316 101.142 24.7595 101.078C23.5038 100.563 22.1063 100.31 20.7493 100.321C20.6177 100.331 20.486 100.342 20.3543 100.352C19.5746 100.436 18.805 100.605 18.0556 100.847C17.3164 101.163 16.6277 101.605 15.9999 102.142C14.9265 103.057 13.9948 104.205 13.934 105.668C13.9036 105.71 13.8834 105.762 13.8631 105.804L13.853 105.794Z" fill="#AEC7E6"/>
<path d="M12.4751 104.497C12.3029 104.582 12.1207 104.655 11.9384 104.718C11.1282 104.95 10.2776 104.95 9.45732 104.824C7.83705 104.571 6.32817 103.992 5.09272 102.845C4.44461 102.234 3.88765 101.54 3.39144 100.803C2.93574 100.119 2.42941 99.3504 2.22687 98.5399C1.88257 97.1611 2.09523 95.8664 2.41928 94.5297C2.72308 94.5928 3.05725 94.7402 3.32054 94.8454C3.6851 94.9928 4.04968 95.1086 4.41424 95.1928C4.24209 94.7507 4.1307 94.2981 4.03956 93.8245C3.96867 93.4876 3.756 93.0351 3.80664 92.6667C4.74842 92.6351 6.37881 92.8982 7.24971 93.0666C7.41173 93.1193 7.57377 93.1929 7.7358 93.2561C8.99151 93.7824 10.1561 94.6034 11.1384 95.5928C11.2295 95.698 11.3206 95.8033 11.4017 95.9085C11.908 96.5295 12.3536 97.2032 12.7384 97.9189C13.0624 98.6768 13.265 99.4978 13.3662 100.329C13.5384 101.761 13.4473 103.255 12.5156 104.361C12.5055 104.413 12.4953 104.455 12.4751 104.508V104.497Z" fill="#AEC7E6"/>
<path d="M13.2761 104.467C13.3065 104.667 13.3267 104.867 13.3369 105.067C13.3369 105.94 13.1141 106.793 12.7799 107.582C12.1217 109.14 11.1799 110.509 9.78239 111.435C9.05327 111.929 8.25325 112.298 7.43299 112.603C6.68362 112.887 5.833 113.182 5.02286 113.172C3.65576 113.15 2.50131 112.593 1.34687 111.919C1.48864 111.635 1.71143 111.34 1.88358 111.098C2.1165 110.782 2.31901 110.445 2.5013 110.088C2.04559 110.14 1.58989 110.13 1.13419 110.098C0.800004 110.077 0.324054 110.172 0 110.035C0.212661 109.077 0.891169 107.519 1.28611 106.698C1.38738 106.551 1.48863 106.404 1.5899 106.256C2.41016 105.141 3.48359 104.183 4.65829 103.467C4.77981 103.404 4.90134 103.341 5.02286 103.288C5.74186 102.941 6.48111 102.678 7.24061 102.478C8.0305 102.351 8.85075 102.362 9.64064 102.478C11.0179 102.688 12.385 103.172 13.1546 104.393C13.1951 104.414 13.2356 104.446 13.2862 104.467H13.2761Z" fill="#AEC7E6"/>
<path d="M13.0838 104.371C12.9116 104.466 12.7597 104.582 12.6078 104.708C11.9597 105.266 11.4837 105.992 11.1192 106.771C10.39 108.297 9.99511 109.918 10.2078 111.634C10.3192 112.539 10.5521 113.402 10.8559 114.255C11.1394 115.033 11.4533 115.897 11.9901 116.539C12.8812 117.612 14.0357 118.17 15.2711 118.654C15.3926 118.36 15.4635 117.991 15.5344 117.696C15.6255 117.307 15.7471 116.928 15.8787 116.56C16.1319 116.96 16.4256 117.307 16.7496 117.654C16.9724 117.907 17.2154 118.349 17.5294 118.517C18.0965 117.728 18.8053 116.191 19.1699 115.349C19.2205 115.17 19.261 115.002 19.3015 114.823C19.5952 113.455 19.6155 111.981 19.3927 110.592C19.3623 110.455 19.3319 110.318 19.2914 110.192C19.0889 109.402 18.8053 108.634 18.461 107.908C18.0458 107.202 17.5091 106.56 16.9116 106.003C15.8787 105.045 14.6433 104.266 13.2458 104.434C13.2053 104.413 13.1546 104.403 13.104 104.382L13.0838 104.371Z" fill="#AEC7E6"/>
<g style="mix-blend-mode:multiply">
<path d="M23.3617 108.52C22.1768 108.667 20.9616 108.667 19.7869 108.446C18.9971 108.299 18.035 108.131 17.4781 107.467C17.4375 107.415 17.4781 107.331 17.5388 107.331C18.7135 107.162 19.8781 106.994 21.0224 106.699C20.4047 106.699 19.7869 106.699 19.1793 106.668C18.2477 106.615 17.073 106.615 16.2628 106.089C15.3514 105.499 16.5768 104.583 17.0527 104.247C18.3793 103.31 19.8983 102.805 21.4882 102.699C20.0097 102.51 18.4705 102.815 17.1439 103.489C17.0629 103.531 16.992 103.405 17.0426 103.341C18.0553 102.068 19.7667 101.352 21.2857 101.026C22.1769 100.836 23.0883 100.805 23.9794 101.026C24.6073 101.184 25.2047 101.415 25.7921 101.678C25.5895 101.542 25.4073 101.405 25.2452 101.3C25.0832 101.226 24.9313 101.152 24.7592 101.089C23.5034 100.573 22.106 100.321 20.749 100.331C20.6173 100.342 20.4857 100.352 20.354 100.363C20.2021 100.384 20.0604 100.405 19.9085 100.426C20.2933 99.6365 20.5566 98.7944 20.7591 97.9313C20.9515 97.1209 21.1541 96.2156 21.0629 95.3841C21.0427 95.1736 21.0021 94.9631 20.9616 94.7631C20.8502 95.7525 20.7186 96.7104 20.4351 97.6787C20.0097 99.1207 19.3414 101.005 17.9439 101.71C17.8932 101.731 17.8224 101.689 17.8224 101.636C17.8224 100.963 18.1565 100.373 18.3591 99.7417C18.5515 99.1312 18.6932 98.405 18.7034 97.7208C18.2072 99.2681 17.6502 100.763 16.7692 102.131C16.2426 102.952 15.4122 104.236 14.3185 104.215C13.1236 104.184 12.9818 102.331 12.9312 101.447C12.8502 100.026 13.1438 98.6997 13.559 97.384C13.2957 97.8576 13.0426 98.3418 12.8805 98.8681C12.6071 99.7417 12.4957 100.647 12.2729 101.531C12.2527 101.615 12.1413 101.636 12.1008 101.542C11.6653 100.51 11.8172 99.2575 11.9185 98.1629C12.04 96.8367 12.2932 95.4578 12.9717 94.3105C13.4375 93.5316 14.0653 92.6791 14.8046 91.9844C14.6932 92.0581 14.5818 92.1317 14.4806 92.1949C14.3489 92.3107 14.2173 92.4265 14.0856 92.5528C13.1033 93.5211 12.2932 94.721 11.7261 96.0051C11.6957 96.0894 11.6653 96.1735 11.635 96.2578C11.5539 96.1525 11.4729 96.0367 11.3919 95.942C11.3109 95.8367 11.2198 95.7315 11.1286 95.6262C10.4501 94.9526 9.68049 94.3526 8.86023 93.8685C9.25517 94.3 9.64 94.7526 9.92355 95.2789C10.6527 96.6367 11.0679 98.3418 10.683 99.8786C10.5413 100.468 10.3083 101.11 9.78176 101.436C9.33618 101.71 8.83998 101.468 8.48554 101.163C8.14124 100.868 7.81718 100.531 7.50325 100.184C7.52351 100.226 7.54376 100.279 7.56401 100.321C7.71591 100.647 8.30328 101.678 7.83745 101.973C7.5539 102.152 7.00705 101.794 6.78427 101.657C6.28806 101.352 5.86275 100.973 5.46781 100.542C4.95135 99.9628 4.526 99.2891 4.1817 98.5734C4.30322 98.9944 4.45512 99.4049 4.65765 99.7838C4.91082 100.247 5.245 100.7 5.31588 101.247C5.31588 101.31 5.26527 101.352 5.21464 101.342C4.65767 101.31 4.19184 100.857 3.84753 100.436C3.40195 99.8891 3.02725 99.2786 2.69307 98.6576C2.34876 97.9945 2.08546 97.3208 2.05508 96.5525C2.05508 96.5209 2.05508 96.4893 2.05508 96.4683C1.99432 97.1629 2.02472 97.8576 2.19687 98.5839C2.39941 99.3944 2.90574 100.163 3.36144 100.847C3.85765 101.594 4.41461 102.289 5.06271 102.889C5.16398 102.984 5.26525 103.068 5.37664 103.163C5.24499 103.215 5.12348 103.278 5.00196 103.331C4.88044 103.384 4.75893 103.447 4.63741 103.51C3.46271 104.226 2.39941 105.194 1.56902 106.299C1.50826 106.383 1.44748 106.468 1.38672 106.552C1.85255 106.078 2.37915 105.657 2.98675 105.331C3.66524 104.962 4.39437 104.689 5.14375 104.541C5.95388 104.384 6.90578 104.184 7.72604 104.331C7.81718 104.352 7.8172 104.468 7.74631 104.51C7.11846 104.783 6.47032 104.952 5.88297 105.299C5.67031 105.426 5.45766 105.552 5.25512 105.689C5.92349 105.447 6.64248 105.341 7.34122 105.31C8.31338 105.278 9.51847 105.12 10.3286 105.794C10.3691 105.825 10.3691 105.878 10.3387 105.92C9.99444 106.404 9.35644 106.636 8.87036 106.941C8.32352 107.289 7.76654 107.636 7.20957 107.973C8.12097 107.71 8.97163 107.236 9.88303 106.941C9.94379 106.92 10.0349 106.994 9.99441 107.068C9.23491 108.362 7.98934 109.12 6.93616 110.12C7.94883 109.699 8.88049 109.078 9.721 108.362C9.78176 108.31 9.87291 108.373 9.85265 108.446C9.56911 109.52 8.84 110.404 8.02986 111.099C7.27036 111.751 6.40959 112.341 5.46781 112.667C4.9716 112.846 4.39436 112.983 3.80701 113.057C4.1817 113.151 4.56652 113.204 4.98171 113.204C5.79185 113.204 6.6425 112.909 7.39187 112.636C8.21214 112.33 9.00199 111.962 9.74124 111.467C9.87289 111.383 9.99444 111.288 10.116 111.194C10.116 111.351 10.1362 111.509 10.1564 111.667C10.2678 112.572 10.5008 113.435 10.8046 114.288C11.0881 115.067 11.402 115.93 11.9388 116.572C12.3236 117.035 12.759 117.404 13.2248 117.709C12.6881 117.077 12.2122 116.393 11.8679 115.635C11.3615 114.541 11.1489 113.341 11.1792 112.13C11.1995 111.162 11.2096 109.941 11.8881 109.183C11.9388 109.12 12.0299 109.152 12.04 109.236C12.2223 110.541 12.1008 111.899 12.5362 113.141C12.435 112.204 12.3134 111.257 12.4248 110.32C12.516 109.53 12.6071 108.583 13.2147 108.015C13.2654 107.973 13.3261 108.015 13.3464 108.057C13.6806 108.752 13.6907 109.552 13.9945 110.267C14.1767 110.688 14.3996 111.099 14.5818 111.52C14.5008 110.899 14.4198 110.288 14.2578 109.688C14.116 109.131 13.8527 108.52 14.0046 107.931C14.0046 107.889 14.0451 107.857 14.0856 107.857C14.9059 107.867 15.554 108.836 15.9894 109.457C16.516 110.204 16.9008 110.972 17.2148 111.815C17.0932 110.857 16.9211 109.909 16.4552 109.046C16.4147 108.962 16.5059 108.846 16.5869 108.931C17.8224 110.12 18.7338 111.783 19.0072 113.52C19.1388 114.383 19.0477 115.193 18.8553 115.993C18.9565 115.772 19.0477 115.572 19.1186 115.393C19.1692 115.214 19.2097 115.046 19.2502 114.867C19.5439 113.499 19.5642 112.025 19.3414 110.636C19.311 110.499 19.2806 110.362 19.2401 110.236C19.1996 110.088 19.1591 109.952 19.1186 109.804C19.4933 109.878 19.8781 109.93 20.273 109.941C21.1439 109.973 22.0047 109.867 22.8655 109.688C23.6452 109.52 24.5263 109.331 25.2149 108.888C26.0047 108.373 26.5921 107.71 27.0883 106.952C26.0959 107.91 24.7389 108.394 23.3313 108.562L23.3617 108.52Z" fill="#AEC7E6"/>
</g>
<path d="M14.7242 105.952C14.6027 105.878 14.4913 105.794 14.3698 105.72C14.9267 105.825 15.5242 105.773 16.1318 105.583C17.104 105.278 18.2179 104.362 18.542 103.341C18.5724 103.236 18.38 103.289 18.3597 103.362C17.9951 104.352 16.8812 105.131 15.9394 105.425C15.4027 105.594 14.7951 105.583 14.2483 105.457C14.0255 105.404 13.7723 105.246 13.59 105.131C14.1774 104.868 14.866 104.131 15.0685 103.899C16.1723 102.636 16.7394 101.205 17.3875 99.6679C17.4179 99.5942 17.266 99.6258 17.2458 99.689C16.7496 100.773 16.2837 101.868 15.6255 102.857C15.3318 103.31 14.947 103.71 14.5926 104.099C14.4812 104.225 13.8736 104.794 13.4482 104.91C13.8331 104.615 14.1268 104.257 14.3495 103.773C14.39 103.678 14.1976 103.71 14.1673 103.773C14.0255 104.047 13.8432 104.289 13.6407 104.52C13.509 104.678 13.347 104.783 13.185 104.889C13.185 104.889 13.185 104.889 13.185 104.878C13.185 104.878 13.185 104.878 13.185 104.868C13.2255 104.804 13.2255 104.731 13.1039 104.731C13.0432 104.731 12.9824 104.752 12.9419 104.794H12.952C13.0128 104.752 13.0533 104.71 13.0938 104.657C13.1141 104.657 13.1445 104.636 13.1546 104.615C13.509 104.173 13.6609 103.657 13.8533 103.12C14.0761 102.52 14.2584 101.899 14.3394 101.257C14.5014 99.9205 14.542 98.5417 14.0761 97.2681C14.0559 97.2049 13.9141 97.2681 13.9343 97.3418C14.5723 99.2574 14.228 101.678 13.4179 103.594C13.5191 103.205 13.6002 102.826 13.6407 102.405C13.7521 101.268 13.4786 100.047 12.9926 99.0364C12.9622 98.9732 12.8103 99.0364 12.8407 99.1101C13.2052 99.9942 13.347 100.942 13.3672 101.899C13.3672 102.405 13.3166 102.941 13.1951 103.426C13.1039 103.773 13.0128 104.268 12.8508 104.604C12.1622 103.162 11.6558 101.405 11.8179 99.8258C11.8179 99.7521 11.6761 99.8047 11.666 99.8574C11.5343 100.71 11.5748 101.605 11.7875 102.447C11.9596 103.152 12.1521 103.92 12.4559 104.594C11.6457 104.068 11.028 103.373 10.4406 102.51C9.81276 101.584 9.31655 100.594 9.20516 99.4469C9.20516 99.3732 9.05326 99.4258 9.05326 99.489C9.17478 101.794 10.7545 104.047 12.7191 105.078C12.7191 105.078 12.7191 105.089 12.7293 105.099C11.7976 105.446 10.5115 104.878 9.66087 104.51C8.76972 104.131 7.58491 103.289 7.10896 102.384C7.06845 102.31 6.89628 102.394 6.93679 102.468C7.45325 103.499 8.62796 104.352 9.64063 104.794C10.3799 105.12 11.3925 105.52 12.2735 105.415C12.2432 105.436 12.2331 105.446 12.2331 105.446C11.8888 105.646 11.4533 105.689 11.0685 105.72C10.3394 105.783 9.35707 105.783 8.73934 105.331C8.68871 105.289 8.53682 105.383 8.59758 105.436C9.2862 106.015 10.3697 105.973 11.2001 105.91C11.7368 105.867 12.3748 105.667 12.8407 105.299C12.6078 106.278 11.7774 107.352 10.9571 107.752C10.8457 107.804 10.8963 107.92 11.0178 107.867C11.5647 107.615 12.0811 107.12 12.4356 106.625C12.6077 106.383 13.0128 105.836 13.1546 105.383C13.5192 106.531 13.3267 107.562 12.7495 108.678C12.6685 108.804 12.9115 108.857 13.0229 108.709C13.7014 107.783 13.8432 106.604 13.4989 105.552C13.7217 105.657 13.9445 105.762 14.1571 105.899C14.785 106.299 15.2812 106.678 15.6964 107.32C15.7571 107.415 15.9799 107.299 15.9192 107.204C15.5951 106.657 15.2609 106.267 14.7344 105.931L14.7242 105.952Z" fill="white"/>
</svg>
