<svg width="40" height="83" viewBox="0 0 40 83" fill="none" xmlns="http://www.w3.org/2000/svg">
<path d="M30.545 39.6933C30.669 39.683 30.8034 39.652 30.9274 39.621C31.4647 39.466 31.9503 39.1664 32.3739 38.8048C33.2109 38.1023 33.8722 37.2552 34.1925 36.191C34.3578 35.6332 34.4405 35.0546 34.4715 34.4761C34.5025 33.9388 34.5335 33.35 34.3682 32.8231C34.0995 31.9449 33.5415 31.3147 32.9112 30.6949C32.7563 30.8395 32.6219 31.0358 32.4979 31.1804C32.3429 31.387 32.1776 31.573 31.9916 31.759C31.94 31.4594 31.847 31.1701 31.7436 30.8808C31.6713 30.6742 31.6403 30.3539 31.4853 30.168C30.9377 30.4779 30.1007 31.1908 29.6668 31.5937C29.5944 31.6866 29.5221 31.7693 29.4498 31.8726C28.9125 32.6061 28.5302 33.4636 28.3028 34.3418C28.2822 34.4347 28.2718 34.5174 28.2615 34.6C28.1788 35.1166 28.1582 35.6435 28.1788 36.1704C28.2512 36.6973 28.4062 37.2242 28.6335 37.7097C29.0158 38.5569 29.5738 39.3421 30.4727 39.621C30.4934 39.6417 30.514 39.6623 30.545 39.6933Z" fill="#AEC7E6"/>
<path d="M30.8555 40.2926C30.9175 40.4062 31.0001 40.5095 31.0828 40.6025C31.4548 41.0261 31.9301 41.336 32.4364 41.5633C33.4283 42.0282 34.4823 42.2658 35.5775 42.0902C36.1562 41.9972 36.7038 41.8319 37.2514 41.615C37.7474 41.4187 38.2951 41.1914 38.698 40.8195C39.3697 40.1996 39.7106 39.4248 40 38.5983C39.8036 38.5259 39.566 38.4743 39.38 38.4433C39.1217 38.3916 38.884 38.3193 38.6464 38.2263C38.8944 38.0507 39.1217 37.8441 39.3387 37.6271C39.4937 37.4722 39.7726 37.3069 39.876 37.0899C39.3593 36.7283 38.3571 36.2737 37.8094 36.0465C37.6958 36.0155 37.5821 35.9948 37.4684 35.9638C36.5798 35.7882 35.6395 35.7985 34.7509 35.9638C34.6579 35.9845 34.5753 36.0051 34.4926 36.0361C33.9863 36.1911 33.5007 36.3874 33.0357 36.6353C32.581 36.9246 32.1884 37.2862 31.8371 37.6995C31.2378 38.402 30.7625 39.2388 30.8865 40.1686C30.8761 40.1996 30.8658 40.2306 30.8555 40.2616V40.2926Z" fill="#AEC7E6"/>
<path d="M29.8008 39.6435C29.6975 39.7158 29.5838 39.7881 29.4702 39.8501C28.9639 40.098 28.4059 40.191 27.8583 40.2117C26.763 40.253 25.6987 40.067 24.7584 39.4885C24.2625 39.1889 23.8182 38.817 23.4049 38.4037C23.0225 38.0215 22.5989 37.5979 22.3716 37.1123C21.9893 36.2858 21.9686 35.4387 22.0306 34.5605C22.2373 34.5605 22.4749 34.6122 22.6609 34.6535C22.9192 34.7052 23.1672 34.7258 23.4255 34.7465C23.2602 34.4882 23.1362 34.2093 23.0225 33.9303C22.9399 33.7237 22.7436 33.4654 22.7332 33.2278C23.3532 33.0935 24.4485 33.0625 25.0374 33.0625C25.1511 33.0832 25.2647 33.1038 25.3784 33.1245C26.267 33.3105 27.1246 33.6824 27.8893 34.1886C27.9616 34.2403 28.0339 34.3022 28.1063 34.3539C28.5092 34.6845 28.8812 35.0564 29.2222 35.4593C29.5219 35.9036 29.7492 36.3891 29.9145 36.9057C30.1935 37.7942 30.3071 38.7446 29.8318 39.5505C29.8318 39.5815 29.8318 39.6125 29.8318 39.6538L29.8008 39.6435Z" fill="#AEC7E6"/>
<path d="M30.3282 39.5297C30.3695 39.6536 30.4108 39.7673 30.4315 39.9016C30.5348 40.4491 30.4832 41.0174 30.3592 41.5546C30.1112 42.6187 29.6566 43.5898 28.8403 44.3543C28.4166 44.7469 27.9413 45.0878 27.435 45.3771C26.97 45.6457 26.4534 45.935 25.9161 46.028C25.0172 46.1829 24.2009 45.966 23.3639 45.687C23.4156 45.4908 23.5292 45.2738 23.6222 45.0982C23.7359 44.8709 23.8289 44.6333 23.9115 44.3853C23.6222 44.4783 23.3226 44.53 23.0126 44.561C22.7956 44.5816 22.4856 44.7056 22.2583 44.6539C22.2893 44.0237 22.5476 42.9596 22.7129 42.3914C22.7543 42.2881 22.8059 42.1744 22.8576 42.0711C23.2709 41.2653 23.8599 40.5318 24.5418 39.9326C24.6142 39.8809 24.6865 39.8293 24.7588 39.7776C25.1825 39.478 25.6474 39.2094 26.1228 39.0028C26.6291 38.8271 27.1664 38.7342 27.7037 38.7135C28.6336 38.6722 29.5842 38.8168 30.2352 39.4987C30.2662 39.4987 30.2972 39.5193 30.3282 39.5297Z" fill="#AEC7E6"/>
<path d="M30.1845 39.4948C30.0812 39.5774 29.9882 39.6704 29.9055 39.7634C29.5439 40.187 29.3166 40.7138 29.1616 41.2511C28.8619 42.3048 28.7896 43.3793 29.1306 44.4331C29.3062 44.9909 29.5646 45.5075 29.8642 46.0137C30.1329 46.4786 30.4532 46.9849 30.8768 47.3258C31.5898 47.894 32.4061 48.111 33.274 48.2659C33.3154 48.0593 33.3257 47.8217 33.336 47.6254C33.3464 47.3671 33.3877 47.1192 33.429 46.8712C33.6357 47.0882 33.8837 47.2741 34.1316 47.4601C34.3073 47.5841 34.514 47.8424 34.7413 47.9147C35.0203 47.3465 35.3096 46.2927 35.4439 45.7141C35.4439 45.6005 35.4646 45.4868 35.4646 45.3629C35.4956 44.4641 35.3406 43.5343 35.0306 42.6768C34.9893 42.5941 34.9583 42.5115 34.9169 42.4391C34.6896 41.9639 34.421 41.5197 34.1006 41.0961C33.739 40.7035 33.3153 40.3522 32.8607 40.0733C32.0651 39.5877 31.1661 39.2571 30.2672 39.5258C30.2362 39.5258 30.2052 39.5154 30.1639 39.5051L30.1845 39.4948Z" fill="#AEC7E6"/>
<g style="mix-blend-mode:multiply">
<path d="M37.4165 40.8621C36.6519 41.0997 35.8562 41.2443 35.0606 41.2546C34.5233 41.2546 33.8723 41.2546 33.428 40.9137C33.397 40.8827 33.4177 40.8311 33.459 40.8207C34.203 40.5728 34.9573 40.3248 35.6702 39.9942C35.2673 40.0665 34.8643 40.1492 34.451 40.2009C33.8413 40.2835 33.0664 40.4281 32.4671 40.1905C31.7955 39.9322 32.4981 39.1987 32.7771 38.9301C33.5417 38.1759 34.482 37.68 35.5049 37.4114C34.513 37.4734 33.5314 37.8557 32.7461 38.4342C32.6944 38.4756 32.6427 38.4032 32.6634 38.3516C33.1801 37.4321 34.2237 36.7606 35.1743 36.368C35.7322 36.1407 36.3315 36.0064 36.9412 36.0374C37.3648 36.0581 37.7885 36.1407 38.2018 36.2337C38.0571 36.1717 37.9125 36.1097 37.7988 36.0684C37.6851 36.0374 37.5715 36.0167 37.4578 35.9857C36.5692 35.8101 35.6289 35.8204 34.7403 35.9857C34.6473 36.0064 34.5646 36.0271 34.482 36.0581C34.389 36.089 34.296 36.12 34.1927 36.151C34.3477 35.6035 34.4303 35.0456 34.4613 34.4774C34.4923 33.9402 34.5233 33.3513 34.358 32.8244C34.3167 32.6901 34.265 32.5661 34.2133 32.4421C34.2547 33.0827 34.2857 33.7025 34.2133 34.3431C34.0997 35.3039 33.8827 36.5746 33.0457 37.1945C33.0147 37.2151 32.9631 37.1945 32.9631 37.1635C32.8804 36.7399 33.0354 36.3267 33.0974 35.9031C33.1491 35.4898 33.1594 35.0146 33.0871 34.5807C32.9424 35.6241 32.7461 36.6263 32.3328 37.6077C32.0848 38.1863 31.6921 39.1057 30.9688 39.2194C30.1836 39.3434 29.8632 38.1966 29.7289 37.6387C29.5119 36.7502 29.5429 35.8721 29.6669 34.9939C29.5532 35.3245 29.4396 35.6655 29.3983 36.0064C29.3259 36.5849 29.3569 37.1738 29.3156 37.7627C29.3156 37.8247 29.2433 37.8453 29.2019 37.7937C28.799 37.1945 28.7473 36.3886 28.6853 35.6861C28.613 34.8286 28.613 33.9298 28.9229 33.124C29.1399 32.5764 29.4499 31.9566 29.8529 31.4297C29.7909 31.4917 29.7186 31.5433 29.6669 31.595C29.5946 31.688 29.5223 31.7706 29.4499 31.8739C28.9126 32.6074 28.5303 33.4649 28.303 34.3431C28.2927 34.3947 28.2823 34.4567 28.272 34.5084C28.21 34.4464 28.1377 34.3947 28.0757 34.3327C28.0033 34.2811 27.931 34.2191 27.8587 34.1674C27.342 33.8162 26.7634 33.5372 26.1641 33.3306C26.4741 33.5579 26.7841 33.7955 27.0321 34.0951C27.6727 34.87 28.1377 35.8928 28.0757 36.9155C28.0447 37.3081 27.9723 37.7317 27.6624 38.0106C27.404 38.2379 27.0424 38.145 26.7737 37.99C26.5154 37.8453 26.2571 37.68 26.0091 37.4941C26.0298 37.5251 26.0504 37.5457 26.0608 37.5767C26.1951 37.7627 26.7014 38.3412 26.4328 38.5789C26.2674 38.7235 25.8645 38.5685 25.6991 38.5065C25.3375 38.3722 25.0172 38.1863 24.7072 37.959C24.3042 37.6594 23.9426 37.2771 23.6326 36.8742C23.7669 37.1222 23.9116 37.3701 24.0872 37.5767C24.3145 37.835 24.5832 38.083 24.6865 38.4239C24.6969 38.4652 24.6658 38.4962 24.6349 38.4962C24.2629 38.5479 23.9116 38.3206 23.6326 38.0933C23.2709 37.804 22.9609 37.4631 22.6716 37.1015C22.3616 36.7192 22.1137 36.3267 22.0103 35.8514C22.0103 35.8308 22.0103 35.8204 22 35.7998C22.0413 36.244 22.1447 36.6883 22.341 37.1222C22.5683 37.6077 22.9919 38.0313 23.3743 38.4136C23.7876 38.8165 24.2319 39.1987 24.7278 39.4983C24.8105 39.5397 24.8828 39.5913 24.9655 39.6326C24.8828 39.6843 24.8105 39.736 24.7382 39.7876C24.6659 39.8393 24.5935 39.8909 24.5212 39.9426C23.8392 40.5418 23.2503 41.2753 22.837 42.0811C22.806 42.1431 22.775 42.2051 22.7543 42.2671C23.0126 41.9055 23.3019 41.5852 23.6636 41.296C24.0666 40.9757 24.5109 40.7174 24.9862 40.5315C25.5028 40.3352 26.1021 40.0872 26.6601 40.0872C26.7221 40.0872 26.7427 40.1699 26.6911 40.2009C26.3088 40.4488 25.9058 40.6348 25.5648 40.924C25.4408 41.0273 25.3168 41.141 25.1928 41.2443C25.6061 41.0067 26.0608 40.8517 26.5154 40.7587C27.1457 40.6244 27.9207 40.3765 28.5303 40.6967C28.5613 40.7174 28.5716 40.7484 28.551 40.7794C28.3856 41.1307 27.993 41.3476 27.7037 41.6059C27.3834 41.8952 27.0631 42.1741 26.7324 42.4531C27.3007 42.1741 27.807 41.7815 28.365 41.4819C28.4063 41.4613 28.4683 41.4922 28.4476 41.5439C28.0963 42.453 27.373 43.0833 26.7944 43.8374C27.4144 43.4448 27.9517 42.9386 28.4166 42.3911C28.4476 42.3497 28.52 42.3911 28.52 42.4324C28.458 43.1452 28.086 43.7858 27.6314 44.3333C27.2077 44.8396 26.7117 45.3148 26.1331 45.6351C25.8231 45.8004 25.4718 45.9657 25.0895 46.0896C25.3478 46.1 25.6061 46.0896 25.8748 46.0483C26.4121 45.9553 26.9287 45.6661 27.3937 45.3974C27.9 45.1082 28.3753 44.7776 28.799 44.3747C28.8713 44.3023 28.9436 44.23 29.0159 44.1577C29.0366 44.2507 29.0676 44.354 29.0986 44.447C29.2743 45.0049 29.5326 45.5214 29.8322 46.0276C30.1009 46.4925 30.4212 46.9988 30.8448 47.3397C31.1548 47.5876 31.4751 47.7633 31.8265 47.8976C31.4028 47.567 31.0102 47.1847 30.6899 46.7508C30.2249 46.1206 29.9459 45.3871 29.8219 44.6226C29.7186 44.0027 29.5843 43.2279 29.9356 42.67C29.9666 42.6287 30.0286 42.639 30.0492 42.6803C30.3179 43.4862 30.4005 44.354 30.8345 45.0875C30.6589 44.509 30.4729 43.9304 30.4315 43.3209C30.4005 42.8146 30.3489 42.2051 30.6795 41.7712C30.7002 41.7402 30.7519 41.7609 30.7725 41.7815C31.0722 42.1844 31.1755 42.6907 31.4545 43.0936C31.6198 43.3415 31.8161 43.5688 31.9814 43.8064C31.8575 43.4242 31.7231 43.0419 31.5578 42.6907C31.3925 42.3601 31.1548 41.9985 31.1858 41.6162C31.1858 41.5956 31.1962 41.5646 31.2272 41.5542C31.7748 41.4613 32.3018 41.9985 32.6634 42.3394C33.0974 42.7527 33.4384 43.1866 33.7483 43.6825C33.5624 43.0936 33.3247 42.515 32.9217 42.0191C32.8804 41.9675 32.9321 41.8848 32.9941 41.9262C33.9447 42.5254 34.7403 43.4655 35.1226 44.5296C35.3086 45.0565 35.3396 45.5834 35.3189 46.1103C35.3603 45.9553 35.3913 45.821 35.4223 45.697C35.4223 45.5834 35.4429 45.4698 35.4429 45.3458C35.4739 44.447 35.3189 43.5172 35.0089 42.6597C34.9676 42.577 34.9366 42.4944 34.8953 42.4221C34.854 42.3394 34.8126 42.2464 34.761 42.1638C35.0193 42.1638 35.2776 42.1534 35.5359 42.1121C36.1146 42.0191 36.6622 41.8538 37.2098 41.6369C37.7058 41.4406 38.2534 41.2133 38.6564 40.8414C39.1214 40.4178 39.421 39.9322 39.6587 39.395C39.1214 40.1182 38.2844 40.5934 37.3855 40.8724L37.4165 40.8621Z" fill="#AEC7E6"/>
</g>
<path d="M31.4455 40.2921C31.3628 40.2611 31.2698 40.2198 31.1871 40.1888C31.5695 40.1888 31.9518 40.0751 32.3237 39.8892C32.923 39.5792 33.5533 38.8664 33.6463 38.1845C33.6463 38.1122 33.5327 38.1742 33.5327 38.2259C33.4087 38.8974 32.7681 39.5173 32.1791 39.8169C31.8484 39.9822 31.4455 40.0545 31.0735 40.0441C30.9185 40.0441 30.7325 39.9718 30.6085 39.9202C30.9598 39.6825 31.3318 39.135 31.4351 38.9594C32.0138 38.0296 32.2101 37.0584 32.4684 36.0047C32.4787 35.953 32.3857 36.0047 32.3754 36.0356C32.1791 36.7795 32.0034 37.5337 31.6831 38.2362C31.5385 38.5565 31.3318 38.8561 31.1458 39.1453C31.0838 39.2383 30.7532 39.6722 30.4845 39.7962C30.7015 39.5689 30.8565 39.3003 30.9495 38.9697C30.9702 38.9077 30.8462 38.949 30.8255 38.9904C30.7635 39.1867 30.6705 39.352 30.5672 39.5276C30.4949 39.6412 30.4019 39.7342 30.3089 39.8169C30.3295 39.7652 30.3192 39.7239 30.2365 39.7445C30.1952 39.7445 30.1642 39.7755 30.1435 39.8065C30.1745 39.7755 30.2055 39.7445 30.2159 39.7032C30.2262 39.7032 30.2469 39.6826 30.2469 39.6722C30.4225 39.352 30.4638 39.0007 30.5362 38.6494C30.6085 38.2465 30.6602 37.8333 30.6395 37.4097C30.5878 36.5522 30.4535 35.6637 29.9989 34.9199C29.9782 34.8786 29.8955 34.9405 29.9162 34.9819C30.5568 36.108 30.6188 37.6886 30.3089 38.9904C30.3295 38.7321 30.3399 38.4841 30.3089 38.2155C30.2469 37.482 29.9265 36.7485 29.4822 36.17C29.4512 36.1286 29.3686 36.2009 29.3892 36.2319C29.7302 36.7485 29.9369 37.327 30.0609 37.9262C30.1229 38.2465 30.1539 38.5874 30.1229 38.9077C30.1022 39.135 30.1022 39.4656 30.0299 39.6929C29.4099 38.8664 28.8726 37.8126 28.7899 36.8002C28.7899 36.7588 28.6969 36.8002 28.6969 36.8415C28.6969 37.3994 28.8416 37.9572 29.0793 38.4635C29.2756 38.8871 29.4926 39.352 29.7716 39.7342C29.1826 39.5069 28.6866 39.135 28.201 38.6598C27.674 38.1535 27.24 37.5853 27.0334 36.8828C27.023 36.8415 26.93 36.8828 26.9404 36.9345C27.2917 38.3705 28.5936 39.6102 30.0092 40.0132C30.0092 40.0132 30.0092 40.0132 30.0195 40.0235C29.4409 40.3541 28.5316 40.1578 27.9323 40.0235C27.302 39.8892 26.4237 39.5069 26.0104 38.9904C25.9794 38.949 25.8761 39.0214 25.9071 39.0627C26.3721 39.6516 27.24 40.0441 27.953 40.2094C28.48 40.3334 29.1929 40.4574 29.7612 40.2818C29.7509 40.2921 29.7406 40.3024 29.7406 40.3024C29.5339 40.4677 29.2549 40.5504 29.0069 40.6124C28.5316 40.7363 27.891 40.8603 27.426 40.6537C27.3847 40.633 27.302 40.7053 27.3434 40.7363C27.86 41.0153 28.573 40.8603 29.1103 40.7157C29.4616 40.6227 29.8542 40.4264 30.1125 40.1371C30.0712 40.7777 29.6579 41.5628 29.1619 41.9141C29.0896 41.9657 29.1413 42.0277 29.2136 41.9864C29.5442 41.7591 29.8232 41.3872 29.9989 41.0256C30.0815 40.85 30.2882 40.4574 30.3192 40.1475C30.6912 40.8293 30.6808 41.5112 30.4329 42.2757C30.3915 42.3687 30.5568 42.3687 30.6085 42.2653C30.9495 41.6042 30.9082 40.8396 30.5568 40.2094C30.7118 40.2508 30.8772 40.2921 31.0322 40.3541C31.4868 40.5297 31.8588 40.7053 32.2101 41.0669C32.2618 41.1186 32.3857 41.0153 32.3444 40.9636C32.0654 40.6537 31.7968 40.4574 31.4145 40.3024L31.4455 40.2921Z" fill="white"/>
<path d="M15.8586 0.860768C15.772 0.777933 15.6854 0.704304 15.5796 0.639877C15.1468 0.354558 14.6466 0.198091 14.1368 0.106052C13.1364 -0.0688212 12.1361 -0.0504135 11.1838 0.336148C10.6836 0.538633 10.2219 0.805544 9.78909 1.11847C9.3851 1.40379 8.94264 1.71673 8.66369 2.12169C8.19237 2.80278 8.06733 3.54829 8 4.33062C8.19238 4.35823 8.4136 4.33983 8.59636 4.33062C8.83683 4.32142 9.0773 4.33062 9.30815 4.34903C9.12539 4.55151 8.97149 4.78161 8.82721 5.01171C8.7214 5.17738 8.50979 5.38906 8.4617 5.59155C9.00997 5.79403 10.0199 5.9597 10.5586 6.03333C10.6644 6.03333 10.7702 6.03333 10.8856 6.03333C11.7225 5.98731 12.5689 5.76642 13.3384 5.41668C13.4154 5.37986 13.4827 5.34305 13.5501 5.30623C13.9733 5.06693 14.3677 4.79081 14.7235 4.47788C15.0602 4.12814 15.3391 3.72317 15.5604 3.29058C15.9355 2.54507 16.176 1.71673 15.8393 0.943603C15.8393 0.915991 15.8393 0.888381 15.8393 0.851565L15.8586 0.860768Z" fill="#AEC7E6"/>
<path d="M20.0385 15.3259C20.0914 15.3825 20.1548 15.4392 20.2288 15.4958C20.5247 15.713 20.8841 15.8452 21.2435 15.9396C21.9623 16.119 22.6916 16.1567 23.4103 15.9396C23.7909 15.8263 24.1397 15.6752 24.4779 15.4864C24.7844 15.3165 25.1333 15.1276 25.3658 14.8633C25.7569 14.429 25.8943 13.9286 26 13.3998C25.8626 13.3715 25.6935 13.3715 25.5666 13.3621C25.3869 13.3621 25.2178 13.3338 25.0487 13.3054C25.1967 13.1733 25.3235 13.0316 25.4504 12.8806C25.5349 12.7673 25.704 12.6445 25.7569 12.5029C25.3764 12.333 24.647 12.163 24.2559 12.078C24.182 12.078 24.0974 12.0686 24.0234 12.0686C23.4103 12.0497 22.7761 12.1536 22.1948 12.3424C22.1419 12.3613 22.0785 12.3896 22.0257 12.4085C21.7086 12.5501 21.402 12.7201 21.1167 12.9089C20.8524 13.126 20.6199 13.3904 20.4296 13.6642C20.1019 14.1457 19.88 14.7028 20.0702 15.2409C20.0702 15.2598 20.0702 15.2787 20.0597 15.2976L20.0385 15.3259Z" fill="#AEC7E6"/>
<path d="M0.27114 75.077C0.216026 75.2019 0.160908 75.3268 0.12784 75.4632C-0.0264768 76.0311 -0.0264764 76.6331 0.0506819 77.2124C0.204999 78.3596 0.579772 79.4273 1.32931 80.2906C1.72613 80.7563 2.17805 81.1425 2.66305 81.4946C3.11498 81.824 3.61099 82.1761 4.1511 82.3238C5.05496 82.5737 5.9037 82.426 6.78551 82.2102C6.74142 81.9944 6.65324 81.7559 6.57608 81.5628C6.47688 81.3129 6.41074 81.0516 6.34461 80.7904C6.6312 80.9153 6.92881 80.9948 7.23744 81.063C7.45789 81.1084 7.75551 81.2675 7.998 81.2334C8.02005 80.5746 7.85471 79.4273 7.74448 78.814C7.71141 78.7004 7.66732 78.5754 7.62323 78.4732C7.28153 77.5872 6.74142 76.758 6.10211 76.0652C6.03597 75.997 5.96984 75.9402 5.9037 75.8721C5.49587 75.5086 5.05496 75.1905 4.59201 74.9179C4.09599 74.6908 3.55588 74.5431 3.01577 74.4636C2.07885 74.3386 1.08682 74.3954 0.359323 75.0429C0.326255 75.0429 0.293182 75.0542 0.260115 75.0656L0.27114 75.077Z" fill="#AEC7E6"/>
</svg>
