<svg width="54" height="55" viewBox="0 0 54 55" fill="none" xmlns="http://www.w3.org/2000/svg">
<path d="M25.5101 28.4412C25.8803 28.4103 26.2813 28.3178 26.6515 28.2253C28.2555 27.7625 29.7053 26.868 30.9701 25.7883C33.4687 23.6907 35.4429 21.1612 36.3992 17.9839C36.8927 16.3182 37.1395 14.5908 37.2321 12.8633C37.3246 11.2592 37.4172 9.50096 36.9236 7.92775C36.1216 5.30573 34.4558 3.42403 32.5741 1.57319C32.1114 2.00506 31.7104 2.59116 31.3402 3.02302C30.8775 3.63996 30.384 4.19523 29.8287 4.75048C29.6745 3.85591 29.3969 2.99217 29.0884 2.12845C28.8725 1.5115 28.7799 0.555251 28.3172 0C26.6823 0.925418 24.1837 3.05387 22.8881 4.25692C22.6722 4.53454 22.4562 4.78133 22.2403 5.0898C20.6362 7.27996 19.4949 9.84028 18.8163 12.4623C18.7546 12.7399 18.7237 12.9867 18.6929 13.2335C18.4461 14.7758 18.3844 16.349 18.4461 17.9223C18.662 19.4955 19.1247 21.0687 19.8034 22.5185C20.9447 25.048 22.6105 27.3924 25.2942 28.2253C25.3559 28.287 25.4176 28.3486 25.5101 28.4412Z" fill="#AEC7E6"/>
<path d="M26.4333 30.2287C26.6184 30.568 26.8652 30.8765 27.112 31.1541C28.2225 32.4189 29.6415 33.3443 31.153 34.0229C34.1143 35.411 37.2607 36.1205 40.5306 35.5961C42.258 35.3185 43.8929 34.8249 45.5278 34.1771C47.0085 33.591 48.6434 32.9124 49.8464 31.8019C51.8515 29.9511 52.8695 27.6375 53.7332 25.1697C53.1471 24.9538 52.4376 24.7996 51.8823 24.707C51.1112 24.5528 50.4017 24.3369 49.6922 24.0592C50.4325 23.5348 51.1112 22.9179 51.759 22.2701C52.2217 21.8074 53.0545 21.3138 53.363 20.666C51.8206 19.5864 48.8285 18.2291 47.1936 17.5505C46.8542 17.4579 46.5149 17.3962 46.1756 17.3037C43.5227 16.7793 40.7156 16.8101 38.0628 17.3037C37.7851 17.3654 37.5384 17.4271 37.2916 17.5196C35.7801 17.9823 34.3303 18.5684 32.9421 19.3088C31.5848 20.1725 30.4126 21.2521 29.3638 22.486C27.5747 24.5837 26.1557 27.0823 26.5259 29.8585C26.495 29.9511 26.4642 30.0436 26.4333 30.1362V30.2287Z" fill="#AEC7E6"/>
<path d="M23.2885 28.2864C22.9801 28.5024 22.6407 28.7183 22.3014 28.9034C20.7899 29.6437 19.1242 29.9214 17.4893 29.983C14.2194 30.1064 11.0422 29.5512 8.23508 27.8237C6.75441 26.9292 5.42798 25.8187 4.19409 24.5848C3.05274 23.4434 1.788 22.1787 1.10936 20.7289C-0.0319854 18.2611 -0.0936855 15.7316 0.0913981 13.1096C0.708344 13.1096 1.41783 13.2638 1.97308 13.3872C2.74427 13.5414 3.48459 13.6031 4.25577 13.6648C3.76222 12.8937 3.39205 12.0608 3.05273 11.2279C2.80596 10.611 2.21986 9.83977 2.18901 9.13029C4.03985 8.72927 7.30965 8.63672 9.06794 8.63672C9.40726 8.69841 9.74659 8.76012 10.0859 8.82182C12.7388 9.37707 15.2991 10.4876 17.5818 11.9991C17.7977 12.1533 18.0137 12.3384 18.2296 12.4926C19.4326 13.4797 20.5431 14.5902 21.5611 15.7933C22.4557 17.1197 23.1343 18.5695 23.6279 20.1119C24.4607 22.7648 24.8001 25.6027 23.3811 28.0088C23.3811 28.1013 23.3811 28.1939 23.3811 28.3173L23.2885 28.2864Z" fill="#AEC7E6"/>
<path d="M24.8632 27.9484C24.9866 28.3186 25.11 28.6579 25.1717 29.0589C25.4801 30.6938 25.3259 32.3904 24.9557 33.9945C24.2154 37.1718 22.8581 40.0714 20.4212 42.3541C19.1564 43.5263 17.7375 44.5443 16.226 45.408C14.8378 46.21 13.2955 47.0737 11.6914 47.3514C9.00771 47.8141 6.57077 47.1663 4.07214 46.3334C4.22638 45.7473 4.5657 45.0995 4.84332 44.5751C5.18264 43.8965 5.46027 43.187 5.70704 42.4466C4.84332 42.7243 3.94874 42.8785 3.02332 42.9711C2.37553 43.0328 1.45012 43.4029 0.771484 43.2487C0.864026 41.367 1.63519 38.1897 2.12875 36.4931C2.25214 36.1846 2.4064 35.8453 2.56063 35.5369C3.79452 33.1308 5.55281 30.9406 7.58873 29.1515C7.80466 28.9972 8.02059 28.843 8.23652 28.6888C9.50126 27.7942 10.8894 26.9922 12.3084 26.3752C13.8199 25.8508 15.4239 25.5732 17.028 25.5115C19.8042 25.3881 22.6422 25.82 24.5856 27.8559C24.6781 27.8559 24.7707 27.9176 24.8632 27.9484Z" fill="#AEC7E6"/>
<path d="M24.4296 27.8544C24.1212 28.1012 23.8435 28.3789 23.5968 28.6565C22.5171 29.9212 21.8385 31.4944 21.3758 33.0985C20.4812 36.2449 20.2653 39.453 21.2832 42.5994C21.8076 44.2652 22.5788 45.8076 23.4734 47.3191C24.2754 48.7072 25.2317 50.2187 26.4964 51.2367C28.6249 52.9333 31.0618 53.5811 33.653 54.0438C33.7764 53.4268 33.8072 52.7174 33.8381 52.1313C33.8689 51.3601 33.9923 50.6197 34.1157 49.8794C34.7326 50.5272 35.473 51.0824 36.2133 51.6377C36.7377 52.0079 37.3547 52.779 38.0333 52.995C38.8662 51.2984 39.7299 48.1519 40.1309 46.4245C40.1309 46.0852 40.1926 45.7459 40.1926 45.3757C40.2851 42.692 39.8224 39.9157 38.897 37.3554C38.7736 37.1086 38.6811 36.8618 38.5577 36.6459C37.879 35.2269 37.077 33.9005 36.1208 32.6358C35.0411 31.4636 33.7763 30.4148 32.4191 29.5819C30.0438 28.1321 27.3601 27.145 24.6764 27.947C24.5839 27.947 24.4913 27.9162 24.368 27.8853L24.4296 27.8544Z" fill="#AEC7E6"/>
<g style="mix-blend-mode:multiply">
<path d="M46.0241 31.9253C43.7414 32.6348 41.3662 33.0666 38.9909 33.0975C37.3869 33.0975 35.4435 33.0975 34.1171 32.0795C34.0245 31.987 34.0862 31.8327 34.2096 31.8019C36.4306 31.0615 38.6825 30.3212 40.8109 29.3341C39.6079 29.55 38.4048 29.7968 37.1709 29.951C35.351 30.1978 33.0374 30.6297 31.2483 29.9202C29.2432 29.149 31.3408 26.9589 32.1737 26.1568C34.4564 23.905 37.2635 22.4243 40.3174 21.6223C37.356 21.8074 34.4256 22.9487 32.0812 24.6762C31.9269 24.7996 31.7727 24.5836 31.8344 24.4294C33.3767 21.684 36.4923 19.6789 39.3303 18.5067C40.996 17.8281 42.7852 17.4271 44.6052 17.5196C45.8699 17.5813 47.1346 17.8281 48.3685 18.1057C47.9367 17.9206 47.5048 17.7355 47.1655 17.6121C46.8262 17.5196 46.4868 17.4579 46.1475 17.3654C43.4946 16.841 40.6876 16.8718 38.0347 17.3654C37.7571 17.427 37.5103 17.4887 37.2635 17.5813C36.9859 17.6738 36.7082 17.7664 36.3998 17.8589C36.8625 16.224 37.1093 14.5583 37.2018 12.8617C37.2943 11.2576 37.3869 9.49931 36.8933 7.9261C36.7699 7.52508 36.6157 7.15491 36.4615 6.78474C36.5849 8.69727 36.6774 10.5481 36.4615 12.4606C36.1222 15.3294 35.4743 19.1236 32.9757 20.9745C32.8832 21.0362 32.729 20.9745 32.729 20.8819C32.4822 19.6172 32.9449 18.3833 33.13 17.1186C33.2842 15.8847 33.315 14.4657 33.0991 13.1701C32.6672 16.2857 32.0812 19.2779 30.8473 22.2084C30.1069 23.9358 28.9347 26.6812 26.7754 27.0205C24.431 27.3907 23.4748 23.9667 23.0737 22.3009C22.426 19.648 22.5185 17.026 22.8887 14.404C22.5493 15.3911 22.21 16.4091 22.0866 17.4271C21.8707 19.1545 21.9633 20.9128 21.8399 22.6711C21.8399 22.8562 21.6239 22.9179 21.5006 22.7636C20.2975 20.9745 20.1433 18.5684 19.9582 16.4708C19.7423 13.9105 19.7422 11.2268 20.6677 8.82067C21.3155 7.18576 22.2409 5.33493 23.4439 3.76172C23.2588 3.9468 23.0429 4.10103 22.8887 4.25526C22.6727 4.53289 22.4568 4.77968 22.2409 5.08815C20.6368 7.27831 19.4955 9.83863 18.8168 12.4606C18.786 12.6149 18.7551 12.8 18.7243 12.9542C18.5392 12.7691 18.3233 12.6149 18.1382 12.4298C17.9223 12.2756 17.7063 12.0905 17.4904 11.9362C15.948 10.8874 14.2206 10.0546 12.4314 9.43761C13.3569 10.1162 14.2823 10.8257 15.0226 11.7203C16.9351 14.0338 18.3233 17.0877 18.1382 20.1416C18.0456 21.3138 17.8297 22.5785 16.9043 23.4114C16.1331 24.0901 15.0535 23.8124 14.2514 23.3497C13.4802 22.9179 12.7091 22.4243 11.9687 21.8691C12.0304 21.9616 12.0921 22.0233 12.123 22.1158C12.524 22.6711 14.0355 24.3985 13.2335 25.108C12.7399 25.5399 11.5369 25.0772 11.0433 24.8921C9.96367 24.4911 9.00739 23.9358 8.08197 23.2572C6.87893 22.3626 5.79929 21.2213 4.87387 20.0182C5.27489 20.7586 5.70673 21.4989 6.23114 22.1158C6.90978 22.887 7.71181 23.6274 8.02029 24.6453C8.05113 24.7687 7.95858 24.8612 7.86604 24.8612C6.75554 25.0155 5.70675 24.3368 4.87387 23.6582C3.79422 22.7945 2.8688 21.7765 2.00508 20.6969C1.07966 19.5555 0.339303 18.3833 0.0308303 16.9643C0.0308303 16.9027 0.0308473 16.8718 0 16.8101C0.123389 18.1365 0.431867 19.463 1.01797 20.7585C1.69661 22.2084 2.96134 23.4731 4.10269 24.6145C5.33658 25.8175 6.66301 26.9589 8.14368 27.8534C8.39046 27.9768 8.60637 28.131 8.85315 28.2544C8.60637 28.4087 8.39046 28.5629 8.17453 28.7172C7.9586 28.8714 7.74265 29.0256 7.52672 29.1799C5.4908 30.969 3.73251 33.1592 2.49862 35.5653C2.40608 35.7503 2.31353 35.9354 2.25184 36.1205C3.02302 35.0408 3.88676 34.0846 4.96641 33.2208C6.16946 32.2646 7.49588 31.4934 8.91486 30.9382C10.4572 30.3521 12.2463 29.6117 13.9121 29.6117C14.0972 29.6117 14.1589 29.8585 14.0047 29.951C12.8633 30.6914 11.6603 31.2466 10.6423 32.1103C10.2721 32.4188 9.90196 32.7582 9.5318 33.0666C10.7657 32.3571 12.123 31.8944 13.4802 31.6168C15.3619 31.2158 17.6755 30.4754 19.4955 31.4317C19.588 31.4934 19.6189 31.5859 19.5572 31.6785C19.0636 32.7273 17.8914 33.3751 17.0277 34.1463C16.0714 35.01 15.1152 35.8429 14.1281 36.6758C15.8247 35.8429 17.3362 34.6707 19.0019 33.7761C19.1253 33.7144 19.3104 33.8069 19.2487 33.9612C18.1999 36.6757 16.0406 38.5574 14.3131 40.8093C16.164 39.6371 17.768 38.1256 19.1562 36.4907C19.2487 36.3673 19.4646 36.4907 19.4646 36.614C19.2795 38.7425 18.169 40.6551 16.8118 42.29C15.547 43.8015 14.0664 45.2205 12.3389 46.1767C11.4135 46.6703 10.3647 47.1638 9.22333 47.534C9.99451 47.5648 10.7657 47.534 11.5677 47.4106C13.1718 47.133 14.7142 46.2692 16.1023 45.4672C17.6138 44.6035 19.0328 43.6164 20.2975 42.4133C20.5134 42.1974 20.7294 41.9815 20.9453 41.7656C21.007 42.0432 21.0995 42.3517 21.1921 42.6293C21.7165 44.295 22.4877 45.8374 23.3822 47.3489C24.1843 48.737 25.1405 50.2485 26.4053 51.2665C27.3307 52.0068 28.2869 52.5312 29.3357 52.9323C28.071 51.9451 26.8988 50.8038 25.9425 49.5082C24.5544 47.6265 23.7215 45.4364 23.3514 43.1537C23.0429 41.3028 22.6419 38.9893 23.6907 37.3235C23.7832 37.2002 23.9683 37.231 24.03 37.3544C24.8321 39.7605 25.0788 42.3516 26.3744 44.5418C25.85 42.8143 25.2948 41.0869 25.1714 39.2669C25.0788 37.7554 24.9246 35.9354 25.9117 34.6398C25.9734 34.5473 26.1276 34.609 26.1893 34.6707C27.0839 35.8737 27.3924 37.3852 28.2253 38.5883C28.7188 39.3286 29.3049 40.0073 29.7985 40.7167C29.4283 39.5754 29.0273 38.434 28.5337 37.3852C28.0402 36.3981 27.3307 35.3185 27.4232 34.1771C27.4232 34.1154 27.4541 34.0229 27.5466 33.992C29.1815 33.7144 30.7547 35.3185 31.8344 36.3364C33.13 37.5703 34.1479 38.8659 35.0733 40.3466C34.5181 38.5883 33.8086 36.8608 32.6056 35.3802C32.4822 35.2259 32.6364 34.9791 32.8215 35.1025C35.6594 36.8917 38.0347 39.6988 39.176 42.8761C39.7313 44.4493 39.8238 46.0225 39.7621 47.5957C39.8855 47.133 39.9781 46.732 40.0706 46.3618C40.0706 46.0225 40.1323 45.6831 40.1323 45.313C40.2248 42.6293 39.7621 39.853 38.8367 37.2927C38.7133 37.0459 38.6208 36.7991 38.4974 36.5832C38.374 36.3364 38.2506 36.0588 38.0964 35.812C38.8676 35.812 39.6387 35.7812 40.4099 35.6578C42.1374 35.3802 43.7723 34.8866 45.4072 34.2388C46.8879 33.6527 48.5227 32.9741 49.7258 31.8636C51.1139 30.5988 52.0085 29.149 52.718 27.545C51.1139 29.7043 48.6153 31.1232 45.9316 31.9561L46.0241 31.9253Z" fill="#AEC7E6"/>
</g>
<path d="M28.1938 30.2297C27.9471 30.1372 27.6694 30.0138 27.4227 29.9212C28.564 29.9212 29.7053 29.5819 30.8158 29.0267C32.605 28.1012 34.4867 25.9728 34.7643 23.9369C34.7643 23.7209 34.425 23.906 34.425 24.0602C34.0548 26.0653 32.1423 27.9162 30.384 28.8107C29.3969 29.3043 28.1938 29.5202 27.0833 29.4894C26.6206 29.4894 26.0654 29.2734 25.6952 29.1192C26.744 28.4097 27.8545 26.7748 28.163 26.2504C29.8904 23.4741 30.4765 20.5745 31.2477 17.4281C31.2786 17.2739 31.0009 17.4281 30.9701 17.5206C30.384 19.7416 29.8596 21.9935 28.9033 24.0911C28.4714 25.0474 27.8545 25.9419 27.2993 26.8057C27.1142 27.0833 26.1271 28.3789 25.325 28.749C25.9728 28.0704 26.4355 27.2684 26.7132 26.2813C26.7749 26.0962 26.4047 26.2196 26.343 26.343C26.1579 26.9291 25.8803 27.4226 25.5718 27.947C25.3559 28.2863 25.0783 28.564 24.8006 28.8107C24.8623 28.6565 24.8315 28.5331 24.5847 28.5948C24.4613 28.5948 24.3688 28.6873 24.3071 28.7799C24.3996 28.6873 24.4922 28.5948 24.523 28.4714C24.5539 28.4714 24.6155 28.4097 24.6155 28.3789C25.1399 27.4226 25.2633 26.3738 25.4793 25.325C25.6952 24.122 25.8494 22.888 25.7878 21.6233C25.6335 19.063 25.2325 16.4101 23.8752 14.1891C23.8135 14.0657 23.5667 14.2508 23.6284 14.3742C25.541 17.7366 25.7261 22.4562 24.8006 26.343C24.8623 25.5718 24.8932 24.8314 24.8006 24.0294C24.6156 21.8393 23.6593 19.6491 22.3329 17.9216C22.2403 17.7983 21.9935 18.0142 22.0552 18.1067C23.0732 19.6491 23.6901 21.3765 24.0603 23.1657C24.2454 24.1219 24.3379 25.1399 24.2454 26.0962C24.1837 26.7748 24.1837 27.7619 23.9678 28.4406C22.1169 25.9728 20.5129 22.8264 20.2661 19.8033C20.2661 19.6799 19.9885 19.8033 19.9885 19.9267C19.9885 21.5925 20.4203 23.2582 21.1298 24.7697C21.7159 26.0345 22.3637 27.4226 23.1966 28.5639C21.4383 27.8853 19.9576 26.7748 18.5078 25.3559C16.9346 23.8443 15.639 22.1477 15.022 20.0501C14.9912 19.9267 14.7136 20.0501 14.7444 20.2043C15.7932 24.4921 19.68 28.1938 23.9061 29.3968C23.9061 29.3968 23.9061 29.3968 23.9369 29.4277C22.2095 30.4148 19.4949 29.8287 17.7058 29.4277C15.8241 29.0267 13.2021 27.8853 11.9682 26.343C11.8756 26.2196 11.5672 26.4355 11.6597 26.5589C13.0478 28.3172 15.639 29.4894 17.7674 29.9829C19.3407 30.3531 21.4691 30.7233 23.1657 30.1989C23.1349 30.2297 23.104 30.2606 23.104 30.2606C22.4871 30.7541 21.6542 31.0009 20.9139 31.186C19.4949 31.5562 17.5824 31.9263 16.1943 31.3094C16.0709 31.2477 15.8241 31.4636 15.9475 31.5561C17.4898 32.389 19.6183 31.9263 21.2223 31.4945C22.2712 31.2168 23.4434 30.6307 24.2145 29.767C24.0911 31.6795 22.8573 34.0239 21.3766 35.0727C21.1607 35.227 21.3149 35.412 21.5308 35.2887C22.5179 34.61 23.3508 33.4995 23.8752 32.4199C24.122 31.8955 24.7389 30.7233 24.8315 29.7978C25.942 31.8338 25.9111 33.8697 25.1708 36.1524C25.0474 36.43 25.541 36.43 25.6952 36.1215C26.7132 34.1473 26.5898 31.8646 25.541 29.9829C26.0037 30.1063 26.4972 30.2297 26.9599 30.4148C28.3172 30.9392 29.4277 31.4636 30.4765 32.5432C30.6308 32.6975 31.0009 32.389 30.8775 32.2348C30.0447 31.3094 29.2426 30.7233 28.1013 30.2606L28.1938 30.2297Z" fill="white"/>
</svg>
