<svg width="27" height="22" viewBox="0 0 27 22" fill="none" xmlns="http://www.w3.org/2000/svg">
<path d="M25.5733 3.69742C25.2957 3.41979 25.0181 3.17302 24.6787 2.95709C23.2906 2.00082 21.6865 1.47641 20.0516 1.16794C16.8435 0.581841 13.6354 0.643536 10.5815 1.93912C8.97747 2.61776 7.49679 3.51233 6.10866 4.56114C4.81308 5.5174 3.39411 6.56621 2.49954 7.92349C0.988023 10.2062 0.587025 12.7048 0.371094 15.3268C0.988039 15.4194 1.69751 15.3577 2.28361 15.3268C3.05479 15.296 3.82597 15.3268 4.5663 15.3885C3.9802 16.0672 3.48665 16.8384 3.02394 17.6095C2.68462 18.1648 2.00599 18.8743 1.85175 19.5529C3.61004 20.2316 6.84901 20.7868 8.57646 21.0336C8.91577 21.0336 9.25511 21.0336 9.62527 21.0336C12.309 20.8793 15.0235 20.139 17.4913 18.9668C17.7381 18.8434 17.954 18.72 18.17 18.5967C19.5272 17.7946 20.792 16.8692 21.9333 15.8204C23.013 14.6482 23.9075 13.2909 24.617 11.8411C25.8201 9.34246 26.5913 6.56621 25.5116 3.97504C25.5116 3.8825 25.5116 3.78996 25.5116 3.66657L25.5733 3.69742Z" fill="#AEC7E6"/>
</svg>
