<svg width="19" height="14" viewBox="0 0 19 14" fill="none" xmlns="http://www.w3.org/2000/svg">
<path d="M0.710036 10.6495C0.864273 10.8346 1.04933 11.0196 1.26526 11.2047C2.12899 11.9142 3.17777 12.3461 4.22658 12.6546C6.32419 13.2406 8.45271 13.364 10.5503 12.6546C11.6608 12.2844 12.6788 11.7908 13.6659 11.1739C14.5605 10.6186 15.5784 10.0017 16.2571 9.13796C17.3984 7.71899 17.7994 6.08408 18.1078 4.35663C17.7068 4.26409 17.2134 4.26411 16.8432 4.23326C16.3188 4.23326 15.8252 4.1407 15.3316 4.04816C15.7635 3.6163 16.1337 3.1536 16.5038 2.66004C16.7506 2.28988 17.2442 1.88886 17.3984 1.42615C16.2879 0.870896 14.1594 0.315655 13.0181 0.0380296C12.8021 0.0380296 12.5554 0.00717574 12.3394 0.00717574C10.5503 -0.0545188 8.69951 0.284804 7.00291 0.901749C6.84867 0.963444 6.66357 1.05598 6.50934 1.11768C5.58392 1.58039 4.6893 2.13564 3.85642 2.75258C3.08524 3.46207 2.40662 4.3258 1.85137 5.22037C0.895105 6.79358 0.247324 8.61357 0.802575 10.3719C0.802575 10.4336 0.802544 10.4952 0.771697 10.5569L0.710036 10.6495Z" fill="#AEC7E6"/>
</svg>
