<svg width="54" height="55" viewBox="0 0 54 55" fill="none" xmlns="http://www.w3.org/2000/svg">
<path d="M25.5277 29.258C25.8979 29.2272 26.2989 29.1654 26.669 29.0421C28.2731 28.5794 29.7229 27.6848 30.9876 26.6051C33.4863 24.5075 35.4605 21.9781 36.4168 18.8008C36.9104 17.135 37.1571 15.4076 37.2496 13.6801C37.3422 12.0761 37.4347 10.3178 36.9411 8.77543C36.1391 6.15341 34.4734 4.27169 32.5917 2.42085C32.129 2.85271 31.728 3.43881 31.3578 3.87068C30.8951 4.48762 30.4016 5.04286 29.8463 5.59811C29.6921 4.70354 29.4145 3.83985 29.106 2.97613C28.8901 2.35918 28.7975 1.40291 28.3348 0.847656C26.6999 1.77307 24.2013 3.90155 22.9057 5.10459C22.6897 5.38222 22.4738 5.62896 22.2579 5.93744C20.6539 8.12759 19.5125 10.6879 18.8338 13.3099C18.7721 13.5876 18.7412 13.8343 18.7104 14.0811C18.4636 15.6235 18.402 17.1967 18.4637 18.7699C18.6796 20.3431 19.1423 21.9164 19.821 23.3662C20.9623 25.8956 22.628 28.24 25.3118 29.0729C25.3735 29.1346 25.4352 29.2271 25.5277 29.2888V29.258Z" fill="#AEC7E6"/>
<path d="M26.4551 31.0447C26.6402 31.384 26.8869 31.6925 27.1337 31.9701C28.2442 33.2349 29.6632 34.1603 31.1747 34.8389C34.136 36.1962 37.2825 36.9365 40.5523 36.4121C42.2798 36.1345 43.9146 35.641 45.5495 34.9932C47.0302 34.4071 48.6651 33.7284 49.8681 32.6179C51.8732 30.7671 52.8912 28.4535 53.7549 25.9549C53.1688 25.739 52.4593 25.5848 51.9041 25.4922C51.1329 25.338 50.4234 25.122 49.7139 24.8444C50.4543 24.32 51.1329 23.7031 51.7807 23.0553C52.2434 22.5926 53.0763 22.099 53.3848 21.4512C51.8424 20.3716 48.8502 19.0143 47.2153 18.3356C46.876 18.2431 46.5366 18.1814 46.1973 18.0889C43.5444 17.5645 40.7373 17.5953 38.0845 18.0889C37.8377 18.1505 37.5601 18.2431 37.3133 18.3048C35.8018 18.7675 34.352 19.3536 32.9639 20.094C31.6066 20.9577 30.4344 22.0373 29.3856 23.2712C27.5965 25.3688 26.1774 27.8983 26.5476 30.6745C26.5168 30.7671 26.4859 30.8596 26.4551 30.9522V31.0447Z" fill="#AEC7E6"/>
<path d="M23.2768 29.1029C22.9683 29.3188 22.629 29.5347 22.2897 29.7198C20.7781 30.4601 19.1124 30.7378 17.4775 30.7995C14.2077 30.9229 11.0304 30.3676 8.22332 28.6401C6.74265 27.7456 5.41622 26.6351 4.18233 25.4012C3.04098 24.2907 1.77625 22.9951 1.09761 21.5453C-0.0437432 19.0775 -0.105396 16.548 0.0796873 13.926C0.696633 13.926 1.40607 14.0802 1.96133 14.2036C2.73251 14.3579 3.47281 14.4196 4.24399 14.4812C3.75044 13.7101 3.38032 12.8772 3.041 12.0443C2.79422 11.4274 2.20813 10.6562 2.17728 9.94669C4.02812 9.54568 7.29796 9.45312 9.05625 9.45312C9.39557 9.51482 9.73485 9.57655 10.0742 9.63825C12.727 10.1935 15.2873 11.304 17.57 12.8155C17.786 12.9697 18.002 13.1548 18.2179 13.309C19.4209 14.2961 20.5314 15.4067 21.5494 16.6097C22.4439 17.9361 23.1226 19.386 23.6162 20.9283C24.449 23.5812 24.7883 26.4192 23.3693 28.8253C23.3693 28.9178 23.3693 29.0103 23.3693 29.1029H23.2768Z" fill="#AEC7E6"/>
<path d="M24.8495 28.7656C24.9729 29.1357 25.0963 29.5059 25.158 29.8761C25.4665 31.511 25.3122 33.2075 24.9421 34.8116C24.2017 37.9889 22.8444 40.8885 20.4075 43.1712C19.1428 44.3743 17.7237 45.3614 16.2122 46.2251C14.8241 47.0272 13.2817 47.8909 11.6777 48.1685C8.99397 48.6312 6.55703 47.9834 4.0584 47.1505C4.21264 46.5644 4.55196 45.9166 4.82958 45.3922C5.1689 44.7136 5.44652 44.0041 5.6933 43.2638C4.82958 43.5414 3.93502 43.6956 3.0096 43.7882C2.36181 43.8499 1.43645 44.22 0.757812 44.0658C0.850354 42.1841 1.62154 39.0069 2.1151 37.3103C2.23849 37.0018 2.39268 36.6624 2.54691 36.354C3.7808 33.9479 5.53911 31.7577 7.57503 29.9686C7.79096 29.8144 8.00687 29.6601 8.2228 29.5059C9.48754 28.5805 10.8757 27.8093 12.2947 27.1923C13.8062 26.6679 15.4102 26.3903 17.0143 26.3286C19.7905 26.2361 22.6285 26.6371 24.5719 28.673C24.6645 28.673 24.757 28.7347 24.8495 28.7656Z" fill="#AEC7E6"/>
<path d="M24.4176 28.6436C24.1092 28.8903 23.8316 29.168 23.5848 29.4456C22.5052 30.7104 21.8265 32.2836 21.3638 33.8876C20.4692 37.034 20.2533 40.2421 21.2713 43.3885C21.7957 45.0543 22.5668 46.5967 23.4614 48.1082C24.2634 49.4963 25.2197 51.0078 26.4845 52.0258C28.6129 53.7224 31.0499 54.3702 33.641 54.8329C33.7644 54.216 33.7953 53.5065 33.8261 52.9204C33.857 52.1492 33.9495 51.4089 34.1037 50.6377C34.7207 51.2855 35.461 51.8407 36.2013 52.396C36.7257 52.7662 37.3427 53.5373 38.0213 53.7224C38.8542 52.0258 39.7179 48.8794 40.1189 47.1519C40.1189 46.8126 40.1807 46.4733 40.1807 46.1031C40.2732 43.4194 39.8104 40.6432 38.885 38.0829C38.7616 37.8361 38.6691 37.5893 38.5458 37.3425C37.8671 35.9235 37.0651 34.5971 36.1088 33.3324C35.0291 32.1602 33.7644 31.1113 32.4071 30.2785C30.0318 28.8286 27.3482 27.8107 24.6645 28.6436C24.5719 28.6436 24.4794 28.6127 24.356 28.6127L24.4176 28.6436Z" fill="#AEC7E6"/>
<g style="mix-blend-mode:multiply">
<path d="M46.0417 32.7147C43.759 33.4242 41.3838 33.8561 39.0086 33.8869C37.4045 33.8869 35.4611 33.9178 34.1347 32.869C34.0421 32.7764 34.1038 32.6222 34.2272 32.5913C36.4482 31.851 38.7001 31.1107 40.8286 30.1236C39.6255 30.3395 38.4225 30.5863 37.1886 30.7405C35.3686 30.9873 33.055 31.4192 31.2659 30.7097C29.2608 29.9385 31.3585 27.7483 32.1914 26.9463C34.4741 24.6945 37.2811 23.2138 40.335 22.4117C37.3736 22.5968 34.4432 23.7382 32.0988 25.4656C31.9446 25.589 31.7903 25.3731 31.852 25.2188C33.3943 22.4426 36.5099 20.4683 39.3478 19.2961C41.0136 18.6175 42.8028 18.2165 44.6228 18.3091C45.9184 18.3708 47.1523 18.5867 48.3862 18.8952C47.9543 18.7101 47.5224 18.525 47.1831 18.4016C46.8438 18.3091 46.5045 18.2474 46.1652 18.1548C43.5123 17.6304 40.7052 17.6613 38.0523 18.1548C37.8055 18.2165 37.5279 18.3091 37.2811 18.3708C37.0035 18.4633 36.7259 18.5558 36.4174 18.6484C36.8801 17.0135 37.1268 15.3477 37.2194 13.6511C37.3119 12.047 37.4045 10.2887 36.911 8.74638C36.7876 8.34537 36.6642 7.97522 36.4791 7.60505C36.6025 9.51758 36.695 11.3684 36.4791 13.2809C36.1398 16.1497 35.4919 19.9439 32.9933 21.7948C32.9008 21.8565 32.7466 21.7948 32.7466 21.7022C32.4998 20.4375 32.9625 19.2036 33.1476 17.9389C33.3018 16.705 33.3327 15.286 33.1167 13.9904C32.6849 17.106 32.0987 20.0982 30.8648 23.0287C30.1245 24.787 28.9524 27.5015 26.7931 27.8409C24.4487 28.211 23.4924 24.787 23.0914 23.1212C22.4436 20.4684 22.5361 17.8772 22.9063 15.2243C22.567 16.2114 22.2276 17.2294 22.1042 18.2473C21.8883 19.9748 21.9809 21.7331 21.8575 23.4914C21.8575 23.6765 21.6415 23.7381 21.5181 23.5839C20.3151 21.7948 20.1608 19.3887 19.9758 17.2911C19.7598 14.7308 19.7599 12.0471 20.6853 9.64098C21.3331 8.00608 22.2585 6.15524 23.4615 4.58203C23.2764 4.76711 23.0605 4.92132 22.9063 5.07555C22.6904 5.35318 22.4745 5.59997 22.2585 5.90844C20.6545 8.0986 19.5131 10.6589 18.8344 13.2809C18.8036 13.4352 18.7727 13.6203 18.7419 13.7745C18.5568 13.5894 18.3409 13.4352 18.1558 13.2501C17.9399 13.0959 17.724 12.9108 17.508 12.7565C15.9657 11.7077 14.2382 10.8749 12.449 10.2579C13.3744 10.9366 14.2998 11.646 15.0402 12.5406C16.9527 14.8541 18.3409 17.908 18.1558 20.9619C18.0632 22.1341 17.8473 23.4297 16.9219 24.2317C16.1507 24.9104 15.071 24.6327 14.269 24.17C13.4978 23.7382 12.7267 23.2446 11.9863 22.6894C12.048 22.7819 12.1098 22.8436 12.1406 22.9361C12.5416 23.4914 14.0531 25.2188 13.2511 25.9592C12.7575 26.391 11.5545 25.9283 11.061 25.7433C9.9813 25.3422 9.02497 24.787 8.09955 24.1083C6.8965 23.2137 5.81692 22.0724 4.8915 20.8694C5.29251 21.6097 5.72438 22.35 6.24879 22.967C6.92743 23.7382 7.72941 24.4785 8.03789 25.4965C8.06873 25.6199 7.97623 25.7124 7.88369 25.7124C6.77319 25.8666 5.72438 25.188 4.8915 24.5093C3.81185 23.6456 2.88645 22.6277 2.02273 21.5789C1.09731 20.4375 0.356928 19.2653 0.0484555 17.8463C0.0484555 17.7846 0.0484254 17.7538 0.0175781 17.6921C0.140967 19.0186 0.449493 20.345 1.03559 21.6406C1.71423 23.0904 2.97897 24.3551 4.12032 25.4965C5.35421 26.6995 6.68063 27.8408 8.1613 28.7354C8.40808 28.8896 8.62395 29.013 8.87073 29.1364C8.62395 29.2907 8.40811 29.4449 8.19218 29.5992C7.97625 29.7534 7.76025 29.9076 7.54432 30.0619C5.5084 31.851 3.75009 34.0411 2.5162 36.4472C2.42366 36.6323 2.33116 36.8174 2.26946 36.9717C3.04064 35.892 3.90438 34.9357 4.98404 34.072C6.18708 33.1157 7.51351 32.3446 8.93248 31.7893C10.4748 31.2032 12.264 30.4629 13.9297 30.4629C14.1148 30.4629 14.1765 30.7097 14.0223 30.8022C12.8809 31.5425 11.6779 32.0978 10.6599 32.9923C10.2898 33.3008 9.91954 33.6093 9.54937 33.9486C10.7833 33.2391 12.1405 32.7764 13.4978 32.4988C15.3795 32.0978 17.6931 31.3574 19.5131 32.3137C19.6056 32.3754 19.6364 32.4679 19.5747 32.5605C19.0503 33.6093 17.9091 34.2571 17.0453 35.0283C16.0891 35.892 15.1328 36.7248 14.1457 37.5577C15.8423 36.7248 17.3538 35.5527 19.0195 34.6581C19.1429 34.5964 19.328 34.689 19.2663 34.8432C18.2175 37.5578 16.0582 39.4394 14.3308 41.6913C16.1816 40.5499 17.7857 39.0076 19.1738 37.3726C19.2663 37.2493 19.4822 37.3727 19.4822 37.4961C19.2971 39.6245 18.1867 41.537 16.8294 43.172C15.5646 44.6835 14.0839 46.1024 12.3565 47.0587C11.4311 47.5522 10.3823 48.0458 9.24098 48.3851C10.0122 48.416 10.7833 48.3851 11.5853 48.2617C13.1894 47.9841 14.7317 47.1204 16.1199 46.3184C17.6314 45.4547 19.0504 44.4675 20.3151 43.2645C20.5311 43.0486 20.747 42.8326 20.9629 42.6167C21.0246 42.8943 21.1171 43.2028 21.2096 43.4804C21.734 45.1462 22.5053 46.6886 23.3999 48.2001C24.2019 49.5882 25.1581 51.0997 26.4228 52.1176C27.3483 52.858 28.3046 53.3824 29.3534 53.8142C28.0886 52.8271 26.9164 51.6858 25.9601 50.3902C24.572 48.5085 23.7392 46.3184 23.369 44.0357C23.0605 42.2157 22.6595 39.8713 23.7084 38.2055C23.8009 38.0821 23.9859 38.113 24.0476 38.2364C24.8497 40.6425 25.0965 43.2336 26.3921 45.4238C25.8676 43.6963 25.3124 41.9381 25.189 40.1489C25.0964 38.6374 24.9422 36.8174 25.9294 35.5218C25.9911 35.4293 26.1453 35.491 26.207 35.5527C27.1015 36.7557 27.41 38.2672 28.2429 39.4703C28.7365 40.2106 29.3225 40.8893 29.8161 41.5988C29.4459 40.4574 29.0449 39.3161 28.5513 38.2672C28.0577 37.2493 27.3483 36.2005 27.4408 35.0591C27.4408 34.9974 27.4717 34.9049 27.5643 34.874C29.1992 34.5964 30.7723 36.1696 31.852 37.1876C33.1476 38.4215 34.1655 39.7171 35.0909 41.1977C34.5357 39.4394 33.8262 37.712 32.6232 36.2313C32.4998 36.0771 32.654 35.8303 32.8391 35.9537C35.6771 37.7428 38.0523 40.5499 39.1936 43.7272C39.7489 45.3004 39.8414 46.8736 39.7798 48.4469C39.9031 47.9841 39.9957 47.5831 40.0882 47.2129C40.0882 46.8736 40.1499 46.5343 40.1499 46.1641C40.2425 43.4804 39.7797 40.7042 38.8543 38.1438C38.7309 37.8971 38.6384 37.6503 38.515 37.4035C38.3916 37.1567 38.2682 36.8791 38.114 36.6323C38.8852 36.6323 39.6563 36.6015 40.4275 36.4781C42.155 36.2005 43.7899 35.7069 45.4248 35.0591C46.9054 34.473 48.5403 33.7944 49.7434 32.6839C51.1315 31.4192 52.0261 29.9693 52.7356 28.3652C51.1315 30.5246 48.6329 31.9436 45.9492 32.7764L46.0417 32.7147Z" fill="#AEC7E6"/>
</g>
<path d="M28.1821 31.0144C27.9353 30.9219 27.6577 30.7985 27.4109 30.706C28.5522 30.706 29.6936 30.3666 30.8041 29.8114C32.5933 28.886 34.4749 26.7575 34.7526 24.7216C34.7526 24.5057 34.4133 24.6908 34.4133 24.8142C34.0431 26.8192 32.1305 28.67 30.3722 29.5646C29.3851 30.0582 28.1821 30.2741 27.0716 30.2433C26.6089 30.2433 26.0536 30.0273 25.6835 29.8731C26.7323 29.1636 27.8427 27.5287 28.1512 27.0043C29.8786 24.228 30.4647 21.3284 31.2359 18.182C31.2668 18.0277 30.9892 18.182 30.9583 18.2745C30.3722 20.4955 29.8479 22.7165 28.8916 24.845C28.4597 25.8012 27.8736 26.6958 27.2875 27.5596C27.1024 27.8372 26.1153 29.1327 25.3133 29.5029C25.9611 28.8243 26.4238 28.0223 26.7015 27.0352C26.7632 26.8501 26.3929 26.9734 26.3312 27.0968C26.1461 27.6521 25.8685 28.1765 25.56 28.7009C25.3441 29.0402 25.0665 29.3178 24.7889 29.5646C24.8505 29.4104 24.8198 29.287 24.573 29.3487C24.4496 29.3487 24.357 29.4412 24.2953 29.5338C24.3878 29.4412 24.4804 29.3487 24.5112 29.2253C24.5421 29.2253 24.6038 29.1636 24.6038 29.1328C25.1282 28.1765 25.2516 27.1277 25.4675 26.0789C25.6834 24.845 25.8377 23.6419 25.776 22.3772C25.6218 19.8169 25.2208 17.164 23.8635 14.943C23.8018 14.8196 23.555 15.0047 23.6167 15.1281C25.5293 18.4905 25.7143 23.2101 24.7889 27.1277C24.8505 26.3565 24.8814 25.6162 24.7889 24.8142C24.6038 22.624 23.6475 20.4338 22.3211 18.7064C22.2286 18.583 21.9818 18.7989 22.0435 18.8915C23.0615 20.4338 23.6784 22.1613 24.0486 23.9504C24.2336 24.9067 24.3262 25.9246 24.2336 26.8809C24.1719 27.5596 24.1719 28.5466 23.956 29.2253C22.1052 26.7575 20.5011 23.6111 20.2543 20.588C20.2543 20.4647 19.9767 20.5881 19.9767 20.7115C19.9767 22.3772 20.4085 24.0429 21.118 25.5545C21.7041 26.8192 22.352 28.2074 23.1848 29.3487C21.4265 28.6701 19.9459 27.5595 18.4961 26.1406C16.9229 24.629 15.6273 22.9324 15.0103 20.8348C14.9795 20.7114 14.7019 20.8348 14.7327 20.9891C15.7815 25.2768 19.6683 28.9785 23.8944 30.2124C23.8944 30.2124 23.8943 30.2124 23.9251 30.2433C22.1977 31.2304 19.4832 30.6443 17.694 30.2433C15.8123 29.8422 13.1903 28.7009 11.9564 27.1585C11.8638 27.0351 11.5554 27.2511 11.648 27.3745C13.0361 29.1328 15.6272 30.305 17.7557 30.7985C19.3289 31.1378 21.4574 31.5388 23.154 31.0144C23.1231 31.0453 23.0923 31.0761 23.0923 31.0761C22.4753 31.5697 21.6425 31.8165 20.9022 32.0016C19.4832 32.3717 17.5707 32.7419 16.1825 32.0941C16.0591 32.0324 15.8123 32.2484 15.9357 32.3409C17.4781 33.1738 19.6065 32.711 21.2106 32.2792C22.2594 32.0016 23.4316 31.4155 24.2028 30.5517C24.0794 32.4643 22.8455 34.8087 21.3649 35.8575C21.1489 36.0117 21.3031 36.1968 21.5191 36.0734C22.5062 35.3947 23.3391 34.2843 23.8635 33.2046C24.1103 32.6802 24.7272 31.508 24.8197 30.5826C25.9302 32.6185 25.8994 34.6544 25.1591 36.9371C25.0357 37.1839 25.5292 37.2147 25.6835 36.9063C26.7014 34.9321 26.5781 32.6493 25.5293 30.7677C25.992 30.891 26.4855 31.0144 26.9482 31.1995C28.3055 31.7239 29.4159 32.2483 30.4647 33.328C30.619 33.4822 30.9892 33.1738 30.8658 33.0195C30.0329 32.0941 29.2309 31.508 28.0895 31.0453L28.1821 31.0144Z" fill="white"/>
</svg>
