<svg width="18" height="14" viewBox="0 0 18 14" fill="none" xmlns="http://www.w3.org/2000/svg">
<path d="M0.110423 10.8604C0.26466 11.0455 0.449744 11.2306 0.665675 11.4157C1.5294 12.1252 2.5782 12.557 3.62701 12.8655C5.72462 13.4516 7.8531 13.575 9.95071 12.8655C11.0612 12.4953 12.0792 12.0018 13.0663 11.3848C13.9608 10.8296 14.9788 10.2126 15.6575 9.3489C16.7988 7.92993 17.1998 6.29502 17.5083 4.56758C17.1073 4.47504 16.6137 4.47503 16.2436 4.44419C15.7192 4.44419 15.2256 4.35165 14.732 4.25911C15.1639 3.82725 15.5341 3.36454 15.9042 2.87098C16.151 2.50081 16.6446 2.09979 16.7988 1.63708C15.6883 1.08183 13.5598 0.526581 12.4185 0.248955C12.2025 0.248955 11.9558 0.218113 11.7399 0.218113C9.95072 0.156419 8.09987 0.495741 6.40327 1.11269C6.24903 1.17438 6.06394 1.26692 5.9097 1.32862C4.98428 1.79133 4.08973 2.34657 3.25686 2.96352C2.48568 3.67301 1.80703 4.53673 1.25178 5.4313C0.295515 7.00451 -0.35229 8.8245 0.202961 10.5828C0.202961 10.6445 0.202978 10.7062 0.172131 10.7679L0.110423 10.8604Z" fill="#AEC7E6"/>
</svg>
