<svg width="23" height="22" viewBox="0 0 23 22" fill="none" xmlns="http://www.w3.org/2000/svg">
<path d="M0.758795 1.81087C0.604559 2.15019 0.450307 2.4895 0.357765 2.85966C-0.0740964 4.40203 -0.0740954 6.03694 0.141835 7.61015C0.573697 10.7257 1.62252 13.6254 3.72013 15.9698C4.83063 17.2345 6.09537 18.2833 7.45265 19.2396C8.71738 20.1342 10.1055 21.0904 11.617 21.4914C14.1465 22.1701 16.5217 21.769 18.9895 21.183C18.8661 20.5969 18.6194 19.9491 18.4034 19.4247C18.1258 18.746 17.9407 18.0365 17.7556 17.327C18.5577 17.6664 19.3905 17.8823 20.2543 18.0674C20.8712 18.1908 21.7041 18.6226 22.3827 18.5301C22.4444 16.7409 21.9817 13.6254 21.6732 11.9596C21.5807 11.6511 21.4573 11.3118 21.3339 11.0342C20.3777 8.62811 18.8661 6.37625 17.077 4.49457C16.8919 4.30948 16.7068 4.15525 16.5218 3.97017C15.3804 2.98305 14.1465 2.11934 12.8509 1.37901C11.4628 0.762062 9.95127 0.361043 8.43976 0.145112C5.81774 -0.194208 3.0415 -0.0399647 1.00558 1.71833C0.913037 1.71833 0.820483 1.74917 0.727941 1.78001L0.758795 1.81087Z" fill="#AEC7E6"/>
</svg>
