<svg width="19" height="29" viewBox="0 0 19 29" fill="none" xmlns="http://www.w3.org/2000/svg">
<path d="M7.08631 28.9104C7.45648 28.8795 7.85748 28.8178 8.22764 28.6944C9.8317 28.2317 11.2815 27.3371 12.5462 26.2575C15.0449 24.1599 17.0191 21.6304 17.9754 18.4531C18.4689 16.7874 18.7157 15.0599 18.8082 13.3325C18.9008 11.7284 18.9933 9.97013 18.4997 8.42777C17.6977 5.80575 16.0319 3.92403 14.1503 2.07319C13.6876 2.50506 13.2866 3.09116 12.9164 3.52302C12.4537 4.13996 11.9602 4.69521 11.4049 5.25046C11.2507 4.35589 10.9731 3.49219 10.6646 2.62847C10.4487 2.01152 10.3561 1.05525 9.89342 0.5C8.25852 1.42542 5.75986 3.55389 4.46427 4.75694C4.24834 5.03456 4.03244 5.28131 3.81651 5.58978C2.21245 7.77994 1.07105 10.3403 0.39241 12.9623C0.330715 13.2399 0.299842 13.4867 0.268995 13.7335C0.0222164 15.2758 -0.0394367 16.849 0.0222578 18.4223C0.238189 19.9955 0.700905 21.5687 1.37955 23.0185C2.52089 25.548 4.18664 27.8924 6.87036 28.7252C6.93205 28.7869 6.99377 28.8795 7.08631 28.9412V28.9104Z" fill="#AEC7E6"/>
</svg>
