<svg width="86" height="83" viewBox="0 0 86 83" fill="none" xmlns="http://www.w3.org/2000/svg">
<path d="M41.3362 41.8598C41.9223 41.8906 42.5083 41.9215 43.0944 41.8598C45.6239 41.613 48.0609 40.6567 50.251 39.4228C54.6005 36.955 58.2713 33.7161 60.554 29.2124C61.7571 26.8371 62.5899 24.3385 63.2377 21.7473C63.8238 19.3721 64.4408 16.7192 64.1632 14.2823C63.6696 10.1488 61.6953 6.81725 59.3818 3.51659C58.5798 4.04099 57.7778 4.78133 57.13 5.39827C56.2663 6.2003 55.3408 6.90983 54.3846 7.55762C54.3846 6.16949 54.2303 4.78133 54.0144 3.42405C53.8602 2.43694 54.0144 0.956265 53.4592 0C50.7446 0.925418 46.3952 3.4549 44.1125 4.87387C43.7114 5.21319 43.3104 5.5525 42.9094 5.92267C39.9172 8.76062 37.4494 12.2773 35.722 16.0406C35.5678 16.4108 35.4443 16.8118 35.2901 17.182C34.5189 19.4338 33.9329 21.7782 33.6244 24.1534C33.501 26.5904 33.7786 29.0581 34.3956 31.4334C35.4135 35.5361 37.2643 39.5462 41.0585 41.5204C41.1511 41.6438 41.2437 41.7672 41.3362 41.8906V41.8598Z" fill="#AEC7E6"/>
<path d="M42.1973 44.8227C42.4132 45.378 42.66 45.9024 42.9684 46.4268C44.264 48.617 46.1457 50.4061 48.2124 51.856C52.2843 54.7556 56.788 56.699 61.847 56.8532C64.4998 56.9458 67.1218 56.6373 69.7439 56.1129C72.1191 55.6193 74.8028 55.0641 76.9004 53.7685C80.4479 51.5783 82.6072 48.3702 84.6123 44.8536C83.8102 44.3601 82.7922 43.959 81.9593 43.6197C80.8797 43.1878 79.8309 42.6326 78.8437 42.0465C80.1085 41.4913 81.2807 40.7509 82.422 39.9489C83.2549 39.3937 84.6431 38.8692 85.2909 38.0055C83.2858 35.9388 79.1831 33.1008 76.9004 31.6201C76.4069 31.4042 75.9441 31.1883 75.4197 31.0032C71.5947 29.4917 67.3378 28.7513 63.2042 28.7822C62.8032 28.813 62.4022 28.8439 62.0012 28.8747C59.6259 29.1215 57.2816 29.6151 54.9989 30.3245C52.747 31.25 50.6494 32.5456 48.7369 34.1188C45.4671 36.8025 42.6291 40.1648 42.444 44.4526C42.3515 44.576 42.2897 44.7302 42.228 44.8536L42.1973 44.8227Z" fill="#AEC7E6"/>
<path d="M38.0058 41.0276C37.4814 41.2744 36.9261 41.4903 36.3709 41.6754C33.9031 42.354 31.3119 42.354 28.8133 41.9838C23.8777 41.2435 19.2815 39.5469 15.5181 36.1846C13.5439 34.3954 11.8473 32.3595 10.3358 30.2002C8.94765 28.1951 7.4053 25.9433 6.78836 23.568C5.73955 19.527 6.38735 15.7328 7.37446 11.8152C8.29988 12.0003 9.31779 12.4322 10.1198 12.7406C11.2303 13.1725 12.3409 13.5118 13.4514 13.7586C12.927 12.463 12.5877 11.1366 12.31 9.74845C12.0941 8.76134 11.4463 7.43493 11.6005 6.35528C14.4693 6.26274 19.4357 7.03389 22.0886 7.52744C22.5821 7.68168 23.0757 7.89763 23.5693 8.08272C27.3943 9.62508 30.9417 12.0312 33.9339 14.9308C34.2115 15.2393 34.4892 15.5477 34.736 15.8562C36.2783 17.6762 37.6356 19.6504 38.8078 21.748C39.795 23.969 40.4119 26.3752 40.7204 28.8121C41.2448 33.0073 40.9671 37.3876 38.1292 40.6266C38.0983 40.7808 38.0675 40.9042 38.0058 41.0585V41.0276Z" fill="#AEC7E6"/>
<path d="M40.4408 40.9362C40.5334 41.5223 40.5951 42.1084 40.6259 42.6945C40.6259 45.2548 39.9472 47.7534 38.9292 50.067C36.9242 54.6324 34.0554 58.6425 29.7985 61.357C27.5775 62.8069 25.1405 63.8865 22.6419 64.7811C20.3592 65.614 17.7681 66.4777 15.3003 66.4469C11.1359 66.3852 7.61933 64.7503 4.10274 62.776C4.5346 61.9432 5.21324 61.0794 5.73764 60.3699C6.44713 59.4445 7.06403 58.4574 7.61928 57.4086C6.23115 57.5628 4.84301 57.532 3.45488 57.4395C2.43692 57.3778 0.987113 57.6554 0 57.2544C0.647793 54.4473 2.71462 49.8819 3.91766 47.4758C4.22614 47.0439 4.53457 46.612 4.84304 46.1802C7.34167 42.9104 10.6115 40.1033 14.1898 38.0057C14.5599 37.8206 14.9301 37.6355 15.3003 37.4813C17.4905 36.4633 19.7423 35.6921 22.0559 35.106C24.462 34.7359 26.9606 34.7667 29.3667 35.106C33.5619 35.723 37.7263 37.142 40.0707 40.7203C40.1941 40.7819 40.3174 40.8745 40.4716 40.9362H40.4408Z" fill="#AEC7E6"/>
<path d="M39.8553 40.6562C39.3309 40.9339 38.8682 41.2732 38.4055 41.6433C36.4313 43.2782 34.9815 45.4067 33.871 47.6894C31.65 52.1623 30.4469 56.9127 31.0947 61.9408C31.434 64.5937 32.1435 67.1232 33.0689 69.6218C33.9326 71.9045 34.8889 74.434 36.5238 76.3157C39.2383 79.4621 42.755 81.097 46.5184 82.516C46.8885 81.6522 47.1044 80.5726 47.3203 79.7089C47.5979 78.5676 47.9682 77.4571 48.3692 76.3774C49.1404 77.5496 50.0349 78.5675 51.022 79.5855C51.7007 80.3258 52.441 81.6214 53.3972 82.115C55.1247 79.8014 57.2841 75.2977 58.3946 72.8299C58.5488 72.3055 58.6721 71.812 58.7955 71.2876C59.6901 67.2774 59.7519 62.9588 59.0732 58.887C58.9807 58.486 58.8881 58.085 58.7647 57.7148C58.1478 55.4012 57.284 53.1494 56.2352 51.0209C54.9705 48.9542 53.3356 47.0725 51.5156 45.4376C48.3692 42.6305 44.6058 40.3478 40.3489 40.8413C40.2255 40.7796 40.0712 40.7488 39.917 40.6871L39.8553 40.6562Z" fill="#AEC7E6"/>
<g style="mix-blend-mode:multiply">
<path d="M71.1652 52.8126C67.556 53.2445 63.8544 53.2445 60.2761 52.5967C57.87 52.1648 54.9395 51.6713 53.2429 49.7279C53.1195 49.5737 53.2429 49.3269 53.428 49.3269C57.0063 48.8333 60.5537 48.3398 64.0395 47.476C62.1578 47.476 60.2761 47.476 58.4252 47.3835C55.5873 47.2293 52.009 47.2293 49.5412 45.6869C46.765 43.9595 50.4975 41.2758 51.9473 40.2887C55.9883 37.5433 60.6154 36.0626 65.4584 35.7541C60.9547 35.1989 56.266 36.0934 52.225 38.0677C51.9782 38.191 51.7623 37.8209 51.9165 37.6358C55.0012 33.9033 60.2144 31.8056 64.8415 30.8494C67.5561 30.2941 70.3324 30.2016 73.0469 30.8494C74.9594 31.3121 76.7794 31.9907 78.5685 32.7619C77.9516 32.3609 77.3964 31.9599 76.9028 31.6514C76.4093 31.4355 75.9465 31.2196 75.4221 31.0345C71.5971 29.523 67.3402 28.7826 63.2066 28.8135C62.8056 28.8443 62.4045 28.8752 62.0035 28.906C61.5408 28.9677 61.109 29.0294 60.6462 29.0911C61.8184 26.7775 62.6205 24.3098 63.2374 21.7803C63.8235 19.4051 64.4405 16.7522 64.1629 14.3152C64.1012 13.6983 63.9778 13.0813 63.8544 12.4952C63.5151 15.3949 63.1141 18.202 62.2504 21.0399C60.9548 25.266 58.9188 30.7877 54.6619 32.8545C54.5076 32.9162 54.2917 32.7927 54.2917 32.6385C54.2917 30.6643 55.3097 28.9368 55.9266 27.086C56.5127 25.2968 56.9446 23.1684 56.9754 21.1633C55.4639 25.6979 53.7673 30.0782 51.0836 34.0883C49.4795 36.4944 46.9501 40.2578 43.6186 40.1961C39.9786 40.1035 39.5468 34.6744 39.3925 32.0833C39.1457 27.9189 40.0403 24.0321 41.305 20.1762C40.503 21.5644 39.7318 22.9833 39.2382 24.5257C38.4054 27.086 38.066 29.7389 37.3874 32.3301C37.3257 32.5768 36.9864 32.6385 36.863 32.3609C35.5366 29.3379 35.9993 25.667 36.3078 22.4589C36.678 18.5721 37.4491 14.5312 39.5158 11.1688C40.9348 8.88613 42.8473 6.38748 45.0992 4.35156C44.7599 4.56749 44.4206 4.78341 44.1122 4.9685C43.7111 5.30782 43.3101 5.64717 42.9091 6.01734C39.9169 8.85529 37.4491 12.3719 35.7217 16.1352C35.6292 16.382 35.5366 16.6288 35.4441 16.8755C35.1973 16.5671 34.9505 16.2277 34.7037 15.9501C34.4569 15.6416 34.1793 15.3332 33.9017 15.0247C31.8349 13.0505 29.4905 11.2922 26.9919 9.87325C28.1949 11.138 29.3672 12.4644 30.2309 14.0068C32.4519 17.9861 33.7166 22.9833 32.5444 27.487C32.1126 29.2145 31.403 31.0961 29.799 32.0524C28.4417 32.8544 26.9302 32.145 25.8505 31.2504C24.8017 30.3867 23.8146 29.3996 22.8583 28.3816C22.92 28.505 22.9817 28.6592 23.0434 28.7826C23.5061 29.7389 25.2953 32.7619 23.8764 33.6256C23.0126 34.15 21.3468 33.1012 20.6682 32.7002C19.1567 31.8056 17.8611 30.6951 16.6581 29.4304C15.0849 27.7338 13.7892 25.7596 12.7404 23.6619C13.1106 24.8958 13.5733 26.0989 14.1903 27.2094C14.9614 28.5667 15.9794 29.8931 16.1953 31.4972C16.1953 31.6823 16.0412 31.8056 15.8869 31.7748C14.1903 31.6822 12.7713 30.3558 11.7225 29.1219C10.3652 27.5179 9.22385 25.7287 8.20589 23.9087C7.15708 21.9653 6.35504 19.9911 6.26249 17.7393C6.26249 17.6467 6.26249 17.5542 6.26249 17.4925C6.07741 19.5284 6.17 21.5644 6.6944 23.6928C7.31135 26.0681 8.85369 28.3199 10.2418 30.325C11.7533 32.5151 13.4499 34.551 15.4241 36.3093C15.7326 36.587 16.0411 36.8337 16.3804 37.1113C15.9794 37.2656 15.6092 37.4507 15.2391 37.6049C14.8689 37.7592 14.4988 37.9442 14.1286 38.1293C10.5503 40.2269 7.31136 43.0649 4.78188 46.3039C4.5968 46.5506 4.41165 46.7974 4.22656 47.0442C5.64554 45.656 7.24965 44.4222 9.10048 43.4659C11.1673 42.3863 13.3883 41.5842 15.671 41.1524C18.1387 40.6897 21.0384 40.1035 23.537 40.5354C23.8146 40.5971 23.8147 40.9365 23.5987 41.0598C21.6862 41.8619 19.7119 42.3554 17.9228 43.3734C17.275 43.7436 16.6272 44.1137 16.0102 44.5147C18.0462 43.8052 20.2363 43.4968 22.3648 43.4042C25.3261 43.3117 28.997 42.8489 31.4648 44.8232C31.5881 44.9157 31.5882 45.07 31.4956 45.1934C30.4468 46.6123 28.5034 47.291 27.0227 48.1856C25.357 49.2035 23.6603 50.2215 21.9637 51.2086C24.74 50.4374 27.3312 49.0493 30.1075 48.1856C30.2926 48.1239 30.5701 48.3398 30.4467 48.5557C28.1332 52.3499 24.339 54.5709 21.1309 57.5014C24.2156 56.2675 27.0536 54.4475 29.6139 52.3499C29.799 52.1957 30.0766 52.3808 30.0149 52.5967C29.1512 55.7431 26.9302 58.3343 24.4625 60.3702C22.1489 62.2827 19.5269 64.0102 16.6581 64.9665C15.1466 65.4909 13.3882 65.8919 11.5991 66.1078C12.7405 66.3854 13.9127 66.5397 15.1774 66.5397C17.6452 66.5397 20.2364 65.6759 22.5191 64.8739C25.0177 63.9793 27.4237 62.8997 29.6756 61.4498C30.0766 61.2031 30.4468 60.9255 30.817 60.6478C30.817 61.1105 30.8786 61.5732 30.9403 62.0359C31.2796 64.6888 31.9892 67.2183 32.9146 69.7169C33.7783 71.9996 34.7346 74.5291 36.3695 76.4108C37.5417 77.7681 38.8681 78.8477 40.287 79.7423C38.6521 77.8915 37.2023 75.8864 36.1535 73.6654C34.6111 70.4573 33.9634 66.9407 34.0559 63.3932C34.1176 60.5553 34.1485 56.977 36.2153 54.756C36.3695 54.5709 36.6471 54.6635 36.678 54.9102C37.2332 58.7353 36.863 62.7146 38.1894 66.3546C37.881 63.6092 37.5108 60.8329 37.8502 58.0875C38.1278 55.774 38.4054 52.9977 40.2562 51.3319C40.4105 51.2086 40.5956 51.332 40.6573 51.4554C41.6752 53.4913 41.706 55.8356 42.6315 57.9333C43.1867 59.1671 43.8654 60.3702 44.4206 61.6041C44.1739 59.7841 43.9271 57.995 43.4335 56.2367C43.0016 54.6018 42.1996 52.8127 42.6623 51.0852C42.6623 50.9618 42.7857 50.8693 42.9091 50.8693C45.4077 50.9001 47.3819 53.7381 48.7084 55.5581C50.3124 57.7482 51.4846 60 52.4409 62.4678C52.0707 59.6607 51.5463 56.8845 50.1273 54.355C50.0039 54.1082 50.2816 53.7689 50.5283 54.0157C54.2917 57.5014 57.068 62.3753 57.9009 67.4651C58.3019 69.9946 58.0242 72.3698 57.4381 74.7142C57.7466 74.0664 58.0242 73.4803 58.2402 72.9559C58.3944 72.4315 58.5178 71.938 58.6412 71.4135C59.5358 67.4034 59.5974 63.0848 58.9188 59.0129C58.8263 58.6119 58.7337 58.2109 58.6103 57.8407C58.4869 57.4089 58.3636 57.0079 58.2402 56.576C59.3815 56.7919 60.5538 56.9462 61.7568 56.977C64.4097 57.0695 67.0317 56.7611 69.6537 56.2367C72.0289 55.7431 74.7127 55.1879 76.8103 53.8923C79.2164 52.3808 81.0054 50.4374 82.517 48.2164C79.4939 51.0235 75.3604 52.4425 71.0726 52.936L71.1652 52.8126Z" fill="#AEC7E6"/>
</g>
<path d="M44.8515 45.2827C44.4814 45.0668 44.142 44.82 43.7719 44.6041C45.4685 44.9126 47.2885 44.7583 49.1394 44.203C52.1007 43.3085 55.4938 40.6248 56.4809 37.6326C56.5735 37.3241 55.9874 37.4783 55.9257 37.6943C54.8152 40.5939 51.4221 42.8766 48.5533 43.7404C46.9183 44.2339 45.0675 44.2031 43.4017 43.8329C42.7231 43.6787 41.9519 43.216 41.3967 42.8766C43.1858 42.1055 45.2834 39.9462 45.9003 39.2675C49.2627 35.5658 50.9902 31.3706 52.9644 26.8669C53.0569 26.651 52.5942 26.7435 52.5325 26.9286C51.021 30.1059 49.6021 33.314 47.597 36.2136C46.7024 37.5401 45.5302 38.7122 44.4505 39.8536C44.1112 40.2237 42.2603 41.8895 40.9648 42.2288C42.137 41.3651 43.0316 40.3163 43.7102 38.8973C43.8336 38.6197 43.2475 38.7122 43.155 38.8973C42.7231 39.6993 42.1678 40.4089 41.5509 41.0875C41.1498 41.5502 40.6563 41.8586 40.1628 42.1671C40.1628 42.1671 40.1628 42.1671 40.1628 42.1363C40.1628 42.1363 40.1628 42.1363 40.1628 42.1055C40.2862 41.9204 40.2861 41.7044 39.916 41.7044C39.7309 41.7044 39.5458 41.7661 39.4224 41.8895H39.4533C39.6384 41.7661 39.7618 41.6428 39.8852 41.4885C39.9469 41.4885 40.0394 41.4268 40.0703 41.3651C41.1499 40.0695 41.6126 38.558 42.1987 36.9848C42.8774 35.2265 43.4326 33.4065 43.6793 31.5248C44.1729 27.6072 44.2963 23.5662 42.8774 19.8337C42.8157 19.6486 42.3838 19.8337 42.4455 20.0496C44.3888 25.6638 43.34 32.7587 40.8722 38.3729C41.1807 37.2316 41.4275 36.1211 41.5509 34.8872C41.8902 31.5557 41.0574 27.9774 39.5767 25.016C39.4841 24.831 39.0215 25.0161 39.114 25.232C40.2245 27.8232 40.6563 30.5994 40.718 33.4065C40.718 34.8872 40.5637 36.4604 40.1936 37.8794C39.916 38.8973 39.6383 40.3472 39.1448 41.3343C37.0472 37.1082 35.5048 31.9567 35.9984 27.3296C35.9984 27.1137 35.5665 27.2679 35.5357 27.4221C35.1347 29.9208 35.2581 32.5428 35.9059 35.0106C36.4303 37.0773 37.0164 39.3292 37.9418 41.3034C35.474 39.761 33.5923 37.7251 31.8031 35.1957C29.8906 32.4811 28.3791 29.5814 28.0397 26.2191C28.0397 26.0032 27.5771 26.1574 27.5771 26.3425C27.9472 33.0981 32.7594 39.6994 38.7437 42.7224C38.7437 42.7224 38.7438 42.7533 38.7746 42.7841C35.9367 43.8021 32.0191 42.1363 29.4279 41.0567C26.7133 39.9462 23.1043 37.4784 21.6544 34.8255C21.531 34.6096 21.0066 34.8564 21.13 35.0723C22.7032 38.0953 26.2815 40.5939 29.3662 41.8895C31.6181 42.8458 34.7028 44.018 37.3865 43.7095C37.2939 43.7712 37.2631 43.8021 37.2631 43.8021C36.2143 44.3882 34.8879 44.5115 33.7157 44.6041C31.4947 44.7892 28.5025 44.7892 26.6208 43.4627C26.4666 43.3394 26.0039 43.617 26.189 43.7712C28.2866 45.4678 31.5872 45.3444 34.1167 45.1593C35.7516 45.0359 37.695 44.4499 39.114 43.3702C38.4045 46.239 35.875 49.3854 33.3764 50.5576C33.037 50.7118 33.1913 51.0511 33.5614 50.8969C35.2272 50.1566 36.8004 48.7068 37.88 47.2569C38.4044 46.5475 39.6384 44.9434 40.0703 43.6169C41.1808 46.9793 40.5946 50.0023 38.8363 53.2722C38.5895 53.6423 39.3299 53.7966 39.6692 53.3647C41.736 50.6501 42.1679 47.1952 41.1191 44.1105C41.7977 44.419 42.4763 44.7275 43.1241 45.1285C45.0366 46.3007 46.5481 47.4112 47.8129 49.2929C47.9979 49.5705 48.6766 49.2312 48.4915 48.9536C47.5044 47.3495 46.4865 46.2081 44.8824 45.221L44.8515 45.2827Z" fill="white"/>
</svg>
