<svg width="1114" height="201" viewBox="0 0 1114 201" fill="none" xmlns="http://www.w3.org/2000/svg">
<path opacity="0.2" d="M1159.79 141.046C1158.19 139.217 1155.52 136.531 1151.54 133.236C1151.47 133.16 1151.37 133.103 1151.29 133.007C1148.91 131.045 1146.04 128.874 1142.65 126.55C1142.42 126.36 1142.19 126.207 1141.94 126.036C1141.94 126.017 1141.92 126.017 1141.92 126.017C1124.53 113.502 1106.2 102.626 1086.89 93.3306C1032.06 67.0255 974.02 55.0253 913.957 52.2443C878.677 50.6062 843.55 52.3777 808.499 56.6063C764.266 61.8826 720.719 70.6827 677.991 83.4448C650.026 91.7877 622.461 101.693 594.592 110.397C540.415 127.293 484.924 135.731 428.366 136.626C383.047 137.331 338.071 133.064 293.591 124.264C205.163 106.836 122.164 74.2256 44.1377 28.2059C29.4315 19.5201 15.1824 10.0342 0 0.453125C1.12392 1.69124 1.71447 2.33886 2.305 2.94839C46.5379 47.8442 94.8474 87.3306 148.472 119.731C233.852 171.313 325.48 200.094 424.918 200.989C456.845 201.275 487.858 195.522 518.546 187.122C559.827 175.865 598.954 158.512 638.063 141.274C665.551 129.179 693.363 117.864 721.9 108.588C781.163 89.3496 841.721 77.959 903.956 76.6256C941.616 75.8066 978.992 78.8733 1016 86.2639C1061.7 95.3688 1105.48 110.131 1146.47 133.16C1147.56 133.769 1148.65 134.398 1149.73 135.007C1150.09 135.236 1150.46 135.465 1150.82 135.674C1156.27 139.065 1162 143.712 1162 143.712C1162 143.712 1161.39 142.76 1159.81 141.007L1159.79 141.046Z" fill="#CFDFEF"/>
</svg>
